<svg xmlns="http://www.w3.org/2000/svg" width="309.328" height="638.512" viewBox="0 0 309.328 638.512"><defs><style>.a{fill:#6a8eae;}.a,.c,.d,.e{fill-rule:evenodd;}.b{fill:#fff;}.c{fill:rgba(0,0,0,0);}.d{fill:none;stroke-linejoin:round;}.d,.e{stroke:#000;stroke-miterlimit:10;}.f{fill:#0b0907;font-size:28px;font-family:Raleway;}</style></defs><g transform="translate(-982.669 -3622)"><g transform="translate(979 3648)"><path class="a" d="M90.034,33.05h0a11.019,11.019,0,0,1,11.019-11.019H215.614A11.019,11.019,0,0,1,226.632,33.05V77.123a11.019,11.019,0,0,1-11.019,11.019H101.053A11.019,11.019,0,0,1,90.034,77.123Z"/><path class="b" d="M130.655,57.71l1.656-.141a3.814,3.814,0,0,0,.547,1.641,3.114,3.114,0,0,0,1.344,1.047,5.237,5.237,0,0,0,2.063.391,4.99,4.99,0,0,0,1.781-.3,2.46,2.46,0,0,0,1.156-.812,1.964,1.964,0,0,0,.375-1.156,1.7,1.7,0,0,0-.375-1.094,2.722,2.722,0,0,0-1.187-.8q-.547-.2-2.391-.641a12.415,12.415,0,0,1-2.562-.844,3.615,3.615,0,0,1-1.437-1.234,3.09,3.09,0,0,1-.469-1.672,3.34,3.34,0,0,1,.578-1.875,3.544,3.544,0,0,1,1.672-1.344,6.43,6.43,0,0,1,2.453-.453,6.552,6.552,0,0,1,2.609.484,3.694,3.694,0,0,1,1.75,1.406,4.012,4.012,0,0,1,.656,2.094l-1.687.125a2.708,2.708,0,0,0-.937-1.906,3.519,3.519,0,0,0-2.312-.656,3.723,3.723,0,0,0-2.344.594,1.777,1.777,0,0,0-.734,1.422,1.469,1.469,0,0,0,.531,1.172,6.936,6.936,0,0,0,2.656.969,17.77,17.77,0,0,1,2.953.844,3.929,3.929,0,0,1,1.719,1.359,3.312,3.312,0,0,1,.563,1.906,3.681,3.681,0,0,1-.609,2.016,4.076,4.076,0,0,1-1.75,1.469,6.193,6.193,0,0,1-2.578.516,7.714,7.714,0,0,1-3.047-.531,4.315,4.315,0,0,1-1.922-1.594,4.533,4.533,0,0,1-.719-2.406Zm12.834,8V52.335h1.484v1.25a3.651,3.651,0,0,1,1.188-1.094,3.288,3.288,0,0,1,1.625-.375,3.756,3.756,0,0,1,2.172.641,3.827,3.827,0,0,1,1.438,1.8,6.962,6.962,0,0,1-.047,5.219,4.014,4.014,0,0,1-3.687,2.453,3.117,3.117,0,0,1-1.469-.344,3.155,3.155,0,0,1-1.062-.875v4.7h-1.641Zm1.484-8.484a4.276,4.276,0,0,0,.75,2.766,2.336,2.336,0,0,0,1.828.891,2.38,2.38,0,0,0,1.875-.922,4.428,4.428,0,0,0,.781-2.875,4.252,4.252,0,0,0-.766-2.766,2.264,2.264,0,0,0-1.812-.922,2.374,2.374,0,0,0-1.859.984A4.386,4.386,0,0,0,144.974,57.225Zm8.844,4.781V48.647h1.641V62.007h-1.641Zm10.5-1.187a6.529,6.529,0,0,1-1.766,1.094,5.049,5.049,0,0,1-1.8.313,3.521,3.521,0,0,1-2.453-.781,2.723,2.723,0,0,1-.531-3.281,2.631,2.631,0,0,1,.844-.937,4.126,4.126,0,0,1,1.188-.547,12.076,12.076,0,0,1,1.453-.25,14.865,14.865,0,0,0,2.922-.562q.016-.344.016-.422a1.838,1.838,0,0,0-.469-1.422,2.779,2.779,0,0,0-1.875-.547,2.869,2.869,0,0,0-1.7.406,2.489,2.489,0,0,0-.812,1.422l-1.609-.219a3.906,3.906,0,0,1,.719-1.641,3.133,3.133,0,0,1,1.453-.984,6.429,6.429,0,0,1,2.188-.344,5.679,5.679,0,0,1,2.016.3,2.492,2.492,0,0,1,1.141.734,2.437,2.437,0,0,1,.516,1.109,9.749,9.749,0,0,1,.078,1.516V57.96a22.265,22.265,0,0,0,.109,2.891,4.033,4.033,0,0,0,.406,1.156h-1.7A3.222,3.222,0,0,1,164.322,60.819Zm-.141-3.672a11.371,11.371,0,0,1-2.672.625,5.91,5.91,0,0,0-1.437.328,1.518,1.518,0,0,0-.656.531,1.424,1.424,0,0,0-.219.781,1.393,1.393,0,0,0,.5,1.094,2.144,2.144,0,0,0,1.453.438,3.4,3.4,0,0,0,1.672-.406,2.565,2.565,0,0,0,1.094-1.141,3.974,3.974,0,0,0,.266-1.641v-.609Zm3.548,1.969,1.625-.25a2.263,2.263,0,0,0,.75,1.5,2.676,2.676,0,0,0,1.75.516,2.584,2.584,0,0,0,1.672-.453,1.405,1.405,0,0,0,.547-1.094,1.01,1.01,0,0,0-.484-.875,6.747,6.747,0,0,0-1.672-.547,16.6,16.6,0,0,1-2.516-.8,2.422,2.422,0,0,1-1.047-.906,2.486,2.486,0,0,1-.359-1.312,2.449,2.449,0,0,1,.3-1.187,2.567,2.567,0,0,1,.813-.922,3.177,3.177,0,0,1,1.031-.469,4.888,4.888,0,0,1,1.422-.2,5.59,5.59,0,0,1,2,.328,2.689,2.689,0,0,1,1.266.891,3.4,3.4,0,0,1,.578,1.5l-1.609.219a1.755,1.755,0,0,0-.641-1.172,2.264,2.264,0,0,0-1.469-.422,2.7,2.7,0,0,0-1.625.375,1.1,1.1,0,0,0-.469.875.982.982,0,0,0,.188.578,1.45,1.45,0,0,0,.641.438q.234.094,1.438.422a19.093,19.093,0,0,1,2.438.75,2.468,2.468,0,0,1,1.078.859,2.407,2.407,0,0,1,.391,1.406,2.716,2.716,0,0,1-.484,1.547,3.1,3.1,0,0,1-1.375,1.125,5.123,5.123,0,0,1-2.047.391,4.587,4.587,0,0,1-2.875-.781,3.619,3.619,0,0,1-1.25-2.328Zm9.984,2.891V48.647h1.641v4.8a3.645,3.645,0,0,1,2.891-1.328,3.86,3.86,0,0,1,1.859.422,2.483,2.483,0,0,1,1.141,1.172,5.391,5.391,0,0,1,.344,2.172v6.125h-1.641V55.882a2.555,2.555,0,0,0-.531-1.8,1.985,1.985,0,0,0-1.516-.562,2.569,2.569,0,0,0-1.359.391,2.171,2.171,0,0,0-.922,1.016,4.786,4.786,0,0,0-.266,1.781v5.3h-1.641Z"/><path class="a" d="M176.4,137.924h0a11.019,11.019,0,0,1,11.019-11.019H301.979A11.019,11.019,0,0,1,313,137.924V182a11.019,11.019,0,0,1-11.019,11.019H187.418A11.019,11.019,0,0,1,176.4,182Z"/><path class="b" d="M223.234,166.881V153.522h1.781V165.3h6.563v1.578h-8.344Zm9.641-4.844a4.965,4.965,0,0,1,1.484-3.969,4.5,4.5,0,0,1,3.047-1.078,4.336,4.336,0,0,1,3.266,1.313,4.949,4.949,0,0,1,1.266,3.609,6.406,6.406,0,0,1-.562,2.938,3.99,3.99,0,0,1-1.641,1.656,4.692,4.692,0,0,1-2.328.594,4.35,4.35,0,0,1-3.281-1.3A5.25,5.25,0,0,1,232.875,162.037Zm1.688,0a4.226,4.226,0,0,0,.8,2.8,2.716,2.716,0,0,0,4.078,0,4.25,4.25,0,0,0,.813-2.844,4,4,0,0,0-.812-2.719,2.716,2.716,0,0,0-4.078,0A4.1,4.1,0,0,0,234.563,162.037Zm8.985,5.641,1.594.234a1.531,1.531,0,0,0,.563,1.078,2.747,2.747,0,0,0,1.672.453,2.9,2.9,0,0,0,1.75-.453,2.219,2.219,0,0,0,.844-1.266,10.536,10.536,0,0,0,.109-2.109,3.344,3.344,0,0,1-2.672,1.266,3.66,3.66,0,0,1-3.094-1.437,5.537,5.537,0,0,1-1.094-3.453,6.462,6.462,0,0,1,.5-2.562,4.053,4.053,0,0,1,1.453-1.8,3.937,3.937,0,0,1,2.25-.641,3.462,3.462,0,0,1,2.813,1.375v-1.156h1.516v8.359a7.778,7.778,0,0,1-.469,3.2,3.33,3.33,0,0,1-1.453,1.484,5,5,0,0,1-2.453.547,4.654,4.654,0,0,1-2.8-.781A2.626,2.626,0,0,1,243.548,167.678Zm1.359-5.812a4.228,4.228,0,0,0,.75,2.781,2.512,2.512,0,0,0,3.8.016,4.082,4.082,0,0,0,.766-2.734,3.9,3.9,0,0,0-.8-2.672,2.411,2.411,0,0,0-1.891-.906,2.366,2.366,0,0,0-1.859.891A3.89,3.89,0,0,0,244.907,161.865Zm9.329-6.453v-1.891h1.641v1.891Zm0,11.469v-9.672h1.641v9.672Zm4.145,0v-9.672h1.469v1.375a3.472,3.472,0,0,1,3.078-1.594,4.068,4.068,0,0,1,1.609.313,2.462,2.462,0,0,1,1.094.828,2.933,2.933,0,0,1,.516,1.2,9.1,9.1,0,0,1,.094,1.594v5.953H264.6V160.99a4.067,4.067,0,0,0-.2-1.484,1.562,1.562,0,0,0-.672-.8,2.139,2.139,0,0,0-1.141-.3,2.658,2.658,0,0,0-1.812.672,3.28,3.28,0,0,0-.75,2.516v5.281Z"/><path class="a" d="M3.669,137.924h0a11.019,11.019,0,0,1,11.019-11.019H129.249a11.019,11.019,0,0,1,11.019,11.019V182a11.019,11.019,0,0,1-11.019,11.019H14.688A11.019,11.019,0,0,1,3.669,182Z"/><path class="b" d="M54.939,151.193l1.766.453a6.064,6.064,0,0,1-2,3.328,5.5,5.5,0,0,1-3.531,1.141,6.4,6.4,0,0,1-3.516-.875,5.666,5.666,0,0,1-2.062-2.547,9.175,9.175,0,0,1-.7-3.594,7.814,7.814,0,0,1,.8-3.625,5.4,5.4,0,0,1,2.266-2.359,6.658,6.658,0,0,1,3.25-.812,5.455,5.455,0,0,1,3.359,1.016,5.228,5.228,0,0,1,1.906,2.875l-1.734.406a4.073,4.073,0,0,0-1.359-2.109,3.512,3.512,0,0,0-2.2-.672,4.333,4.333,0,0,0-2.578.734,3.9,3.9,0,0,0-1.453,1.984,7.869,7.869,0,0,0-.422,2.563,8.055,8.055,0,0,0,.5,2.969,3.781,3.781,0,0,0,1.547,1.906,4.342,4.342,0,0,0,2.266.625,3.8,3.8,0,0,0,2.516-.859,4.371,4.371,0,0,0,1.391-2.547Zm3.723,4.688v-9.672h1.469v1.469a4.067,4.067,0,0,1,1.031-1.359,1.855,1.855,0,0,1,1.063-.328,3.2,3.2,0,0,1,1.688.531l-.562,1.516a2.357,2.357,0,0,0-1.2-.359,1.535,1.535,0,0,0-.969.328,1.827,1.827,0,0,0-.609.891,6.253,6.253,0,0,0-.281,1.922v5.063H58.662Zm12.853-3.109,1.688.2a4.215,4.215,0,0,1-1.484,2.313,5.072,5.072,0,0,1-6.141-.484,5.15,5.15,0,0,1-1.234-3.672,5.366,5.366,0,0,1,1.25-3.8,4.284,4.284,0,0,1,3.266-1.344,4.087,4.087,0,0,1,3.156,1.328,5.2,5.2,0,0,1,1.234,3.7v.438H66.031a3.774,3.774,0,0,0,.906,2.453,2.685,2.685,0,0,0,2.016.844,2.548,2.548,0,0,0,1.547-.469,3.214,3.214,0,0,0,1.016-1.516Zm-5.391-2.656h5.406a3.241,3.241,0,0,0-.625-1.828,2.5,2.5,0,0,0-2.031-.953,2.621,2.621,0,0,0-1.906.766A2.963,2.963,0,0,0,66.125,150.115Zm15.454,4.578a6.529,6.529,0,0,1-1.766,1.094,5.049,5.049,0,0,1-1.8.313,3.521,3.521,0,0,1-2.453-.781,2.723,2.723,0,0,1-.531-3.281,2.631,2.631,0,0,1,.844-.937,4.126,4.126,0,0,1,1.188-.547,12.076,12.076,0,0,1,1.453-.25,14.865,14.865,0,0,0,2.922-.562q.016-.344.016-.422a1.838,1.838,0,0,0-.469-1.422,2.779,2.779,0,0,0-1.875-.547,2.869,2.869,0,0,0-1.7.406,2.489,2.489,0,0,0-.812,1.422l-1.609-.219a3.906,3.906,0,0,1,.719-1.641,3.133,3.133,0,0,1,1.453-.984,6.429,6.429,0,0,1,2.188-.344,5.679,5.679,0,0,1,2.016.3,2.492,2.492,0,0,1,1.141.734,2.437,2.437,0,0,1,.516,1.109,9.748,9.748,0,0,1,.078,1.516v2.188a22.266,22.266,0,0,0,.109,2.891,4.033,4.033,0,0,0,.406,1.156h-1.7a3.221,3.221,0,0,1-.328-1.187Zm-.141-3.672a11.371,11.371,0,0,1-2.672.625,5.909,5.909,0,0,0-1.437.328,1.518,1.518,0,0,0-.656.531,1.424,1.424,0,0,0-.219.781,1.393,1.393,0,0,0,.5,1.094,2.144,2.144,0,0,0,1.453.438,3.4,3.4,0,0,0,1.672-.406,2.565,2.565,0,0,0,1.094-1.141,3.973,3.973,0,0,0,.266-1.641v-.609Zm7.782,3.391.234,1.453a6.225,6.225,0,0,1-1.234.141,2.858,2.858,0,0,1-1.391-.281,1.606,1.606,0,0,1-.687-.734,5.852,5.852,0,0,1-.2-1.937v-5.578h-1.2v-1.266h1.2v-2.391l1.625-.984v3.375H89.22v1.266H87.564v5.672a3.108,3.108,0,0,0,.078.891.78.78,0,0,0,.281.328,1.24,1.24,0,0,0,.578.109,5.56,5.56,0,0,0,.719-.062Zm8.23-1.641,1.688.2a4.215,4.215,0,0,1-1.484,2.313,5.072,5.072,0,0,1-6.141-.484,5.15,5.15,0,0,1-1.234-3.672,5.366,5.366,0,0,1,1.25-3.8,4.284,4.284,0,0,1,3.266-1.344,4.087,4.087,0,0,1,3.156,1.328,5.2,5.2,0,0,1,1.234,3.7v.438H91.966a3.774,3.774,0,0,0,.906,2.453,2.685,2.685,0,0,0,2.016.844,2.548,2.548,0,0,0,1.547-.469,3.214,3.214,0,0,0,1.016-1.516Zm-5.391-2.656h5.406a3.241,3.241,0,0,0-.625-1.828,2.5,2.5,0,0,0-2.031-.953,2.621,2.621,0,0,0-1.906.766A2.963,2.963,0,0,0,92.06,150.115Z"/><path class="b" d="M38.232,177.881l5.125-13.359h1.906l5.469,13.359H48.716l-1.547-4.047H41.576l-1.469,4.047H38.232Zm3.859-5.484h4.531l-1.406-3.7q-.625-1.687-.937-2.766a18.981,18.981,0,0,1-.719,2.547Zm16.162,1.938,1.609.219a4.212,4.212,0,0,1-1.359,2.609,3.927,3.927,0,0,1-2.672.938,4.142,4.142,0,0,1-3.187-1.3,5.271,5.271,0,0,1-1.2-3.719,6.783,6.783,0,0,1,.516-2.75,3.554,3.554,0,0,1,1.578-1.75,4.662,4.662,0,0,1,2.313-.594,4.01,4.01,0,0,1,2.578.8,3.655,3.655,0,0,1,1.281,2.266l-1.594.234a2.636,2.636,0,0,0-.812-1.453,2.054,2.054,0,0,0-1.391-.5,2.558,2.558,0,0,0-2.016.891,4.2,4.2,0,0,0-.781,2.813,4.383,4.383,0,0,0,.75,2.844,2.451,2.451,0,0,0,1.953.875,2.276,2.276,0,0,0,1.609-.594A2.918,2.918,0,0,0,58.254,174.334Zm9.328,0,1.609.219a4.212,4.212,0,0,1-1.359,2.609,3.927,3.927,0,0,1-2.672.938,4.142,4.142,0,0,1-3.187-1.3,5.271,5.271,0,0,1-1.2-3.719,6.783,6.783,0,0,1,.516-2.75,3.554,3.554,0,0,1,1.578-1.75,4.662,4.662,0,0,1,2.313-.594,4.01,4.01,0,0,1,2.578.8,3.655,3.655,0,0,1,1.281,2.266l-1.594.234a2.636,2.636,0,0,0-.812-1.453,2.054,2.054,0,0,0-1.391-.5,2.558,2.558,0,0,0-2.016.891,4.2,4.2,0,0,0-.781,2.813,4.383,4.383,0,0,0,.75,2.844,2.451,2.451,0,0,0,1.953.875,2.276,2.276,0,0,0,1.609-.594A2.918,2.918,0,0,0,67.582,174.334Zm2.406-1.3a4.965,4.965,0,0,1,1.484-3.969,4.5,4.5,0,0,1,3.047-1.078,4.336,4.336,0,0,1,3.266,1.313,4.949,4.949,0,0,1,1.266,3.609,6.406,6.406,0,0,1-.562,2.938,3.99,3.99,0,0,1-1.641,1.656,4.692,4.692,0,0,1-2.328.594,4.35,4.35,0,0,1-3.281-1.3,5.25,5.25,0,0,1-1.25-3.766Zm1.688,0a4.226,4.226,0,0,0,.8,2.8,2.716,2.716,0,0,0,4.078,0,4.25,4.25,0,0,0,.813-2.844,4,4,0,0,0-.812-2.719,2.716,2.716,0,0,0-4.078,0A4.1,4.1,0,0,0,71.676,173.037ZM87.3,177.881v-1.422a3.527,3.527,0,0,1-3.062,1.641,3.971,3.971,0,0,1-1.609-.328,2.622,2.622,0,0,1-1.094-.828,3.07,3.07,0,0,1-.5-1.219,7.522,7.522,0,0,1-.109-1.531v-5.984h1.641v5.359a8.865,8.865,0,0,0,.109,1.734,1.743,1.743,0,0,0,.656,1.016,2,2,0,0,0,1.234.375,2.676,2.676,0,0,0,1.375-.375,2.145,2.145,0,0,0,.922-1.031,5.246,5.246,0,0,0,.266-1.891v-5.187H88.77v9.672H87.3Zm4.048,0v-9.672h1.469v1.375A3.472,3.472,0,0,1,95.9,167.99a4.068,4.068,0,0,1,1.609.313,2.462,2.462,0,0,1,1.094.828,2.933,2.933,0,0,1,.516,1.2,9.1,9.1,0,0,1,.094,1.594v5.953H97.568V171.99a4.067,4.067,0,0,0-.2-1.484,1.562,1.562,0,0,0-.672-.8,2.139,2.139,0,0,0-1.141-.3,2.658,2.658,0,0,0-1.812.672,3.28,3.28,0,0,0-.75,2.516v5.281H91.349Zm13.954-1.469.234,1.453a6.225,6.225,0,0,1-1.234.141,2.858,2.858,0,0,1-1.391-.281,1.606,1.606,0,0,1-.687-.734,5.852,5.852,0,0,1-.2-1.937v-5.578h-1.2v-1.266h1.2v-2.391l1.625-.984v3.375H105.3v1.266h-1.656v5.672a3.108,3.108,0,0,0,.078.891.78.78,0,0,0,.281.328,1.24,1.24,0,0,0,.578.109,5.56,5.56,0,0,0,.719-.062Z"/><path class="a" d="M3.669,242.8h0a11.019,11.019,0,0,1,11.019-11.019H129.249A11.019,11.019,0,0,1,140.267,242.8v44.073a11.019,11.019,0,0,1-11.019,11.019H14.688A11.019,11.019,0,0,1,3.669,286.871Z"/><path class="b" d="M23.971,260.475V248.069h1.641v12.406Zm4.346,0v-8.984h1.375v1.281a3.219,3.219,0,0,1,2.859-1.484,3.633,3.633,0,0,1,1.484.3,2.176,2.176,0,0,1,1.016.766,2.906,2.906,0,0,1,.484,1.125,9.309,9.309,0,0,1,.078,1.469v5.531H34.1v-5.469a3.8,3.8,0,0,0-.187-1.375,1.459,1.459,0,0,0-.625-.75,1.973,1.973,0,0,0-1.062-.281,2.433,2.433,0,0,0-1.672.625,3.04,3.04,0,0,0-.7,2.344v4.906H28.317Zm9.637,3.438V251.491h1.391v1.172a3.4,3.4,0,0,1,1.094-1.031,3.1,3.1,0,0,1,1.516-.344,3.5,3.5,0,0,1,2.016.594,3.555,3.555,0,0,1,1.328,1.672,6.4,6.4,0,0,1-.047,4.844,3.717,3.717,0,0,1-3.406,2.281,2.86,2.86,0,0,1-2.359-1.141v4.375H37.954Zm1.375-7.875a3.9,3.9,0,0,0,.7,2.563,2.159,2.159,0,0,0,1.7.828,2.188,2.188,0,0,0,1.734-.859,4.024,4.024,0,0,0,.734-2.656,3.944,3.944,0,0,0-.719-2.578,2.116,2.116,0,0,0-1.687-.859,2.184,2.184,0,0,0-1.719.922,4.051,4.051,0,0,0-.75,2.641Zm14.153,4.438v-1.312a3.283,3.283,0,0,1-2.844,1.516,3.817,3.817,0,0,1-1.5-.3,2.487,2.487,0,0,1-1.016-.766,3.059,3.059,0,0,1-.469-1.141,7.575,7.575,0,0,1-.094-1.422v-5.563h1.516v4.984a8.907,8.907,0,0,0,.094,1.609,1.67,1.67,0,0,0,.609.938,1.9,1.9,0,0,0,1.156.344,2.514,2.514,0,0,0,1.281-.344,2,2,0,0,0,.859-.953,4.848,4.848,0,0,0,.25-1.766v-4.813h1.516v8.984Zm7.075-1.359.219,1.344a5.444,5.444,0,0,1-1.156.141,2.553,2.553,0,0,1-1.281-.266,1.5,1.5,0,0,1-.641-.687,5.467,5.467,0,0,1-.187-1.8v-5.172H56.384v-1.187h1.125v-2.219l1.516-.922v3.141h1.531v1.188H59.025v5.25a2.766,2.766,0,0,0,.078.844.632.632,0,0,0,.25.3,1.063,1.063,0,0,0,.531.109,4.839,4.839,0,0,0,.672-.062Zm6.316-9.3v-1.75h1.516v1.75Zm0,10.656v-8.984h1.516v8.984Zm3.834,0v-8.984h1.375v1.281a3.219,3.219,0,0,1,2.859-1.484,3.633,3.633,0,0,1,1.484.3,2.176,2.176,0,0,1,1.016.766,2.906,2.906,0,0,1,.484,1.125A9.309,9.309,0,0,1,78,254.944v5.531H76.487v-5.469a3.8,3.8,0,0,0-.187-1.375,1.459,1.459,0,0,0-.625-.75,1.973,1.973,0,0,0-1.062-.281,2.433,2.433,0,0,0-1.672.625,3.04,3.04,0,0,0-.7,2.344v4.906H70.706Zm15.5-3.3,1.5.2a3.824,3.824,0,0,1-1.25,2.422,3.674,3.674,0,0,1-2.484.875,3.874,3.874,0,0,1-2.969-1.2,4.87,4.87,0,0,1-1.125-3.453,6.173,6.173,0,0,1,.484-2.547,3.38,3.38,0,0,1,1.469-1.641,4.335,4.335,0,0,1,2.141-.547,3.668,3.668,0,0,1,2.391.75,3.368,3.368,0,0,1,1.2,2.094l-1.484.219a2.36,2.36,0,0,0-.75-1.344,1.891,1.891,0,0,0-1.3-.469,2.394,2.394,0,0,0-1.875.828,3.924,3.924,0,0,0-.719,2.609,4.112,4.112,0,0,0,.688,2.641,2.3,2.3,0,0,0,1.828.813,2.107,2.107,0,0,0,1.484-.547,2.741,2.741,0,0,0,.766-1.7Zm2.242-1.2a4.616,4.616,0,0,1,1.391-3.687,4.151,4.151,0,0,1,2.813-1,4.018,4.018,0,0,1,3.031,1.219,4.554,4.554,0,0,1,1.188,3.344,5.876,5.876,0,0,1-.531,2.734,3.619,3.619,0,0,1-1.516,1.547,4.4,4.4,0,0,1-2.172.547,4.064,4.064,0,0,1-3.047-1.2,4.892,4.892,0,0,1-1.156-3.5Zm1.563,0a3.855,3.855,0,0,0,.75,2.594,2.509,2.509,0,0,0,3.781,0,3.974,3.974,0,0,0,.75-2.641,3.721,3.721,0,0,0-.75-2.516,2.509,2.509,0,0,0-3.781,0A3.764,3.764,0,0,0,90.007,255.975Zm8.637,4.5v-8.984H100v1.266a3.061,3.061,0,0,1,1.125-1.062,3.158,3.158,0,0,1,1.609-.406,2.851,2.851,0,0,1,1.625.422,2.191,2.191,0,0,1,.906,1.156,3.223,3.223,0,0,1,2.781-1.578,2.7,2.7,0,0,1,2.047.75,3.129,3.129,0,0,1,.719,2.266v6.172H109.3v-5.656a3.889,3.889,0,0,0-.156-1.312,1.254,1.254,0,0,0-.531-.656,1.6,1.6,0,0,0-.906-.25,2.112,2.112,0,0,0-1.578.641,2.764,2.764,0,0,0-.625,2.016v5.219h-1.516v-5.844a2.518,2.518,0,0,0-.375-1.516,1.4,1.4,0,0,0-1.219-.516,2.189,2.189,0,0,0-1.187.344,1.967,1.967,0,0,0-.8,1,5.742,5.742,0,0,0-.234,1.875v4.656Zm20.591-2.891,1.563.188a3.784,3.784,0,0,1-1.375,2.156,4.723,4.723,0,0,1-5.7-.453,4.815,4.815,0,0,1-1.141-3.422,4.984,4.984,0,0,1,1.156-3.516,3.967,3.967,0,0,1,3.031-1.25,3.837,3.837,0,0,1,2.953,1.234,4.839,4.839,0,0,1,1.141,3.438q0,.141-.016.406h-6.7a3.547,3.547,0,0,0,.844,2.281,2.492,2.492,0,0,0,1.875.781,2.356,2.356,0,0,0,1.438-.437,2.882,2.882,0,0,0,.938-1.406Zm-5-2.469h5.016a3.161,3.161,0,0,0-.578-1.7,2.356,2.356,0,0,0-1.891-.875,2.428,2.428,0,0,0-1.766.7,2.813,2.813,0,0,0-.781,1.875Z"/><path class="b" d="M26.938,280.365a5.667,5.667,0,0,1-1.625,1.016,4.667,4.667,0,0,1-1.672.3,3.293,3.293,0,0,1-2.281-.719,2.419,2.419,0,0,1-.8-1.859,2.481,2.481,0,0,1,.3-1.2,2.586,2.586,0,0,1,.8-.875,3.749,3.749,0,0,1,1.094-.5,11.96,11.96,0,0,1,1.344-.219,13.457,13.457,0,0,0,2.719-.531q.016-.313.016-.391a1.658,1.658,0,0,0-.437-1.312,2.537,2.537,0,0,0-1.734-.516,2.724,2.724,0,0,0-1.594.375,2.346,2.346,0,0,0-.75,1.328l-1.484-.2a3.7,3.7,0,0,1,.656-1.531,2.9,2.9,0,0,1,1.344-.906,5.9,5.9,0,0,1,2.047-.328,5.228,5.228,0,0,1,1.875.281,2.152,2.152,0,0,1,1.531,1.7,8.392,8.392,0,0,1,.078,1.406v2.031a22.377,22.377,0,0,0,.094,2.688,3.2,3.2,0,0,0,.391,1.078H27.25a3.387,3.387,0,0,1-.312-1.109Zm-.125-3.406a10.836,10.836,0,0,1-2.484.578,5.778,5.778,0,0,0-1.328.313,1.38,1.38,0,0,0-.609.5,1.289,1.289,0,0,0-.2.719,1.307,1.307,0,0,0,.453,1.016A2.018,2.018,0,0,0,24,280.49a3.107,3.107,0,0,0,1.563-.391,2.456,2.456,0,0,0,1.016-1.047,3.859,3.859,0,0,0,.234-1.531Zm3.9,4.516V272.49H32.09v1.281a3.219,3.219,0,0,1,2.859-1.484,3.633,3.633,0,0,1,1.484.3,2.176,2.176,0,0,1,1.016.766,2.906,2.906,0,0,1,.484,1.125,9.31,9.31,0,0,1,.078,1.469v5.531H36.5v-5.469a3.8,3.8,0,0,0-.187-1.375,1.459,1.459,0,0,0-.625-.75,1.973,1.973,0,0,0-1.062-.281,2.433,2.433,0,0,0-1.672.625,3.04,3.04,0,0,0-.7,2.344v4.906H30.715Zm15.465,0v-1.141a2.778,2.778,0,0,1-2.516,1.344,3.522,3.522,0,0,1-1.969-.594,3.925,3.925,0,0,1-1.406-1.656,5.818,5.818,0,0,1-.484-2.437,6.51,6.51,0,0,1,.438-2.437,3.544,3.544,0,0,1,1.344-1.672,3.6,3.6,0,0,1,2.016-.594,2.934,2.934,0,0,1,1.438.344,3.118,3.118,0,0,1,1.047.891v-4.453H47.6v12.406H46.18Zm-4.812-4.484a3.944,3.944,0,0,0,.719,2.578,2.218,2.218,0,0,0,1.734.859,2.159,2.159,0,0,0,1.688-.812,3.788,3.788,0,0,0,.7-2.5,4.174,4.174,0,0,0-.719-2.7,2.174,2.174,0,0,0-1.75-.859,2.129,2.129,0,0,0-1.7.828A4.122,4.122,0,0,0,41.368,276.99Zm12.826,1.8,1.516-.234a2.11,2.11,0,0,0,.7,1.391,2.433,2.433,0,0,0,1.609.484,2.394,2.394,0,0,0,1.563-.422,1.3,1.3,0,0,0,.516-1.016.924.924,0,0,0-.453-.812,6.593,6.593,0,0,0-1.562-.516,15.8,15.8,0,0,1-2.328-.719,2.341,2.341,0,0,1-.984-.859,2.3,2.3,0,0,1-.328-1.2,2.224,2.224,0,0,1,.281-1.109,2.59,2.59,0,0,1,.75-.859,3,3,0,0,1,.969-.437,4.442,4.442,0,0,1,1.313-.187,5.075,5.075,0,0,1,1.859.313,2.41,2.41,0,0,1,1.172.828,3.069,3.069,0,0,1,.531,1.375l-1.484.2a1.663,1.663,0,0,0-.594-1.078,2.14,2.14,0,0,0-1.375-.391,2.526,2.526,0,0,0-1.5.344,1.011,1.011,0,0,0-.437.813.876.876,0,0,0,.172.531,1.3,1.3,0,0,0,.594.406q.219.094,1.344.391a18.325,18.325,0,0,1,2.25.719,2.182,2.182,0,0,1,1,.8,2.148,2.148,0,0,1,.375,1.3,2.524,2.524,0,0,1-.453,1.438,2.868,2.868,0,0,1-1.281,1.047,4.708,4.708,0,0,1-1.891.359,4.275,4.275,0,0,1-2.672-.719,3.4,3.4,0,0,1-1.172-2.172Zm9.273,6.125V272.49h1.391v1.172a3.4,3.4,0,0,1,1.094-1.031,3.1,3.1,0,0,1,1.516-.344,3.5,3.5,0,0,1,2.016.594,3.555,3.555,0,0,1,1.328,1.672,6.4,6.4,0,0,1-.047,4.844,3.717,3.717,0,0,1-3.406,2.281A2.86,2.86,0,0,1,65,280.537v4.375H63.468Zm1.375-7.875a3.9,3.9,0,0,0,.7,2.563,2.159,2.159,0,0,0,1.7.828,2.188,2.188,0,0,0,1.734-.859,4.024,4.024,0,0,0,.734-2.656A3.944,3.944,0,0,0,69,274.334a2.116,2.116,0,0,0-1.687-.859,2.184,2.184,0,0,0-1.719.922,4.051,4.051,0,0,0-.75,2.641Zm14.418,1.547,1.563.188a3.784,3.784,0,0,1-1.375,2.156,4.723,4.723,0,0,1-5.7-.453,4.815,4.815,0,0,1-1.141-3.422,4.985,4.985,0,0,1,1.156-3.516,3.967,3.967,0,0,1,3.031-1.25,3.837,3.837,0,0,1,2.953,1.234,4.839,4.839,0,0,1,1.141,3.438q0,.141-.016.406h-6.7a3.547,3.547,0,0,0,.844,2.281,2.492,2.492,0,0,0,1.875.781,2.356,2.356,0,0,0,1.438-.437,2.882,2.882,0,0,0,.938-1.406Zm-5-2.469h5.016a3.161,3.161,0,0,0-.578-1.7,2.356,2.356,0,0,0-1.891-.875,2.428,2.428,0,0,0-1.766.7,2.813,2.813,0,0,0-.781,1.875Zm8.481,5.359V272.49h1.375v1.281a3.219,3.219,0,0,1,2.859-1.484,3.633,3.633,0,0,1,1.484.3,2.176,2.176,0,0,1,1.016.766,2.906,2.906,0,0,1,.484,1.125,9.309,9.309,0,0,1,.078,1.469v5.531H88.523v-5.469a3.8,3.8,0,0,0-.187-1.375,1.459,1.459,0,0,0-.625-.75,1.973,1.973,0,0,0-1.062-.281,2.433,2.433,0,0,0-1.672.625,3.04,3.04,0,0,0-.7,2.344v4.906H82.742Zm15.465,0v-1.141a2.778,2.778,0,0,1-2.516,1.344,3.522,3.522,0,0,1-1.969-.594,3.925,3.925,0,0,1-1.406-1.656,5.818,5.818,0,0,1-.484-2.437,6.51,6.51,0,0,1,.438-2.437,3.544,3.544,0,0,1,1.344-1.672,3.6,3.6,0,0,1,2.016-.594,2.934,2.934,0,0,1,1.438.344,3.118,3.118,0,0,1,1.047.891v-4.453h1.516v12.406H98.207Zm-4.812-4.484a3.944,3.944,0,0,0,.719,2.578,2.218,2.218,0,0,0,1.734.859,2.159,2.159,0,0,0,1.688-.812,3.788,3.788,0,0,0,.7-2.5,4.174,4.174,0,0,0-.719-2.7,2.174,2.174,0,0,0-1.75-.859,2.129,2.129,0,0,0-1.7.828A4.122,4.122,0,0,0,93.395,276.99Zm8.637-6.172v-1.75h1.516v1.75Zm0,10.656V272.49h1.516v8.984Zm3.834,0V272.49h1.375v1.281a3.219,3.219,0,0,1,2.859-1.484,3.633,3.633,0,0,1,1.484.3,2.176,2.176,0,0,1,1.016.766,2.906,2.906,0,0,1,.484,1.125,9.309,9.309,0,0,1,.078,1.469v5.531h-1.516v-5.469a3.8,3.8,0,0,0-.187-1.375,1.459,1.459,0,0,0-.625-.75,1.973,1.973,0,0,0-1.062-.281,2.433,2.433,0,0,0-1.672.625,3.04,3.04,0,0,0-.7,2.344v4.906h-1.531Zm9.356.75,1.484.219a1.415,1.415,0,0,0,.516,1,2.526,2.526,0,0,0,1.547.422,2.674,2.674,0,0,0,1.625-.422,2.073,2.073,0,0,0,.781-1.187,9.089,9.089,0,0,0,.109-1.953,3.108,3.108,0,0,1-2.484,1.172,3.391,3.391,0,0,1-2.859-1.328,5.185,5.185,0,0,1-1.016-3.219,6.028,6.028,0,0,1,.453-2.359,3.773,3.773,0,0,1,1.344-1.687,3.686,3.686,0,0,1,2.094-.594,3.226,3.226,0,0,1,2.625,1.281V272.49h1.406v7.766a7.19,7.19,0,0,1-.437,2.969,3.043,3.043,0,0,1-1.359,1.375,4.583,4.583,0,0,1-2.266.516,4.37,4.37,0,0,1-2.609-.719,2.443,2.443,0,0,1-.953-2.172Zm1.266-5.406a3.891,3.891,0,0,0,.7,2.578,2.221,2.221,0,0,0,1.75.813,2.256,2.256,0,0,0,1.766-.8,3.775,3.775,0,0,0,.719-2.547,3.622,3.622,0,0,0-.734-2.469,2.263,2.263,0,0,0-1.766-.844,2.219,2.219,0,0,0-1.734.828,3.64,3.64,0,0,0-.7,2.438Z"/><path class="a" d="M3.669,347.672h0a11.019,11.019,0,0,1,11.019-11.019H129.249a11.019,11.019,0,0,1,11.019,11.019v44.073a11.019,11.019,0,0,1-11.019,11.019H14.688A11.019,11.019,0,0,1,3.669,391.745Z"/><path class="b" d="M27.961,361.364l1.547-.141a3.5,3.5,0,0,0,.5,1.531,2.879,2.879,0,0,0,1.25.969,4.894,4.894,0,0,0,1.906.359,4.763,4.763,0,0,0,1.656-.266,2.268,2.268,0,0,0,1.078-.766,1.866,1.866,0,0,0,.344-1.078,1.6,1.6,0,0,0-.344-1.016,2.425,2.425,0,0,0-1.109-.734q-.5-.187-2.2-.594a11.911,11.911,0,0,1-2.391-.781,3.4,3.4,0,0,1-1.328-1.156,2.82,2.82,0,0,1-.437-1.547,3.138,3.138,0,0,1,.531-1.75,3.3,3.3,0,0,1,1.547-1.234,6.014,6.014,0,0,1,2.3-.422,6.241,6.241,0,0,1,2.422.438,3.413,3.413,0,0,1,1.625,1.313,3.793,3.793,0,0,1,.609,1.953l-1.578.109a2.5,2.5,0,0,0-.859-1.766,3.305,3.305,0,0,0-2.156-.609,3.484,3.484,0,0,0-2.172.547,1.631,1.631,0,0,0-.687,1.313,1.43,1.43,0,0,0,.484,1.109,6.84,6.84,0,0,0,2.484.875,15.54,15.54,0,0,1,2.734.8,3.755,3.755,0,0,1,1.609,1.266,3.086,3.086,0,0,1,.516,1.766,3.315,3.315,0,0,1-.578,1.859,3.791,3.791,0,0,1-1.625,1.375,5.7,5.7,0,0,1-2.391.484,7.252,7.252,0,0,1-2.828-.484,4.083,4.083,0,0,1-1.781-1.484,4.205,4.205,0,0,1-.672-2.234Zm18.073,1.094,1.563.188a3.784,3.784,0,0,1-1.375,2.156,4.723,4.723,0,0,1-5.7-.453,4.815,4.815,0,0,1-1.141-3.422,4.985,4.985,0,0,1,1.156-3.516,3.967,3.967,0,0,1,3.031-1.25,3.837,3.837,0,0,1,2.953,1.234,4.839,4.839,0,0,1,1.141,3.438q0,.141-.016.406h-6.7a3.547,3.547,0,0,0,.844,2.281,2.492,2.492,0,0,0,1.875.781,2.356,2.356,0,0,0,1.438-.437,2.882,2.882,0,0,0,.938-1.406Zm-5-2.469H46.05a3.161,3.161,0,0,0-.578-1.7,2.356,2.356,0,0,0-1.891-.875,2.428,2.428,0,0,0-1.766.7,2.813,2.813,0,0,0-.781,1.875Zm11.809,4,.219,1.344a5.444,5.444,0,0,1-1.156.141,2.553,2.553,0,0,1-1.281-.266,1.5,1.5,0,0,1-.641-.687,5.467,5.467,0,0,1-.187-1.8v-5.172H48.672v-1.187H49.8v-2.219l1.516-.922v3.141h1.531v1.188H51.312v5.25a2.766,2.766,0,0,0,.078.844.632.632,0,0,0,.25.3,1.063,1.063,0,0,0,.531.109,4.839,4.839,0,0,0,.672-.062Zm5.691-1.328,1.516-.234a2.11,2.11,0,0,0,.7,1.391,2.433,2.433,0,0,0,1.609.484,2.394,2.394,0,0,0,1.563-.422,1.3,1.3,0,0,0,.516-1.016.924.924,0,0,0-.453-.812,6.593,6.593,0,0,0-1.562-.516,15.8,15.8,0,0,1-2.328-.719,2.341,2.341,0,0,1-.984-.859,2.3,2.3,0,0,1-.328-1.2,2.224,2.224,0,0,1,.281-1.109,2.59,2.59,0,0,1,.75-.859,3,3,0,0,1,.969-.437,4.442,4.442,0,0,1,1.313-.187,5.075,5.075,0,0,1,1.859.313,2.41,2.41,0,0,1,1.172.828,3.069,3.069,0,0,1,.531,1.375l-1.484.2a1.663,1.663,0,0,0-.594-1.078,2.14,2.14,0,0,0-1.375-.391,2.526,2.526,0,0,0-1.5.344,1.011,1.011,0,0,0-.437.813.876.876,0,0,0,.172.531,1.3,1.3,0,0,0,.594.406q.219.094,1.344.391a18.325,18.325,0,0,1,2.25.719,2.182,2.182,0,0,1,1,.8,2.148,2.148,0,0,1,.375,1.3,2.524,2.524,0,0,1-.453,1.438,2.868,2.868,0,0,1-1.281,1.047,4.708,4.708,0,0,1-1.891.359,4.275,4.275,0,0,1-2.672-.719,3.4,3.4,0,0,1-1.172-2.172Zm15.133,1.578a5.667,5.667,0,0,1-1.625,1.016,4.667,4.667,0,0,1-1.672.3,3.293,3.293,0,0,1-2.281-.719,2.419,2.419,0,0,1-.8-1.859,2.481,2.481,0,0,1,.3-1.2,2.586,2.586,0,0,1,.8-.875,3.749,3.749,0,0,1,1.094-.5,11.96,11.96,0,0,1,1.344-.219,13.457,13.457,0,0,0,2.719-.531q.016-.313.016-.391a1.658,1.658,0,0,0-.437-1.312,2.537,2.537,0,0,0-1.734-.516,2.724,2.724,0,0,0-1.594.375,2.346,2.346,0,0,0-.75,1.328l-1.484-.2a3.7,3.7,0,0,1,.656-1.531,2.9,2.9,0,0,1,1.344-.906,5.9,5.9,0,0,1,2.047-.328,5.228,5.228,0,0,1,1.875.281,2.152,2.152,0,0,1,1.531,1.7,8.392,8.392,0,0,1,.078,1.406v2.031a22.377,22.377,0,0,0,.094,2.688,3.2,3.2,0,0,0,.391,1.078H73.98a3.387,3.387,0,0,1-.312-1.109Zm-.125-3.406a10.836,10.836,0,0,1-2.484.578,5.778,5.778,0,0,0-1.328.313,1.38,1.38,0,0,0-.609.5,1.289,1.289,0,0,0-.2.719,1.307,1.307,0,0,0,.453,1.016,2.018,2.018,0,0,0,1.359.406,3.107,3.107,0,0,0,1.563-.391,2.456,2.456,0,0,0,1.016-1.047,3.859,3.859,0,0,0,.234-1.531Zm6.4,4.516-3.422-8.984h1.609l1.922,5.375q.313.875.578,1.813.2-.7.578-1.7l1.984-5.484h1.578l-3.406,8.984H79.945Zm6.18-10.656v-1.75h1.516v1.75Zm0,10.656v-8.984h1.516v8.984Zm3.834,0v-8.984h1.375v1.281a3.219,3.219,0,0,1,2.859-1.484,3.633,3.633,0,0,1,1.484.3,2.176,2.176,0,0,1,1.016.766,2.906,2.906,0,0,1,.484,1.125,9.309,9.309,0,0,1,.078,1.469v5.531H95.74V359.88a3.8,3.8,0,0,0-.187-1.375,1.459,1.459,0,0,0-.625-.75,1.973,1.973,0,0,0-1.062-.281,2.433,2.433,0,0,0-1.672.625,3.04,3.04,0,0,0-.7,2.344v4.906H89.959Zm9.356.75,1.484.219a1.415,1.415,0,0,0,.516,1,2.526,2.526,0,0,0,1.547.422,2.674,2.674,0,0,0,1.625-.422,2.073,2.073,0,0,0,.781-1.187,9.089,9.089,0,0,0,.109-1.953,3.108,3.108,0,0,1-2.484,1.172,3.391,3.391,0,0,1-2.859-1.328,5.185,5.185,0,0,1-1.016-3.219,6.028,6.028,0,0,1,.453-2.359,3.773,3.773,0,0,1,1.344-1.687,3.686,3.686,0,0,1,2.094-.594,3.226,3.226,0,0,1,2.625,1.281v-1.078h1.406v7.766a7.19,7.19,0,0,1-.437,2.969,3.043,3.043,0,0,1-1.359,1.375,4.583,4.583,0,0,1-2.266.516,4.37,4.37,0,0,1-2.609-.719,2.443,2.443,0,0,1-.953-2.172Zm1.266-5.406a3.891,3.891,0,0,0,.7,2.578,2.221,2.221,0,0,0,1.75.813,2.256,2.256,0,0,0,1.766-.8,3.775,3.775,0,0,0,.719-2.547,3.622,3.622,0,0,0-.734-2.469,2.263,2.263,0,0,0-1.766-.844,2.219,2.219,0,0,0-1.734.828,3.64,3.64,0,0,0-.7,2.438Zm8.043,1.969,1.516-.234a2.11,2.11,0,0,0,.7,1.391,2.433,2.433,0,0,0,1.609.484,2.394,2.394,0,0,0,1.563-.422,1.3,1.3,0,0,0,.516-1.016.924.924,0,0,0-.453-.812,6.593,6.593,0,0,0-1.562-.516,15.8,15.8,0,0,1-2.328-.719,2.341,2.341,0,0,1-.984-.859,2.3,2.3,0,0,1-.328-1.2,2.224,2.224,0,0,1,.281-1.109,2.59,2.59,0,0,1,.75-.859,3,3,0,0,1,.969-.437,4.442,4.442,0,0,1,1.313-.187,5.075,5.075,0,0,1,1.859.313,2.41,2.41,0,0,1,1.172.828,3.069,3.069,0,0,1,.531,1.375l-1.484.2a1.663,1.663,0,0,0-.594-1.078,2.14,2.14,0,0,0-1.375-.391,2.526,2.526,0,0,0-1.5.344,1.011,1.011,0,0,0-.437.813.876.876,0,0,0,.172.531,1.3,1.3,0,0,0,.594.406q.219.094,1.344.391a18.325,18.325,0,0,1,2.25.719,2.182,2.182,0,0,1,1,.8,2.148,2.148,0,0,1,.375,1.3,2.524,2.524,0,0,1-.453,1.438,2.868,2.868,0,0,1-1.281,1.047,4.708,4.708,0,0,1-1.891.359,4.275,4.275,0,0,1-2.672-.719,3.4,3.4,0,0,1-1.172-2.172Z"/><path class="b" d="M52.115,387.1l1.484.219a1.415,1.415,0,0,0,.516,1,2.526,2.526,0,0,0,1.547.422,2.674,2.674,0,0,0,1.625-.422,2.073,2.073,0,0,0,.781-1.187,9.089,9.089,0,0,0,.109-1.953,3.108,3.108,0,0,1-2.484,1.172,3.391,3.391,0,0,1-2.859-1.328,5.185,5.185,0,0,1-1.016-3.219,6.029,6.029,0,0,1,.453-2.359,3.773,3.773,0,0,1,1.344-1.687,3.686,3.686,0,0,1,2.094-.594,3.226,3.226,0,0,1,2.625,1.281v-1.078H59.74v7.766A7.19,7.19,0,0,1,59.3,388.1a3.043,3.043,0,0,1-1.359,1.375,4.583,4.583,0,0,1-2.266.516,4.37,4.37,0,0,1-2.609-.719,2.443,2.443,0,0,1-.953-2.172Zm1.266-5.406a3.891,3.891,0,0,0,.7,2.578,2.221,2.221,0,0,0,1.75.813,2.256,2.256,0,0,0,1.766-.8,3.775,3.775,0,0,0,.719-2.547,3.622,3.622,0,0,0-.734-2.469,2.263,2.263,0,0,0-1.766-.844,2.219,2.219,0,0,0-1.734.828,3.64,3.64,0,0,0-.7,2.438Zm8.09.156a4.616,4.616,0,0,1,1.391-3.687,4.151,4.151,0,0,1,2.813-1,4.018,4.018,0,0,1,3.031,1.219,4.554,4.554,0,0,1,1.188,3.344,5.876,5.876,0,0,1-.531,2.734,3.619,3.619,0,0,1-1.516,1.547,4.4,4.4,0,0,1-2.172.547,4.064,4.064,0,0,1-3.047-1.2,4.892,4.892,0,0,1-1.156-3.5Zm1.563,0a3.855,3.855,0,0,0,.75,2.594,2.509,2.509,0,0,0,3.781,0,3.974,3.974,0,0,0,.75-2.641,3.721,3.721,0,0,0-.75-2.516,2.509,2.509,0,0,0-3.781,0,3.764,3.764,0,0,0-.75,2.563Zm14.5,3.391a5.667,5.667,0,0,1-1.625,1.016,4.667,4.667,0,0,1-1.672.3,3.293,3.293,0,0,1-2.281-.719,2.419,2.419,0,0,1-.8-1.859,2.481,2.481,0,0,1,.3-1.2,2.586,2.586,0,0,1,.8-.875,3.749,3.749,0,0,1,1.094-.5,11.96,11.96,0,0,1,1.344-.219,13.457,13.457,0,0,0,2.719-.531q.016-.313.016-.391a1.658,1.658,0,0,0-.437-1.312,2.537,2.537,0,0,0-1.734-.516,2.724,2.724,0,0,0-1.594.375,2.346,2.346,0,0,0-.75,1.328l-1.484-.2a3.7,3.7,0,0,1,.656-1.531,2.9,2.9,0,0,1,1.344-.906,5.9,5.9,0,0,1,2.047-.328,5.228,5.228,0,0,1,1.875.281,2.152,2.152,0,0,1,1.531,1.7,8.392,8.392,0,0,1,.078,1.406v2.031a22.377,22.377,0,0,0,.094,2.688,3.2,3.2,0,0,0,.391,1.078H77.843a3.387,3.387,0,0,1-.312-1.109Zm-.125-3.406a10.836,10.836,0,0,1-2.484.578,5.778,5.778,0,0,0-1.328.313,1.38,1.38,0,0,0-.609.5,1.289,1.289,0,0,0-.2.719,1.307,1.307,0,0,0,.453,1.016,2.018,2.018,0,0,0,1.359.406,3.107,3.107,0,0,0,1.563-.391,2.456,2.456,0,0,0,1.016-1.047,3.859,3.859,0,0,0,.234-1.531Zm3.871,4.516V373.943h1.516v12.406Zm3.272-2.687,1.516-.234a2.11,2.11,0,0,0,.7,1.391,2.433,2.433,0,0,0,1.609.484,2.394,2.394,0,0,0,1.563-.422,1.3,1.3,0,0,0,.516-1.016.924.924,0,0,0-.453-.812,6.593,6.593,0,0,0-1.562-.516,15.8,15.8,0,0,1-2.328-.719,2.341,2.341,0,0,1-.984-.859,2.3,2.3,0,0,1-.328-1.2,2.224,2.224,0,0,1,.281-1.109,2.59,2.59,0,0,1,.75-.859,3,3,0,0,1,.969-.437,4.442,4.442,0,0,1,1.313-.187,5.075,5.075,0,0,1,1.859.313,2.41,2.41,0,0,1,1.172.828,3.069,3.069,0,0,1,.531,1.375l-1.484.2A1.663,1.663,0,0,0,89.6,378.8a2.14,2.14,0,0,0-1.375-.391,2.526,2.526,0,0,0-1.5.344,1.011,1.011,0,0,0-.437.813.876.876,0,0,0,.172.531,1.3,1.3,0,0,0,.594.406q.219.094,1.344.391a18.325,18.325,0,0,1,2.25.719,2.182,2.182,0,0,1,1,.8,2.148,2.148,0,0,1,.375,1.3,2.524,2.524,0,0,1-.453,1.438,2.868,2.868,0,0,1-1.281,1.047,4.708,4.708,0,0,1-1.891.359,4.275,4.275,0,0,1-2.672-.719,3.4,3.4,0,0,1-1.172-2.172Z"/><path class="a" d="M3.669,452.546h0a11.019,11.019,0,0,1,11.019-11.019H129.249a11.019,11.019,0,0,1,11.019,11.019v44.073a11.019,11.019,0,0,1-11.019,11.019H14.688A11.019,11.019,0,0,1,3.669,496.619Z"/><path class="b" d="M54.939,465.815l1.766.453a6.064,6.064,0,0,1-2,3.328,5.5,5.5,0,0,1-3.531,1.141,6.4,6.4,0,0,1-3.516-.875,5.666,5.666,0,0,1-2.062-2.547,9.175,9.175,0,0,1-.7-3.594,7.814,7.814,0,0,1,.8-3.625,5.4,5.4,0,0,1,2.266-2.359,6.658,6.658,0,0,1,3.25-.812,5.454,5.454,0,0,1,3.359,1.016,5.228,5.228,0,0,1,1.906,2.875l-1.734.406a4.073,4.073,0,0,0-1.359-2.109,3.512,3.512,0,0,0-2.2-.672,4.333,4.333,0,0,0-2.578.734,3.9,3.9,0,0,0-1.453,1.984,7.869,7.869,0,0,0-.422,2.563,8.055,8.055,0,0,0,.5,2.969,3.781,3.781,0,0,0,1.547,1.906,4.342,4.342,0,0,0,2.266.625,3.8,3.8,0,0,0,2.516-.859,4.371,4.371,0,0,0,1.391-2.547Zm3.723,4.688v-9.672h1.469V462.3a4.067,4.067,0,0,1,1.031-1.359,1.855,1.855,0,0,1,1.063-.328,3.2,3.2,0,0,1,1.688.531l-.562,1.516a2.357,2.357,0,0,0-1.2-.359,1.535,1.535,0,0,0-.969.328,1.827,1.827,0,0,0-.609.891,6.253,6.253,0,0,0-.281,1.922V470.5H58.662Zm12.853-3.109,1.688.2a4.215,4.215,0,0,1-1.484,2.313,5.072,5.072,0,0,1-6.141-.484,5.15,5.15,0,0,1-1.234-3.672,5.366,5.366,0,0,1,1.25-3.8,4.284,4.284,0,0,1,3.266-1.344,4.087,4.087,0,0,1,3.156,1.328,5.2,5.2,0,0,1,1.234,3.7v.438H66.031a3.774,3.774,0,0,0,.906,2.453,2.685,2.685,0,0,0,2.016.844,2.548,2.548,0,0,0,1.547-.469,3.214,3.214,0,0,0,1.016-1.516Zm-5.391-2.656h5.406a3.241,3.241,0,0,0-.625-1.828,2.5,2.5,0,0,0-2.031-.953,2.621,2.621,0,0,0-1.906.766A2.963,2.963,0,0,0,66.125,464.737Zm15.454,4.578a6.529,6.529,0,0,1-1.766,1.094,5.049,5.049,0,0,1-1.8.313,3.521,3.521,0,0,1-2.453-.781,2.723,2.723,0,0,1-.531-3.281,2.631,2.631,0,0,1,.844-.937,4.125,4.125,0,0,1,1.188-.547,12.076,12.076,0,0,1,1.453-.25,14.865,14.865,0,0,0,2.922-.562q.016-.344.016-.422a1.838,1.838,0,0,0-.469-1.422,2.779,2.779,0,0,0-1.875-.547,2.869,2.869,0,0,0-1.7.406,2.489,2.489,0,0,0-.812,1.422l-1.609-.219a3.905,3.905,0,0,1,.719-1.641,3.133,3.133,0,0,1,1.453-.984,6.429,6.429,0,0,1,2.188-.344,5.679,5.679,0,0,1,2.016.3,2.492,2.492,0,0,1,1.141.734,2.437,2.437,0,0,1,.516,1.109,9.748,9.748,0,0,1,.078,1.516v2.188a22.266,22.266,0,0,0,.109,2.891,4.033,4.033,0,0,0,.406,1.156h-1.7a3.222,3.222,0,0,1-.328-1.187Zm-.141-3.672a11.37,11.37,0,0,1-2.672.625,5.909,5.909,0,0,0-1.437.328,1.518,1.518,0,0,0-.656.531,1.424,1.424,0,0,0-.219.781,1.393,1.393,0,0,0,.5,1.094,2.144,2.144,0,0,0,1.453.438,3.4,3.4,0,0,0,1.672-.406,2.565,2.565,0,0,0,1.094-1.141,3.973,3.973,0,0,0,.266-1.641v-.609Zm7.782,3.391.234,1.453a6.225,6.225,0,0,1-1.234.141,2.858,2.858,0,0,1-1.391-.281,1.606,1.606,0,0,1-.687-.734,5.852,5.852,0,0,1-.2-1.937V462.1h-1.2v-1.266h1.2V458.44l1.625-.984v3.375H89.22V462.1H87.564v5.672a3.108,3.108,0,0,0,.078.891.781.781,0,0,0,.281.328,1.24,1.24,0,0,0,.578.109,5.562,5.562,0,0,0,.719-.062Zm8.23-1.641,1.688.2a4.215,4.215,0,0,1-1.484,2.313,5.072,5.072,0,0,1-6.141-.484,5.15,5.15,0,0,1-1.234-3.672,5.366,5.366,0,0,1,1.25-3.8,4.284,4.284,0,0,1,3.266-1.344,4.087,4.087,0,0,1,3.156,1.328,5.2,5.2,0,0,1,1.234,3.7v.438H91.966a3.774,3.774,0,0,0,.906,2.453,2.685,2.685,0,0,0,2.016.844,2.548,2.548,0,0,0,1.547-.469,3.214,3.214,0,0,0,1.016-1.516Zm-5.391-2.656h5.406a3.241,3.241,0,0,0-.625-1.828,2.5,2.5,0,0,0-2.031-.953,2.621,2.621,0,0,0-1.906.766A2.963,2.963,0,0,0,92.06,464.737Z"/><path class="b" d="M38.083,481.393V483.3h-1.75v-1.516a4.094,4.094,0,0,1,.281-1.766,2.513,2.513,0,0,1,1.219-1.094l.391.641a1.414,1.414,0,0,0-.734.625,2.672,2.672,0,0,0-.266,1.2Zm12.192,6.422,1.766.453a6.064,6.064,0,0,1-2,3.328,5.5,5.5,0,0,1-3.531,1.141,6.4,6.4,0,0,1-3.516-.875,5.666,5.666,0,0,1-2.062-2.547,9.175,9.175,0,0,1-.7-3.594,7.814,7.814,0,0,1,.8-3.625,5.4,5.4,0,0,1,2.266-2.359,6.658,6.658,0,0,1,3.25-.812A5.454,5.454,0,0,1,49.9,479.94a5.228,5.228,0,0,1,1.906,2.875l-1.734.406a4.073,4.073,0,0,0-1.359-2.109,3.512,3.512,0,0,0-2.2-.672,4.333,4.333,0,0,0-2.578.734,3.9,3.9,0,0,0-1.453,1.984,7.869,7.869,0,0,0-.422,2.563,8.055,8.055,0,0,0,.5,2.969A3.781,3.781,0,0,0,44.1,490.6a4.342,4.342,0,0,0,2.266.625,3.8,3.8,0,0,0,2.516-.859,4.371,4.371,0,0,0,1.391-2.547Zm10.051,3.5a6.529,6.529,0,0,1-1.766,1.094,5.049,5.049,0,0,1-1.8.313,3.521,3.521,0,0,1-2.453-.781,2.723,2.723,0,0,1-.531-3.281,2.631,2.631,0,0,1,.844-.937,4.126,4.126,0,0,1,1.188-.547,12.076,12.076,0,0,1,1.453-.25,14.865,14.865,0,0,0,2.922-.562q.016-.344.016-.422a1.838,1.838,0,0,0-.469-1.422,2.779,2.779,0,0,0-1.875-.547,2.869,2.869,0,0,0-1.7.406,2.489,2.489,0,0,0-.812,1.422l-1.609-.219a3.905,3.905,0,0,1,.719-1.641,3.133,3.133,0,0,1,1.453-.984,6.429,6.429,0,0,1,2.188-.344,5.679,5.679,0,0,1,2.016.3,2.492,2.492,0,0,1,1.141.734,2.437,2.437,0,0,1,.516,1.109,9.749,9.749,0,0,1,.078,1.516v2.188a22.265,22.265,0,0,0,.109,2.891,4.033,4.033,0,0,0,.406,1.156h-1.7a3.222,3.222,0,0,1-.328-1.187Zm-.141-3.672a11.37,11.37,0,0,1-2.672.625,5.909,5.909,0,0,0-1.437.328,1.518,1.518,0,0,0-.656.531,1.424,1.424,0,0,0-.219.781A1.393,1.393,0,0,0,55.7,491a2.144,2.144,0,0,0,1.453.438,3.4,3.4,0,0,0,1.672-.406,2.565,2.565,0,0,0,1.094-1.141,3.973,3.973,0,0,0,.266-1.641v-.609ZM70.7,488.956l1.609.219a4.212,4.212,0,0,1-1.359,2.609,3.927,3.927,0,0,1-2.672.938,4.141,4.141,0,0,1-3.187-1.3,5.271,5.271,0,0,1-1.2-3.719,6.783,6.783,0,0,1,.516-2.75,3.554,3.554,0,0,1,1.578-1.75,4.662,4.662,0,0,1,2.313-.594,4.01,4.01,0,0,1,2.578.8,3.655,3.655,0,0,1,1.281,2.266l-1.594.234a2.636,2.636,0,0,0-.812-1.453,2.054,2.054,0,0,0-1.391-.5,2.558,2.558,0,0,0-2.016.891,4.2,4.2,0,0,0-.781,2.813,4.383,4.383,0,0,0,.75,2.844,2.451,2.451,0,0,0,1.953.875,2.276,2.276,0,0,0,1.609-.594,2.918,2.918,0,0,0,.828-1.828Zm3.016,3.547V479.143h1.641v4.8a3.645,3.645,0,0,1,2.891-1.328,3.86,3.86,0,0,1,1.859.422,2.483,2.483,0,0,1,1.141,1.172,5.391,5.391,0,0,1,.344,2.172V492.5H79.952v-6.125a2.555,2.555,0,0,0-.531-1.8,1.985,1.985,0,0,0-1.516-.562,2.569,2.569,0,0,0-1.359.391,2.171,2.171,0,0,0-.922,1.016,4.786,4.786,0,0,0-.266,1.781v5.3H73.718Zm17-3.109,1.688.2a4.215,4.215,0,0,1-1.484,2.313,5.072,5.072,0,0,1-6.141-.484,5.15,5.15,0,0,1-1.234-3.672,5.366,5.366,0,0,1,1.25-3.8,4.284,4.284,0,0,1,3.266-1.344,4.087,4.087,0,0,1,3.156,1.328,5.2,5.2,0,0,1,1.234,3.7v.438H85.234a3.774,3.774,0,0,0,.906,2.453,2.685,2.685,0,0,0,2.016.844,2.548,2.548,0,0,0,1.547-.469,3.214,3.214,0,0,0,1.016-1.516Zm-5.391-2.656h5.406a3.241,3.241,0,0,0-.625-1.828,2.5,2.5,0,0,0-2.031-.953,2.621,2.621,0,0,0-1.906.766A2.963,2.963,0,0,0,85.328,486.737Zm8.485,2.875,1.625-.25a2.263,2.263,0,0,0,.75,1.5,2.676,2.676,0,0,0,1.75.516,2.584,2.584,0,0,0,1.672-.453,1.405,1.405,0,0,0,.547-1.094,1.01,1.01,0,0,0-.484-.875A6.746,6.746,0,0,0,98,488.409a16.6,16.6,0,0,1-2.516-.8,2.423,2.423,0,0,1-1.047-.906,2.486,2.486,0,0,1-.359-1.312,2.45,2.45,0,0,1,.3-1.187,2.567,2.567,0,0,1,.813-.922,3.177,3.177,0,0,1,1.031-.469,4.888,4.888,0,0,1,1.422-.2,5.59,5.59,0,0,1,2,.328,2.689,2.689,0,0,1,1.266.891,3.4,3.4,0,0,1,.578,1.5l-1.609.219a1.755,1.755,0,0,0-.641-1.172,2.264,2.264,0,0,0-1.469-.422,2.7,2.7,0,0,0-1.625.375,1.1,1.1,0,0,0-.469.875.982.982,0,0,0,.188.578,1.45,1.45,0,0,0,.641.438q.234.094,1.438.422a19.1,19.1,0,0,1,2.438.75,2.468,2.468,0,0,1,1.078.859,2.407,2.407,0,0,1,.391,1.406,2.716,2.716,0,0,1-.484,1.547,3.1,3.1,0,0,1-1.375,1.125,5.124,5.124,0,0,1-2.047.391,4.587,4.587,0,0,1-2.875-.781,3.619,3.619,0,0,1-1.25-2.328Zm9.547-8.7v-1.891h1.75v1.5a3.983,3.983,0,0,1-.281,1.75,2.4,2.4,0,0,1-1.219,1.109l-.406-.641a1.414,1.414,0,0,0,.734-.625,2.658,2.658,0,0,0,.281-1.2Zm2.813,0v-1.891h1.766v1.5a3.983,3.983,0,0,1-.281,1.75,2.4,2.4,0,0,1-1.219,1.109l-.406-.641a1.414,1.414,0,0,0,.734-.625,2.541,2.541,0,0,0,.266-1.2h-.859Z"/><path class="a" d="M84.745,557.42h0A11.019,11.019,0,0,1,95.764,546.4H210.325a11.019,11.019,0,0,1,11.019,11.019v44.073a11.019,11.019,0,0,1-11.019,11.019H95.764a11.019,11.019,0,0,1-11.019-11.019Z"/><path class="b" d="M108.848,586.377V573.018h4.609a10.578,10.578,0,0,1,2.375.2,4.352,4.352,0,0,1,1.953.953,5.33,5.33,0,0,1,1.578,2.281,8.843,8.843,0,0,1,.531,3.172,9.333,9.333,0,0,1-.359,2.7,6.449,6.449,0,0,1-.922,1.938,4.959,4.959,0,0,1-1.2,1.219,5.069,5.069,0,0,1-1.594.672,9.466,9.466,0,0,1-2.141.219Zm1.766-1.578h2.859a7.188,7.188,0,0,0,2.063-.234,3.018,3.018,0,0,0,1.2-.7,4.143,4.143,0,0,0,.969-1.687,8.1,8.1,0,0,0,.359-2.578,6.213,6.213,0,0,0-.687-3.219,3.417,3.417,0,0,0-1.672-1.5,6.666,6.666,0,0,0-2.281-.281h-2.812v10.2Zm17.817.391a6.529,6.529,0,0,1-1.766,1.094,5.049,5.049,0,0,1-1.8.313,3.522,3.522,0,0,1-2.453-.781,2.723,2.723,0,0,1-.531-3.281,2.631,2.631,0,0,1,.844-.937,4.126,4.126,0,0,1,1.188-.547,12.076,12.076,0,0,1,1.453-.25,14.865,14.865,0,0,0,2.922-.562q.016-.344.016-.422a1.838,1.838,0,0,0-.469-1.422,2.779,2.779,0,0,0-1.875-.547,2.869,2.869,0,0,0-1.7.406,2.489,2.489,0,0,0-.812,1.422l-1.609-.219a3.906,3.906,0,0,1,.719-1.641,3.133,3.133,0,0,1,1.453-.984,6.428,6.428,0,0,1,2.188-.344,5.678,5.678,0,0,1,2.016.3,2.492,2.492,0,0,1,1.141.734,2.437,2.437,0,0,1,.516,1.109,9.749,9.749,0,0,1,.078,1.516v2.188a22.265,22.265,0,0,0,.109,2.891,4.033,4.033,0,0,0,.406,1.156h-1.7a3.222,3.222,0,0,1-.328-1.187Zm-.141-3.672a11.372,11.372,0,0,1-2.672.625,5.909,5.909,0,0,0-1.437.328,1.517,1.517,0,0,0-.656.531,1.424,1.424,0,0,0-.219.781,1.393,1.393,0,0,0,.5,1.094,2.144,2.144,0,0,0,1.453.438,3.4,3.4,0,0,0,1.672-.406,2.565,2.565,0,0,0,1.094-1.141,3.974,3.974,0,0,0,.266-1.641v-.609Zm3.548,1.969,1.625-.25a2.263,2.263,0,0,0,.75,1.5,2.676,2.676,0,0,0,1.75.516,2.584,2.584,0,0,0,1.672-.453,1.405,1.405,0,0,0,.547-1.094,1.01,1.01,0,0,0-.484-.875,6.747,6.747,0,0,0-1.672-.547,16.6,16.6,0,0,1-2.516-.8,2.422,2.422,0,0,1-1.047-.906,2.486,2.486,0,0,1-.359-1.312,2.449,2.449,0,0,1,.3-1.187,2.567,2.567,0,0,1,.813-.922,3.177,3.177,0,0,1,1.031-.469,4.887,4.887,0,0,1,1.422-.2,5.59,5.59,0,0,1,2,.328,2.689,2.689,0,0,1,1.266.891,3.4,3.4,0,0,1,.578,1.5l-1.609.219a1.755,1.755,0,0,0-.641-1.172,2.264,2.264,0,0,0-1.469-.422,2.7,2.7,0,0,0-1.625.375,1.1,1.1,0,0,0-.469.875.982.982,0,0,0,.188.578,1.45,1.45,0,0,0,.641.438q.234.094,1.438.422a19.087,19.087,0,0,1,2.438.75,2.468,2.468,0,0,1,1.078.859,2.407,2.407,0,0,1,.391,1.406,2.716,2.716,0,0,1-.484,1.547,3.1,3.1,0,0,1-1.375,1.125,5.123,5.123,0,0,1-2.047.391,4.587,4.587,0,0,1-2.875-.781A3.619,3.619,0,0,1,131.837,583.486Zm9.984,2.891V573.018h1.641v4.8a3.645,3.645,0,0,1,2.891-1.328,3.86,3.86,0,0,1,1.859.422,2.483,2.483,0,0,1,1.141,1.172,5.391,5.391,0,0,1,.344,2.172v6.125h-1.641v-6.125a2.555,2.555,0,0,0-.531-1.8,1.985,1.985,0,0,0-1.516-.562,2.569,2.569,0,0,0-1.359.391,2.171,2.171,0,0,0-.922,1.016,4.786,4.786,0,0,0-.266,1.781v5.3Zm11.876,0h-1.516V573.018h1.641v4.766a3.27,3.27,0,0,1,2.656-1.3,4.058,4.058,0,0,1,1.688.359,3.434,3.434,0,0,1,1.313,1.016,4.6,4.6,0,0,1,.8,1.563,6.385,6.385,0,0,1,.3,1.969,5.517,5.517,0,0,1-1.234,3.844,3.824,3.824,0,0,1-2.953,1.359,3.092,3.092,0,0,1-2.687-1.437Zm-.016-4.906a4.954,4.954,0,0,0,.484,2.516,2.341,2.341,0,0,0,3.953.328,4.258,4.258,0,0,0,.781-2.781,4.334,4.334,0,0,0-.75-2.8,2.292,2.292,0,0,0-1.828-.906,2.382,2.382,0,0,0-1.859.938A4.12,4.12,0,0,0,153.682,581.471Zm8.282.063a4.965,4.965,0,0,1,1.484-3.969,4.5,4.5,0,0,1,3.047-1.078,4.336,4.336,0,0,1,3.266,1.313,4.949,4.949,0,0,1,1.266,3.609,6.406,6.406,0,0,1-.562,2.938A3.99,3.99,0,0,1,168.823,586a4.692,4.692,0,0,1-2.328.594,4.35,4.35,0,0,1-3.281-1.3A5.25,5.25,0,0,1,161.964,581.533Zm1.688,0a4.226,4.226,0,0,0,.8,2.8,2.716,2.716,0,0,0,4.078,0,4.25,4.25,0,0,0,.813-2.844,4,4,0,0,0-.812-2.719,2.716,2.716,0,0,0-4.078,0A4.1,4.1,0,0,0,163.651,581.533Zm15.61,3.656a6.528,6.528,0,0,1-1.766,1.094,5.049,5.049,0,0,1-1.8.313,3.522,3.522,0,0,1-2.453-.781,2.723,2.723,0,0,1-.531-3.281,2.631,2.631,0,0,1,.844-.937,4.126,4.126,0,0,1,1.188-.547,12.076,12.076,0,0,1,1.453-.25,14.865,14.865,0,0,0,2.922-.562q.016-.344.016-.422a1.838,1.838,0,0,0-.469-1.422,2.779,2.779,0,0,0-1.875-.547,2.869,2.869,0,0,0-1.7.406,2.489,2.489,0,0,0-.812,1.422l-1.609-.219a3.906,3.906,0,0,1,.719-1.641,3.133,3.133,0,0,1,1.453-.984,6.428,6.428,0,0,1,2.188-.344,5.678,5.678,0,0,1,2.016.3,2.492,2.492,0,0,1,1.141.734,2.437,2.437,0,0,1,.516,1.109,9.749,9.749,0,0,1,.078,1.516v2.188a22.265,22.265,0,0,0,.109,2.891,4.033,4.033,0,0,0,.406,1.156h-1.7A3.222,3.222,0,0,1,179.261,585.19Zm-.141-3.672a11.372,11.372,0,0,1-2.672.625,5.91,5.91,0,0,0-1.437.328,1.517,1.517,0,0,0-.656.531,1.424,1.424,0,0,0-.219.781,1.393,1.393,0,0,0,.5,1.094,2.144,2.144,0,0,0,1.453.438,3.4,3.4,0,0,0,1.672-.406,2.565,2.565,0,0,0,1.094-1.141,3.974,3.974,0,0,0,.266-1.641Zm4.188,4.859v-9.672h1.469v1.469a4.067,4.067,0,0,1,1.031-1.359,1.855,1.855,0,0,1,1.063-.328,3.2,3.2,0,0,1,1.688.531L188,578.533a2.357,2.357,0,0,0-1.2-.359,1.535,1.535,0,0,0-.969.328,1.827,1.827,0,0,0-.609.891,6.253,6.253,0,0,0-.281,1.922v5.063Zm12.494,0v-1.219a2.988,2.988,0,0,1-2.7,1.438,3.774,3.774,0,0,1-2.125-.641,4.209,4.209,0,0,1-1.5-1.781,6.153,6.153,0,0,1-.531-2.625,6.813,6.813,0,0,1,.484-2.625,3.819,3.819,0,0,1,1.438-1.812,3.92,3.92,0,0,1,2.172-.625,3.266,3.266,0,0,1,2.656,1.328v-4.8h1.641v13.359Zm-5.172-4.828a4.219,4.219,0,0,0,.781,2.781,2.351,2.351,0,0,0,1.844.922,2.322,2.322,0,0,0,1.828-.875,4.1,4.1,0,0,0,.75-2.687,4.512,4.512,0,0,0-.766-2.906,2.352,2.352,0,0,0-1.891-.937,2.262,2.262,0,0,0-1.812.891A4.392,4.392,0,0,0,190.631,581.549Z"/><path class="c" d="M158.333,88.142v19.382H244.7v19.39"/><path class="d" d="M158.333,88.142v19.382H244.7v13.39"/><path class="e" d="M243.044,120.913l1.652,4.538,1.652-4.538Z"/><path class="c" d="M158.333,88.142v19.382H71.971v19.39"/><path class="d" d="M158.333,88.142v19.382H71.971v13.39"/><path class="e" d="M70.319,120.913l1.652,4.538,1.652-4.538Z"/><path class="c" d="M71.968,193.016V212.4h.063v19.39"/><path class="d" d="M71.968,193.016V212.4h.063v13.39"/><path class="e" d="M70.38,225.787l1.652,4.538,1.652-4.538Z"/><path class="c" d="M71.968,297.89v19.382h.063v19.39"/><path class="d" d="M71.968,297.89v19.382h.063v13.39"/><path class="e" d="M70.38,330.661l1.652,4.538,1.652-4.538Z"/><path class="c" d="M71.968,402.764v19.382h.063v19.39"/><path class="d" d="M71.968,402.764v19.382h.063v13.39"/><path class="e" d="M70.38,435.535l1.652,4.538,1.652-4.538Z"/><path class="c" d="M71.968,507.638V527.02h81.071v19.39"/><path class="d" d="M71.968,507.638V527.02h81.071v13.39"/><path class="e" d="M151.388,540.409l1.652,4.538,1.652-4.538Z"/><path class="c" d="M244.7,193.016V369.709H153.044V546.4"/><path class="d" d="M244.7,193.016V369.709H153.044V540.4"/><path class="e" d="M151.393,540.4l1.652,4.538L154.7,540.4Z"/></g><text class="f" transform="translate(1027 3648)"><tspan x="0" y="0">Account creation</tspan></text></g></svg>