<svg xmlns="http://www.w3.org/2000/svg" width="266.741" height="134.416" viewBox="0 0 266.741 134.416">
  <g id="Cache_Logo" data-name="Cache Logo" transform="translate(-87.235 -39.775)">
    <g id="Group_10" data-name="Group 10" transform="translate(85.845 15.813)">
      <path id="Path_526" data-name="Path 526" d="M57.407-24.186q0,12.093-7.506,19.6T30.3,2.919q-12.927,0-19.46-8.757A44.135,44.135,0,0,1,2.919-24.186,109.23,109.23,0,0,1,1.39-40.171q0-6.116.486-12.232T3.614-65.956A67.98,67.98,0,0,1,7.3-79.578a64.375,64.375,0,0,1,5.908-11.537,25.138,25.138,0,0,1,8.965-8.409,22.163,22.163,0,0,1,10.842-3.058,31.146,31.146,0,0,1,7.784.695,14.725,14.725,0,0,0,3.475.695,10.019,10.019,0,0,0,3.475-1.112,14.34,14.34,0,0,1,5.977-1.112q3.544,0,3.545,2.919,0,.139-1.112,6.047a65.233,65.233,0,0,0-1.112,12.093q0,6.185,1.112,8.2a7.944,7.944,0,0,1,1.112,3.822,6.048,6.048,0,0,1-3.2,5.421,13.122,13.122,0,0,1-6.95,1.946q-9.73,0-9.73-10.008a29.164,29.164,0,0,1,.834-5.977,29.969,29.969,0,0,0,.834-4.865q0-2.919-3.2-2.919-4.448,0-8.9,8.062-5.143,9.313-5.143,27.244a52.922,52.922,0,0,0,1.668,13.9q3.2,11.537,10.564,11.537,6.394,0,9.869-6.95a5.268,5.268,0,0,1,5.143-3.336q3.614,0,5.977,4.031A15.823,15.823,0,0,1,57.407-24.186Zm19.877,1.668q0,5.838,4.17,5.838T88.2-20.989a15.386,15.386,0,0,0,2.572-7.645q0-6.255-4.448-6.255-4.031,0-6.533,4.031A15.607,15.607,0,0,0,77.284-22.518Zm29.885-22.1L106.752-25.3q0,11.537,2.919,13.344a4.352,4.352,0,0,1,1.807,3.614q0,4.031-5.352,7.506A19.827,19.827,0,0,1,95.215,2.641a6.306,6.306,0,0,1-4.17-1.182,3.378,3.378,0,0,1-1.39-2.572q0-3.753-.973-3.753a11.755,11.755,0,0,0-1.738,1.6,18.876,18.876,0,0,1-4.726,3.2,17.346,17.346,0,0,1-7.923,1.6A15.358,15.358,0,0,1,65.816-.834,12.227,12.227,0,0,1,60.743-6.95a31.571,31.571,0,0,1-2.5-11.676,30.272,30.272,0,0,1,1.668-10.147,23.828,23.828,0,0,1,4.17-7.645,30.088,30.088,0,0,1,5.838-5.212,27.674,27.674,0,0,1,6.255-3.336A52.051,52.051,0,0,1,82.149-46.7a37.541,37.541,0,0,1,5.977-.834l1.39-1.807q-.139-4.726-6.881-4.726T71.585-51.43a5.979,5.979,0,0,1-3.336,1.112q-3.336,0-3.336-5,0-12.927,20.572-12.927,15.846,0,19.877,10.564Q107.169-52.959,107.169-44.619ZM154.29-26.41q7.506,0,7.506,9.174a21.1,21.1,0,0,1-2.363,9.66A18.379,18.379,0,0,1,154.5-1.46a20.3,20.3,0,0,1-6.6,3.128A39.379,39.379,0,0,1,136.637,3.2,21.293,21.293,0,0,1,125.586.278a19.777,19.777,0,0,1-7.576-7.923q-5-9.452-5-22.8,0-14.595,6.533-25.715a23.648,23.648,0,0,1,8.965-9.035A26.884,26.884,0,0,1,142.2-68.527a22.392,22.392,0,0,1,13.553,4.1q5.63,4.1,5.63,12.719,0,10.286-9.313,10.286A5.166,5.166,0,0,1,148.1-43.16a5.183,5.183,0,0,1-1.6-3.475,17.181,17.181,0,0,0-.208-2.919,8.785,8.785,0,0,0-1.668-3.2,4.391,4.391,0,0,0-3.684-2.015q-8.757,0-8.757,17.514a55.958,55.958,0,0,0,.973,10.425q2.085,9.73,7.784,9.73,4.309,0,5.838-4.448a5.561,5.561,0,0,1,2.641-3.406A8.689,8.689,0,0,1,154.29-26.41Zm29.885-37.669.139,3.614q.278.973.834.973a1.6,1.6,0,0,0,1.112-.556,16.271,16.271,0,0,1,5.977-5.074,16.5,16.5,0,0,1,7.923-2.293,9.815,9.815,0,0,1,8.688,4.448A24.223,24.223,0,0,1,212.67-52.82q.834,9.73.834,16.333t-.278,12.163q0,9.869,4.448,12.649,2.224,1.251,2.224,3.128a6.212,6.212,0,0,1-.973,3.405,14.974,14.974,0,0,1-6.6,5.282,21.559,21.559,0,0,1-7.575,2.085l-3.2.278q-4.17-.139-5.56-2.363t-1.39-6.95l1.251-23.908q.139-1.807.139-4.726,0-11.4-5.143-11.4-3.336,0-5.213,3.892a21.989,21.989,0,0,0-2.085,8.688q-.208,4.8-.208,10.495l.834,17.236q0,4.587-3.2,6.811a20.511,20.511,0,0,1-11.884,3.336q-7.02,0-7.02-4.587l.417-2.5q4.448-21.545,4.448-57.268.139-5,.139-11.051t-.209-8.2a8.657,8.657,0,0,0-1.32-3.892,10.857,10.857,0,0,0-3.2-3.128,4,4,0,0,1-1.807-3.2q0-4.726,7.784-8.9t12.371-4.17q5.143,0,5.143,7.784,0,5.7-.834,16.124T184.175-64.079ZM238.941-41.7a1.886,1.886,0,0,0,.556,1.39,1.711,1.711,0,0,0,1.39.695q7.923-.695,10.564-7.506a12.827,12.827,0,0,0,.973-3.614q-.139-4.865-3.892-4.865a7.2,7.2,0,0,0-6.6,4.17A26.95,26.95,0,0,0,238.941-41.7Zm9.521-26.688q9.243,0,14.456,4.726t5.212,14.317A19.676,19.676,0,0,1,260.556-33.5q-7.576,6.255-19.113,6.255a1.474,1.474,0,0,0-1.668,1.668,7.883,7.883,0,0,0,2.432,5.768,9.016,9.016,0,0,0,6.672,2.433q4.24,0,7.645-3.892t5.977-3.892a4.743,4.743,0,0,1,4.1,2.224,11.092,11.092,0,0,1,1.529,6.325,18.449,18.449,0,0,1-2.016,8.2,16.8,16.8,0,0,1-4.8,6.185,23.766,23.766,0,0,1-6.255,3.336,30.573,30.573,0,0,1-10.911,1.946A21.828,21.828,0,0,1,233.381.278,20.221,20.221,0,0,1,225.6-7.228a41.3,41.3,0,0,1-5.421-20.92,64.193,64.193,0,0,1,2.78-19.946,32.1,32.1,0,0,1,9.521-14.387A23.458,23.458,0,0,1,248.463-68.388Z" transform="translate(0 127.379)" fill="#fbab36"/>
    </g>
    <text id="Save_Fast_Experience_More" data-name="Save Fast Experience More" transform="translate(88.845 169.191)" fill="#0b0907" font-size="21" font-family="Raleway" font-weight="500"><tspan x="0" y="0">Save </tspan><tspan y="0" fill="#fbab36">Fast </tspan><tspan y="0">Experience </tspan><tspan y="0" fill="#fbab36">More</tspan></text>
  </g>
</svg>
