<svg id="Layer_1" data-name="Layer 1" xmlns="http://www.w3.org/2000/svg" viewBox="0 0 1181.5 113.59"><defs><style>.cls-1{fill:#6a8eae;}.cls-2,.cls-4,.cls-7{font-size:15px;font-family:Raleway-Thin, Raleway;font-weight:200;}.cls-2,.cls-4{fill:#fff;}.cls-3{letter-spacing:-0.02em;}.cls-4{letter-spacing:-0.01em;}.cls-5{letter-spacing:-0.06em;}.cls-6{letter-spacing:-0.03em;}.cls-7{fill:#0b0907;}.cls-8{letter-spacing:-0.01em;}.cls-9{letter-spacing:0em;}.cls-10{letter-spacing:-0.01em;}.cls-11{letter-spacing:-0.03em;}.cls-12{letter-spacing:-0.01em;}.cls-13{letter-spacing:-0.01em;}.cls-14{letter-spacing:0em;}.cls-15{letter-spacing:-0.11em;}.cls-16{letter-spacing:-0.03em;}.cls-17{letter-spacing:-0.01em;}.cls-18{letter-spacing:-0.03em;}.cls-19{letter-spacing:-0.03em;}.cls-20{letter-spacing:0em;}</style></defs><circle class="cls-1" cx="55.5" cy="55.5" r="55.5"/><text class="cls-2" transform="translate(15.88 60.24)">Understand</text><circle class="cls-1" cx="208.43" cy="55.87" r="55.5"/><text class="cls-2" transform="translate(179.87 60.61)">Obser<tspan class="cls-3" x="40.95" y="0">v</tspan><tspan x="48.48" y="0">e</tspan></text><circle class="cls-1" cx="361.36" cy="56.24" r="55.5"/><text class="cls-4" transform="translate(348.04 60.98)">P<tspan class="cls-5" x="9.15" y="0">o</tspan><tspan class="cls-6" x="16.98" y="0">V</tspan></text><path class="cls-1" d="M517,7.74a54.5,54.5,0,1,1-54.5,54.5A54.56,54.56,0,0,1,517,7.74m0-1a55.5,55.5,0,1,0,55.5,55.5A55.5,55.5,0,0,0,517,6.74Z" transform="translate(-2.75 -5.63)"/><text class="cls-7" transform="translate(493.51 61.35)"><tspan class="cls-8">I</tspan><tspan x="3.18" y="0">de</tspan><tspan class="cls-9" x="20.88" y="0">a</tspan><tspan class="cls-10" x="28.68" y="0">t</tspan><tspan x="32.91" y="0">e</tspan></text><path class="cls-1" d="M670,8.11a54.5,54.5,0,1,1-54.5,54.5A54.56,54.56,0,0,1,670,8.11m0-1a55.5,55.5,0,1,0,55.5,55.5A55.5,55.5,0,0,0,670,7.11Z" transform="translate(-2.75 -5.63)"/><text class="cls-7" transform="translate(634.47 61.72)">P<tspan class="cls-11" x="9.28" y="0">r</tspan><tspan class="cls-12" x="13.74" y="0">o</tspan><tspan class="cls-13" x="22.43" y="0">t</tspan><tspan class="cls-12" x="26.66" y="0">o</tspan><tspan class="cls-14" x="35.34" y="0">type</tspan></text><path class="cls-1" d="M822.89,8.48A54.5,54.5,0,1,1,768.39,63a54.56,54.56,0,0,1,54.5-54.5m0-1A55.5,55.5,0,1,0,878.39,63a55.5,55.5,0,0,0-55.5-55.5Z" transform="translate(-2.75 -5.63)"/><text class="cls-7" transform="translate(806.43 62.09)"><tspan class="cls-15">T</tspan><tspan x="7.29" y="0">est</tspan></text><path class="cls-1" d="M975.82,8.85a54.5,54.5,0,1,1-54.5,54.5,54.56,54.56,0,0,1,54.5-54.5m0-1a55.5,55.5,0,1,0,55.5,55.5,55.5,55.5,0,0,0-55.5-55.5Z" transform="translate(-2.75 -5.63)"/><text class="cls-7" transform="translate(942.59 62.46)"><tspan class="cls-15">T</tspan><tspan x="7.29" y="0">el</tspan><tspan class="cls-16" x="19.5" y="0">l</tspan><tspan x="22.6" y="0"> </tspan><tspan class="cls-17" x="26.52" y="0">S</tspan><tspan class="cls-13" x="35.46" y="0">t</tspan><tspan x="39.69" y="0">or</tspan><tspan class="cls-18" x="53.32" y="0">y</tspan></text><path class="cls-1" d="M1128.75,9.22a54.5,54.5,0,1,1-54.5,54.5,54.56,54.56,0,0,1,54.5-54.5m0-1a55.5,55.5,0,1,0,55.5,55.5,55.5,55.5,0,0,0-55.5-55.5Z" transform="translate(-2.75 -5.63)"/><text class="cls-7" transform="translate(1100.55 62.83)">P<tspan class="cls-19" x="9.28" y="0">r</tspan><tspan x="13.74" y="0">ese</tspan><tspan class="cls-20" x="38.08" y="0">n</tspan><tspan class="cls-14" x="46.48" y="0">t</tspan></text></svg>