<svg xmlns="http://www.w3.org/2000/svg" width="482.057" height="743.39" viewBox="0 0 482.057 743.39"><defs><style>.a{fill:#6a8eae;}.a,.c,.d,.e{fill-rule:evenodd;}.b{fill:#fff;}.c{fill:rgba(0,0,0,0);}.d{fill:none;stroke-linejoin:round;}.d,.e{stroke:#000;stroke-miterlimit:10;}.f{fill:#0b0907;font-size:28px;font-family:Raleway;}</style></defs><g transform="translate(-1234 -3829)"><g transform="translate(-1642 79)"><path class="a" d="M503.73,137.928h0a11.019,11.019,0,0,1,11.019-11.019H629.31a11.019,11.019,0,0,1,11.019,11.019V182A11.019,11.019,0,0,1,629.31,193.02H514.749A11.019,11.019,0,0,1,503.73,182Z" transform="translate(2545 3776)"/><path class="b" d="M527.832,166.885V153.526h4.609a10.578,10.578,0,0,1,2.375.2,4.352,4.352,0,0,1,1.953.953,5.33,5.33,0,0,1,1.578,2.281,8.843,8.843,0,0,1,.531,3.172,9.334,9.334,0,0,1-.359,2.7,6.448,6.448,0,0,1-.922,1.938,4.959,4.959,0,0,1-1.2,1.219,5.069,5.069,0,0,1-1.594.672,9.465,9.465,0,0,1-2.141.219h-4.828Zm1.766-1.578h2.859a7.188,7.188,0,0,0,2.063-.234,3.018,3.018,0,0,0,1.2-.7,4.143,4.143,0,0,0,.969-1.687,8.1,8.1,0,0,0,.359-2.578,6.213,6.213,0,0,0-.687-3.219,3.417,3.417,0,0,0-1.672-1.5,6.666,6.666,0,0,0-2.281-.281H529.6v10.2Zm17.817.391a6.529,6.529,0,0,1-1.766,1.094,5.049,5.049,0,0,1-1.8.313,3.521,3.521,0,0,1-2.453-.781,2.723,2.723,0,0,1-.531-3.281,2.631,2.631,0,0,1,.844-.937,4.126,4.126,0,0,1,1.188-.547,12.076,12.076,0,0,1,1.453-.25,14.865,14.865,0,0,0,2.922-.562q.016-.344.016-.422a1.838,1.838,0,0,0-.469-1.422,2.779,2.779,0,0,0-1.875-.547,2.869,2.869,0,0,0-1.7.406,2.489,2.489,0,0,0-.812,1.422l-1.609-.219a3.906,3.906,0,0,1,.719-1.641,3.133,3.133,0,0,1,1.453-.984,6.429,6.429,0,0,1,2.188-.344,5.679,5.679,0,0,1,2.016.3,2.492,2.492,0,0,1,1.141.734,2.437,2.437,0,0,1,.516,1.109,9.751,9.751,0,0,1,.078,1.516v2.188a22.262,22.262,0,0,0,.109,2.891,4.033,4.033,0,0,0,.406,1.156h-1.7A3.222,3.222,0,0,1,547.414,165.7Zm-.141-3.672a11.371,11.371,0,0,1-2.672.625,5.91,5.91,0,0,0-1.437.328,1.518,1.518,0,0,0-.656.531,1.424,1.424,0,0,0-.219.781,1.393,1.393,0,0,0,.5,1.094,2.144,2.144,0,0,0,1.453.438,3.4,3.4,0,0,0,1.672-.406,2.565,2.565,0,0,0,1.094-1.141,3.974,3.974,0,0,0,.266-1.641Zm3.548,1.969,1.625-.25a2.263,2.263,0,0,0,.75,1.5,2.676,2.676,0,0,0,1.75.516,2.584,2.584,0,0,0,1.672-.453,1.405,1.405,0,0,0,.547-1.094,1.01,1.01,0,0,0-.484-.875,6.747,6.747,0,0,0-1.672-.547,16.6,16.6,0,0,1-2.516-.8,2.422,2.422,0,0,1-1.047-.906,2.486,2.486,0,0,1-.359-1.312,2.449,2.449,0,0,1,.3-1.187,2.567,2.567,0,0,1,.813-.922,3.177,3.177,0,0,1,1.031-.469,4.888,4.888,0,0,1,1.422-.2,5.59,5.59,0,0,1,2,.328,2.688,2.688,0,0,1,1.266.891,3.4,3.4,0,0,1,.578,1.5l-1.609.219a1.755,1.755,0,0,0-.641-1.172,2.264,2.264,0,0,0-1.469-.422,2.7,2.7,0,0,0-1.625.375,1.1,1.1,0,0,0-.469.875.982.982,0,0,0,.188.578,1.45,1.45,0,0,0,.641.438q.234.094,1.438.422a19.09,19.09,0,0,1,2.438.75,2.468,2.468,0,0,1,1.078.859,2.407,2.407,0,0,1,.391,1.406,2.716,2.716,0,0,1-.484,1.547,3.1,3.1,0,0,1-1.375,1.125,5.123,5.123,0,0,1-2.047.391,4.587,4.587,0,0,1-2.875-.781A3.619,3.619,0,0,1,550.821,163.994Zm9.984,2.891V153.526h1.641v4.8a3.645,3.645,0,0,1,2.891-1.328,3.859,3.859,0,0,1,1.859.422,2.483,2.483,0,0,1,1.141,1.172,5.391,5.391,0,0,1,.344,2.172v6.125H567.04V160.76a2.555,2.555,0,0,0-.531-1.8,1.985,1.985,0,0,0-1.516-.562,2.569,2.569,0,0,0-1.359.391,2.171,2.171,0,0,0-.922,1.016,4.787,4.787,0,0,0-.266,1.781v5.3h-1.641Zm11.876,0h-1.516V153.526h1.641v4.766a3.27,3.27,0,0,1,2.656-1.3,4.058,4.058,0,0,1,1.688.359,3.435,3.435,0,0,1,1.313,1.016,4.6,4.6,0,0,1,.8,1.563,6.385,6.385,0,0,1,.3,1.969,5.517,5.517,0,0,1-1.234,3.844,3.824,3.824,0,0,1-2.953,1.359,3.092,3.092,0,0,1-2.687-1.437v1.219Zm-.016-4.906a4.954,4.954,0,0,0,.484,2.516,2.341,2.341,0,0,0,3.953.328,4.258,4.258,0,0,0,.781-2.781,4.334,4.334,0,0,0-.75-2.8,2.292,2.292,0,0,0-1.828-.906,2.382,2.382,0,0,0-1.859.938A4.12,4.12,0,0,0,572.666,161.979Zm8.282.063a4.965,4.965,0,0,1,1.484-3.969,4.5,4.5,0,0,1,3.047-1.078,4.336,4.336,0,0,1,3.266,1.313,4.949,4.949,0,0,1,1.266,3.609,6.406,6.406,0,0,1-.562,2.938,3.99,3.99,0,0,1-1.641,1.656,4.692,4.692,0,0,1-2.328.594,4.35,4.35,0,0,1-3.281-1.3A5.25,5.25,0,0,1,580.948,162.041Zm1.688,0a4.226,4.226,0,0,0,.8,2.8,2.716,2.716,0,0,0,4.078,0,4.25,4.25,0,0,0,.813-2.844,4,4,0,0,0-.812-2.719,2.716,2.716,0,0,0-4.078,0A4.1,4.1,0,0,0,582.635,162.041Zm15.61,3.656a6.529,6.529,0,0,1-1.766,1.094,5.049,5.049,0,0,1-1.8.313,3.521,3.521,0,0,1-2.453-.781,2.723,2.723,0,0,1-.531-3.281,2.631,2.631,0,0,1,.844-.937,4.126,4.126,0,0,1,1.188-.547,12.076,12.076,0,0,1,1.453-.25,14.865,14.865,0,0,0,2.922-.562q.016-.344.016-.422a1.838,1.838,0,0,0-.469-1.422,2.779,2.779,0,0,0-1.875-.547,2.869,2.869,0,0,0-1.7.406,2.489,2.489,0,0,0-.812,1.422l-1.609-.219a3.906,3.906,0,0,1,.719-1.641,3.133,3.133,0,0,1,1.453-.984,6.429,6.429,0,0,1,2.188-.344,5.679,5.679,0,0,1,2.016.3,2.492,2.492,0,0,1,1.141.734,2.437,2.437,0,0,1,.516,1.109,9.751,9.751,0,0,1,.078,1.516v2.188a22.262,22.262,0,0,0,.109,2.891,4.033,4.033,0,0,0,.406,1.156h-1.7A3.222,3.222,0,0,1,598.245,165.7Zm-.141-3.672a11.371,11.371,0,0,1-2.672.625,5.91,5.91,0,0,0-1.437.328,1.518,1.518,0,0,0-.656.531,1.424,1.424,0,0,0-.219.781,1.393,1.393,0,0,0,.5,1.094,2.144,2.144,0,0,0,1.453.438,3.4,3.4,0,0,0,1.672-.406,2.565,2.565,0,0,0,1.094-1.141,3.974,3.974,0,0,0,.266-1.641Zm4.188,4.859v-9.672h1.469v1.469a4.067,4.067,0,0,1,1.031-1.359,1.855,1.855,0,0,1,1.063-.328,3.2,3.2,0,0,1,1.688.531l-.562,1.516a2.357,2.357,0,0,0-1.2-.359,1.535,1.535,0,0,0-.969.328,1.827,1.827,0,0,0-.609.891,6.253,6.253,0,0,0-.281,1.922v5.063Zm12.494,0v-1.219a2.988,2.988,0,0,1-2.7,1.438,3.773,3.773,0,0,1-2.125-.641,4.209,4.209,0,0,1-1.5-1.781,6.152,6.152,0,0,1-.531-2.625,6.813,6.813,0,0,1,.484-2.625,3.819,3.819,0,0,1,1.438-1.812,3.92,3.92,0,0,1,2.172-.625,3.266,3.266,0,0,1,2.656,1.328v-4.8h1.641v13.359h-1.531Zm-5.172-4.828a4.219,4.219,0,0,0,.781,2.781,2.351,2.351,0,0,0,1.844.922,2.322,2.322,0,0,0,1.828-.875,4.1,4.1,0,0,0,.75-2.687,4.512,4.512,0,0,0-.766-2.906,2.352,2.352,0,0,0-1.891-.937,2.262,2.262,0,0,0-1.812.891A4.392,4.392,0,0,0,609.615,162.057Z" transform="translate(2545 3776)"/><path class="a" d="M676.459,242.8h0a11.019,11.019,0,0,1,11.019-11.019H802.039A11.019,11.019,0,0,1,813.057,242.8v44.073a11.019,11.019,0,0,1-11.019,11.019H687.478a11.019,11.019,0,0,1-11.019-11.019Z" transform="translate(2545 3776)"/><path class="b" d="M701.213,260.759V248.978h-4.406V247.4h10.578v1.578h-4.406v11.781Zm7.078,0v-9.672h1.469v1.469a4.067,4.067,0,0,1,1.031-1.359,1.855,1.855,0,0,1,1.063-.328,3.2,3.2,0,0,1,1.688.531l-.562,1.516a2.357,2.357,0,0,0-1.2-.359,1.535,1.535,0,0,0-.969.328,1.827,1.827,0,0,0-.609.891,6.253,6.253,0,0,0-.281,1.922v5.062Zm12.541-1.187a6.529,6.529,0,0,1-1.766,1.094,5.049,5.049,0,0,1-1.8.313,3.521,3.521,0,0,1-2.453-.781,2.723,2.723,0,0,1-.531-3.281,2.631,2.631,0,0,1,.844-.937,4.126,4.126,0,0,1,1.188-.547,12.076,12.076,0,0,1,1.453-.25,14.865,14.865,0,0,0,2.922-.562q.016-.344.016-.422a1.838,1.838,0,0,0-.469-1.422,2.779,2.779,0,0,0-1.875-.547,2.869,2.869,0,0,0-1.7.406,2.489,2.489,0,0,0-.812,1.422l-1.609-.219a3.906,3.906,0,0,1,.719-1.641,3.133,3.133,0,0,1,1.453-.984,6.429,6.429,0,0,1,2.188-.344,5.679,5.679,0,0,1,2.016.3,2.492,2.492,0,0,1,1.141.734,2.437,2.437,0,0,1,.516,1.109,9.751,9.751,0,0,1,.078,1.516v2.187a22.261,22.261,0,0,0,.109,2.891,4.033,4.033,0,0,0,.406,1.156h-1.7A3.222,3.222,0,0,1,720.832,259.572Zm-.141-3.672a11.37,11.37,0,0,1-2.672.625,5.91,5.91,0,0,0-1.437.328,1.518,1.518,0,0,0-.656.531,1.424,1.424,0,0,0-.219.781,1.393,1.393,0,0,0,.5,1.094,2.144,2.144,0,0,0,1.453.438,3.4,3.4,0,0,0,1.672-.406,2.565,2.565,0,0,0,1.094-1.141,3.974,3.974,0,0,0,.266-1.641Zm4.2,4.859v-9.672h1.469v1.375a3.472,3.472,0,0,1,3.078-1.594,4.068,4.068,0,0,1,1.609.313,2.462,2.462,0,0,1,1.094.828,2.933,2.933,0,0,1,.516,1.2,9.1,9.1,0,0,1,.094,1.594v5.953h-1.641v-5.891a4.067,4.067,0,0,0-.2-1.484,1.562,1.562,0,0,0-.672-.8,2.139,2.139,0,0,0-1.141-.3,2.658,2.658,0,0,0-1.812.672,3.28,3.28,0,0,0-.75,2.516v5.281Zm9.719-2.891,1.625-.25a2.263,2.263,0,0,0,.75,1.5,2.676,2.676,0,0,0,1.75.516,2.584,2.584,0,0,0,1.672-.453,1.405,1.405,0,0,0,.547-1.094,1.01,1.01,0,0,0-.484-.875,6.746,6.746,0,0,0-1.672-.547,16.6,16.6,0,0,1-2.516-.8,2.422,2.422,0,0,1-1.047-.906,2.486,2.486,0,0,1-.359-1.312,2.449,2.449,0,0,1,.3-1.187,2.567,2.567,0,0,1,.813-.922,3.177,3.177,0,0,1,1.031-.469,4.888,4.888,0,0,1,1.422-.2,5.59,5.59,0,0,1,2,.328,2.688,2.688,0,0,1,1.266.891,3.4,3.4,0,0,1,.578,1.5l-1.609.219a1.755,1.755,0,0,0-.641-1.172,2.264,2.264,0,0,0-1.469-.422,2.7,2.7,0,0,0-1.625.375,1.1,1.1,0,0,0-.469.875.982.982,0,0,0,.188.578,1.45,1.45,0,0,0,.641.438q.234.094,1.438.422a19.09,19.09,0,0,1,2.438.75,2.468,2.468,0,0,1,1.078.859,2.407,2.407,0,0,1,.391,1.406,2.716,2.716,0,0,1-.484,1.547,3.1,3.1,0,0,1-1.375,1.125,5.124,5.124,0,0,1-2.047.391,4.587,4.587,0,0,1-2.875-.781A3.619,3.619,0,0,1,734.615,257.868Zm16.3,1.7a6.529,6.529,0,0,1-1.766,1.094,5.049,5.049,0,0,1-1.8.313,3.521,3.521,0,0,1-2.453-.781,2.723,2.723,0,0,1-.531-3.281,2.631,2.631,0,0,1,.844-.937,4.126,4.126,0,0,1,1.188-.547,12.076,12.076,0,0,1,1.453-.25,14.865,14.865,0,0,0,2.922-.562q.016-.344.016-.422a1.838,1.838,0,0,0-.469-1.422,2.779,2.779,0,0,0-1.875-.547,2.869,2.869,0,0,0-1.7.406,2.489,2.489,0,0,0-.812,1.422l-1.609-.219a3.906,3.906,0,0,1,.719-1.641,3.133,3.133,0,0,1,1.453-.984,6.429,6.429,0,0,1,2.188-.344,5.679,5.679,0,0,1,2.016.3,2.492,2.492,0,0,1,1.141.734,2.437,2.437,0,0,1,.516,1.109,9.751,9.751,0,0,1,.078,1.516v2.187a22.261,22.261,0,0,0,.109,2.891,4.033,4.033,0,0,0,.406,1.156h-1.7A3.222,3.222,0,0,1,750.912,259.572Zm-.141-3.672a11.37,11.37,0,0,1-2.672.625,5.91,5.91,0,0,0-1.437.328,1.518,1.518,0,0,0-.656.531,1.424,1.424,0,0,0-.219.781,1.393,1.393,0,0,0,.5,1.094,2.144,2.144,0,0,0,1.453.438,3.4,3.4,0,0,0,1.672-.406,2.565,2.565,0,0,0,1.094-1.141,3.974,3.974,0,0,0,.266-1.641Zm10.516,1.312,1.609.219a4.212,4.212,0,0,1-1.359,2.609,3.927,3.927,0,0,1-2.672.938,4.141,4.141,0,0,1-3.187-1.3,5.271,5.271,0,0,1-1.2-3.719,6.783,6.783,0,0,1,.516-2.75,3.554,3.554,0,0,1,1.578-1.75,4.662,4.662,0,0,1,2.313-.594,4.01,4.01,0,0,1,2.578.8,3.655,3.655,0,0,1,1.281,2.266l-1.594.234a2.636,2.636,0,0,0-.812-1.453,2.054,2.054,0,0,0-1.391-.5,2.558,2.558,0,0,0-2.016.891,4.2,4.2,0,0,0-.781,2.813,4.383,4.383,0,0,0,.75,2.844,2.451,2.451,0,0,0,1.953.875,2.276,2.276,0,0,0,1.609-.594A2.918,2.918,0,0,0,761.287,257.212Zm6.594,2.078.234,1.453a6.225,6.225,0,0,1-1.234.141,2.858,2.858,0,0,1-1.391-.281,1.606,1.606,0,0,1-.687-.734,5.852,5.852,0,0,1-.2-1.937v-5.578h-1.2v-1.266h1.2V248.7l1.625-.984v3.375h1.656v1.266h-1.656v5.672a3.109,3.109,0,0,0,.078.891.781.781,0,0,0,.281.328,1.24,1.24,0,0,0,.578.109A5.562,5.562,0,0,0,767.881,259.29Zm1.605-10V247.4h1.641v1.891Zm0,11.469v-9.672h1.641v9.672Zm3.535-4.844a4.965,4.965,0,0,1,1.484-3.969,4.5,4.5,0,0,1,3.047-1.078,4.336,4.336,0,0,1,3.266,1.313,4.949,4.949,0,0,1,1.266,3.609,6.406,6.406,0,0,1-.562,2.938,3.99,3.99,0,0,1-1.641,1.656,4.692,4.692,0,0,1-2.328.594,4.35,4.35,0,0,1-3.281-1.3A5.25,5.25,0,0,1,773.022,255.915Zm1.688,0a4.226,4.226,0,0,0,.8,2.8,2.716,2.716,0,0,0,4.078,0,4.25,4.25,0,0,0,.813-2.844,4,4,0,0,0-.812-2.719,2.716,2.716,0,0,0-4.078,0A4.1,4.1,0,0,0,774.709,255.915Zm9.3,4.844v-9.672h1.469v1.375a3.472,3.472,0,0,1,3.078-1.594,4.068,4.068,0,0,1,1.609.313,2.462,2.462,0,0,1,1.094.828,2.933,2.933,0,0,1,.516,1.2,9.1,9.1,0,0,1,.094,1.594v5.953h-1.641v-5.891a4.067,4.067,0,0,0-.2-1.484,1.562,1.562,0,0,0-.672-.8,2.139,2.139,0,0,0-1.141-.3,2.658,2.658,0,0,0-1.812.672,3.28,3.28,0,0,0-.75,2.516v5.281Z" transform="translate(2545 3776)"/><path class="b" d="M706.79,276.259a7.25,7.25,0,0,1,1.781-5.2,6.047,6.047,0,0,1,4.609-1.891,6.343,6.343,0,0,1,3.328.891,5.717,5.717,0,0,1,2.266,2.469,7.958,7.958,0,0,1,.781,3.578,7.841,7.841,0,0,1-.828,3.641,5.592,5.592,0,0,1-2.312,2.422,6.615,6.615,0,0,1-3.25.828,6.317,6.317,0,0,1-3.359-.906,5.934,5.934,0,0,1-2.25-2.5A7.529,7.529,0,0,1,706.79,276.259Zm1.813.016a5.37,5.37,0,0,0,1.3,3.813,4.53,4.53,0,0,0,6.547-.016,5.707,5.707,0,0,0,1.281-3.984,6.891,6.891,0,0,0-.547-2.844,4.123,4.123,0,0,0-1.609-1.875,4.352,4.352,0,0,0-2.375-.672,4.544,4.544,0,0,0-3.25,1.3Q708.6,273.275,708.6,276.275Zm15.715,6.484-3.687-9.672h1.734l2.078,5.8q.328.938.625,1.938a18.662,18.662,0,0,1,.609-1.828l2.141-5.906H729.5l-3.656,9.672Zm13.266-3.109,1.688.2a4.214,4.214,0,0,1-1.484,2.313,5.072,5.072,0,0,1-6.141-.484,5.15,5.15,0,0,1-1.234-3.672,5.366,5.366,0,0,1,1.25-3.8,4.284,4.284,0,0,1,3.266-1.344,4.087,4.087,0,0,1,3.156,1.328,5.2,5.2,0,0,1,1.234,3.7v.438H732.1A3.774,3.774,0,0,0,733,280.79a2.685,2.685,0,0,0,2.016.844,2.548,2.548,0,0,0,1.547-.469A3.214,3.214,0,0,0,737.583,279.65Zm-5.391-2.656H737.6a3.241,3.241,0,0,0-.625-1.828,2.5,2.5,0,0,0-2.031-.953,2.621,2.621,0,0,0-1.906.766A2.963,2.963,0,0,0,732.192,276.993Zm9.126,5.766v-9.672h1.469v1.469a4.067,4.067,0,0,1,1.031-1.359,1.855,1.855,0,0,1,1.063-.328,3.2,3.2,0,0,1,1.688.531l-.562,1.516a2.357,2.357,0,0,0-1.2-.359,1.535,1.535,0,0,0-.969.328,1.827,1.827,0,0,0-.609.891,6.253,6.253,0,0,0-.281,1.922v5.063Zm8.916,0-3.687-9.672h1.734l2.078,5.8q.328.938.625,1.938a18.662,18.662,0,0,1,.609-1.828l2.141-5.906h1.688l-3.656,9.672Zm6.641-11.469V269.4h1.641v1.891Zm0,11.469v-9.672h1.641v9.672Zm10.77-3.109,1.688.2a4.214,4.214,0,0,1-1.484,2.313,5.072,5.072,0,0,1-6.141-.484,5.15,5.15,0,0,1-1.234-3.672,5.366,5.366,0,0,1,1.25-3.8,4.284,4.284,0,0,1,3.266-1.344,4.087,4.087,0,0,1,3.156,1.328,5.2,5.2,0,0,1,1.234,3.7v.438H762.16a3.774,3.774,0,0,0,.906,2.453,2.685,2.685,0,0,0,2.016.844,2.548,2.548,0,0,0,1.547-.469A3.214,3.214,0,0,0,767.644,279.65Zm-5.391-2.656h5.406a3.241,3.241,0,0,0-.625-1.828,2.5,2.5,0,0,0-2.031-.953,2.621,2.621,0,0,0-1.906.766A2.963,2.963,0,0,0,762.253,276.993Zm10.922,5.766-2.969-9.672h1.7l1.531,5.578.578,2.078q.047-.156.5-2l1.547-5.656h1.688l1.438,5.609.484,1.844.563-1.859,1.656-5.594h1.594l-3.031,9.672h-1.7l-1.531-5.8-.375-1.641-1.953,7.438Z" transform="translate(2545 3776)"/><path class="a" d="M503.73,242.8h0a11.019,11.019,0,0,1,11.019-11.019H629.31A11.019,11.019,0,0,1,640.328,242.8v44.073a11.019,11.019,0,0,1-11.019,11.019H514.749a11.019,11.019,0,0,1-11.019-11.019Z" transform="translate(2545 3776)"/><path class="b" d="M527.516,256.071l1.766.453a6.064,6.064,0,0,1-2,3.328,5.5,5.5,0,0,1-3.531,1.141,6.4,6.4,0,0,1-3.516-.875,5.667,5.667,0,0,1-2.062-2.547,9.175,9.175,0,0,1-.7-3.594,7.814,7.814,0,0,1,.8-3.625,5.4,5.4,0,0,1,2.266-2.359,6.658,6.658,0,0,1,3.25-.812,5.455,5.455,0,0,1,3.359,1.016,5.228,5.228,0,0,1,1.906,2.875l-1.734.406a4.073,4.073,0,0,0-1.359-2.109,3.512,3.512,0,0,0-2.2-.672,4.333,4.333,0,0,0-2.578.734,3.9,3.9,0,0,0-1.453,1.984,7.869,7.869,0,0,0-.422,2.563,8.055,8.055,0,0,0,.5,2.969,3.781,3.781,0,0,0,1.547,1.906,4.342,4.342,0,0,0,2.266.625,3.8,3.8,0,0,0,2.516-.859A4.371,4.371,0,0,0,527.516,256.071Zm3.723,4.688v-9.672h1.469v1.469a4.067,4.067,0,0,1,1.031-1.359,1.855,1.855,0,0,1,1.063-.328,3.2,3.2,0,0,1,1.688.531l-.562,1.516a2.357,2.357,0,0,0-1.2-.359,1.535,1.535,0,0,0-.969.328,1.827,1.827,0,0,0-.609.891,6.253,6.253,0,0,0-.281,1.922v5.062Zm12.853-3.109,1.688.2a4.214,4.214,0,0,1-1.484,2.313,5.072,5.072,0,0,1-6.141-.484,5.15,5.15,0,0,1-1.234-3.672,5.366,5.366,0,0,1,1.25-3.8,4.284,4.284,0,0,1,3.266-1.344,4.087,4.087,0,0,1,3.156,1.328,5.2,5.2,0,0,1,1.234,3.7v.437h-7.219a3.774,3.774,0,0,0,.906,2.453,2.685,2.685,0,0,0,2.016.844,2.548,2.548,0,0,0,1.547-.469A3.214,3.214,0,0,0,544.092,257.649Zm-5.391-2.656h5.406a3.241,3.241,0,0,0-.625-1.828,2.5,2.5,0,0,0-2.031-.953,2.621,2.621,0,0,0-1.906.766A2.963,2.963,0,0,0,538.7,254.993Zm15.454,4.578a6.529,6.529,0,0,1-1.766,1.094,5.049,5.049,0,0,1-1.8.313,3.521,3.521,0,0,1-2.453-.781,2.723,2.723,0,0,1-.531-3.281,2.631,2.631,0,0,1,.844-.937,4.126,4.126,0,0,1,1.188-.547,12.076,12.076,0,0,1,1.453-.25,14.865,14.865,0,0,0,2.922-.562q.016-.344.016-.422a1.838,1.838,0,0,0-.469-1.422,2.779,2.779,0,0,0-1.875-.547,2.869,2.869,0,0,0-1.7.406,2.489,2.489,0,0,0-.812,1.422l-1.609-.219a3.906,3.906,0,0,1,.719-1.641,3.133,3.133,0,0,1,1.453-.984,6.429,6.429,0,0,1,2.188-.344,5.679,5.679,0,0,1,2.016.3,2.492,2.492,0,0,1,1.141.734,2.437,2.437,0,0,1,.516,1.109,9.751,9.751,0,0,1,.078,1.516v2.187a22.261,22.261,0,0,0,.109,2.891,4.033,4.033,0,0,0,.406,1.156h-1.7A3.222,3.222,0,0,1,554.156,259.571Zm-.141-3.672a11.37,11.37,0,0,1-2.672.625,5.91,5.91,0,0,0-1.437.328,1.518,1.518,0,0,0-.656.531,1.424,1.424,0,0,0-.219.781,1.393,1.393,0,0,0,.5,1.094,2.144,2.144,0,0,0,1.453.438,3.4,3.4,0,0,0,1.672-.406,2.565,2.565,0,0,0,1.094-1.141,3.974,3.974,0,0,0,.266-1.641Zm7.782,3.391.234,1.453a6.225,6.225,0,0,1-1.234.141,2.858,2.858,0,0,1-1.391-.281,1.606,1.606,0,0,1-.687-.734,5.852,5.852,0,0,1-.2-1.937v-5.578h-1.2v-1.266h1.2V248.7l1.625-.984v3.375H561.8v1.266h-1.656v5.672a3.109,3.109,0,0,0,.078.891.781.781,0,0,0,.281.328,1.24,1.24,0,0,0,.578.109A5.562,5.562,0,0,0,561.8,259.29Zm8.23-1.641,1.688.2a4.214,4.214,0,0,1-1.484,2.313,5.072,5.072,0,0,1-6.141-.484,5.15,5.15,0,0,1-1.234-3.672,5.366,5.366,0,0,1,1.25-3.8,4.284,4.284,0,0,1,3.266-1.344,4.087,4.087,0,0,1,3.156,1.328,5.2,5.2,0,0,1,1.234,3.7v.437h-7.219a3.774,3.774,0,0,0,.906,2.453,2.685,2.685,0,0,0,2.016.844,2.548,2.548,0,0,0,1.547-.469A3.214,3.214,0,0,0,570.027,257.649Zm-5.391-2.656h5.406a3.241,3.241,0,0,0-.625-1.828,2.5,2.5,0,0,0-2.031-.953,2.621,2.621,0,0,0-1.906.766A2.963,2.963,0,0,0,564.636,254.993Zm20.637,4.578a6.529,6.529,0,0,1-1.766,1.094,5.049,5.049,0,0,1-1.8.313,3.521,3.521,0,0,1-2.453-.781,2.723,2.723,0,0,1-.531-3.281,2.631,2.631,0,0,1,.844-.937,4.126,4.126,0,0,1,1.188-.547,12.076,12.076,0,0,1,1.453-.25,14.865,14.865,0,0,0,2.922-.562q.016-.344.016-.422a1.838,1.838,0,0,0-.469-1.422,2.779,2.779,0,0,0-1.875-.547,2.869,2.869,0,0,0-1.7.406,2.489,2.489,0,0,0-.812,1.422l-1.609-.219a3.906,3.906,0,0,1,.719-1.641,3.133,3.133,0,0,1,1.453-.984,6.429,6.429,0,0,1,2.188-.344,5.679,5.679,0,0,1,2.016.3,2.492,2.492,0,0,1,1.141.734,2.437,2.437,0,0,1,.516,1.109,9.751,9.751,0,0,1,.078,1.516v2.187a22.261,22.261,0,0,0,.109,2.891,4.033,4.033,0,0,0,.406,1.156h-1.7A3.222,3.222,0,0,1,585.273,259.571Zm-.141-3.672a11.37,11.37,0,0,1-2.672.625,5.91,5.91,0,0,0-1.437.328,1.518,1.518,0,0,0-.656.531,1.424,1.424,0,0,0-.219.781,1.393,1.393,0,0,0,.5,1.094,2.144,2.144,0,0,0,1.453.438,3.4,3.4,0,0,0,1.672-.406,2.565,2.565,0,0,0,1.094-1.141,3.974,3.974,0,0,0,.266-1.641Zm9.387,4.859v-9.672h1.469v1.375a3.472,3.472,0,0,1,3.078-1.594,4.068,4.068,0,0,1,1.609.313,2.462,2.462,0,0,1,1.094.828,2.933,2.933,0,0,1,.516,1.2,9.1,9.1,0,0,1,.094,1.594v5.953h-1.641v-5.891a4.067,4.067,0,0,0-.2-1.484,1.562,1.562,0,0,0-.672-.8,2.139,2.139,0,0,0-1.141-.3,2.658,2.658,0,0,0-1.812.672,3.28,3.28,0,0,0-.75,2.516v5.281Zm17-3.109,1.688.2a4.214,4.214,0,0,1-1.484,2.313,5.072,5.072,0,0,1-6.141-.484,5.15,5.15,0,0,1-1.234-3.672,5.366,5.366,0,0,1,1.25-3.8,4.284,4.284,0,0,1,3.266-1.344,4.087,4.087,0,0,1,3.156,1.328,5.2,5.2,0,0,1,1.234,3.7v.437h-7.219a3.774,3.774,0,0,0,.906,2.453,2.685,2.685,0,0,0,2.016.844,2.548,2.548,0,0,0,1.547-.469A3.214,3.214,0,0,0,611.521,257.649Zm-5.391-2.656h5.406a3.241,3.241,0,0,0-.625-1.828,2.5,2.5,0,0,0-2.031-.953,2.621,2.621,0,0,0-1.906.766A2.963,2.963,0,0,0,606.13,254.993Zm10.922,5.766-2.969-9.672h1.7l1.531,5.578.578,2.078q.047-.156.5-2l1.547-5.656h1.688l1.438,5.609.484,1.844.563-1.859,1.656-5.594h1.594l-3.031,9.672h-1.7l-1.531-5.8-.375-1.641-1.953,7.437Z" transform="translate(2545 3776)"/><path class="b" d="M556.034,278.071l1.766.453a6.064,6.064,0,0,1-2,3.328,5.5,5.5,0,0,1-3.531,1.141,6.4,6.4,0,0,1-3.516-.875,5.667,5.667,0,0,1-2.062-2.547,9.175,9.175,0,0,1-.7-3.594,7.814,7.814,0,0,1,.8-3.625,5.4,5.4,0,0,1,2.266-2.359,6.658,6.658,0,0,1,3.25-.812,5.454,5.454,0,0,1,3.359,1.016,5.228,5.228,0,0,1,1.906,2.875l-1.734.406a4.073,4.073,0,0,0-1.359-2.109,3.512,3.512,0,0,0-2.2-.672,4.333,4.333,0,0,0-2.578.734,3.9,3.9,0,0,0-1.453,1.984,7.869,7.869,0,0,0-.422,2.563,8.055,8.055,0,0,0,.5,2.969,3.781,3.781,0,0,0,1.547,1.906,4.342,4.342,0,0,0,2.266.625,3.8,3.8,0,0,0,2.516-.859A4.371,4.371,0,0,0,556.034,278.071Zm10.051,3.5a6.529,6.529,0,0,1-1.766,1.094,5.049,5.049,0,0,1-1.8.313,3.521,3.521,0,0,1-2.453-.781,2.723,2.723,0,0,1-.531-3.281,2.631,2.631,0,0,1,.844-.937,4.126,4.126,0,0,1,1.188-.547,12.076,12.076,0,0,1,1.453-.25,14.865,14.865,0,0,0,2.922-.562q.016-.344.016-.422a1.838,1.838,0,0,0-.469-1.422,2.779,2.779,0,0,0-1.875-.547,2.869,2.869,0,0,0-1.7.406,2.489,2.489,0,0,0-.812,1.422l-1.609-.219a3.905,3.905,0,0,1,.719-1.641,3.133,3.133,0,0,1,1.453-.984,6.429,6.429,0,0,1,2.188-.344,5.679,5.679,0,0,1,2.016.3,2.492,2.492,0,0,1,1.141.734,2.437,2.437,0,0,1,.516,1.109,9.751,9.751,0,0,1,.078,1.516v2.188a22.261,22.261,0,0,0,.109,2.891,4.033,4.033,0,0,0,.406,1.156h-1.7A3.222,3.222,0,0,1,566.085,281.571Zm-.141-3.672a11.37,11.37,0,0,1-2.672.625,5.91,5.91,0,0,0-1.437.328,1.518,1.518,0,0,0-.656.531,1.424,1.424,0,0,0-.219.781,1.393,1.393,0,0,0,.5,1.094,2.144,2.144,0,0,0,1.453.438,3.4,3.4,0,0,0,1.672-.406,2.565,2.565,0,0,0,1.094-1.141,3.974,3.974,0,0,0,.266-1.641Zm10.516,1.313,1.609.219a4.212,4.212,0,0,1-1.359,2.609,3.927,3.927,0,0,1-2.672.938,4.141,4.141,0,0,1-3.187-1.3,5.271,5.271,0,0,1-1.2-3.719,6.783,6.783,0,0,1,.516-2.75,3.554,3.554,0,0,1,1.578-1.75,4.662,4.662,0,0,1,2.313-.594,4.01,4.01,0,0,1,2.578.8,3.655,3.655,0,0,1,1.281,2.266l-1.594.234a2.636,2.636,0,0,0-.812-1.453,2.054,2.054,0,0,0-1.391-.5,2.558,2.558,0,0,0-2.016.891,4.2,4.2,0,0,0-.781,2.813,4.383,4.383,0,0,0,.75,2.844,2.451,2.451,0,0,0,1.953.875,2.276,2.276,0,0,0,1.609-.594A2.918,2.918,0,0,0,576.461,279.212Zm3.016,3.547V269.4h1.641v4.8a3.645,3.645,0,0,1,2.891-1.328,3.859,3.859,0,0,1,1.859.422,2.483,2.483,0,0,1,1.141,1.172,5.391,5.391,0,0,1,.344,2.172v6.125h-1.641v-6.125a2.555,2.555,0,0,0-.531-1.8,1.985,1.985,0,0,0-1.516-.562,2.569,2.569,0,0,0-1.359.391,2.171,2.171,0,0,0-.922,1.016,4.787,4.787,0,0,0-.266,1.781v5.3h-1.641Zm17-3.109,1.688.2a4.214,4.214,0,0,1-1.484,2.313,5.072,5.072,0,0,1-6.141-.484,5.15,5.15,0,0,1-1.234-3.672,5.366,5.366,0,0,1,1.25-3.8,4.284,4.284,0,0,1,3.266-1.344,4.087,4.087,0,0,1,3.156,1.328,5.2,5.2,0,0,1,1.234,3.7v.438h-7.219a3.774,3.774,0,0,0,.906,2.453,2.685,2.685,0,0,0,2.016.844,2.548,2.548,0,0,0,1.547-.469A3.214,3.214,0,0,0,596.477,279.649Zm-5.391-2.656h5.406a3.241,3.241,0,0,0-.625-1.828,2.5,2.5,0,0,0-2.031-.953,2.621,2.621,0,0,0-1.906.766A2.963,2.963,0,0,0,591.087,276.993Z" transform="translate(2545 3776)"/><path class="a" d="M503.73,347.676h0a11.019,11.019,0,0,1,11.019-11.019H629.31a11.019,11.019,0,0,1,11.019,11.019v44.073a11.019,11.019,0,0,1-11.019,11.019H514.749a11.019,11.019,0,0,1-11.019-11.019Z" transform="translate(2545 3776)"/><path class="b" d="M529.72,361.009l1.641.406a5.524,5.524,0,0,1-1.859,3.094,5.126,5.126,0,0,1-3.281,1.063,5.951,5.951,0,0,1-3.266-.812,5.189,5.189,0,0,1-1.906-2.375,8.432,8.432,0,0,1-.656-3.328,7.327,7.327,0,0,1,.734-3.375,5.041,5.041,0,0,1,2.109-2.187,6.2,6.2,0,0,1,3.016-.75,5.046,5.046,0,0,1,3.125.953,4.773,4.773,0,0,1,1.766,2.656l-1.609.375a3.789,3.789,0,0,0-1.266-1.953,3.259,3.259,0,0,0-2.047-.625,4.053,4.053,0,0,0-2.406.688,3.57,3.57,0,0,0-1.344,1.828,8.247,8.247,0,0,0,.078,5.156,3.535,3.535,0,0,0,1.438,1.766,4.042,4.042,0,0,0,2.109.578,3.508,3.508,0,0,0,2.328-.8A4.109,4.109,0,0,0,529.72,361.009Zm9.326,3.234a5.668,5.668,0,0,1-1.625,1.016,4.667,4.667,0,0,1-1.672.3,3.293,3.293,0,0,1-2.281-.719,2.419,2.419,0,0,1-.8-1.859,2.481,2.481,0,0,1,.3-1.2,2.585,2.585,0,0,1,.8-.875,3.749,3.749,0,0,1,1.094-.5,11.96,11.96,0,0,1,1.344-.219,13.457,13.457,0,0,0,2.719-.531q.016-.313.016-.391a1.658,1.658,0,0,0-.437-1.312,2.537,2.537,0,0,0-1.734-.516,2.724,2.724,0,0,0-1.594.375,2.346,2.346,0,0,0-.75,1.328l-1.484-.2a3.7,3.7,0,0,1,.656-1.531,2.9,2.9,0,0,1,1.344-.906,5.9,5.9,0,0,1,2.047-.328,5.228,5.228,0,0,1,1.875.281,2.152,2.152,0,0,1,1.531,1.7,8.394,8.394,0,0,1,.078,1.406v2.031a22.377,22.377,0,0,0,.094,2.688,3.2,3.2,0,0,0,.391,1.078h-1.594A3.386,3.386,0,0,1,539.046,364.243Zm-.125-3.406a10.836,10.836,0,0,1-2.484.578,5.778,5.778,0,0,0-1.328.313,1.38,1.38,0,0,0-.609.5,1.289,1.289,0,0,0-.2.719,1.308,1.308,0,0,0,.453,1.016,2.018,2.018,0,0,0,1.359.406,3.107,3.107,0,0,0,1.563-.391,2.456,2.456,0,0,0,1.016-1.047,3.859,3.859,0,0,0,.234-1.531Zm9.762,1.219,1.5.2a3.824,3.824,0,0,1-1.25,2.422,3.674,3.674,0,0,1-2.484.875,3.874,3.874,0,0,1-2.969-1.2,4.87,4.87,0,0,1-1.125-3.453,6.172,6.172,0,0,1,.484-2.547,3.38,3.38,0,0,1,1.469-1.641,4.335,4.335,0,0,1,2.141-.547,3.668,3.668,0,0,1,2.391.75,3.368,3.368,0,0,1,1.2,2.094l-1.484.219a2.36,2.36,0,0,0-.75-1.344,1.891,1.891,0,0,0-1.3-.469,2.394,2.394,0,0,0-1.875.828,3.924,3.924,0,0,0-.719,2.609,4.112,4.112,0,0,0,.688,2.641,2.3,2.3,0,0,0,1.828.813,2.107,2.107,0,0,0,1.484-.547A2.741,2.741,0,0,0,548.683,362.056Zm2.8,3.3V352.946h1.531V357.4a3.393,3.393,0,0,1,2.688-1.234,3.643,3.643,0,0,1,1.734.391,2.265,2.265,0,0,1,1.047,1.094,4.843,4.843,0,0,1,.328,2.016v5.688h-1.531v-5.687a2.342,2.342,0,0,0-.5-1.672,1.816,1.816,0,0,0-1.391-.516,2.431,2.431,0,0,0-1.281.359,1.923,1.923,0,0,0-.844.953,4.34,4.34,0,0,0-.25,1.641v4.922h-1.531Zm15.793-2.891,1.563.188a3.784,3.784,0,0,1-1.375,2.156,4.723,4.723,0,0,1-5.7-.453,4.815,4.815,0,0,1-1.141-3.422,4.985,4.985,0,0,1,1.156-3.516,3.967,3.967,0,0,1,3.031-1.25,3.837,3.837,0,0,1,2.953,1.234,4.839,4.839,0,0,1,1.141,3.438q0,.141-.016.406h-6.7a3.547,3.547,0,0,0,.844,2.281,2.492,2.492,0,0,0,1.875.781,2.356,2.356,0,0,0,1.438-.437A2.882,2.882,0,0,0,567.281,362.462Zm-5-2.469H567.3a3.161,3.161,0,0,0-.578-1.7,2.356,2.356,0,0,0-1.891-.875,2.428,2.428,0,0,0-1.766.7A2.813,2.813,0,0,0,562.281,359.993Zm19.123,5.359v-1.141a2.778,2.778,0,0,1-2.516,1.344,3.522,3.522,0,0,1-1.969-.594,3.925,3.925,0,0,1-1.406-1.656,5.818,5.818,0,0,1-.484-2.437,6.51,6.51,0,0,1,.438-2.437,3.544,3.544,0,0,1,1.344-1.672,3.6,3.6,0,0,1,2.016-.594,2.934,2.934,0,0,1,1.438.344,3.118,3.118,0,0,1,1.047.891v-4.453h1.516v12.406H581.4Zm-4.812-4.484a3.944,3.944,0,0,0,.719,2.578,2.218,2.218,0,0,0,1.734.859,2.159,2.159,0,0,0,1.688-.812,3.788,3.788,0,0,0,.7-2.5,4.173,4.173,0,0,0-.719-2.7,2.174,2.174,0,0,0-1.75-.859,2.129,2.129,0,0,0-1.7.828A4.121,4.121,0,0,0,576.592,360.868Zm14.778,1.594,1.563.188a3.784,3.784,0,0,1-1.375,2.156,4.723,4.723,0,0,1-5.7-.453,4.815,4.815,0,0,1-1.141-3.422,4.985,4.985,0,0,1,1.156-3.516,3.967,3.967,0,0,1,3.031-1.25,3.837,3.837,0,0,1,2.953,1.234,4.839,4.839,0,0,1,1.141,3.438q0,.141-.016.406h-6.7a3.547,3.547,0,0,0,.844,2.281,2.492,2.492,0,0,0,1.875.781,2.356,2.356,0,0,0,1.438-.437A2.882,2.882,0,0,0,591.37,362.462Zm-5-2.469h5.016a3.161,3.161,0,0,0-.578-1.7,2.356,2.356,0,0,0-1.891-.875,2.428,2.428,0,0,0-1.766.7A2.813,2.813,0,0,0,586.37,359.993Zm11.809,4,.219,1.344a5.444,5.444,0,0,1-1.156.141,2.553,2.553,0,0,1-1.281-.266,1.5,1.5,0,0,1-.641-.687,5.467,5.467,0,0,1-.187-1.8v-5.172h-1.125v-1.187h1.125V354.15l1.516-.922v3.141h1.531v1.188h-1.531v5.25a2.767,2.767,0,0,0,.078.844.632.632,0,0,0,.25.3,1.063,1.063,0,0,0,.531.109A4.839,4.839,0,0,0,598.179,363.993Zm7.346.25a5.668,5.668,0,0,1-1.625,1.016,4.667,4.667,0,0,1-1.672.3,3.293,3.293,0,0,1-2.281-.719,2.419,2.419,0,0,1-.8-1.859,2.481,2.481,0,0,1,.3-1.2,2.585,2.585,0,0,1,.8-.875,3.749,3.749,0,0,1,1.094-.5,11.96,11.96,0,0,1,1.344-.219,13.457,13.457,0,0,0,2.719-.531q.016-.313.016-.391a1.658,1.658,0,0,0-.437-1.312,2.537,2.537,0,0,0-1.734-.516,2.724,2.724,0,0,0-1.594.375,2.346,2.346,0,0,0-.75,1.328l-1.484-.2a3.7,3.7,0,0,1,.656-1.531,2.9,2.9,0,0,1,1.344-.906,5.9,5.9,0,0,1,2.047-.328,5.228,5.228,0,0,1,1.875.281,2.152,2.152,0,0,1,1.531,1.7,8.394,8.394,0,0,1,.078,1.406v2.031a22.377,22.377,0,0,0,.094,2.688,3.2,3.2,0,0,0,.391,1.078h-1.594A3.386,3.386,0,0,1,605.524,364.243Zm-.125-3.406a10.836,10.836,0,0,1-2.484.578,5.778,5.778,0,0,0-1.328.313,1.38,1.38,0,0,0-.609.5,1.289,1.289,0,0,0-.2.719,1.308,1.308,0,0,0,.453,1.016,2.018,2.018,0,0,0,1.359.406,3.107,3.107,0,0,0,1.563-.391,2.456,2.456,0,0,0,1.016-1.047,3.859,3.859,0,0,0,.234-1.531Zm3.918-6.141v-1.75h1.516v1.75Zm0,10.656v-8.984h1.516v8.984Zm3.8,0V352.947h1.516v12.406Zm3.272-2.687,1.516-.234a2.11,2.11,0,0,0,.7,1.391,2.433,2.433,0,0,0,1.609.484,2.394,2.394,0,0,0,1.563-.422,1.3,1.3,0,0,0,.516-1.016.924.924,0,0,0-.453-.812,6.593,6.593,0,0,0-1.562-.516,15.8,15.8,0,0,1-2.328-.719,2.341,2.341,0,0,1-.984-.859,2.3,2.3,0,0,1-.328-1.2,2.224,2.224,0,0,1,.281-1.109,2.59,2.59,0,0,1,.75-.859,3,3,0,0,1,.969-.437,4.442,4.442,0,0,1,1.313-.187,5.075,5.075,0,0,1,1.859.313,2.41,2.41,0,0,1,1.172.828,3.069,3.069,0,0,1,.531,1.375l-1.484.2a1.663,1.663,0,0,0-.594-1.078,2.14,2.14,0,0,0-1.375-.391,2.526,2.526,0,0,0-1.5.344,1.011,1.011,0,0,0-.437.813.876.876,0,0,0,.172.531,1.3,1.3,0,0,0,.594.406q.219.094,1.344.391a18.323,18.323,0,0,1,2.25.719,2.182,2.182,0,0,1,1,.8,2.148,2.148,0,0,1,.375,1.3,2.525,2.525,0,0,1-.453,1.438,2.868,2.868,0,0,1-1.281,1.047,4.708,4.708,0,0,1-1.891.359,4.275,4.275,0,0,1-2.672-.719A3.4,3.4,0,0,1,616.392,362.665Z" transform="translate(2545 3776)"/><path class="b" d="M546.555,383.665l1.516-.234a2.11,2.11,0,0,0,.7,1.391,2.433,2.433,0,0,0,1.609.484,2.394,2.394,0,0,0,1.563-.422,1.3,1.3,0,0,0,.516-1.016.924.924,0,0,0-.453-.812,6.593,6.593,0,0,0-1.562-.516,15.8,15.8,0,0,1-2.328-.719,2.341,2.341,0,0,1-.984-.859,2.3,2.3,0,0,1-.328-1.2,2.224,2.224,0,0,1,.281-1.109,2.59,2.59,0,0,1,.75-.859,3,3,0,0,1,.969-.437,4.442,4.442,0,0,1,1.313-.187,5.075,5.075,0,0,1,1.859.313,2.41,2.41,0,0,1,1.172.828,3.069,3.069,0,0,1,.531,1.375l-1.484.2a1.663,1.663,0,0,0-.594-1.078,2.14,2.14,0,0,0-1.375-.391,2.526,2.526,0,0,0-1.5.344,1.011,1.011,0,0,0-.437.813.876.876,0,0,0,.172.531,1.3,1.3,0,0,0,.594.406q.219.094,1.344.391a18.323,18.323,0,0,1,2.25.719,2.182,2.182,0,0,1,1,.8,2.148,2.148,0,0,1,.375,1.3,2.525,2.525,0,0,1-.453,1.438,2.868,2.868,0,0,1-1.281,1.047,4.708,4.708,0,0,1-1.891.359,4.275,4.275,0,0,1-2.672-.719A3.4,3.4,0,0,1,546.555,383.665Zm15.133-.609,1.5.2a3.824,3.824,0,0,1-1.25,2.422,3.674,3.674,0,0,1-2.484.875,3.874,3.874,0,0,1-2.969-1.2,4.87,4.87,0,0,1-1.125-3.453,6.172,6.172,0,0,1,.484-2.547,3.38,3.38,0,0,1,1.469-1.641,4.335,4.335,0,0,1,2.141-.547,3.668,3.668,0,0,1,2.391.75,3.368,3.368,0,0,1,1.2,2.094l-1.484.219a2.36,2.36,0,0,0-.75-1.344,1.891,1.891,0,0,0-1.3-.469,2.394,2.394,0,0,0-1.875.828,3.924,3.924,0,0,0-.719,2.609,4.112,4.112,0,0,0,.688,2.641,2.3,2.3,0,0,0,1.828.813,2.107,2.107,0,0,0,1.484-.547A2.741,2.741,0,0,0,561.688,383.056Zm2.789,3.3v-8.984h1.375v1.359a3.6,3.6,0,0,1,.953-1.25,1.7,1.7,0,0,1,.984-.312,2.945,2.945,0,0,1,1.563.484l-.516,1.422a2.216,2.216,0,0,0-1.125-.328,1.433,1.433,0,0,0-.891.3,1.64,1.64,0,0,0-.562.828,5.705,5.705,0,0,0-.266,1.781v4.7Zm11.942-2.891,1.563.188a3.784,3.784,0,0,1-1.375,2.156,4.723,4.723,0,0,1-5.7-.453,4.815,4.815,0,0,1-1.141-3.422,4.985,4.985,0,0,1,1.156-3.516,3.967,3.967,0,0,1,3.031-1.25A3.837,3.837,0,0,1,576.9,378.4a4.839,4.839,0,0,1,1.141,3.438q0,.141-.016.406h-6.7a3.547,3.547,0,0,0,.844,2.281,2.492,2.492,0,0,0,1.875.781,2.356,2.356,0,0,0,1.438-.437A2.882,2.882,0,0,0,576.419,383.462Zm-5-2.469h5.016a3.161,3.161,0,0,0-.578-1.7,2.356,2.356,0,0,0-1.891-.875,2.428,2.428,0,0,0-1.766.7A2.813,2.813,0,0,0,571.419,380.993Zm14.637,2.469,1.563.188a3.784,3.784,0,0,1-1.375,2.156,4.723,4.723,0,0,1-5.7-.453,4.815,4.815,0,0,1-1.141-3.422,4.985,4.985,0,0,1,1.156-3.516,3.967,3.967,0,0,1,3.031-1.25,3.837,3.837,0,0,1,2.953,1.234,4.839,4.839,0,0,1,1.141,3.438q0,.141-.016.406h-6.7a3.547,3.547,0,0,0,.844,2.281,2.492,2.492,0,0,0,1.875.781,2.356,2.356,0,0,0,1.438-.437A2.882,2.882,0,0,0,586.056,383.462Zm-5-2.469h5.016a3.161,3.161,0,0,0-.578-1.7,2.356,2.356,0,0,0-1.891-.875,2.428,2.428,0,0,0-1.766.7A2.813,2.813,0,0,0,581.056,380.993Zm8.481,5.359v-8.984h1.375v1.281a3.219,3.219,0,0,1,2.859-1.484,3.633,3.633,0,0,1,1.484.3,2.176,2.176,0,0,1,1.016.766,2.905,2.905,0,0,1,.484,1.125,9.312,9.312,0,0,1,.078,1.469v5.531h-1.516v-5.469a3.8,3.8,0,0,0-.187-1.375,1.459,1.459,0,0,0-.625-.75,1.973,1.973,0,0,0-1.062-.281,2.433,2.433,0,0,0-1.672.625,3.04,3.04,0,0,0-.7,2.344v4.906Z" transform="translate(2545 3776)"/><path class="a" d="M503.73,452.55h0a11.019,11.019,0,0,1,11.019-11.019H629.31a11.019,11.019,0,0,1,11.019,11.019v44.073a11.019,11.019,0,0,1-11.019,11.019H514.749a11.019,11.019,0,0,1-11.019-11.019Z" transform="translate(2545 3776)"/><path class="b" d="M528.022,466.242l1.547-.141a3.5,3.5,0,0,0,.5,1.531,2.879,2.879,0,0,0,1.25.969,4.894,4.894,0,0,0,1.906.359,4.763,4.763,0,0,0,1.656-.266,2.268,2.268,0,0,0,1.078-.766,1.866,1.866,0,0,0,.344-1.078,1.6,1.6,0,0,0-.344-1.016,2.426,2.426,0,0,0-1.109-.734q-.5-.187-2.2-.594a11.91,11.91,0,0,1-2.391-.781,3.4,3.4,0,0,1-1.328-1.156,2.82,2.82,0,0,1-.437-1.547,3.138,3.138,0,0,1,.531-1.75,3.3,3.3,0,0,1,1.547-1.234,6.014,6.014,0,0,1,2.3-.422,6.241,6.241,0,0,1,2.422.438,3.413,3.413,0,0,1,1.625,1.313,3.793,3.793,0,0,1,.609,1.953l-1.578.109a2.5,2.5,0,0,0-.859-1.766,3.305,3.305,0,0,0-2.156-.609,3.484,3.484,0,0,0-2.172.547,1.631,1.631,0,0,0-.687,1.313,1.43,1.43,0,0,0,.484,1.109,6.841,6.841,0,0,0,2.484.875,15.54,15.54,0,0,1,2.734.8,3.755,3.755,0,0,1,1.609,1.266,3.086,3.086,0,0,1,.516,1.766,3.315,3.315,0,0,1-.578,1.859,3.791,3.791,0,0,1-1.625,1.375,5.7,5.7,0,0,1-2.391.484,7.252,7.252,0,0,1-2.828-.484,4.083,4.083,0,0,1-1.781-1.484A4.205,4.205,0,0,1,528.022,466.242Zm18.073,1.094,1.563.188a3.784,3.784,0,0,1-1.375,2.156,4.723,4.723,0,0,1-5.7-.453,4.815,4.815,0,0,1-1.141-3.422,4.985,4.985,0,0,1,1.156-3.516,3.967,3.967,0,0,1,3.031-1.25,3.837,3.837,0,0,1,2.953,1.234,4.839,4.839,0,0,1,1.141,3.438q0,.141-.016.406H541a3.547,3.547,0,0,0,.844,2.281,2.492,2.492,0,0,0,1.875.781,2.356,2.356,0,0,0,1.438-.437A2.882,2.882,0,0,0,546.1,467.336Zm-5-2.469h5.016a3.161,3.161,0,0,0-.578-1.7,2.356,2.356,0,0,0-1.891-.875,2.428,2.428,0,0,0-1.766.7A2.813,2.813,0,0,0,541.1,464.867Zm11.809,4,.219,1.344a5.444,5.444,0,0,1-1.156.141,2.553,2.553,0,0,1-1.281-.266,1.5,1.5,0,0,1-.641-.687,5.467,5.467,0,0,1-.187-1.8V462.43h-1.125v-1.187h1.125v-2.219l1.516-.922v3.141H552.9v1.188h-1.531v5.25a2.767,2.767,0,0,0,.078.844.632.632,0,0,0,.25.3,1.063,1.063,0,0,0,.531.109A4.839,4.839,0,0,0,552.9,468.867Zm5.691-1.328,1.516-.234a2.11,2.11,0,0,0,.7,1.391,2.433,2.433,0,0,0,1.609.484,2.394,2.394,0,0,0,1.563-.422,1.3,1.3,0,0,0,.516-1.016.924.924,0,0,0-.453-.812,6.593,6.593,0,0,0-1.562-.516,15.8,15.8,0,0,1-2.328-.719,2.341,2.341,0,0,1-.984-.859,2.3,2.3,0,0,1-.328-1.2,2.224,2.224,0,0,1,.281-1.109,2.59,2.59,0,0,1,.75-.859,3,3,0,0,1,.969-.437,4.442,4.442,0,0,1,1.313-.187,5.075,5.075,0,0,1,1.859.313,2.41,2.41,0,0,1,1.172.828,3.069,3.069,0,0,1,.531,1.375l-1.484.2a1.663,1.663,0,0,0-.594-1.078,2.14,2.14,0,0,0-1.375-.391,2.526,2.526,0,0,0-1.5.344,1.011,1.011,0,0,0-.437.813.876.876,0,0,0,.172.531,1.3,1.3,0,0,0,.594.406q.219.094,1.344.391a18.323,18.323,0,0,1,2.25.719,2.182,2.182,0,0,1,1,.8,2.148,2.148,0,0,1,.375,1.3,2.525,2.525,0,0,1-.453,1.438,2.868,2.868,0,0,1-1.281,1.047,4.708,4.708,0,0,1-1.891.359,4.275,4.275,0,0,1-2.672-.719A3.4,3.4,0,0,1,558.6,467.539Zm15.133,1.578a5.668,5.668,0,0,1-1.625,1.016,4.667,4.667,0,0,1-1.672.3,3.293,3.293,0,0,1-2.281-.719,2.419,2.419,0,0,1-.8-1.859,2.481,2.481,0,0,1,.3-1.2,2.585,2.585,0,0,1,.8-.875,3.749,3.749,0,0,1,1.094-.5,11.96,11.96,0,0,1,1.344-.219,13.457,13.457,0,0,0,2.719-.531q.016-.313.016-.391a1.658,1.658,0,0,0-.437-1.312,2.537,2.537,0,0,0-1.734-.516,2.724,2.724,0,0,0-1.594.375,2.346,2.346,0,0,0-.75,1.328l-1.484-.2a3.7,3.7,0,0,1,.656-1.531,2.9,2.9,0,0,1,1.344-.906,5.9,5.9,0,0,1,2.047-.328,5.228,5.228,0,0,1,1.875.281,2.152,2.152,0,0,1,1.531,1.7,8.394,8.394,0,0,1,.078,1.406v2.031a22.377,22.377,0,0,0,.094,2.688,3.2,3.2,0,0,0,.391,1.078h-1.594A3.386,3.386,0,0,1,573.728,469.117Zm-.125-3.406a10.836,10.836,0,0,1-2.484.578,5.778,5.778,0,0,0-1.328.313,1.38,1.38,0,0,0-.609.5,1.289,1.289,0,0,0-.2.719,1.308,1.308,0,0,0,.453,1.016,2.018,2.018,0,0,0,1.359.406,3.107,3.107,0,0,0,1.563-.391,2.456,2.456,0,0,0,1.016-1.047,3.859,3.859,0,0,0,.234-1.531Zm6.4,4.516-3.422-8.984h1.609l1.922,5.375q.312.875.578,1.813.2-.7.578-1.7l1.984-5.484h1.578l-3.406,8.984Zm6.18-10.656v-1.75H587.7v1.75Zm0,10.656v-8.984H587.7v8.984Zm3.834,0v-8.984h1.375v1.281a3.219,3.219,0,0,1,2.859-1.484,3.633,3.633,0,0,1,1.484.3,2.176,2.176,0,0,1,1.016.766,2.905,2.905,0,0,1,.484,1.125,9.312,9.312,0,0,1,.078,1.469v5.531H595.8v-5.469a3.8,3.8,0,0,0-.187-1.375,1.459,1.459,0,0,0-.625-.75,1.973,1.973,0,0,0-1.062-.281,2.433,2.433,0,0,0-1.672.625,3.04,3.04,0,0,0-.7,2.344v4.906Zm9.356.75,1.484.219a1.415,1.415,0,0,0,.516,1,2.526,2.526,0,0,0,1.547.422,2.674,2.674,0,0,0,1.625-.422,2.073,2.073,0,0,0,.781-1.187,9.089,9.089,0,0,0,.109-1.953,3.108,3.108,0,0,1-2.484,1.172,3.391,3.391,0,0,1-2.859-1.328,5.185,5.185,0,0,1-1.016-3.219,6.029,6.029,0,0,1,.453-2.359,3.773,3.773,0,0,1,1.344-1.687,3.686,3.686,0,0,1,2.094-.594,3.226,3.226,0,0,1,2.625,1.281v-1.078H607v7.766a7.19,7.19,0,0,1-.437,2.969,3.043,3.043,0,0,1-1.359,1.375,4.583,4.583,0,0,1-2.266.516,4.37,4.37,0,0,1-2.609-.719A2.443,2.443,0,0,1,599.376,470.976Zm1.266-5.406a3.891,3.891,0,0,0,.7,2.578,2.221,2.221,0,0,0,1.75.813,2.256,2.256,0,0,0,1.766-.8,3.775,3.775,0,0,0,.719-2.547,3.622,3.622,0,0,0-.734-2.469,2.263,2.263,0,0,0-1.766-.844,2.219,2.219,0,0,0-1.734.828A3.64,3.64,0,0,0,600.641,465.57Zm8.043,1.969,1.516-.234a2.11,2.11,0,0,0,.7,1.391,2.433,2.433,0,0,0,1.609.484,2.394,2.394,0,0,0,1.563-.422,1.3,1.3,0,0,0,.516-1.016.924.924,0,0,0-.453-.812,6.593,6.593,0,0,0-1.562-.516,15.8,15.8,0,0,1-2.328-.719,2.341,2.341,0,0,1-.984-.859,2.3,2.3,0,0,1-.328-1.2,2.224,2.224,0,0,1,.281-1.109,2.59,2.59,0,0,1,.75-.859,3,3,0,0,1,.969-.437,4.442,4.442,0,0,1,1.313-.187,5.075,5.075,0,0,1,1.859.313,2.41,2.41,0,0,1,1.172.828,3.069,3.069,0,0,1,.531,1.375l-1.484.2a1.663,1.663,0,0,0-.594-1.078,2.14,2.14,0,0,0-1.375-.391,2.526,2.526,0,0,0-1.5.344,1.011,1.011,0,0,0-.437.813.876.876,0,0,0,.172.531,1.3,1.3,0,0,0,.594.406q.219.094,1.344.391a18.323,18.323,0,0,1,2.25.719,2.182,2.182,0,0,1,1,.8,2.148,2.148,0,0,1,.375,1.3,2.525,2.525,0,0,1-.453,1.438,2.868,2.868,0,0,1-1.281,1.047,4.708,4.708,0,0,1-1.891.359,4.275,4.275,0,0,1-2.672-.719A3.4,3.4,0,0,1,608.685,467.539Z" transform="translate(2545 3776)"/><path class="b" d="M552.176,491.977l1.484.219a1.415,1.415,0,0,0,.516,1,2.526,2.526,0,0,0,1.547.422,2.674,2.674,0,0,0,1.625-.422,2.073,2.073,0,0,0,.781-1.187,9.089,9.089,0,0,0,.109-1.953,3.108,3.108,0,0,1-2.484,1.172,3.391,3.391,0,0,1-2.859-1.328,5.185,5.185,0,0,1-1.016-3.219,6.029,6.029,0,0,1,.453-2.359,3.773,3.773,0,0,1,1.344-1.687,3.686,3.686,0,0,1,2.094-.594,3.226,3.226,0,0,1,2.625,1.281v-1.078H559.8v7.766a7.19,7.19,0,0,1-.437,2.969A3.043,3.043,0,0,1,558,494.352a4.583,4.583,0,0,1-2.266.516,4.37,4.37,0,0,1-2.609-.719A2.443,2.443,0,0,1,552.176,491.977Zm1.266-5.406a3.891,3.891,0,0,0,.7,2.578,2.221,2.221,0,0,0,1.75.813,2.256,2.256,0,0,0,1.766-.8,3.775,3.775,0,0,0,.719-2.547,3.622,3.622,0,0,0-.734-2.469,2.263,2.263,0,0,0-1.766-.844,2.219,2.219,0,0,0-1.734.828A3.64,3.64,0,0,0,553.442,486.571Zm8.09.156a4.616,4.616,0,0,1,1.391-3.687,4.151,4.151,0,0,1,2.813-1,4.018,4.018,0,0,1,3.031,1.219,4.554,4.554,0,0,1,1.188,3.344,5.876,5.876,0,0,1-.531,2.734,3.619,3.619,0,0,1-1.516,1.547,4.4,4.4,0,0,1-2.172.547,4.064,4.064,0,0,1-3.047-1.2A4.892,4.892,0,0,1,561.532,486.727Zm1.563,0a3.855,3.855,0,0,0,.75,2.594,2.509,2.509,0,0,0,3.781,0,3.974,3.974,0,0,0,.75-2.641,3.721,3.721,0,0,0-.75-2.516,2.509,2.509,0,0,0-3.781,0A3.764,3.764,0,0,0,563.094,486.727Zm14.5,3.391a5.668,5.668,0,0,1-1.625,1.016,4.667,4.667,0,0,1-1.672.3,3.293,3.293,0,0,1-2.281-.719,2.419,2.419,0,0,1-.8-1.859,2.481,2.481,0,0,1,.3-1.2,2.585,2.585,0,0,1,.8-.875,3.749,3.749,0,0,1,1.094-.5,11.96,11.96,0,0,1,1.344-.219,13.457,13.457,0,0,0,2.719-.531q.016-.313.016-.391a1.658,1.658,0,0,0-.437-1.312,2.537,2.537,0,0,0-1.734-.516,2.724,2.724,0,0,0-1.594.375,2.346,2.346,0,0,0-.75,1.328l-1.484-.2a3.7,3.7,0,0,1,.656-1.531,2.9,2.9,0,0,1,1.344-.906,5.9,5.9,0,0,1,2.047-.328,5.228,5.228,0,0,1,1.875.281,2.152,2.152,0,0,1,1.531,1.7,8.394,8.394,0,0,1,.078,1.406v2.031a22.377,22.377,0,0,0,.094,2.688,3.2,3.2,0,0,0,.391,1.078H577.9A3.386,3.386,0,0,1,577.591,490.118Zm-.125-3.406a10.836,10.836,0,0,1-2.484.578,5.778,5.778,0,0,0-1.328.313,1.38,1.38,0,0,0-.609.5,1.289,1.289,0,0,0-.2.719,1.308,1.308,0,0,0,.453,1.016,2.018,2.018,0,0,0,1.359.406,3.107,3.107,0,0,0,1.563-.391,2.456,2.456,0,0,0,1.016-1.047,3.859,3.859,0,0,0,.234-1.531Zm3.871,4.516V478.821h1.516v12.406Zm3.272-2.687,1.516-.234a2.11,2.11,0,0,0,.7,1.391,2.433,2.433,0,0,0,1.609.484,2.394,2.394,0,0,0,1.563-.422,1.3,1.3,0,0,0,.516-1.016.924.924,0,0,0-.453-.812,6.593,6.593,0,0,0-1.562-.516,15.8,15.8,0,0,1-2.328-.719,2.341,2.341,0,0,1-.984-.859,2.3,2.3,0,0,1-.328-1.2,2.224,2.224,0,0,1,.281-1.109,2.59,2.59,0,0,1,.75-.859,3,3,0,0,1,.969-.437,4.442,4.442,0,0,1,1.313-.187,5.075,5.075,0,0,1,1.859.313,2.41,2.41,0,0,1,1.172.828,3.069,3.069,0,0,1,.531,1.375l-1.484.2a1.663,1.663,0,0,0-.594-1.078,2.14,2.14,0,0,0-1.375-.391,2.526,2.526,0,0,0-1.5.344,1.011,1.011,0,0,0-.437.813.876.876,0,0,0,.172.531,1.3,1.3,0,0,0,.594.406q.219.094,1.344.391a18.323,18.323,0,0,1,2.25.719,2.182,2.182,0,0,1,1,.8,2.148,2.148,0,0,1,.375,1.3,2.525,2.525,0,0,1-.453,1.438,2.868,2.868,0,0,1-1.281,1.047,4.708,4.708,0,0,1-1.891.359,4.275,4.275,0,0,1-2.672-.719A3.4,3.4,0,0,1,584.609,488.539Z" transform="translate(2545 3776)"/><path class="a" d="M503.73,557.424h0a11.019,11.019,0,0,1,11.019-11.019H629.31a11.019,11.019,0,0,1,11.019,11.019V601.5a11.019,11.019,0,0,1-11.019,11.019H514.749A11.019,11.019,0,0,1,503.73,601.5Z" transform="translate(2545 3776)"/><path class="b" d="M555,570.693l1.766.453a6.064,6.064,0,0,1-2,3.328,5.5,5.5,0,0,1-3.531,1.141,6.4,6.4,0,0,1-3.516-.875,5.666,5.666,0,0,1-2.062-2.547,9.175,9.175,0,0,1-.7-3.594,7.814,7.814,0,0,1,.8-3.625,5.4,5.4,0,0,1,2.266-2.359,6.658,6.658,0,0,1,3.25-.812,5.455,5.455,0,0,1,3.359,1.016,5.228,5.228,0,0,1,1.906,2.875l-1.734.406a4.073,4.073,0,0,0-1.359-2.109,3.511,3.511,0,0,0-2.2-.672,4.333,4.333,0,0,0-2.578.734,3.9,3.9,0,0,0-1.453,1.984,7.869,7.869,0,0,0-.422,2.563,8.055,8.055,0,0,0,.5,2.969,3.781,3.781,0,0,0,1.547,1.906,4.342,4.342,0,0,0,2.266.625,3.8,3.8,0,0,0,2.516-.859A4.371,4.371,0,0,0,555,570.693Zm3.723,4.688v-9.672h1.469v1.469a4.067,4.067,0,0,1,1.031-1.359,1.855,1.855,0,0,1,1.063-.328,3.2,3.2,0,0,1,1.688.531l-.562,1.516a2.357,2.357,0,0,0-1.2-.359,1.535,1.535,0,0,0-.969.328,1.827,1.827,0,0,0-.609.891,6.253,6.253,0,0,0-.281,1.922v5.063Zm12.853-3.109,1.688.2a4.214,4.214,0,0,1-1.484,2.313,5.072,5.072,0,0,1-6.141-.484,5.15,5.15,0,0,1-1.234-3.672,5.366,5.366,0,0,1,1.25-3.8,4.285,4.285,0,0,1,3.266-1.344,4.087,4.087,0,0,1,3.156,1.328,5.2,5.2,0,0,1,1.234,3.7v.438h-7.219a3.774,3.774,0,0,0,.906,2.453,2.685,2.685,0,0,0,2.016.844,2.548,2.548,0,0,0,1.547-.469A3.214,3.214,0,0,0,571.576,572.271Zm-5.391-2.656h5.406a3.241,3.241,0,0,0-.625-1.828,2.5,2.5,0,0,0-2.031-.953,2.621,2.621,0,0,0-1.906.766A2.963,2.963,0,0,0,566.186,569.615Zm15.454,4.578a6.528,6.528,0,0,1-1.766,1.094,5.049,5.049,0,0,1-1.8.313,3.522,3.522,0,0,1-2.453-.781,2.723,2.723,0,0,1-.531-3.281,2.631,2.631,0,0,1,.844-.937,4.127,4.127,0,0,1,1.188-.547,12.076,12.076,0,0,1,1.453-.25,14.865,14.865,0,0,0,2.922-.562q.016-.344.016-.422a1.838,1.838,0,0,0-.469-1.422,2.779,2.779,0,0,0-1.875-.547,2.869,2.869,0,0,0-1.7.406,2.489,2.489,0,0,0-.812,1.422l-1.609-.219a3.906,3.906,0,0,1,.719-1.641,3.133,3.133,0,0,1,1.453-.984,6.428,6.428,0,0,1,2.188-.344,5.678,5.678,0,0,1,2.016.3,2.492,2.492,0,0,1,1.141.734,2.437,2.437,0,0,1,.516,1.109,9.751,9.751,0,0,1,.078,1.516v2.188a22.262,22.262,0,0,0,.109,2.891,4.033,4.033,0,0,0,.406,1.156h-1.7A3.222,3.222,0,0,1,581.64,574.193Zm-.141-3.672a11.372,11.372,0,0,1-2.672.625,5.91,5.91,0,0,0-1.437.328,1.517,1.517,0,0,0-.656.531,1.424,1.424,0,0,0-.219.781,1.393,1.393,0,0,0,.5,1.094,2.144,2.144,0,0,0,1.453.438,3.4,3.4,0,0,0,1.672-.406,2.565,2.565,0,0,0,1.094-1.141,3.974,3.974,0,0,0,.266-1.641Zm7.782,3.391.234,1.453a6.225,6.225,0,0,1-1.234.141,2.858,2.858,0,0,1-1.391-.281,1.606,1.606,0,0,1-.687-.734,5.852,5.852,0,0,1-.2-1.937v-5.578h-1.2v-1.266H586v-2.391l1.625-.984v3.375h1.656v1.266h-1.656v5.672a3.109,3.109,0,0,0,.078.891.78.78,0,0,0,.281.328,1.24,1.24,0,0,0,.578.109A5.557,5.557,0,0,0,589.281,573.912Zm8.23-1.641,1.688.2a4.214,4.214,0,0,1-1.484,2.313,5.072,5.072,0,0,1-6.141-.484,5.15,5.15,0,0,1-1.234-3.672,5.366,5.366,0,0,1,1.25-3.8,4.285,4.285,0,0,1,3.266-1.344,4.087,4.087,0,0,1,3.156,1.328,5.2,5.2,0,0,1,1.234,3.7v.438h-7.219a3.774,3.774,0,0,0,.906,2.453,2.685,2.685,0,0,0,2.016.844,2.548,2.548,0,0,0,1.547-.469A3.214,3.214,0,0,0,597.511,572.271Zm-5.391-2.656h5.406a3.241,3.241,0,0,0-.625-1.828,2.5,2.5,0,0,0-2.031-.953,2.621,2.621,0,0,0-1.906.766A2.963,2.963,0,0,0,592.12,569.615Z" transform="translate(2545 3776)"/><path class="b" d="M538.144,586.271v1.906h-1.75v-1.516a4.094,4.094,0,0,1,.281-1.766,2.513,2.513,0,0,1,1.219-1.094l.391.641a1.414,1.414,0,0,0-.734.625,2.672,2.672,0,0,0-.266,1.2Zm12.192,6.422,1.766.453a6.064,6.064,0,0,1-2,3.328,5.5,5.5,0,0,1-3.531,1.141,6.4,6.4,0,0,1-3.516-.875,5.666,5.666,0,0,1-2.062-2.547,9.175,9.175,0,0,1-.7-3.594,7.814,7.814,0,0,1,.8-3.625,5.4,5.4,0,0,1,2.266-2.359,6.658,6.658,0,0,1,3.25-.812,5.455,5.455,0,0,1,3.359,1.016,5.228,5.228,0,0,1,1.906,2.875l-1.734.406a4.073,4.073,0,0,0-1.359-2.109,3.511,3.511,0,0,0-2.2-.672,4.333,4.333,0,0,0-2.578.734,3.9,3.9,0,0,0-1.453,1.984,7.869,7.869,0,0,0-.422,2.563,8.055,8.055,0,0,0,.5,2.969,3.781,3.781,0,0,0,1.547,1.906,4.342,4.342,0,0,0,2.266.625,3.8,3.8,0,0,0,2.516-.859A4.371,4.371,0,0,0,550.336,592.693Zm10.051,3.5a6.528,6.528,0,0,1-1.766,1.094,5.049,5.049,0,0,1-1.8.313,3.522,3.522,0,0,1-2.453-.781,2.723,2.723,0,0,1-.531-3.281,2.631,2.631,0,0,1,.844-.937,4.127,4.127,0,0,1,1.188-.547,12.076,12.076,0,0,1,1.453-.25,14.865,14.865,0,0,0,2.922-.562q.016-.344.016-.422a1.838,1.838,0,0,0-.469-1.422,2.779,2.779,0,0,0-1.875-.547,2.869,2.869,0,0,0-1.7.406,2.489,2.489,0,0,0-.812,1.422l-1.609-.219a3.906,3.906,0,0,1,.719-1.641,3.133,3.133,0,0,1,1.453-.984,6.428,6.428,0,0,1,2.188-.344,5.678,5.678,0,0,1,2.016.3,2.492,2.492,0,0,1,1.141.734,2.437,2.437,0,0,1,.516,1.109,9.751,9.751,0,0,1,.078,1.516v2.188a22.262,22.262,0,0,0,.109,2.891,4.033,4.033,0,0,0,.406,1.156h-1.7A3.222,3.222,0,0,1,560.387,596.193Zm-.141-3.672a11.372,11.372,0,0,1-2.672.625,5.91,5.91,0,0,0-1.437.328,1.517,1.517,0,0,0-.656.531,1.424,1.424,0,0,0-.219.781,1.393,1.393,0,0,0,.5,1.094,2.144,2.144,0,0,0,1.453.438,3.4,3.4,0,0,0,1.672-.406,2.565,2.565,0,0,0,1.094-1.141,3.974,3.974,0,0,0,.266-1.641Zm10.516,1.313,1.609.219a4.212,4.212,0,0,1-1.359,2.609,3.927,3.927,0,0,1-2.672.938,4.142,4.142,0,0,1-3.187-1.3,5.271,5.271,0,0,1-1.2-3.719,6.783,6.783,0,0,1,.516-2.75,3.554,3.554,0,0,1,1.578-1.75,4.662,4.662,0,0,1,2.313-.594,4.01,4.01,0,0,1,2.578.8,3.655,3.655,0,0,1,1.281,2.266l-1.594.234a2.636,2.636,0,0,0-.812-1.453,2.054,2.054,0,0,0-1.391-.5,2.558,2.558,0,0,0-2.016.891,4.2,4.2,0,0,0-.781,2.813,4.383,4.383,0,0,0,.75,2.844,2.451,2.451,0,0,0,1.953.875,2.276,2.276,0,0,0,1.609-.594A2.918,2.918,0,0,0,570.763,593.833Zm3.016,3.547V584.021h1.641v4.8a3.645,3.645,0,0,1,2.891-1.328,3.859,3.859,0,0,1,1.859.422,2.483,2.483,0,0,1,1.141,1.172,5.391,5.391,0,0,1,.344,2.172v6.125h-1.641v-6.125a2.555,2.555,0,0,0-.531-1.8,1.985,1.985,0,0,0-1.516-.562,2.568,2.568,0,0,0-1.359.391,2.171,2.171,0,0,0-.922,1.016,4.786,4.786,0,0,0-.266,1.781v5.3Zm17-3.109,1.688.2a4.214,4.214,0,0,1-1.484,2.313,5.072,5.072,0,0,1-6.141-.484,5.15,5.15,0,0,1-1.234-3.672,5.366,5.366,0,0,1,1.25-3.8,4.285,4.285,0,0,1,3.266-1.344,4.087,4.087,0,0,1,3.156,1.328,5.2,5.2,0,0,1,1.234,3.7v.438h-7.219a3.774,3.774,0,0,0,.906,2.453,2.685,2.685,0,0,0,2.016.844,2.548,2.548,0,0,0,1.547-.469A3.214,3.214,0,0,0,590.779,594.271Zm-5.391-2.656h5.406a3.241,3.241,0,0,0-.625-1.828,2.5,2.5,0,0,0-2.031-.953,2.621,2.621,0,0,0-1.906.766A2.963,2.963,0,0,0,585.388,591.615Zm8.485,2.875,1.625-.25a2.263,2.263,0,0,0,.75,1.5,2.676,2.676,0,0,0,1.75.516,2.584,2.584,0,0,0,1.672-.453,1.405,1.405,0,0,0,.547-1.094,1.01,1.01,0,0,0-.484-.875,6.748,6.748,0,0,0-1.672-.547,16.6,16.6,0,0,1-2.516-.8,2.422,2.422,0,0,1-1.047-.906,2.486,2.486,0,0,1-.359-1.312,2.449,2.449,0,0,1,.3-1.187,2.567,2.567,0,0,1,.813-.922,3.177,3.177,0,0,1,1.031-.469,4.887,4.887,0,0,1,1.422-.2,5.59,5.59,0,0,1,2,.328,2.688,2.688,0,0,1,1.266.891,3.4,3.4,0,0,1,.578,1.5l-1.609.219a1.755,1.755,0,0,0-.641-1.172,2.264,2.264,0,0,0-1.469-.422,2.7,2.7,0,0,0-1.625.375,1.1,1.1,0,0,0-.469.875.982.982,0,0,0,.188.578,1.45,1.45,0,0,0,.641.438q.234.094,1.438.422a19.085,19.085,0,0,1,2.438.75,2.468,2.468,0,0,1,1.078.859,2.407,2.407,0,0,1,.391,1.406,2.716,2.716,0,0,1-.484,1.547,3.1,3.1,0,0,1-1.375,1.125A5.123,5.123,0,0,1,598,597.6a4.587,4.587,0,0,1-2.875-.781A3.619,3.619,0,0,1,593.873,594.49Zm9.547-8.7V583.9h1.75v1.5a3.983,3.983,0,0,1-.281,1.75,2.4,2.4,0,0,1-1.219,1.109l-.406-.641a1.414,1.414,0,0,0,.734-.625,2.658,2.658,0,0,0,.281-1.2Zm2.813,0V583.9H608v1.5a3.983,3.983,0,0,1-.281,1.75,2.4,2.4,0,0,1-1.219,1.109l-.406-.641a1.414,1.414,0,0,0,.734-.625,2.541,2.541,0,0,0,.266-1.2Z" transform="translate(2545 3776)"/><path class="a" d="M503.761,662.3h0a11.019,11.019,0,0,1,11.019-11.019H629.341A11.018,11.018,0,0,1,640.359,662.3v44.073a11.019,11.019,0,0,1-11.019,11.019H514.78a11.019,11.019,0,0,1-11.019-11.019Z" transform="translate(2545 3776)"/><path class="b" d="M527.864,691.255V677.9h4.609a10.578,10.578,0,0,1,2.375.2,4.352,4.352,0,0,1,1.953.953,5.33,5.33,0,0,1,1.578,2.281,8.842,8.842,0,0,1,.531,3.172,9.334,9.334,0,0,1-.359,2.7,6.448,6.448,0,0,1-.922,1.938,4.959,4.959,0,0,1-1.2,1.219,5.069,5.069,0,0,1-1.594.672,9.466,9.466,0,0,1-2.141.219Zm1.766-1.578h2.859a7.188,7.188,0,0,0,2.063-.234,3.018,3.018,0,0,0,1.2-.7,4.143,4.143,0,0,0,.969-1.687,8.1,8.1,0,0,0,.359-2.578,6.213,6.213,0,0,0-.687-3.219,3.417,3.417,0,0,0-1.672-1.5,6.666,6.666,0,0,0-2.281-.281H529.63Zm17.817.391a6.528,6.528,0,0,1-1.766,1.094,5.049,5.049,0,0,1-1.8.313,3.522,3.522,0,0,1-2.453-.781,2.723,2.723,0,0,1-.531-3.281,2.631,2.631,0,0,1,.844-.937,4.127,4.127,0,0,1,1.188-.547,12.076,12.076,0,0,1,1.453-.25,14.865,14.865,0,0,0,2.922-.562q.016-.344.016-.422a1.838,1.838,0,0,0-.469-1.422,2.779,2.779,0,0,0-1.875-.547,2.869,2.869,0,0,0-1.7.406,2.489,2.489,0,0,0-.812,1.422l-1.609-.219a3.906,3.906,0,0,1,.719-1.641,3.133,3.133,0,0,1,1.453-.984,6.428,6.428,0,0,1,2.188-.344,5.678,5.678,0,0,1,2.016.3,2.492,2.492,0,0,1,1.141.734,2.437,2.437,0,0,1,.516,1.109,9.751,9.751,0,0,1,.078,1.516v2.188a22.262,22.262,0,0,0,.109,2.891,4.033,4.033,0,0,0,.406,1.156h-1.7A3.222,3.222,0,0,1,547.446,690.068Zm-.141-3.672a11.372,11.372,0,0,1-2.672.625,5.91,5.91,0,0,0-1.437.328,1.517,1.517,0,0,0-.656.531,1.424,1.424,0,0,0-.219.781,1.393,1.393,0,0,0,.5,1.094,2.144,2.144,0,0,0,1.453.438,3.4,3.4,0,0,0,1.672-.406,2.565,2.565,0,0,0,1.094-1.141,3.974,3.974,0,0,0,.266-1.641Zm3.548,1.969,1.625-.25a2.263,2.263,0,0,0,.75,1.5,2.676,2.676,0,0,0,1.75.516,2.584,2.584,0,0,0,1.672-.453,1.405,1.405,0,0,0,.547-1.094,1.01,1.01,0,0,0-.484-.875,6.748,6.748,0,0,0-1.672-.547,16.6,16.6,0,0,1-2.516-.8,2.422,2.422,0,0,1-1.047-.906,2.486,2.486,0,0,1-.359-1.312,2.449,2.449,0,0,1,.3-1.187,2.567,2.567,0,0,1,.813-.922,3.177,3.177,0,0,1,1.031-.469,4.887,4.887,0,0,1,1.422-.2,5.59,5.59,0,0,1,2,.328,2.688,2.688,0,0,1,1.266.891,3.4,3.4,0,0,1,.578,1.5l-1.609.219a1.755,1.755,0,0,0-.641-1.172,2.264,2.264,0,0,0-1.469-.422,2.7,2.7,0,0,0-1.625.375,1.1,1.1,0,0,0-.469.875.982.982,0,0,0,.188.578,1.45,1.45,0,0,0,.641.438q.234.094,1.438.422a19.085,19.085,0,0,1,2.438.75,2.468,2.468,0,0,1,1.078.859,2.407,2.407,0,0,1,.391,1.406,2.716,2.716,0,0,1-.484,1.547,3.1,3.1,0,0,1-1.375,1.125,5.123,5.123,0,0,1-2.047.391,4.587,4.587,0,0,1-2.875-.781A3.619,3.619,0,0,1,550.853,688.364Zm9.984,2.891V677.9h1.641v4.8a3.645,3.645,0,0,1,2.891-1.328,3.859,3.859,0,0,1,1.859.422,2.483,2.483,0,0,1,1.141,1.172,5.391,5.391,0,0,1,.344,2.172v6.125h-1.641V685.13a2.555,2.555,0,0,0-.531-1.8,1.985,1.985,0,0,0-1.516-.562,2.568,2.568,0,0,0-1.359.391,2.171,2.171,0,0,0-.922,1.016,4.786,4.786,0,0,0-.266,1.781v5.3Zm11.876,0H571.2V677.9h1.641v4.766a3.27,3.27,0,0,1,2.656-1.3,4.058,4.058,0,0,1,1.688.359,3.434,3.434,0,0,1,1.313,1.016,4.6,4.6,0,0,1,.8,1.563,6.385,6.385,0,0,1,.3,1.969,5.517,5.517,0,0,1-1.234,3.844,3.824,3.824,0,0,1-2.953,1.359,3.092,3.092,0,0,1-2.687-1.437Zm-.016-4.906a4.954,4.954,0,0,0,.484,2.516,2.341,2.341,0,0,0,3.953.328,4.258,4.258,0,0,0,.781-2.781,4.334,4.334,0,0,0-.75-2.8,2.292,2.292,0,0,0-1.828-.906,2.382,2.382,0,0,0-1.859.938A4.12,4.12,0,0,0,572.7,686.349Zm8.282.063a4.965,4.965,0,0,1,1.484-3.969,4.5,4.5,0,0,1,3.047-1.078,4.336,4.336,0,0,1,3.266,1.313,4.949,4.949,0,0,1,1.266,3.609,6.406,6.406,0,0,1-.562,2.938,3.99,3.99,0,0,1-1.641,1.656,4.692,4.692,0,0,1-2.328.594,4.35,4.35,0,0,1-3.281-1.3A5.25,5.25,0,0,1,580.98,686.411Zm1.688,0a4.226,4.226,0,0,0,.8,2.8,2.716,2.716,0,0,0,4.078,0,4.25,4.25,0,0,0,.813-2.844,4,4,0,0,0-.812-2.719,2.716,2.716,0,0,0-4.078,0A4.1,4.1,0,0,0,582.667,686.411Zm15.61,3.656a6.528,6.528,0,0,1-1.766,1.094,5.049,5.049,0,0,1-1.8.313,3.522,3.522,0,0,1-2.453-.781,2.723,2.723,0,0,1-.531-3.281,2.631,2.631,0,0,1,.844-.937,4.127,4.127,0,0,1,1.188-.547,12.076,12.076,0,0,1,1.453-.25,14.865,14.865,0,0,0,2.922-.562q.016-.344.016-.422a1.838,1.838,0,0,0-.469-1.422,2.779,2.779,0,0,0-1.875-.547,2.869,2.869,0,0,0-1.7.406,2.489,2.489,0,0,0-.812,1.422l-1.609-.219a3.906,3.906,0,0,1,.719-1.641,3.133,3.133,0,0,1,1.453-.984,6.428,6.428,0,0,1,2.188-.344,5.678,5.678,0,0,1,2.016.3,2.492,2.492,0,0,1,1.141.734,2.437,2.437,0,0,1,.516,1.109,9.751,9.751,0,0,1,.078,1.516v2.188a22.262,22.262,0,0,0,.109,2.891,4.033,4.033,0,0,0,.406,1.156h-1.7A3.222,3.222,0,0,1,598.277,690.068Zm-.141-3.672a11.372,11.372,0,0,1-2.672.625,5.91,5.91,0,0,0-1.437.328,1.517,1.517,0,0,0-.656.531,1.424,1.424,0,0,0-.219.781,1.393,1.393,0,0,0,.5,1.094,2.144,2.144,0,0,0,1.453.438,3.4,3.4,0,0,0,1.672-.406,2.565,2.565,0,0,0,1.094-1.141,3.974,3.974,0,0,0,.266-1.641Zm4.188,4.859v-9.672h1.469v1.469a4.067,4.067,0,0,1,1.031-1.359,1.855,1.855,0,0,1,1.063-.328,3.2,3.2,0,0,1,1.688.531l-.562,1.516a2.357,2.357,0,0,0-1.2-.359,1.535,1.535,0,0,0-.969.328,1.827,1.827,0,0,0-.609.891,6.253,6.253,0,0,0-.281,1.922v5.063Zm12.494,0v-1.219a2.988,2.988,0,0,1-2.7,1.438,3.774,3.774,0,0,1-2.125-.641,4.209,4.209,0,0,1-1.5-1.781,6.153,6.153,0,0,1-.531-2.625,6.813,6.813,0,0,1,.484-2.625,3.819,3.819,0,0,1,1.438-1.812,3.92,3.92,0,0,1,2.172-.625,3.266,3.266,0,0,1,2.656,1.328v-4.8h1.641v13.359Zm-5.172-4.828a4.219,4.219,0,0,0,.781,2.781,2.351,2.351,0,0,0,1.844.922,2.322,2.322,0,0,0,1.828-.875,4.1,4.1,0,0,0,.75-2.687,4.512,4.512,0,0,0-.766-2.906,2.352,2.352,0,0,0-1.891-.937,2.262,2.262,0,0,0-1.812.891A4.392,4.392,0,0,0,609.647,686.427Z" transform="translate(2545 3776)"/><path class="c" d="M572.029,193.02V212.4H744.753v19.39" transform="translate(2545 3776)"/><path class="d" d="M572.029,193.02V212.4H744.753v13.39" transform="translate(2545 3776)"/><path class="e" d="M743.1,225.791l1.652,4.538,1.652-4.538Z" transform="translate(2545 3776)"/><path class="c" d="M572.029,193.02V212.4h.063v19.39" transform="translate(2545 3776)"/><path class="d" d="M572.029,193.02V212.4h.063v13.39" transform="translate(2545 3776)"/><path class="e" d="M570.44,225.791l1.652,4.538,1.652-4.538Z" transform="translate(2545 3776)"/><path class="c" d="M572.029,297.894v19.382h.063v19.39" transform="translate(2545 3776)"/><path class="d" d="M572.029,297.894v19.382h.063v13.39" transform="translate(2545 3776)"/><path class="e" d="M570.44,330.665l1.652,4.538,1.652-4.538Z" transform="translate(2545 3776)"/><path class="c" d="M572.029,402.768V422.15h.063v19.39" transform="translate(2545 3776)"/><path class="d" d="M572.029,402.768V422.15h.063v13.39" transform="translate(2545 3776)"/><path class="e" d="M570.44,435.539l1.652,4.538,1.652-4.538Z" transform="translate(2545 3776)"/><path class="c" d="M572.029,507.642v19.382h.063v19.39" transform="translate(2545 3776)"/><path class="d" d="M572.029,507.642v19.382h.063v13.39" transform="translate(2545 3776)"/><path class="e" d="M570.44,540.413l1.652,4.538,1.652-4.538Z" transform="translate(2545 3776)"/><path class="c" d="M572.029,612.516V631.9h.063v19.39" transform="translate(2545 3776)"/><path class="d" d="M572.029,612.516V631.9h.063v13.39" transform="translate(2545 3776)"/><path class="e" d="M570.44,645.287l1.652,4.538,1.652-4.538Z" transform="translate(2545 3776)"/><path class="a" d="M503.73,33.054h0a11.019,11.019,0,0,1,11.019-11.019H629.31a11.019,11.019,0,0,1,11.019,11.019V77.127A11.019,11.019,0,0,1,629.31,88.146H514.749A11.019,11.019,0,0,1,503.73,77.127Z" transform="translate(2545 3776)"/><path class="b" d="M550.564,62.011V48.651h1.781V60.432h6.563v1.578h-8.344Zm9.641-4.844A4.965,4.965,0,0,1,561.69,53.2a4.5,4.5,0,0,1,3.047-1.078A4.336,4.336,0,0,1,568,53.432a4.949,4.949,0,0,1,1.266,3.609,6.406,6.406,0,0,1-.562,2.938,3.99,3.99,0,0,1-1.641,1.656,4.692,4.692,0,0,1-2.328.594,4.35,4.35,0,0,1-3.281-1.3,5.25,5.25,0,0,1-1.25-3.766Zm1.688,0a4.226,4.226,0,0,0,.8,2.8,2.716,2.716,0,0,0,4.078,0,4.25,4.25,0,0,0,.813-2.844,4,4,0,0,0-.812-2.719,2.716,2.716,0,0,0-4.078,0,4.1,4.1,0,0,0-.8,2.766Zm8.985,5.641,1.594.234a1.531,1.531,0,0,0,.563,1.078,2.747,2.747,0,0,0,1.672.453,2.9,2.9,0,0,0,1.75-.453,2.219,2.219,0,0,0,.844-1.266,10.536,10.536,0,0,0,.109-2.109,3.344,3.344,0,0,1-2.672,1.266,3.66,3.66,0,0,1-3.094-1.437,5.537,5.537,0,0,1-1.094-3.453,6.462,6.462,0,0,1,.5-2.562,4.053,4.053,0,0,1,1.453-1.8,3.938,3.938,0,0,1,2.25-.641,3.462,3.462,0,0,1,2.813,1.375V52.339h1.516V60.7a7.779,7.779,0,0,1-.469,3.2,3.33,3.33,0,0,1-1.453,1.484,5,5,0,0,1-2.453.547,4.654,4.654,0,0,1-2.8-.781,2.627,2.627,0,0,1-1.031-2.344Zm1.359-5.812a4.228,4.228,0,0,0,.75,2.781,2.512,2.512,0,0,0,3.8.016,4.082,4.082,0,0,0,.766-2.734,3.9,3.9,0,0,0-.8-2.672,2.411,2.411,0,0,0-1.891-.906A2.366,2.366,0,0,0,573,54.37a3.89,3.89,0,0,0-.766,2.625Zm9.329-6.453V48.651h1.641v1.891Zm0,11.469V52.339h1.641v9.672Zm4.145,0V52.339h1.469v1.375a3.472,3.472,0,0,1,3.078-1.594,4.068,4.068,0,0,1,1.609.313,2.462,2.462,0,0,1,1.094.828,2.933,2.933,0,0,1,.516,1.2,9.1,9.1,0,0,1,.094,1.594v5.953H591.93V56.12a4.067,4.067,0,0,0-.2-1.484,1.562,1.562,0,0,0-.672-.8,2.139,2.139,0,0,0-1.141-.3,2.658,2.658,0,0,0-1.812.672,3.28,3.28,0,0,0-.75,2.516v5.281Z" transform="translate(2545 3776)"/><path class="c" d="M572.029,88.146v38.772" transform="translate(2545 3776)"/><path class="d" d="M572.029,88.146v32.772" transform="translate(2545 3776)"/><path class="e" d="M570.377,120.917l1.652,4.538,1.652-4.538Z" transform="translate(2545 3776)"/><path class="a" d="M331,242.8h0a11.019,11.019,0,0,1,11.019-11.019H456.58A11.019,11.019,0,0,1,467.6,242.8v44.073a11.019,11.019,0,0,1-11.019,11.019H342.019A11.019,11.019,0,0,1,331,286.875Z" transform="translate(2545 3776)"/><path class="b" d="M383.3,256.071l1.766.453a6.064,6.064,0,0,1-2,3.328,5.5,5.5,0,0,1-3.531,1.141,6.4,6.4,0,0,1-3.516-.875,5.666,5.666,0,0,1-2.062-2.547,9.175,9.175,0,0,1-.7-3.594,7.814,7.814,0,0,1,.8-3.625,5.4,5.4,0,0,1,2.266-2.359,6.658,6.658,0,0,1,3.25-.812,5.454,5.454,0,0,1,3.359,1.016,5.228,5.228,0,0,1,1.906,2.875l-1.734.406a4.073,4.073,0,0,0-1.359-2.109,3.512,3.512,0,0,0-2.2-.672,4.333,4.333,0,0,0-2.578.734,3.9,3.9,0,0,0-1.453,1.984,7.869,7.869,0,0,0-.422,2.563,8.055,8.055,0,0,0,.5,2.969,3.781,3.781,0,0,0,1.547,1.906,4.342,4.342,0,0,0,2.266.625,3.8,3.8,0,0,0,2.516-.859A4.371,4.371,0,0,0,383.3,256.071Zm10.051,3.5a6.529,6.529,0,0,1-1.766,1.094,5.049,5.049,0,0,1-1.8.313,3.521,3.521,0,0,1-2.453-.781,2.723,2.723,0,0,1-.531-3.281,2.631,2.631,0,0,1,.844-.937,4.126,4.126,0,0,1,1.188-.547,12.076,12.076,0,0,1,1.453-.25,14.866,14.866,0,0,0,2.922-.562q.016-.344.016-.422a1.838,1.838,0,0,0-.469-1.422,2.779,2.779,0,0,0-1.875-.547,2.869,2.869,0,0,0-1.7.406,2.489,2.489,0,0,0-.812,1.422l-1.609-.219a3.906,3.906,0,0,1,.719-1.641,3.133,3.133,0,0,1,1.453-.984,6.429,6.429,0,0,1,2.188-.344,5.678,5.678,0,0,1,2.016.3,2.492,2.492,0,0,1,1.141.734,2.437,2.437,0,0,1,.516,1.109,9.747,9.747,0,0,1,.078,1.516v2.187a22.267,22.267,0,0,0,.109,2.891,4.033,4.033,0,0,0,.406,1.156h-1.7A3.221,3.221,0,0,1,393.355,259.571Zm-.141-3.672a11.37,11.37,0,0,1-2.672.625,5.909,5.909,0,0,0-1.437.328,1.518,1.518,0,0,0-.656.531,1.424,1.424,0,0,0-.219.781,1.393,1.393,0,0,0,.5,1.094,2.144,2.144,0,0,0,1.453.438,3.4,3.4,0,0,0,1.672-.406,2.565,2.565,0,0,0,1.094-1.141,3.973,3.973,0,0,0,.266-1.641Zm10.516,1.312,1.609.219a4.212,4.212,0,0,1-1.359,2.609,3.927,3.927,0,0,1-2.672.938,4.142,4.142,0,0,1-3.187-1.3,5.271,5.271,0,0,1-1.2-3.719,6.783,6.783,0,0,1,.516-2.75,3.554,3.554,0,0,1,1.578-1.75,4.662,4.662,0,0,1,2.313-.594,4.01,4.01,0,0,1,2.578.8,3.655,3.655,0,0,1,1.281,2.266l-1.594.234a2.636,2.636,0,0,0-.812-1.453,2.054,2.054,0,0,0-1.391-.5,2.558,2.558,0,0,0-2.016.891,4.2,4.2,0,0,0-.781,2.813,4.383,4.383,0,0,0,.75,2.844,2.45,2.45,0,0,0,1.953.875,2.276,2.276,0,0,0,1.609-.594A2.918,2.918,0,0,0,403.731,257.212Zm3.016,3.547V247.4h1.641v4.8a3.645,3.645,0,0,1,2.891-1.328,3.86,3.86,0,0,1,1.859.422,2.483,2.483,0,0,1,1.141,1.172,5.392,5.392,0,0,1,.344,2.172v6.125h-1.641v-6.125a2.555,2.555,0,0,0-.531-1.8,1.985,1.985,0,0,0-1.516-.562,2.569,2.569,0,0,0-1.359.391,2.171,2.171,0,0,0-.922,1.016,4.786,4.786,0,0,0-.266,1.781v5.3h-1.641Zm17-3.109,1.688.2a4.215,4.215,0,0,1-1.484,2.313,5.072,5.072,0,0,1-6.141-.484,5.15,5.15,0,0,1-1.234-3.672,5.366,5.366,0,0,1,1.25-3.8,4.284,4.284,0,0,1,3.266-1.344,4.087,4.087,0,0,1,3.156,1.328,5.2,5.2,0,0,1,1.234,3.7v.437h-7.219a3.774,3.774,0,0,0,.906,2.453,2.685,2.685,0,0,0,2.016.844,2.548,2.548,0,0,0,1.547-.469A3.214,3.214,0,0,0,423.747,257.649Zm-5.391-2.656h5.406a3.241,3.241,0,0,0-.625-1.828,2.5,2.5,0,0,0-2.031-.953,2.621,2.621,0,0,0-1.906.766A2.963,2.963,0,0,0,418.357,254.993Z" transform="translate(2545 3776)"/><path class="b" d="M363.411,282.759V269.4h5.047a12.422,12.422,0,0,1,2.031.125,4.073,4.073,0,0,1,1.641.641,3.2,3.2,0,0,1,1.078,1.281,4.348,4.348,0,0,1-.687,4.719q-1.078,1.172-3.922,1.172h-3.422v5.422h-1.766Zm1.766-7h3.453a3.657,3.657,0,0,0,2.438-.641,2.282,2.282,0,0,0,.719-1.8,2.417,2.417,0,0,0-.422-1.437,1.96,1.96,0,0,0-1.125-.781,7.041,7.041,0,0,0-1.641-.125h-3.422Zm10.459,7v-9.672H377.1v1.469a4.067,4.067,0,0,1,1.031-1.359,1.855,1.855,0,0,1,1.063-.328,3.2,3.2,0,0,1,1.688.531l-.562,1.516a2.357,2.357,0,0,0-1.2-.359,1.535,1.535,0,0,0-.969.328,1.827,1.827,0,0,0-.609.891,6.253,6.253,0,0,0-.281,1.922v5.063Zm5.619-4.844a4.965,4.965,0,0,1,1.484-3.969,4.5,4.5,0,0,1,3.047-1.078,4.336,4.336,0,0,1,3.266,1.313,4.949,4.949,0,0,1,1.266,3.609,6.406,6.406,0,0,1-.562,2.938,3.99,3.99,0,0,1-1.641,1.656,4.692,4.692,0,0,1-2.328.594,4.35,4.35,0,0,1-3.281-1.3A5.25,5.25,0,0,1,381.255,277.915Zm1.688,0a4.226,4.226,0,0,0,.8,2.8,2.716,2.716,0,0,0,4.078,0,4.25,4.25,0,0,0,.813-2.844,4,4,0,0,0-.812-2.719,2.716,2.716,0,0,0-4.078,0A4.1,4.1,0,0,0,382.942,277.915Zm8.985,5.641,1.594.234a1.531,1.531,0,0,0,.563,1.078,2.747,2.747,0,0,0,1.672.453,2.9,2.9,0,0,0,1.75-.453,2.219,2.219,0,0,0,.844-1.266,10.536,10.536,0,0,0,.109-2.109,3.344,3.344,0,0,1-2.672,1.266,3.66,3.66,0,0,1-3.094-1.437,5.537,5.537,0,0,1-1.094-3.453,6.462,6.462,0,0,1,.5-2.562,4.053,4.053,0,0,1,1.453-1.8,3.937,3.937,0,0,1,2.25-.641,3.462,3.462,0,0,1,2.813,1.375v-1.156h1.516v8.359a7.779,7.779,0,0,1-.469,3.2,3.33,3.33,0,0,1-1.453,1.484,5,5,0,0,1-2.453.547,4.654,4.654,0,0,1-2.8-.781A2.626,2.626,0,0,1,391.927,283.556Zm1.359-5.812a4.228,4.228,0,0,0,.75,2.781,2.512,2.512,0,0,0,3.8.016,4.082,4.082,0,0,0,.766-2.734,3.9,3.9,0,0,0-.8-2.672,2.411,2.411,0,0,0-1.891-.906,2.366,2.366,0,0,0-1.859.891A3.891,3.891,0,0,0,393.287,277.743Zm9.313,5.016v-9.672h1.469v1.469A4.067,4.067,0,0,1,405.1,273.2a1.855,1.855,0,0,1,1.063-.328,3.2,3.2,0,0,1,1.688.531l-.562,1.516a2.357,2.357,0,0,0-1.2-.359,1.535,1.535,0,0,0-.969.328,1.827,1.827,0,0,0-.609.891,6.253,6.253,0,0,0-.281,1.922v5.063Zm12.853-3.109,1.688.2a4.215,4.215,0,0,1-1.484,2.313,5.072,5.072,0,0,1-6.141-.484,5.15,5.15,0,0,1-1.234-3.672,5.366,5.366,0,0,1,1.25-3.8,4.284,4.284,0,0,1,3.266-1.344,4.087,4.087,0,0,1,3.156,1.328,5.2,5.2,0,0,1,1.234,3.7v.438h-7.219a3.774,3.774,0,0,0,.906,2.453,2.685,2.685,0,0,0,2.016.844,2.548,2.548,0,0,0,1.547-.469A3.214,3.214,0,0,0,415.453,279.65Zm-5.391-2.656h5.406a3.241,3.241,0,0,0-.625-1.828,2.5,2.5,0,0,0-2.031-.953,2.621,2.621,0,0,0-1.906.766A2.963,2.963,0,0,0,410.063,276.993Zm8.485,2.875,1.625-.25a2.263,2.263,0,0,0,.75,1.5,2.676,2.676,0,0,0,1.75.516,2.584,2.584,0,0,0,1.672-.453,1.405,1.405,0,0,0,.547-1.094,1.01,1.01,0,0,0-.484-.875,6.746,6.746,0,0,0-1.672-.547,16.6,16.6,0,0,1-2.516-.8,2.423,2.423,0,0,1-1.047-.906,2.486,2.486,0,0,1-.359-1.312,2.45,2.45,0,0,1,.3-1.187,2.567,2.567,0,0,1,.813-.922,3.177,3.177,0,0,1,1.031-.469,4.888,4.888,0,0,1,1.422-.2,5.59,5.59,0,0,1,2,.328,2.689,2.689,0,0,1,1.266.891,3.4,3.4,0,0,1,.578,1.5l-1.609.219a1.755,1.755,0,0,0-.641-1.172,2.264,2.264,0,0,0-1.469-.422,2.7,2.7,0,0,0-1.625.375,1.1,1.1,0,0,0-.469.875.982.982,0,0,0,.188.578,1.45,1.45,0,0,0,.641.438q.234.094,1.438.422a19.1,19.1,0,0,1,2.438.75,2.467,2.467,0,0,1,1.078.859,2.407,2.407,0,0,1,.391,1.406,2.716,2.716,0,0,1-.484,1.547,3.1,3.1,0,0,1-1.375,1.125,5.124,5.124,0,0,1-2.047.391,4.587,4.587,0,0,1-2.875-.781A3.619,3.619,0,0,1,418.548,279.868Zm9.328,0,1.625-.25a2.263,2.263,0,0,0,.75,1.5,2.676,2.676,0,0,0,1.75.516,2.584,2.584,0,0,0,1.672-.453,1.405,1.405,0,0,0,.547-1.094,1.01,1.01,0,0,0-.484-.875,6.746,6.746,0,0,0-1.672-.547,16.6,16.6,0,0,1-2.516-.8,2.423,2.423,0,0,1-1.047-.906,2.486,2.486,0,0,1-.359-1.312,2.45,2.45,0,0,1,.3-1.187,2.567,2.567,0,0,1,.813-.922,3.177,3.177,0,0,1,1.031-.469,4.888,4.888,0,0,1,1.422-.2,5.59,5.59,0,0,1,2,.328,2.689,2.689,0,0,1,1.266.891,3.4,3.4,0,0,1,.578,1.5l-1.609.219a1.755,1.755,0,0,0-.641-1.172,2.264,2.264,0,0,0-1.469-.422,2.7,2.7,0,0,0-1.625.375,1.1,1.1,0,0,0-.469.875.982.982,0,0,0,.188.578,1.45,1.45,0,0,0,.641.438q.234.094,1.438.422a19.1,19.1,0,0,1,2.438.75,2.467,2.467,0,0,1,1.078.859,2.407,2.407,0,0,1,.391,1.406,2.716,2.716,0,0,1-.484,1.547,3.1,3.1,0,0,1-1.375,1.125,5.124,5.124,0,0,1-2.047.391,4.587,4.587,0,0,1-2.875-.781A3.619,3.619,0,0,1,427.876,279.868Z" transform="translate(2545 3776)"/><path class="c" d="M572.029,193.02V212.4H399.3v19.39" transform="translate(2545 3776)"/><path class="d" d="M572.029,193.02V212.4H399.3v13.39" transform="translate(2545 3776)"/><path class="e" d="M397.653,225.791l1.652,4.538,1.652-4.538Z" transform="translate(2545 3776)"/></g><text class="f" transform="translate(1374 3855)"><tspan x="0" y="0">Returning users</tspan></text></g></svg>