<svg xmlns="http://www.w3.org/2000/svg" xmlns:xlink="http://www.w3.org/1999/xlink" width="412" height="870" viewBox="0 0 412 870">
  <defs>
    <clipPath id="clip-_1-Splash_Log_in">
      <rect width="412" height="870"/>
    </clipPath>
  </defs>
  <g id="_1-Splash_Log_in" data-name="1-Splash/Log in" clip-path="url(#clip-_1-Splash_Log_in)">
    <rect width="412" height="870" fill="#fff"/>
    <g id="App_BG" data-name="App BG" transform="translate(2.507 2.503)" opacity="0.2">
      <g id="Group_100" data-name="Group 100" transform="translate(-2.464 827.477)">
        <path id="Path_142" data-name="Path 142" d="M.01,872.16A2.492,2.492,0,0,1-2.4,870.21a2.494,2.494,0,0,1,1.857-2.99c3.695-.85,7.637-1.68,11.707-2.46a2.465,2.465,0,0,1,2.885,1.99,2.491,2.491,0,0,1-1.966,2.92c-4.021.77-7.894,1.58-11.53,2.42A2.022,2.022,0,0,1,.01,872.16Zm23.306-4.5a2.5,2.5,0,0,1-.4-4.96c3.754-.61,7.726-1.2,11.8-1.77a2.5,2.5,0,0,1,.672,4.96c-4.031.56-7.963,1.15-11.688,1.75C23.583,867.65,23.444,867.66,23.316,867.66Zm23.514-3.28a2.506,2.506,0,0,1-.287-4.99c3.823-.46,7.8-.91,11.836-1.33a2.465,2.465,0,0,1,2.707,2.23,2.494,2.494,0,0,1-2.2,2.74c-4,.42-7.963.86-11.757,1.32A.994.994,0,0,1,46.829,864.38Zm23.6-2.48a2.5,2.5,0,0,1-.227-4.99q5.854-.54,11.846-1.02a2.5,2.5,0,0,1,.4,4.98q-5.972.48-11.8,1.02A1.51,1.51,0,0,1,70.432,861.9Zm23.662-1.93a2.5,2.5,0,0,1-.168-4.99q5.869-.42,11.856-.81a2.5,2.5,0,0,1,.306,4.99q-5.972.39-11.826.81Zm23.682-1.53a2.5,2.5,0,0,1-.138-5c3.922-.23,7.884-.45,11.856-.66a2.5,2.5,0,0,1,.257,5q-5.957.315-11.836.66A.639.639,0,0,0,117.775,858.44Zm23.691-1.27a2.5,2.5,0,0,1-.119-5c3.932-.19,7.894-.38,11.856-.56a2.5,2.5,0,0,1,.217,4.99q-5.943.27-11.846.56A.366.366,0,0,1,141.467,857.17Zm23.711-1.08a2.5,2.5,0,0,1-.109-4.99q5.9-.255,11.826-.5a2.518,2.518,0,0,1,2.569,2.4,2.491,2.491,0,0,1-2.371,2.6q-5.928.24-11.816.5A.332.332,0,0,0,165.178,856.09Zm23.662-.97a2.5,2.5,0,0,1-.1-5l11.856-.47a2.5,2.5,0,0,1,.188,4.99l-11.856.47A.244.244,0,0,1,188.839,855.12Zm23.731-.94a2.5,2.5,0,0,1-.1-5l11.885-.47a2.5,2.5,0,0,1,.2,5l-11.885.47Zm23.741-.95a2.5,2.5,0,0,1-.1-5c3.962-.17,7.914-.33,11.846-.51a2.519,2.519,0,0,1,2.579,2.39,2.492,2.492,0,0,1-2.361,2.61l-11.856.51Zm23.7-1.04a2.5,2.5,0,0,1-.119-4.99q5.957-.285,11.846-.58a2.5,2.5,0,0,1,.247,4.99q-5.9.3-11.856.58A.47.47,0,0,0,260.012,852.19Zm23.7-1.2a2.5,2.5,0,0,1-.128-4.99q5.957-.33,11.836-.68a2.446,2.446,0,0,1,2.608,2.35,2.486,2.486,0,0,1-2.322,2.64q-5.883.36-11.856.69A.325.325,0,0,0,283.714,850.99Zm23.691-1.45a2.5,2.5,0,0,1-.158-4.99q5.972-.405,11.816-.85a2.5,2.5,0,0,1,.366,4.99q-5.869.45-11.856.85Zm23.662-1.8a2.5,2.5,0,0,1-.207-4.99c4.011-.34,7.973-.7,11.786-1.07a2.5,2.5,0,0,1,.474,4.98c-3.833.37-7.815.74-11.846,1.08Zm23.622-2.3a2.5,2.5,0,0,1-.267-4.99c4.021-.45,7.973-.92,11.747-1.4a2.468,2.468,0,0,1,2.756,2.17,2.493,2.493,0,0,1-2.144,2.79c-3.794.48-7.775.96-11.826,1.41A1.2,1.2,0,0,1,354.689,845.44Zm23.543-3.02a2.506,2.506,0,0,1-.356-4.98c4.031-.6,7.953-1.23,11.658-1.88a2.5,2.5,0,0,1,.84,4.93c-3.744.65-7.706,1.29-11.777,1.9A2.25,2.25,0,0,1,378.232,842.42Zm23.375-4.11a2.5,2.5,0,0,1-.494-4.95c1.818-.38,3.606-.76,5.355-1.16a2.486,2.486,0,0,1,2.954,1.89,2.513,2.513,0,0,1-1.867,2.99c-1.778.4-3.6.8-5.434,1.18A3.08,3.08,0,0,1,401.607,838.31Z" transform="translate(2.464 -832.14)" fill="#ffcc65"/>
      </g>
      <g id="Group_101" data-name="Group 101" transform="translate(-2.507 735.5)">
        <path id="Path_143" data-name="Path 143" d="M140.2,763.16a2.5,2.5,0,0,1,0-5c3.922-.01,7.864-.03,11.836-.08a2.5,2.5,0,0,1,.059,5q-6,.075-11.9.08Zm-11.856-.03h-.02c-4.011-.03-8.012-.08-11.885-.16a2.488,2.488,0,0,1-2.421-2.55,2.518,2.518,0,0,1,2.519-2.45c3.853.07,7.835.13,11.826.16a2.5,2.5,0,0,1-.02,5Zm35.567-.21a2.5,2.5,0,0,1-.04-5q5.9-.105,11.836-.24h.059a2.5,2.5,0,0,1,.059,5q-5.957.135-11.865.24Zm-59.278-.25h-.079c-4.061-.13-8.062-.29-11.885-.48a2.5,2.5,0,0,1,.237-5c3.8.19,7.775.35,11.806.48a2.5,2.5,0,0,1-.079,5Zm82.979-.29a2.5,2.5,0,0,1-.069-5q5.913-.165,11.846-.35a2.5,2.5,0,0,1,.158,5q-5.943.18-11.856.35Zm219.4-.72c-.109,0-.217-.01-.326-.02-1.976-.26-4-.51-6.056-.73a2.5,2.5,0,0,1,.543-4.97c2.114.23,4.189.49,6.155.75a2.5,2.5,0,0,1-.316,4.97Zm-195.7-.01a2.5,2.5,0,0,1-.079-5q5.928-.2,11.846-.41a2.5,2.5,0,0,1,.178,5q-5.928.21-11.856.41ZM80.953,761.5a.946.946,0,0,1-.168-.01c-4.061-.28-8.062-.59-11.875-.94a2.5,2.5,0,0,1,.435-4.98c3.784.34,7.736.66,11.767.93a2.5,2.5,0,0,1-.158,5Zm154.073-.69a2.5,2.5,0,0,1-.089-5l11.856-.43a2.5,2.5,0,0,1,.178,5l-11.856.43Zm23.7-.87a2.5,2.5,0,0,1-.089-5q5.957-.21,11.856-.41a2.5,2.5,0,0,1,.158,5q-5.9.2-11.846.41Zm130.372-.12a1.18,1.18,0,0,1-.188-.01c-3.754-.29-7.716-.55-11.767-.76a2.5,2.5,0,0,1,.257-5c4.1.21,8.1.47,11.9.77a2.505,2.505,0,0,1-.2,5Zm-331.759-.5a2.947,2.947,0,0,1-.3-.02c-4.07-.49-8.052-1.03-11.836-1.62a2.5,2.5,0,0,1,.751-4.94c3.725.58,7.657,1.11,11.668,1.59a2.506,2.506,0,0,1-.287,4.99Zm225.1-.17a2.5,2.5,0,0,1-.079-5q5.972-.18,11.865-.34h.069a2.5,2.5,0,0,1,.069,5q-5.883.165-11.846.34Zm82.989-.59h-.079c-3.784-.12-7.756-.22-11.816-.29a2.5,2.5,0,0,1,.079-5c4.08.07,8.082.17,11.9.29a2.5,2.5,0,0,1-.079,5Zm-59.288-.04a2.5,2.5,0,0,1-.049-5q5.987-.135,11.875-.22a2.5,2.5,0,0,1,.079,5q-5.868.09-11.836.22Zm23.721-.35a2.5,2.5,0,0,1-.02-5c4.011-.03,7.983-.03,11.885-.02a2.5,2.5,0,0,1-.01,5h-.01c-3.893-.01-7.835-.01-11.836.02ZM33.906,755.65a2.746,2.746,0,0,1-.484-.05c-4.09-.82-8.022-1.72-11.7-2.68a2.5,2.5,0,0,1-1.778-3.04,2.467,2.467,0,0,1,3-1.8c3.586.94,7.429,1.82,11.431,2.62a2.511,2.511,0,0,1,1.946,2.94A2.47,2.47,0,0,1,33.906,755.65Zm-22.931-6.06a2.482,2.482,0,0,1-.8-.13,113.3,113.3,0,0,1-11.253-4.53,2.506,2.506,0,0,1-1.2-3.32,2.45,2.45,0,0,1,3.28-1.21,106.987,106.987,0,0,0,10.769,4.33,2.5,2.5,0,0,1,1.541,3.17A2.47,2.47,0,0,1,10.976,749.59Z" transform="translate(2.507 -740.163)" fill="#ffcc65"/>
      </g>
      <g id="Group_102" data-name="Group 102" transform="translate(-2.505 596.623)">
        <path id="Path_144" data-name="Path 144" d="M-.03,664.25a2.475,2.475,0,0,1-2.183-1.32A2.511,2.511,0,0,1-1.2,659.55c3.349-1.81,7.034-3.56,10.947-5.2a2.461,2.461,0,0,1,3.231,1.36,2.512,2.512,0,0,1-1.344,3.27c-3.764,1.58-7.3,3.25-10.5,4.98A2.456,2.456,0,0,1-.03,664.25Zm21.844-9.26a2.466,2.466,0,0,1-2.341-1.71,2.5,2.5,0,0,1,1.561-3.16c3.616-1.22,7.479-2.4,11.48-3.51a2.468,2.468,0,0,1,3.033,1.75,2.505,2.505,0,0,1-1.729,3.07c-3.922,1.09-7.706,2.24-11.233,3.43A2.269,2.269,0,0,1,21.814,654.99Zm22.862-6.39a2.464,2.464,0,0,1-2.4-1.94,2.5,2.5,0,0,1,1.857-3c3.715-.86,7.647-1.71,11.688-2.51a2.5,2.5,0,0,1,.948,4.9c-3.991.79-7.874,1.63-11.53,2.48A2.168,2.168,0,0,1,44.675,648.6Zm23.286-4.65a2.468,2.468,0,0,1-2.43-2.08,2.5,2.5,0,0,1,2.025-2.88c3.774-.64,7.736-1.27,11.777-1.88a2.5,2.5,0,0,1,.721,4.95c-4.011.59-7.933,1.22-11.668,1.86A3.139,3.139,0,0,1,67.962,643.95Zm23.484-3.5a2.5,2.5,0,0,1-.316-4.98c3.833-.5,7.815-.98,11.816-1.44a2.5,2.5,0,0,1,.563,4.97c-3.981.46-7.933.94-11.747,1.43A1.736,1.736,0,0,1,91.446,640.45Zm23.583-2.71a2.5,2.5,0,0,1-.237-4.99q5.869-.6,11.836-1.15a2.5,2.5,0,0,1,.454,4.98q-5.943.54-11.786,1.14C115.2,637.73,115.107,637.74,115.028,637.74Zm23.632-2.18a2.5,2.5,0,0,1-.2-4.99q5.883-.5,11.846-.94a2.5,2.5,0,0,1,.366,4.99q-5.943.45-11.816.94A1.3,1.3,0,0,0,138.66,635.56Zm23.672-1.81a2.5,2.5,0,0,1-.168-5q5.9-.42,11.846-.81a2.5,2.5,0,0,1,.326,4.99q-5.943.39-11.826.81C162.451,633.74,162.391,633.75,162.332,633.75Zm23.652-1.58a2.5,2.5,0,0,1-.148-4.99q5.913-.375,11.836-.73a2.5,2.5,0,0,1,.3,4.99q-5.928.36-11.826.73Zm23.672-1.45a2.5,2.5,0,0,1-.138-4.99l11.865-.71a2.453,2.453,0,0,1,2.608,2.35,2.486,2.486,0,0,1-2.322,2.64l-11.865.72A.743.743,0,0,0,209.656,630.72Zm23.721-1.43a2.5,2.5,0,0,1-.148-5q5.928-.36,11.836-.74a2.5,2.5,0,0,1,.306,4.99q-5.913.375-11.856.74C233.475,629.28,233.426,629.29,233.377,629.29Zm23.682-1.52a2.5,2.5,0,0,1-.158-4.99q5.943-.405,11.826-.82a2.5,2.5,0,0,1,.346,4.99q-5.9.42-11.846.82Zm23.672-1.71a2.5,2.5,0,0,1-.188-4.99q5.943-.465,11.806-.96a2.5,2.5,0,0,1,.415,4.98q-5.883.5-11.846.97Zm23.652-2.02a2.5,2.5,0,0,1-.227-4.99q5.957-.57,11.786-1.18a2.469,2.469,0,0,1,2.717,2.23,2.5,2.5,0,0,1-2.2,2.75q-5.854.615-11.836,1.18C304.54,624.03,304.461,624.04,304.382,624.04Zm23.6-2.51a2.477,2.477,0,0,1-2.45-2.21,2.505,2.505,0,0,1,2.164-2.78c4.031-.48,7.973-.99,11.737-1.5a2.5,2.5,0,0,1,.662,4.95c-3.784.52-7.765,1.02-11.816,1.51A1.489,1.489,0,0,1,327.984,621.53Zm23.523-3.22a2.5,2.5,0,0,1-.375-4.97c3.991-.62,7.914-1.29,11.648-1.96a2.5,2.5,0,0,1,.869,4.92c-3.774.68-7.736,1.35-11.767,1.98A2.29,2.29,0,0,1,351.508,618.31Zm23.355-4.27a2.467,2.467,0,0,1-2.411-1.99,2.5,2.5,0,0,1,1.907-2.96c3.982-.85,7.835-1.75,11.47-2.67a2.46,2.46,0,0,1,2.994,1.82,2.494,2.494,0,0,1-1.8,3.03c-3.695.94-7.617,1.85-11.658,2.71A2.169,2.169,0,0,1,374.863,614.04Zm23-5.88a2.481,2.481,0,0,1-2.361-1.78,2.511,2.511,0,0,1,1.65-3.12c3.152-.97,6.185-1.98,9.02-3.02a2.458,2.458,0,0,1,3.161,1.5,2.5,2.5,0,0,1-1.482,3.2c-2.924,1.07-6.036,2.11-9.267,3.1A2.021,2.021,0,0,1,397.863,608.16Z" transform="translate(2.505 -600.09)" fill="#ffcc65"/>
      </g>
      <g id="Group_103" data-name="Group 103" transform="translate(-2.502 420.235)">
        <path id="Path_145" data-name="Path 145" d="M406.612,508.12a2.429,2.429,0,0,1-1.047-.24c-3.369-1.6-6.985-3.19-10.749-4.73a2.5,2.5,0,0,1-1.363-3.25,2.453,2.453,0,0,1,3.211-1.38c3.853,1.57,7.548,3.2,11,4.84a2.516,2.516,0,0,1,1.186,3.33A2.458,2.458,0,0,1,406.612,508.12Zm-21.972-9.03a2.427,2.427,0,0,1-.83-.15c-3.547-1.27-7.3-2.55-11.164-3.79a2.511,2.511,0,0,1-1.61-3.14,2.469,2.469,0,0,1,3.1-1.63c3.922,1.26,7.726,2.55,11.332,3.84a2.508,2.508,0,0,1,1.5,3.19A2.467,2.467,0,0,1,384.639,499.09Zm-22.6-7.28a2.3,2.3,0,0,1-.682-.1c-3.665-1.06-7.5-2.12-11.391-3.15a2.5,2.5,0,0,1-1.768-3.05,2.468,2.468,0,0,1,3.013-1.79c3.932,1.04,7.795,2.11,11.5,3.18a2.5,2.5,0,0,1,1.689,3.09A2.439,2.439,0,0,1,362.035,491.81Zm-22.95-6.09a2.378,2.378,0,0,1-.583-.07c-3.7-.9-7.578-1.81-11.52-2.7a2.494,2.494,0,0,1,1.077-4.87c3.962.9,7.864,1.81,11.6,2.72a2.5,2.5,0,0,1-.573,4.92Zm-23.158-5.24a2.868,2.868,0,0,1-.5-.05c-3.725-.79-7.627-1.59-11.6-2.38a2.5,2.5,0,0,1-1.946-2.93,2.471,2.471,0,0,1,2.895-1.97c3.991.79,7.914,1.6,11.658,2.39a2.5,2.5,0,0,1-.5,4.94Zm-23.286-4.64a2.4,2.4,0,0,1-.454-.04q-5.779-1.08-11.658-2.13a2.5,2.5,0,0,1-2.006-2.9,2.477,2.477,0,0,1,2.865-2.03q5.9,1.05,11.7,2.14a2.5,2.5,0,0,1,1.976,2.91A2.455,2.455,0,0,1,292.641,475.84Zm-23.365-4.16a2.9,2.9,0,0,1-.415-.03q-5.809-.99-11.687-1.95a2.5,2.5,0,0,1-2.045-2.87,2.471,2.471,0,0,1,2.835-2.07q5.9.96,11.727,1.95a2.505,2.505,0,0,1-.415,4.97Zm-23.424-3.83a2.5,2.5,0,0,1-.385-.03q-5.839-.915-11.717-1.81a2.5,2.5,0,0,1,.731-4.94q5.9.9,11.737,1.82a2.5,2.5,0,0,1,2.065,2.86A2.47,2.47,0,0,1,245.852,467.85Zm-23.464-3.58a2.348,2.348,0,0,1-.366-.03q-5.854-.87-11.737-1.72a2.5,2.5,0,0,1,.7-4.95q5.883.855,11.747,1.72a2.494,2.494,0,0,1,2.085,2.84A2.466,2.466,0,0,1,222.388,464.27Zm-23.513-3.41c-.119,0-.227-.01-.346-.02q-5.883-.84-11.757-1.66a2.49,2.49,0,0,1-2.1-2.82,2.465,2.465,0,0,1,2.786-2.13q5.883.825,11.767,1.66a2.5,2.5,0,0,1-.346,4.97Zm-23.513-3.31c-.109,0-.227-.01-.336-.02l-11.737-1.63a2.5,2.5,0,0,1,.672-4.96l11.737,1.63a2.5,2.5,0,0,1-.336,4.98Zm-23.454-3.27c-.109,0-.227-.01-.336-.02q-5.9-.825-11.757-1.64a2.5,2.5,0,0,1,.682-4.95q5.854.825,11.747,1.64a2.5,2.5,0,0,1-.336,4.97Zm-23.5-3.3c-.119,0-.227-.01-.346-.02q-5.913-.84-11.757-1.69a2.5,2.5,0,0,1,.7-4.95q5.839.855,11.737,1.69a2.5,2.5,0,0,1-.336,4.97Zm-23.494-3.42a2.348,2.348,0,0,1-.366-.03q-5.928-.885-11.747-1.78a2.5,2.5,0,0,1-2.075-2.85,2.473,2.473,0,0,1,2.816-2.1c3.873.59,7.785,1.19,11.727,1.77a2.511,2.511,0,0,1-.356,4.99Zm-23.464-3.61a2.5,2.5,0,0,1-.385-.03q-5.928-.945-11.737-1.91a2.5,2.5,0,0,1,.8-4.93q5.78.96,11.7,1.91a2.491,2.491,0,0,1,2.055,2.86A2.454,2.454,0,0,1,81.446,443.95Zm-23.415-3.91a2.038,2.038,0,0,1-.425-.04q-5.943-1.05-11.707-2.12a2.5,2.5,0,0,1-1.986-2.91,2.471,2.471,0,0,1,2.875-2.01q5.735,1.065,11.658,2.11a2.507,2.507,0,0,1,2.015,2.89A2.466,2.466,0,0,1,58.032,440.04ZM34.7,435.68a2.743,2.743,0,0,1-.484-.05c-4.011-.8-7.933-1.62-11.658-2.42a2.5,2.5,0,0,1-1.9-2.97,2.471,2.471,0,0,1,2.934-1.92c3.7.8,7.607,1.61,11.589,2.41a2.5,2.5,0,0,1-.484,4.95Zm-23.207-5.04a2.172,2.172,0,0,1-.563-.07c-4.021-.95-7.914-1.93-11.579-2.9a2.5,2.5,0,0,1-1.768-3.05,2.463,2.463,0,0,1,3.013-1.79c3.626.96,7.479,1.92,11.46,2.87a2.5,2.5,0,0,1,1.838,3A2.464,2.464,0,0,1,11.489,430.64Z" transform="translate(2.502 -422.748)" fill="#ffcc65"/>
      </g>
      <g id="Group_104" data-name="Group 104" transform="translate(-2.501 323.442)">
        <path id="Path_146" data-name="Path 146" d="M260.7,349.13a2.5,2.5,0,0,1-.01-5c3.972-.01,7.914-.05,11.836-.1h.03a2.5,2.5,0,0,1,.03,5q-5.9.09-11.885.1Zm-11.856,0h-.01q-5.913-.03-11.875-.1a2.5,2.5,0,0,1,.03-5h.03q5.943.075,11.846.1a2.5,2.5,0,0,1-.02,5Zm-23.721-.29h-.049q-5.913-.105-11.865-.25a2.5,2.5,0,0,1,.119-5q5.928.135,11.846.25a2.5,2.5,0,0,1-.049,5Zm59.288-.03a2.5,2.5,0,0,1-.059-5c4.031-.1,8.012-.22,11.816-.37a2.5,2.5,0,0,1,.188,4.99c-3.833.15-7.825.27-11.885.37A.124.124,0,0,1,284.415,348.81Zm-83-.51h-.069q-5.928-.165-11.856-.34a2.5,2.5,0,0,1,.148-4.99q5.928.18,11.846.34a2.5,2.5,0,0,1-.069,4.99Zm106.69-.39a2.5,2.5,0,0,1-.128-5c4.011-.21,7.983-.46,11.8-.73a2.5,2.5,0,0,1,.346,4.99c-3.833.27-7.835.52-11.875.74Zm-130.4-.34h-.079c-3.952-.13-7.914-.26-11.856-.4a2.5,2.5,0,0,1,.168-4.99q5.913.21,11.846.4a2.5,2.5,0,0,1-.079,4.99Zm-23.691-.8h-.089l-11.846-.41a2.5,2.5,0,0,1,.168-4.99l11.846.41a2.5,2.5,0,0,1-.079,4.99ZM-.03,346.76a2.494,2.494,0,0,1-2.46-2.26,2.5,2.5,0,0,1,2.223-2.73c3.764-.37,7.765-.69,11.885-.97a2.5,2.5,0,0,1,.326,4.99c-4.07.27-8.022.6-11.747.96A1.648,1.648,0,0,1-.03,346.76Zm331.788-.55a2.5,2.5,0,0,1-.227-4.99c4-.37,7.953-.78,11.737-1.23a2.5,2.5,0,0,1,.563,4.97c-3.823.45-7.815.86-11.856,1.24A1.442,1.442,0,0,1,331.758,346.21Zm-201.446-.26h-.079q-5.957-.2-11.846-.38a2.5,2.5,0,0,1,.158-5q5.9.18,11.856.38a2.5,2.5,0,0,1-.089,5Zm-23.7-.73h-.069q-5.972-.165-11.846-.3a2.5,2.5,0,0,1,.119-5q5.883.135,11.865.3a2.5,2.5,0,0,1-.069,5Zm-82.989-.08a2.5,2.5,0,0,1-.109-5c3.8-.17,7.8-.31,11.9-.41a2.5,2.5,0,0,1,.119,5c-4.061.1-8.032.24-11.806.41Zm59.278-.46h-.04q-5.987-.105-11.836-.16a2.5,2.5,0,0,1,.04-5q5.869.06,11.875.16a2.5,2.5,0,0,1-.04,5Zm-35.577-.16a2.5,2.5,0,0,1-.03-5q5.661-.06,11.49-.06h.4a2.5,2.5,0,0,1,0,5h-.4q-5.809,0-11.441.06Zm307.988-1.09a2.5,2.5,0,0,1-.356-4.97c3.991-.59,7.9-1.24,11.618-1.92a2.471,2.471,0,0,1,2.875,2.01,2.5,2.5,0,0,1-1.986,2.91c-3.764.69-7.736,1.35-11.786,1.95C355.549,343.42,355.43,343.43,355.311,343.43Zm23.316-4.33a2.5,2.5,0,0,1-.553-4.94c3.952-.91,7.765-1.9,11.352-2.94a2.464,2.464,0,0,1,3.053,1.72,2.5,2.5,0,0,1-1.7,3.09c-3.675,1.06-7.578,2.07-11.618,3A1.86,1.86,0,0,1,378.627,339.1Zm22.773-6.66a2.472,2.472,0,0,1-2.322-1.65,2.5,2.5,0,0,1,1.482-3.2c1.887-.69,3.744-1.42,5.513-2.16a2.468,2.468,0,0,1,3.231,1.35,2.516,2.516,0,0,1-1.334,3.27c-1.838.77-3.754,1.52-5.71,2.24A2.434,2.434,0,0,1,401.4,332.44Z" transform="translate(2.501 -325.239)" fill="#ffcc65"/>
      </g>
      <g id="Group_105" data-name="Group 105" transform="translate(-2.498 217.579)">
        <path id="Path_147" data-name="Path 147" d="M-.03,262.15a2.485,2.485,0,0,1-2.46-2.3,2.483,2.483,0,0,1,2.262-2.69c3.8-.31,7.765-.67,11.786-1.05a2.5,2.5,0,0,1,.464,4.97c-4.041.39-8.032.74-11.846,1.06A1.515,1.515,0,0,1-.03,262.15Zm23.622-2.25a2.474,2.474,0,0,1-2.45-2.24,2.5,2.5,0,0,1,2.2-2.75c3.873-.41,7.8-.85,11.767-1.3a2.5,2.5,0,0,1,.563,4.97q-5.972.69-11.816,1.31A2.558,2.558,0,0,1,23.592,259.9Zm23.573-2.7a2.5,2.5,0,0,1-.3-4.98q5.824-.72,11.757-1.48a2.5,2.5,0,0,1,.613,4.96q-5.943.765-11.786,1.48A2.584,2.584,0,0,1,47.165,257.2ZM70.7,254.18a2.5,2.5,0,0,1-.326-4.98q5.839-.78,11.747-1.59a2.5,2.5,0,0,1,.662,4.95c-3.942.54-7.874,1.07-11.767,1.59A1.616,1.616,0,0,1,70.7,254.18Zm23.5-3.22a2.5,2.5,0,0,1-.336-4.98q5.839-.825,11.747-1.66a2.5,2.5,0,0,1,.682,4.95q-5.9.84-11.757,1.66A1.827,1.827,0,0,1,94.2,250.96Zm23.494-3.34a2.476,2.476,0,0,1-2.44-2.15,2.506,2.506,0,0,1,2.094-2.83l11.717-1.69a2.5,2.5,0,0,1,.7,4.95l-11.717,1.69A2.134,2.134,0,0,1,117.7,247.62Zm23.444-3.39a2.505,2.505,0,0,1-.346-4.98l11.737-1.69a2.5,2.5,0,0,1,.7,4.95L141.5,244.2A2.134,2.134,0,0,1,141.14,244.23Zm23.484-3.37a2.5,2.5,0,0,1-.336-4.97q5.883-.84,11.757-1.66a2.5,2.5,0,0,1,.682,4.95q-5.869.825-11.757,1.66C164.851,240.85,164.733,240.86,164.624,240.86Zm23.523-3.3a2.5,2.5,0,0,1-.326-4.97c3.942-.54,7.864-1.08,11.8-1.6a2.5,2.5,0,0,1,.652,4.96q-5.869.78-11.777,1.6C188.375,237.55,188.256,237.56,188.148,237.56Zm23.543-3.16a2.5,2.5,0,0,1-.316-4.98q5.913-.765,11.777-1.5a2.5,2.5,0,0,1,.613,4.96q-5.854.735-11.757,1.5A1.628,1.628,0,0,1,211.691,234.4Zm23.543-2.93a2.5,2.5,0,0,1-.287-4.98q5.928-.705,11.806-1.36a2.5,2.5,0,0,1,.543,4.97q-5.854.66-11.767,1.36C235.432,231.46,235.333,231.47,235.234,231.47Zm171.777-.4a2.3,2.3,0,0,1-.682-.1c-2.015-.59-4.149-1.14-6.323-1.66a2.507,2.507,0,0,1-1.848-3,2.475,2.475,0,0,1,2.964-1.87c2.262.53,4.466,1.11,6.57,1.72a2.5,2.5,0,0,1,1.689,3.09A2.459,2.459,0,0,1,407.012,231.07Zm-148.195-2.24a2.5,2.5,0,0,1-.247-4.98q5.957-.615,11.826-1.18a2.5,2.5,0,0,1,.454,4.98q-5.839.555-11.786,1.17C258.985,228.82,258.906,228.83,258.817,228.83Zm130.115-1.74a2.729,2.729,0,0,1-.4-.03c-3.675-.59-7.588-1.11-11.618-1.54a2.5,2.5,0,0,1,.524-4.98c4.12.44,8.121.97,11.885,1.58a2.5,2.5,0,0,1-.4,4.97Zm-106.493-.5a2.5,2.5,0,0,1-.207-4.99c4.021-.34,8.012-.65,11.856-.93a2.5,2.5,0,0,1,.346,4.99c-3.833.28-7.8.59-11.8.92A1.247,1.247,0,0,1,282.439,226.59ZM306.1,224.9a2.5,2.5,0,0,1-.138-5c4.051-.23,8.052-.43,11.885-.59a2.5,2.5,0,0,1,.2,5c-3.814.16-7.785.35-11.806.59Zm59.268-.36h-.158c-3.754-.24-7.716-.42-11.757-.54a2.489,2.489,0,0,1-2.4-2.57,2.524,2.524,0,0,1,2.539-2.43c4.1.12,8.121.31,11.925.55a2.5,2.5,0,0,1-.148,4.99Zm-35.557-.6a2.5,2.5,0,0,1-.049-5c3.8-.08,7.558-.12,11.164-.12h.751a2.5,2.5,0,0,1,0,5h-.741c-3.576,0-7.291.04-11.065.12Z" transform="translate(2.498 -218.82)" fill="#ffcc65"/>
      </g>
      <g id="Group_106" data-name="Group 106" transform="translate(-2.497 78.093)">
        <path id="Path_148" data-name="Path 148" d="M-.03,159.81A2.462,2.462,0,0,1-2.4,158a2.5,2.5,0,0,1,1.689-3.09c3.7-1.08,7.558-2.17,11.451-3.25a2.468,2.468,0,0,1,3.033,1.75,2.505,2.505,0,0,1-1.729,3.07c-3.873,1.07-7.706,2.16-11.391,3.23A2.3,2.3,0,0,1-.03,159.81Zm22.881-6.34a2.5,2.5,0,0,1-.622-4.92q5.676-1.5,11.51-2.99a2.462,2.462,0,0,1,2.994,1.81,2.5,2.5,0,0,1-1.788,3.03q-5.809,1.485-11.47,2.98A2.231,2.231,0,0,1,22.851,153.47Zm23-5.86a2.5,2.5,0,0,1-.583-4.93c3.814-.94,7.667-1.86,11.559-2.79a2.461,2.461,0,0,1,2.964,1.86,2.5,2.5,0,0,1-1.838,3q-5.809,1.38-11.52,2.78A2.277,2.277,0,0,1,45.851,147.61Zm23.1-5.48a2.5,2.5,0,0,1-.543-4.94q5.75-1.32,11.589-2.62a2.5,2.5,0,0,1,1.057,4.89q-5.824,1.29-11.559,2.61A2.447,2.447,0,0,1,68.95,142.13Zm23.168-5.16a2.474,2.474,0,0,1-2.411-1.98,2.5,2.5,0,0,1,1.9-2.97q5.78-1.245,11.618-2.48a2.5,2.5,0,0,1,1.008,4.9q-5.839,1.23-11.589,2.47A1.874,1.874,0,0,1,92.117,136.97Zm23.227-4.89a2.478,2.478,0,0,1-2.421-2,2.51,2.51,0,0,1,1.927-2.95q5.794-1.185,11.638-2.36a2.5,2.5,0,0,1,.958,4.91q-5.839,1.17-11.618,2.36A2.567,2.567,0,0,1,115.344,132.08Zm23.276-4.66a2.506,2.506,0,0,1-.464-4.96q5.809-1.14,11.658-2.26a2.5,2.5,0,0,1,.919,4.91q-5.839,1.125-11.638,2.25A1.622,1.622,0,0,1,138.621,127.42Zm23.276-4.46a2.5,2.5,0,0,1-.454-4.95q5.809-1.1,11.658-2.16a2.5,2.5,0,0,1,.889,4.92q-5.824,1.065-11.638,2.16A3.585,3.585,0,0,1,161.9,122.96Zm23.306-4.28a2.5,2.5,0,0,1-.435-4.96q5.839-1.05,11.688-2.09a2.5,2.5,0,0,1,.85,4.92q-5.839,1.035-11.668,2.09A3.193,3.193,0,0,1,185.2,118.68Zm23.365-4.15a2.506,2.506,0,0,1-.415-4.97c3.9-.68,7.815-1.36,11.707-2.03a2.469,2.469,0,0,1,2.845,2.05,2.5,2.5,0,0,1-2.025,2.88q-5.854,1-11.7,2.02A1.431,1.431,0,0,1,208.569,114.53Zm23.425-4.02a2.505,2.505,0,0,1-.405-4.97q5.883-.99,11.737-1.97a2.469,2.469,0,0,1,2.835,2.06,2.5,2.5,0,0,1-2.035,2.87q-5.854.975-11.727,1.97A1.8,1.8,0,0,1,231.993,110.51Zm23.435-3.91a2.469,2.469,0,0,1-2.43-2.1,2.5,2.5,0,0,1,2.045-2.87q5.869-.96,11.717-1.91a2.461,2.461,0,0,1,2.826,2.07,2.489,2.489,0,0,1-2.045,2.86q-5.839.945-11.707,1.91A1.855,1.855,0,0,1,255.428,106.6Zm23.425-3.8a2.5,2.5,0,0,1-.385-4.97q5.883-.945,11.717-1.87a2.481,2.481,0,0,1,2.826,2.08,2.509,2.509,0,0,1-2.055,2.86q-5.839.93-11.717,1.87A2.5,2.5,0,0,1,278.853,102.8Zm23.435-3.72a2.5,2.5,0,0,1-.375-4.97q5.9-.93,11.727-1.83a2.473,2.473,0,0,1,2.816,2.09,2.5,2.5,0,0,1-2.065,2.85q-5.824.915-11.717,1.83A2.5,2.5,0,0,1,302.287,99.08Zm23.444-3.65a2.5,2.5,0,0,1-.375-4.97q5.9-.915,11.727-1.81a2.5,2.5,0,0,1,.741,4.95Q332,94.5,326.1,95.4A2.083,2.083,0,0,1,325.732,95.43Zm23.464-3.6a2.5,2.5,0,0,1-.366-4.97l11.737-1.78a2.5,2.5,0,0,1,.731,4.94L349.571,91.8A2.472,2.472,0,0,1,349.2,91.83Zm23.454-3.56a2.5,2.5,0,0,1-.366-4.97l11.737-1.77a2.473,2.473,0,0,1,2.806,2.1,2.5,2.5,0,0,1-2.075,2.84l-11.727,1.77A2.375,2.375,0,0,1,372.65,88.27Zm23.464-3.54a2.5,2.5,0,0,1-.366-4.97l10.887-1.64a2.5,2.5,0,0,1,.731,4.94L396.48,84.7A2.166,2.166,0,0,1,396.114,84.73Z" transform="translate(2.497 -78.093)" fill="#ffcc65"/>
      </g>
      <g id="Group_107" data-name="Group 107" transform="translate(-0.773 -2.503)">
        <path id="Path_149" data-name="Path 149" d="M407.012,50.6h-.04l-6.2-.12a2.488,2.488,0,0,1-2.42-2.55,2.517,2.517,0,0,1,2.519-2.45l6.194.12a2.5,2.5,0,0,1-.049,5Zm-18.049-.37H388.9c-3.981-.09-7.943-.2-11.855-.3a2.5,2.5,0,0,1,.138-5q5.868.165,11.845.3a2.5,2.5,0,0,1-.069,5Zm-23.7-.65h-.079q-5.987-.2-11.855-.4a2.5,2.5,0,0,1,.178-5q5.868.21,11.835.4a2.5,2.5,0,0,1-.079,5Zm-23.69-.85h-.1q-5.987-.24-11.855-.5a2.5,2.5,0,0,1,.217-5q5.868.255,11.835.5a2.5,2.5,0,0,1-.1,5Zm-23.69-1.05h-.119q-5.987-.3-11.845-.61a2.5,2.5,0,0,1,.267-4.99q5.853.315,11.825.61a2.5,2.5,0,0,1-.128,4.99Zm-23.67-1.27h-.148q-5.987-.345-11.845-.72a2.5,2.5,0,0,1,.306-4.99q5.853.375,11.815.72a2.5,2.5,0,0,1-.128,4.99ZM270.551,44.9a.948.948,0,0,1-.168-.01q-5.987-.405-11.835-.85a2.5,2.5,0,0,1,.366-4.99q5.839.435,11.815.84a2.509,2.509,0,0,1-.178,5.01ZM246.91,43.15a1.308,1.308,0,0,1-.2-.01q-5.987-.48-11.825-.98a2.5,2.5,0,0,1,.415-4.98c3.883.33,7.824.66,11.8.98a2.5,2.5,0,0,1-.188,4.99Zm-23.621-2.02a1.728,1.728,0,0,1-.227-.01q-5.987-.555-11.815-1.12a2.5,2.5,0,0,1,.474-4.98q5.824.57,11.786,1.12a2.5,2.5,0,0,1-.217,4.99Zm-23.6-2.31a2.206,2.206,0,0,1-.257-.01q-5.987-.63-11.806-1.27a2.5,2.5,0,0,1-2.183-2.76,2.468,2.468,0,0,1,2.727-2.21q5.809.645,11.766,1.27a2.5,2.5,0,0,1-.247,4.98ZM176.126,36.2a2.757,2.757,0,0,1-.286-.02q-5.987-.705-11.786-1.44a2.493,2.493,0,0,1-2.144-2.79,2.468,2.468,0,0,1,2.756-2.17c3.853.49,7.775.96,11.746,1.44a2.5,2.5,0,0,1-.286,4.98ZM152.6,33.23c-.109,0-.217-.01-.326-.02-3.991-.53-7.9-1.07-11.766-1.62a2.5,2.5,0,0,1-2.1-2.82,2.47,2.47,0,0,1,2.786-2.13c3.843.55,7.755,1.08,11.727,1.62a2.5,2.5,0,0,1,2.124,2.81A2.47,2.47,0,0,1,152.6,33.23ZM129.121,29.9a2.253,2.253,0,0,1-.366-.03q-5.972-.9-11.736-1.82a2.509,2.509,0,0,1-2.055-2.86,2.473,2.473,0,0,1,2.825-2.08q5.735.915,11.7,1.82a2.5,2.5,0,0,1-.366,4.97Zm-23.414-3.75a1.945,1.945,0,0,1-.415-.04q-5.972-1.02-11.707-2.05a2.5,2.5,0,0,1,.869-4.92q5.705,1.035,11.657,2.04a2.505,2.505,0,0,1-.405,4.97ZM82.373,21.94a2.5,2.5,0,0,1-.464-.04c-3.922-.75-7.844-1.53-11.657-2.3a2.5,2.5,0,0,1-1.936-2.94,2.474,2.474,0,0,1,2.9-1.96c3.794.77,7.706,1.54,11.608,2.29a2.5,2.5,0,0,1-.454,4.95ZM59.137,17.2a2.252,2.252,0,0,1-.514-.06c-3.892-.84-7.8-1.72-11.608-2.59a2.5,2.5,0,0,1,1.1-4.87c3.784.87,7.666,1.74,11.539,2.58a2.5,2.5,0,0,1,1.9,2.97A2.475,2.475,0,0,1,59.137,17.2ZM36.03,11.87a2.323,2.323,0,0,1-.583-.07c-3.922-.97-7.795-1.95-11.539-2.94A2.5,2.5,0,0,1,22.14,5.81a2.463,2.463,0,0,1,3.013-1.79c3.715.98,7.567,1.96,11.46,2.91a2.509,2.509,0,0,1-.583,4.94ZM13.09,5.83a2.513,2.513,0,0,1-.662-.09C8.556,4.65,4.7,3.52.988,2.4A2.52,2.52,0,0,1-.671-.72,2.474,2.474,0,0,1,2.4-2.4C6.086-1.28,9.9-.17,13.742.91a2.507,2.507,0,0,1,1.719,3.08A2.469,2.469,0,0,1,13.09,5.83Z" transform="translate(0.773 2.503)" fill="#ffcc65"/>
      </g>
    </g>
    <text id="Sign_in" data-name="Sign in" transform="translate(278 737)" fill="#f89939" font-size="16" font-family="Raleway" font-weight="700" text-decoration="underline"><tspan x="0" y="0">Sign in</tspan></text>
    <text id="Already_have_an_account_" data-name="Already have an account?" transform="translate(84 737)" fill="#0b0907" font-size="16" font-family="Raleway"><tspan x="0" y="0">Already have an account?</tspan></text>
    <g id="Button" transform="translate(85 640)">
      <rect id="Rectangle_98" data-name="Rectangle 98" width="240" height="70" rx="10" transform="translate(1 2)" fill="rgba(0,62,119,0.55)"/>
      <rect id="Rectangle_4" data-name="Rectangle 4" width="242" height="70" rx="10" fill="#a4c0d9"/>
      <text id="Sign_up" data-name="Sign up" transform="translate(121 42)" fill="#0b0907" font-size="20" font-family="Raleway" font-weight="600"><tspan x="-35.63" y="0">Sign up</tspan></text>
    </g>
    <g id="Dots" transform="translate(25 192)">
      <circle id="Ellipse_2" data-name="Ellipse 2" cx="3" cy="3" r="3" transform="translate(204 420)" fill="#0b0907"/>
      <circle id="Ellipse_4" data-name="Ellipse 4" cx="3" cy="3" r="3" transform="translate(178 420)" fill="#0b0907"/>
      <circle id="Ellipse_6" data-name="Ellipse 6" cx="5" cy="5" r="5" transform="translate(148 418)" fill="#0b0907"/>
    </g>
    <g id="Header_Slider" data-name="Header Slider" transform="translate(0 71)">
      <g id="Header_Slider-2" data-name="Header Slider">
        <g id="Header_Image" data-name="Header Image" transform="translate(0 71)">
          <rect id="Main_Images" data-name="Main Images" width="368" height="423" transform="translate(22 34)" fill="#b7b7b7" opacity="0"/>
        </g>
        <g id="girl-doing-online-payment-2343675-0" transform="translate(-82.218 66.263)">
          <path id="Path_242" data-name="Path 242" d="M246.438,116.306c7.79.226,21.074,2.228,22.177,13.151a31.276,31.276,0,0,1-13.889,6.905s-5.571-5.493-6.827,1.883,3.766,8.474,3.766,8.474.157,10.671,4.237,17.577a23.473,23.473,0,0,1,3.139,13.81s-10.2-11.3-29.033-8-9.1-8.317-9.416-12.084,1.1-7.69,3.923-13.339-.248-15.163,6.12-21.971q.284-.3.574-.59A20.736,20.736,0,0,1,246.438,116.306Z" transform="translate(-25.182 -12.471)" fill="#0b0907"/>
          <path id="Path_243" data-name="Path 243" d="M282.916,134.563a22.076,22.076,0,0,1,.668,4.98,20.489,20.489,0,0,1-.1,2.54l-.079.628-.04.539.048.52c.053.163.076.333.134.495a5.086,5.086,0,0,0,1.27,1.777,12.448,12.448,0,0,1,1.751,1.89,2.115,2.115,0,0,1,.33,1.392,2.242,2.242,0,0,1-.531,1.276,3.463,3.463,0,0,1-2.415.968l.2-.208c.046,2.007.133,4.009.089,6.029a20.5,20.5,0,0,1-.926,6.078,4.966,4.966,0,0,1-.825,1.519,2.066,2.066,0,0,1-.365.35l-.217.157-.261.123a2.281,2.281,0,0,1-.44.141l-.4.1a14.7,14.7,0,0,1-3.118.238,33.974,33.974,0,0,1-6.035-.681l.267-.055a9.694,9.694,0,0,0-1.637,1.116,3.4,3.4,0,0,0-.645.72.976.976,0,0,0-.139.888l-.115.062a1.15,1.15,0,0,1-.052-1.1,3.791,3.791,0,0,1,.575-.935,8.625,8.625,0,0,1,1.593-1.443l.089-.065.178.01c1.972.113,3.962.214,5.911.153a18.224,18.224,0,0,0,2.843-.278l.324-.082a1.239,1.239,0,0,0,.273-.082.535.535,0,0,1,.08-.031l.084-.066a1.126,1.126,0,0,0,.179-.162,3.7,3.7,0,0,0,.633-1.079,26,26,0,0,0,1.215-5.676,42.117,42.117,0,0,0,.44-5.945l0-.2.2,0a2.712,2.712,0,0,0,2.059-.857,1.532,1.532,0,0,0,.308-1.015,1.441,1.441,0,0,0-.359-.94,12.681,12.681,0,0,0-1.839-1.528,5.1,5.1,0,0,1-1.677-2.16,5.433,5.433,0,0,1-.184-.705c-.021-.239-.032-.48-.043-.719l.073-.7.095-.6c.134-.794.207-1.6.273-2.415.106-1.627.151-3.277.13-4.938Z" transform="translate(-39.511 -17.714)" fill="#0b0907"/>
          <path id="Path_244" data-name="Path 244" d="M283.208,150a.981.981,0,1,0-.947-.981.981.981,0,0,0,.947.981Z" transform="translate(-43.175 -21.357)" fill="#0b0907"/>
          <path id="Path_245" data-name="Path 245" d="M287.709,154.406a4.37,4.37,0,0,1,.153.691,2.023,2.023,0,0,1,.018.37c0,.081-.049.1-.109.2a1.166,1.166,0,0,0-.062.624.725.725,0,0,1-.84-.131,1.03,1.03,0,0,1,.84-1.752Z" transform="translate(-44.389 -23.289)" fill="#0b0907"/>
          <path id="Path_246" data-name="Path 246" d="M277.692,144.677a2.5,2.5,0,0,1,1.155-1.122,3.378,3.378,0,0,1,1.592-.365,3.449,3.449,0,0,1,1.575.4,2.928,2.928,0,0,1,1.17,1.087c-.563,0-1.023-.079-1.477-.105-.446-.055-.869-.054-1.286-.074A20.211,20.211,0,0,0,277.692,144.677Z" transform="translate(-41.89 -20.001)" fill="#0b0907"/>
          <path id="Path_247" data-name="Path 247" d="M283.576,162.654a5.011,5.011,0,0,1,1.2-.087,6.6,6.6,0,0,1,1.056.138,6.534,6.534,0,0,1,1.016.309,4.663,4.663,0,0,1,1.053.578,2.967,2.967,0,0,1-2.348.391,3.453,3.453,0,0,1-1.093-.44A2.5,2.5,0,0,1,283.576,162.654Z" transform="translate(-43.549 -25.588)" fill="#0b0907"/>
          <path id="Path_248" data-name="Path 248" d="M264.029,155.443a.981.981,0,1,0-.947-.981A.981.981,0,0,0,264.029,155.443Z" transform="translate(-37.764 -23.03)" fill="#0b0907"/>
          <path id="Path_249" data-name="Path 249" d="M251.539,246.814l10.378,11.13-1,1.214Z" transform="translate(-34.515 -49.336)"/>
          <path id="Path_250" data-name="Path 250" d="M325.317,266.462a56.443,56.443,0,0,0,5.855-14.073,100.338,100.338,0,0,0,2.8-15.007c.3-2.532.522-5.07.753-7.624a21.476,21.476,0,0,1,.6-3.878,25.226,25.226,0,0,1,1.34-3.682c2.1-4.727,4.881-9.046,6.356-13.881a34.657,34.657,0,0,0,.951-3.651c.117-.616.224-1.236.292-1.856a10.36,10.36,0,0,0,.082-1.816,17.516,17.516,0,0,0-.967-3.594c-.428-1.19-.909-2.37-1.44-3.517-.133-.291-.271-.558-.416-.851a1.8,1.8,0,0,1-.153-.577,2.427,2.427,0,0,1-.016-.532,11.2,11.2,0,0,1,.31-1.953c.291-1.26.646-2.487.952-3.724a24.112,24.112,0,0,0,.676-3.733c.059-.621.062-1.266.059-1.893a6.851,6.851,0,0,0-.223-1.833,1.721,1.721,0,0,0-1.136-1.2c-.143-.053-.288-.106-.438-.152-.026-.007-.1-.035-.087-.025s0,0-.016,0a.448.448,0,0,0-.126.083,3.344,3.344,0,0,0-.527.719,27.522,27.522,0,0,0-1.588,3.458c-.943,2.372-1.8,4.78-2.684,7.183s-1.743,4.811-2.749,7.183a18.88,18.88,0,0,1-.849,1.756,3.369,3.369,0,0,1-1.459,1.473,2.948,2.948,0,0,1-2.105.128,5.328,5.328,0,0,1-1.8-.968l-.131-.1,0-.176v-.006l.133.28a6.352,6.352,0,0,1-1.85-2.356,3.936,3.936,0,0,1-.239-.752c-.052-.273-.068-.5-.1-.743l-.116-1.424a22.258,22.258,0,0,0-.335-2.763,4.336,4.336,0,0,0-1.028-2.293.9.9,0,0,0-.22-.166.688.688,0,0,0-.238-.127c-.082-.026-.175-.07-.246-.087a.376.376,0,0,0-.153,0c-.17.021-.427.337-.578.726a10.279,10.279,0,0,0-.582,2.622,40.1,40.1,0,0,0-.181,5.586l0,.152-.092.171a14.343,14.343,0,0,0-1.513,3.572,13.625,13.625,0,0,0-.439,3.855,16.791,16.791,0,0,0,.593,3.863,16.563,16.563,0,0,0,1.435,3.611l.132.238-.059.243c-.529,2.187-1.084,4.369-1.747,6.518-.637,2.157-1.365,4.286-2.151,6.392s-1.617,4.194-2.518,6.254-1.839,4.094-2.891,6.11l-.25.479-.508-.15a10.633,10.633,0,0,1-3.3-1.836,31.16,31.16,0,0,1-2.674-2.422c-1.674-1.7-3.2-3.514-4.693-5.349-2.965-3.68-5.74-7.488-8.55-11.255l-2.108-2.824-2.2-2.75-4.41-5.5c-2.887-3.712-5.967-7.268-8.982-10.88l.1-.087c3.14,3.5,6.371,6.932,9.37,10.563l4.558,5.4,2.278,2.7,2.182,2.779c2.873,3.73,5.7,7.485,8.7,11.087,1.5,1.8,3.045,3.554,4.688,5.188a29.914,29.914,0,0,0,2.559,2.305,9.5,9.5,0,0,0,2.826,1.59l-.758.33c1.01-1.95,1.944-3.983,2.823-6.02s1.7-4.105,2.469-6.193,1.478-4.191,2.139-6.313,1.239-4.266,1.78-6.419l.073.481a17.693,17.693,0,0,1-1.536-3.942,18.044,18.044,0,0,1-.6-4.164,14.568,14.568,0,0,1,2.213-8.066l-.087.323a41.088,41.088,0,0,1,.3-5.752,11.134,11.134,0,0,1,.711-2.889,3.222,3.222,0,0,1,.43-.72,1.529,1.529,0,0,1,.856-.549,1.336,1.336,0,0,1,.551.007,3.942,3.942,0,0,1,.421.15,1.4,1.4,0,0,1,.381.212,1.7,1.7,0,0,1,.338.268,5.143,5.143,0,0,1,1.254,2.807,23.014,23.014,0,0,1,.3,2.876l.088,1.408a3.725,3.725,0,0,0,.253,1.268,5.622,5.622,0,0,0,1.59,2.095l.135.113,0,.167v.006l-.133-.279a3.142,3.142,0,0,0,3.178.814c1.031-.464,1.51-1.759,2.062-2.875,1.048-2.316,1.939-4.718,2.834-7.112s1.776-4.8,2.741-7.174a34.5,34.5,0,0,1,1.607-3.514,3.66,3.66,0,0,1,.6-.825.835.835,0,0,1,.275-.172.445.445,0,0,1,.219-.019.764.764,0,0,1,.144.037c.156.046.313.1.469.158a2.441,2.441,0,0,1,.887.552,2.3,2.3,0,0,1,.52.913,17.313,17.313,0,0,1-.423,7.719c-.277,1.253-.6,2.494-.857,3.734a10.631,10.631,0,0,0-.248,1.837,1.766,1.766,0,0,0,.114.768c.145.276.308.574.448.862.573,1.161,1.088,2.34,1.555,3.546a18.159,18.159,0,0,1,1.1,3.779,11.006,11.006,0,0,1-.035,2.013c-.056.653-.151,1.3-.258,1.941a31.266,31.266,0,0,1-.9,3.791,46.437,46.437,0,0,1-2.954,7.168c-1.125,2.308-2.332,4.567-3.386,6.86a24.1,24.1,0,0,0-1.317,3.509,20.4,20.4,0,0,0-.6,3.688c-.254,2.54-.5,5.1-.828,7.642s-.731,5.085-1.264,7.6c-.234,1.263-.566,2.507-.844,3.761-.34,1.24-.646,2.488-1.031,3.715a52.616,52.616,0,0,1-6.4,13.953Z" transform="translate(-41.156 -29.734)" fill="#0b0907"/>
          <path id="Path_251" data-name="Path 251" d="M330.066,263.38l-4.305-2.294.764-1.061Z" transform="translate(-55.45 -53.048)"/>
          <path id="Path_252" data-name="Path 252" d="M295.21,216.07c.807-1.3,1.683-2.55,2.586-3.787a34.427,34.427,0,0,1,2.944-3.551,10.026,10.026,0,0,1,1.825-1.551c.183-.1.412-.224.564-.289a4.952,4.952,0,0,0,.477-.23,6.04,6.04,0,0,0,.893-.567,39.185,39.185,0,0,0,3.242-3.112c1.075-1.086,2.16-2.168,3.284-3.208s2.3-2.035,3.392-3.05a25.378,25.378,0,0,0,3.045-3.279,10.785,10.785,0,0,0,1.15-1.872,3.822,3.822,0,0,0,.429-2.018l-.005-.041v-.022l.005.057a1.246,1.246,0,0,0-.184-.5.673.673,0,0,0-.158-.17.179.179,0,0,0-.053-.03.2.2,0,0,0-.074,0,3.391,3.391,0,0,0-1.1.527,24.294,24.294,0,0,0-2.143,1.6l-2.067,1.738c-.173.147-.345.292-.53.435a1.047,1.047,0,0,1-.76.28.877.877,0,0,1-.658-.534,2.163,2.163,0,0,1-.165-.731,7.3,7.3,0,0,1,.5-2.73,20.993,20.993,0,0,1,1.061-2.523c.816-1.628,1.756-3.175,2.673-4.725a42.279,42.279,0,0,0,2.539-4.668,3.583,3.583,0,0,0,.292-1.116.381.381,0,0,0-.053-.276.294.294,0,0,0-.155-.063,2.313,2.313,0,0,0-.93.359,9.085,9.085,0,0,0-1.033.728,36.067,36.067,0,0,0-3.795,3.7c-1.2,1.317-2.361,2.689-3.488,4.061l-.233.284-.376-.027a11.946,11.946,0,0,0-6.988,1.925,29.325,29.325,0,0,0-5.844,4.9,61.766,61.766,0,0,0-4.867,6.049,9.176,9.176,0,0,1-3.112,2.522,12.48,12.48,0,0,1-3.751,1.223l-.022-.129a11.038,11.038,0,0,0,6.312-4.037,50.268,50.268,0,0,1,4.635-6.353,29.013,29.013,0,0,1,5.949-5.3,12.8,12.8,0,0,1,7.819-2.184l-.609.256c1.152-1.416,2.352-2.766,3.6-4.088a37.183,37.183,0,0,1,4.014-3.757,10.239,10.239,0,0,1,1.19-.8,3.086,3.086,0,0,1,1.6-.484,1.391,1.391,0,0,1,1,.548,1.494,1.494,0,0,1,.252,1.008,4.557,4.557,0,0,1-.418,1.476,35.168,35.168,0,0,1-2.811,4.707c-1,1.5-2,2.989-2.866,4.548a18.312,18.312,0,0,0-1.131,2.409,6.9,6.9,0,0,0-.517,2.539c.009.4.164.853.437.88.262.048.644-.347.983-.6l2.053-1.757c.7-.576,1.382-1.166,2.137-1.691a3.977,3.977,0,0,1,1.3-.661.758.758,0,0,1,.261,0,.708.708,0,0,1,.254.1,1.238,1.238,0,0,1,.321.3,1.84,1.84,0,0,1,.323.736l0,.02v.044l0-.056a4.453,4.453,0,0,1-.353,2.425,11.42,11.42,0,0,1-1.127,2.082,23.888,23.888,0,0,1-3,3.565c-1.1,1.1-2.253,2.078-3.356,3.119s-2.224,2.062-3.31,3.125a39.346,39.346,0,0,1-3.419,3.139,6.675,6.675,0,0,1-1.049.632,5.893,5.893,0,0,1-.565.238c-.2.075-.3.141-.464.209A9.311,9.311,0,0,0,301.3,209.3a70.339,70.339,0,0,0-5.982,6.843Z" transform="translate(-43.583 -29.092)" fill="#0b0907"/>
          <path id="Path_253" data-name="Path 253" d="M313.651,191.152l2.508-3.589.948.9Z" transform="translate(-52.032 -32.633)"/>
          <path id="Path_254" data-name="Path 254" d="M330,186.23c.643-1.882,1.375-3.723,2.1-5.566l1.124-2.748,1.165-2.728c.78-1.817,1.6-3.616,2.41-5.418.843-1.787,1.654-3.589,2.523-5.364l.4-.82.835.336q4.231,1.7,8.412,3.531c1.387.625,2.784,1.226,4.161,1.879,1.383.635,2.756,1.3,4.125,1.969l.281.138-.116.24q-.667,1.379-1.372,2.743c.26-.99.538-1.974.826-2.954l.165.377c-1.456-.453-2.908-.916-4.349-1.405-1.448-.472-2.876-1-4.314-1.495q-4.294-1.543-8.537-3.217l1.236-.485c-.831,1.793-1.72,3.558-2.577,5.339-.889,1.765-1.77,3.535-2.69,5.285l-1.385,2.623-1.426,2.6C332.023,182.818,331.053,184.545,330,186.23Z" transform="translate(-56.681 -25.889)" fill="#0b0907"/>
          <rect id="Rectangle_84" data-name="Rectangle 84" width="0.654" height="8.228" transform="translate(270.537 168.731) rotate(-62.982)"/>
          <rect id="Rectangle_87" data-name="Rectangle 87" width="4.577" height="43.314" transform="translate(170.265 320.423)" fill="#0b0907"/>
          <path id="Path_255" data-name="Path 255" d="M352.991,175.329l-9.658,20.944a5.3,5.3,0,0,1-1.955-3.047c-.314-2.354,0-7.219-2.511-7.847s-2.2,9.416-2.2,9.416a13.175,13.175,0,0,0-.8,1.484l-5.578-3.054c1.942-2.439,2.308-4.074,2.138-5.009v-.007l.039-.1,8.913-17.8Z" transform="translate(-56.755 -27.788)" fill="#0b0907"/>
          <path id="Path_259" data-name="Path 259" d="M297.015,359.915s-.942-60.262-3.433-69.678-75.362-.544-97.318-3.3c-6.892-.864-12-4.988-15.47-9.1a36.311,36.311,0,0,1-6.734-12.353c-10.569-32.924-15.119-46.512-19.226-51.989-4.237-5.65-24.482-2.315-24.482-2.315-1.412,7.493,40.489,151.087,40.489,151.087Z" transform="translate(-0.308 -39.492)" fill="#6a8eae"/>
          <path id="Path_256" data-name="Path 256" d="M285.686,269.626A39.288,39.288,0,0,1,275.3,265.27a76.456,76.456,0,0,1-9.275-6.442,98.04,98.04,0,0,1-8.415-7.536c-.668-.666-1.325-1.341-1.974-2.035-.655-.719-1.254-1.409-1.873-2.125l-1.827-2.15c-.607-.743-1.192-1.415-1.794-2.3l.7.4a15.044,15.044,0,0,1-4.785-1.228,17.789,17.789,0,0,1-4.158-2.51,21.325,21.325,0,0,1-5.859-7.561l-.5-1.087-.248-.543c-.07-.185-.129-.375-.194-.563l-.757-2.253c-.236-.754-.37-1.534-.559-2.3a19.366,19.366,0,0,1-.454-2.313c-.191-1.559-.475-3.1-.529-4.676a33.931,33.931,0,0,1,.088-4.708,31.257,31.257,0,0,1,2.2-9.108,24.986,24.986,0,0,1,2.165-4.168,17.018,17.018,0,0,1,3.111-3.547,11.294,11.294,0,0,1,4.225-2.149l1.174-.24c.4-.044.795-.049,1.192-.075l.6-.027.593.052,1.187.107a25.224,25.224,0,0,1,8.695,3.541l-.6.7a27.555,27.555,0,0,0-8.638-5.543,32.729,32.729,0,0,0-9.99-2.418,41.423,41.423,0,0,0-10.284.59,34.4,34.4,0,0,1-5.389.566,14.458,14.458,0,0,1-2.816-.225,6.051,6.051,0,0,1-2.835-1.285l-1.2-1.043,1.5-.575h0l1.811-.692-.558,1.9a71.215,71.215,0,0,0-2.152,10.412c-.14.88-.238,1.766-.333,2.652s-.212,1.77-.281,2.659L216.1,208.1l-.087,1.334-.029,1.337a98.888,98.888,0,0,0,1.6,21.294c.357,1.748.625,3.518,1.136,5.231l.687,2.589c.234.862.434,1.735.751,2.571l1.734,5.074c.672,1.654,1.382,3.295,2.072,4.947a52.979,52.979,0,0,0,2.336,4.84c.832,1.593,1.694,3.17,2.57,4.739s1.8,3.113,2.791,4.6c.5.745,1.018,1.474,1.58,2.166a10.059,10.059,0,0,0,.9.984,2.979,2.979,0,0,0,1.066.722l-.048.19a3.178,3.178,0,0,1-1.205-.7,10.383,10.383,0,0,1-.987-.953,26.3,26.3,0,0,1-1.722-2.112c-1.084-1.455-2.081-2.967-3.051-4.494s-1.888-3.086-2.786-4.655a53.985,53.985,0,0,1-2.545-4.8c-.763-1.647-1.547-3.289-2.293-4.947l-1.9-5.112c-.342-.845-.567-1.727-.825-2.6l-.76-2.621c-.56-1.735-.877-3.53-1.281-5.3a92.163,92.163,0,0,1-1.92-21.716l.032-1.366.091-1.363.191-2.726c.073-.908.2-1.811.292-2.717s.2-1.811.36-2.709a72.834,72.834,0,0,1,2.367-10.718l1.253,1.205h0l.309-1.617a4.216,4.216,0,0,0,1.919.859,12.64,12.64,0,0,0,2.432.221,32.66,32.66,0,0,0,5.1-.473,41.684,41.684,0,0,1,10.729-.39,32.314,32.314,0,0,1,10.352,2.821,29.064,29.064,0,0,1,8.82,6.082l1.589,2.542-2.187-1.837a23.03,23.03,0,0,0-8.3-3.629l-1.124-.112-.562-.057-.562.021c-.374.021-.751.02-1.123.057l-1.1.214a10.661,10.661,0,0,0-4,1.982,18.355,18.355,0,0,0-5.045,7.492,28.423,28.423,0,0,0-1.892,8.927,32.909,32.909,0,0,0,.083,4.569c.108,1.519.444,3.02.681,4.525a18.425,18.425,0,0,0,.519,2.221c.209.73.362,1.478.615,2.191l.8,2.121c.068.176.129.355.2.528l.254.5.506,1.006a20.726,20.726,0,0,0,5.515,6.9,16.065,16.065,0,0,0,3.769,2.258,13.55,13.55,0,0,0,4.151,1.129l.46.042.24.362c.443.667,1.07,1.427,1.642,2.134l1.789,2.144,1.806,2.114c.615.685,1.251,1.364,1.895,2.032q1.929,2.008,3.964,3.918c.674.64,1.347,1.282,2.043,1.9s1.38,1.247,2.092,1.844a82.01,82.01,0,0,0,8.91,6.689,41.821,41.821,0,0,0,9.994,4.9Z" transform="translate(-23.925 -32.784)" fill="#0b0907"/>
          <path id="Path_258" data-name="Path 258" d="M193.483,195.093q-13.806,1.315-27.552,3.1c-4.579.6-9.148,1.269-13.694,2.049s-9.072,1.676-13.487,2.873a29.715,29.715,0,0,0-6.3,2.36,5.721,5.721,0,0,0-1.218.895,2.14,2.14,0,0,0-.35.481c-.023.079-.045.132-.065.218l-.018.3a24.339,24.339,0,0,0,.422,3.3c.836,4.5,1.942,8.995,3.044,13.474,2.248,8.956,4.529,17.914,6.913,26.844l7.071,26.819,3.6,13.4,3.7,13.366c1.249,4.451,2.471,8.91,3.755,13.352l3.857,13.322c2.557,8.886,5.238,17.736,7.884,26.595l-.522-.384,31.539-.854,31.541-.737,31.542-.685,15.772-.3,15.773-.248-.587.2L317.611,338.7c7.18-5.362,14.337-10.754,21.545-16.08l-.252.431c.482-3.493.772-7.05.9-10.591a75.287,75.287,0,0,0-.31-10.618,37.692,37.692,0,0,0-.9-5.217,18.91,18.91,0,0,0-1.9-4.893,8.134,8.134,0,0,0-3.729-3.516,8.348,8.348,0,0,0-5.163-.29l-.047-.19a7.865,7.865,0,0,1,9.384,3.725,19.493,19.493,0,0,1,2.117,4.987,38.435,38.435,0,0,1,1.079,5.291,73.29,73.29,0,0,1,.553,10.748c-.059,3.59-.274,7.159-.692,10.743l-.03.258-.222.173c-7.073,5.5-14.2,10.939-21.3,16.405L297.314,356.43l-.256.2-.331.007-15.771.341-15.772.289-31.545.492-31.546.439-31.549.323-.413,0-.109-.388-7.52-26.7-3.776-13.347-3.83-13.331L147.2,278.1c-2.562-8.886-5.117-17.775-7.584-26.69l-3.6-13.4c-1.184-4.472-2.346-8.951-3.416-13.456s-2.143-9.006-2.961-13.6a25.146,25.146,0,0,1-.419-3.581c.007-.18.026-.377.044-.563a3.355,3.355,0,0,1,.189-.608,3.635,3.635,0,0,1,.659-.919,7.177,7.177,0,0,1,1.569-1.149,30.963,30.963,0,0,1,6.675-2.459,129.8,129.8,0,0,1,13.676-2.7c4.583-.7,9.177-1.277,13.777-1.792s9.208-.941,13.818-1.321,9.224-.716,13.844-.959Z" transform="translate(0 -35.207)" fill="#0b0907"/>
          <rect id="Rectangle_85" data-name="Rectangle 85" width="4.577" height="44.314" transform="translate(293.911 319.423)" fill="#0b0907"/>
          <path id="Path_260" data-name="Path 260" d="M162.4,206.236a18.915,18.915,0,0,1,14.864,7.206,25.243,25.243,0,0,1,2.379,3.58,29.871,29.871,0,0,1,1.685,3.945c.5,1.35.89,2.706,1.248,4.066.375,1.358.7,2.725,1.033,4.09,1.322,5.457,2.513,10.924,3.972,16.305a91.808,91.808,0,0,0,5.527,15.668,34.694,34.694,0,0,0,4.341,6.958,17.983,17.983,0,0,0,6.3,5.028,6.205,6.205,0,0,0,.935.391l.954.349c.665.146,1.3.364,1.992.456,1.376.192,2.74.46,4.13.591s2.779.272,4.172.382l4.189.246c5.592.242,11.193.3,16.794.23,5.6-.014,11.2-.239,16.8-.432,5.6-.213,11.191-.518,16.786-.772l8.389-.439,4.193-.232c1.37-.058,2.771-.218,4.182-.3a132.322,132.322,0,0,1,16.932-.18,32.751,32.751,0,0,1,8.539,1.494,9.038,9.038,0,0,1,2.118,1.065,3.988,3.988,0,0,1,1.661,2.224c.3,1.537.469,2.871.632,4.3,1.188,11.2,1.82,22.379,2.4,33.592l.091,2.108c.015.348.027.707.03,1.075l0,.269c.009.037,0,.078.01.113a.476.476,0,0,0,.084.2,1.617,1.617,0,0,0,1.309.444,6.8,6.8,0,0,0,1.869-.328,17.612,17.612,0,0,0,3.665-1.721,35.931,35.931,0,0,0,3.415-2.341,98.607,98.607,0,0,0,12.15-11.5l.148.128q-2.653,3.266-5.542,6.341a67.174,67.174,0,0,1-6.141,5.809,36.986,36.986,0,0,1-3.431,2.529,18.765,18.765,0,0,1-3.864,1.974,8.065,8.065,0,0,1-2.243.465,3.939,3.939,0,0,1-1.259-.143,2.356,2.356,0,0,1-1.227-.809,1.916,1.916,0,0,1-.349-.746,2.624,2.624,0,0,1-.051-.408l-.013-.256-.053-1.025-.134-2.089q-.584-8.372-1.329-16.743c-.5-5.573-.95-11.162-1.618-16.692-.077-.694-.182-1.373-.266-2.061-.041-.346-.1-.681-.153-1.012l-.083-.5-.042-.25-.021-.125-.021-.071a1.937,1.937,0,0,0-.841-1.038,7.031,7.031,0,0,0-1.629-.811,32.952,32.952,0,0,0-7.968-1.418,130.52,130.52,0,0,0-16.667-.017c-1.388.063-2.775.2-4.205.25l-4.2.167-8.408.265c-5.6.168-11.213.235-16.82.29-11.215.09-22.428.122-33.643-.236l-4.207-.172-4.207-.289c-1.4-.084-2.8-.309-4.208-.457-.7-.068-1.411-.277-2.117-.411l-1.032-.337a6.913,6.913,0,0,1-1.015-.384,19.141,19.141,0,0,1-6.9-5.133,34.979,34.979,0,0,1-4.762-7.123,80.061,80.061,0,0,1-5.745-15.95c-1.441-5.447-2.575-10.949-3.775-16.411l-.936-4.082c-.312-1.361-.656-2.71-1.091-4a28.628,28.628,0,0,0-1.491-3.826,24.152,24.152,0,0,0-2.158-3.479,19.422,19.422,0,0,0-6.134-5.369,7.2,7.2,0,0,0-.92-.469l-.941-.432c-.651-.225-1.289-.5-1.962-.669a16.751,16.751,0,0,0-4.089-.7Z" transform="translate(-9.288 -38.049)" fill="#0b0907"/>
          <path id="Path_261" data-name="Path 261" d="M380.131,363.581l-.717,23.242-.674-23.242Z" transform="translate(-70.306 -82.246)" fill="#0b0907"/>
          <rect id="Rectangle_86" data-name="Rectangle 86" width="4.577" height="43.314" transform="translate(336.342 280.367)" fill="#0b0907"/>
          <path id="Path_264" data-name="Path 264" d="M453.385,428.635a37.636,37.636,0,0,1-.675,8.952,12.38,12.38,0,0,1-.738,2.165,19.018,19.018,0,0,0-.681,2.055,9.133,9.133,0,0,0-.2,4.182,6.555,6.555,0,0,0,2.064,3.478,9.556,9.556,0,0,0,.816.654l.439.293c.165.109.334.218.488.335a10.025,10.025,0,0,0,1.762,1.185,12.428,12.428,0,0,0,4.17.869c1.466.1,2.948.124,4.431.107a148.418,148.418,0,0,0,17.749-1.632l17.66-2.555-.54.545a2.2,2.2,0,0,0-.075-.333,2.45,2.45,0,0,0-.2-.443,4.174,4.174,0,0,0-.632-.849,9.253,9.253,0,0,0-1.757-1.426,23.815,23.815,0,0,0-4.233-2.084c-1.5-.57-3.007-1.043-4.581-1.506s-3.114-1-4.651-1.561a45.046,45.046,0,0,1-8.885-4.207,16.841,16.841,0,0,1-3.784-3.187,6.807,6.807,0,0,1-1.79-4.531.063.063,0,0,1,.126,0,6.687,6.687,0,0,0,2.026,4.208,17.536,17.536,0,0,0,3.815,2.868A50.728,50.728,0,0,0,484.375,440c3.052,1.052,6.206,1.737,9.338,2.876a24,24,0,0,1,4.495,2.219,9.786,9.786,0,0,1,1.988,1.67,5.433,5.433,0,0,1,.794,1.119,2.875,2.875,0,0,1,.393,1.538.56.56,0,0,1-.488.539l-.052.007c-5.9.756-11.819,1.454-17.752,1.979-5.936.506-11.849,1.151-17.8,1.537-1.49.1-2.985.159-4.492.132a13.018,13.018,0,0,1-4.56-.733,10.874,10.874,0,0,1-1.976-1.234l-.928-.612a10.68,10.68,0,0,1-.929-.735,7.35,7.35,0,0,1-2.349-4.1,10.136,10.136,0,0,1,.3-4.649,14.318,14.318,0,0,1,.8-2.152,11.455,11.455,0,0,0,.807-2.014,49.889,49.889,0,0,0,1.3-8.755.063.063,0,0,1,.066-.06A.066.066,0,0,1,453.385,428.635Z" transform="translate(-90.73 -100.617)" fill="#0b0907"/>
          <path id="Path_262" data-name="Path 262" d="M452.76,357.256l2.229,12.922,1.89,21.753s-12.281,2.291-16.993,1.352c0,0-10.473-16.689-19.421-32.861a135.27,135.27,0,0,1-13.24-34.324l-3.077-13.047a69.179,69.179,0,0,0-2.118-12.577c2.125-1.939,4.16-3.953,6.168-6s3.974-4.126,5.94-6.2c.862-.931,1.718-1.87,2.58-2.808a25.085,25.085,0,0,1,11.784.5,17.142,17.142,0,0,1,5.664,2.918,16.924,16.924,0,0,1,4.126,4.809,34.674,34.674,0,0,1,2.449,5.94c.69,2.056,1.283,4.146,1.842,6.258,1.1,4.209,2.063,8.465,2.953,12.736,1.863,8.521,3.408,17.124,4.961,25.72C451.283,348.646,452.028,352.952,452.76,357.256Z" transform="translate(-77.084 -60.427)" fill="#6a8eae"/>
          <path id="Path_263" data-name="Path 263" d="M460.315,369.394,446.6,358c-.442-4.353-1.014-8.686-1.559-13.026q-.9-6.5-1.884-12.984c-.642-4.326-1.414-8.631-2.173-12.936-.78-4.305-1.594-8.61-2.491-12.895-.932-4.278-1.932-8.541-3.091-12.777-.58-2.118-1.2-4.222-1.918-6.306a31.6,31.6,0,0,0-2.67-6.106,18.057,18.057,0,0,0-4.506-4.954,17.587,17.587,0,0,0-6.009-2.877,22.762,22.762,0,0,0-6.575-.676,25.718,25.718,0,0,0-5.292.724c1.042-1.132,2.091-2.256,3.118-3.394,1.946-2.1,3.8-4.271,5.864-6.264l-.9.586c-.3.207-.579.435-.869.655-.573.435-1.118.9-1.67,1.366q-1.635,1.407-3.187,2.9c-2.09,1.966-4.077,4.036-6.044,6.12s-3.87,4.229-5.726,6.416-3.67,4.4-5.374,6.72c-6-22.65-21.581-33.875-21.581-33.875s34.682-19.456,45.666-10.666,16.006,12.867,30.757,54.925,22.829,58.568,22.829,58.568Z" transform="translate(-68.938 -48.244)" fill="#6a8eae"/>
          <path id="Path_257" data-name="Path 257" d="M357,263.381c1.722-.925,3.47-1.787,5.231-2.615.877-.425,1.766-.816,2.649-1.224s1.778-.787,2.666-1.182l.391-.174.374.266a29.837,29.837,0,0,1,2.676,2.162c.869.735,1.659,1.549,2.461,2.35a45.318,45.318,0,0,1,4.247,5.285c2.539,3.734,4.925,7.52,7.082,11.465.593.959,1.071,1.977,1.574,2.986l.761,1.512.378.759.327.781c.426,1.045.858,2.091,1.264,3.147s.683,2.155,1.026,3.234a61.617,61.617,0,0,1,1.611,6.6c.44,2.224.573,4.5.82,6.744l.093.845-.851.2c-1.441.34-2.894.632-4.34.949l-4.356.885q-2.182.426-4.373.816c-1.466.24-2.925.506-4.4.712l-.047-.19c1.4-.5,2.818-.94,4.228-1.406q2.122-.671,4.253-1.3l4.271-1.233c1.429-.389,2.852-.8,4.286-1.17l-.758,1.046-.433-3.274a32.414,32.414,0,0,0-.451-3.267c-.41-2.16-.707-4.349-1.332-6.464l-.412-1.6c-.141-.533-.254-1.075-.444-1.593-.35-1.045-.675-2.1-1-3.157l-.241-.8-.293-.776-.592-1.552c-.4-1.035-.784-2.079-1.282-3.071a41.849,41.849,0,0,0-7.3-11.092c-1.473-1.657-3.025-3.228-4.563-4.8-.8-.759-1.561-1.551-2.369-2.292-.788-.757-1.644-1.472-2.453-2.144l.765.092c-.913.334-1.819.686-2.738,1s-1.83.658-2.755.962c-1.842.63-3.7,1.226-5.578,1.758Z" transform="translate(-64.318 -52.598)" fill="#0b0907"/>
          <path id="Path_265" data-name="Path 265" d="M460.944,439.835a6.43,6.43,0,0,0,.646,2.871,3.924,3.924,0,0,0,.873,1.121,9.216,9.216,0,0,0,1.217.914,3.445,3.445,0,0,1-1.517-.524A3.158,3.158,0,0,1,461.034,443,3.6,3.6,0,0,1,460.944,439.835Z" transform="translate(-93.495 -103.769)" fill="#fff"/>
          <path id="Path_266" data-name="Path 266" d="M464.877,444.718l-1.366-.181a3.738,3.738,0,0,1-1.659-.578,3.447,3.447,0,0,1-1.231-1.327,3.945,3.945,0,0,1-.1-3.464l.572-1.217.051,1.344a6,6,0,0,0,.606,2.726,3.6,3.6,0,0,0,.8,1.033,7.725,7.725,0,0,0,1.036.788Z" transform="translate(-93.371 -103.242)" fill="#0b0907"/>
          <path id="Path_267" data-name="Path 267" d="M452.361,453.435s-3.54,1.362-1.346,7.8c0,0-.21,2.429,8.4,1.691l43.406-1.379s2.978-7.208-3.741-8.38l-10.863,1.369s2.5-6.574,1.671-8.667a10.048,10.048,0,0,0-11.622-3.981s.792,10.39-7.111,14.212C471.15,456.1,459.333,455.9,452.361,453.435Z" transform="translate(-90.838 -104.194)" fill="#6a8eae"/>
          <path id="Path_268" data-name="Path 268" d="M492.4,409.909a37.632,37.632,0,0,1,5.4,7.168,12.376,12.376,0,0,1,.875,2.113,19.013,19.013,0,0,0,.845,1.993,9.132,9.132,0,0,0,2.612,3.271,6.554,6.554,0,0,0,3.847,1.25,9.569,9.569,0,0,0,1.045-.048l.523-.07c.2-.028.395-.057.587-.07a10.021,10.021,0,0,0,2.106-.274,12.428,12.428,0,0,0,3.706-2.1c1.169-.891,2.3-1.854,3.4-2.845A148.413,148.413,0,0,0,529.6,407.352l11.576-13.58-.045.766a2.183,2.183,0,0,0-.276-.2,2.45,2.45,0,0,0-.443-.2,4.173,4.173,0,0,0-1.035-.22,9.257,9.257,0,0,0-2.261.09,23.812,23.812,0,0,0-4.555,1.23c-1.5.562-2.947,1.2-4.434,1.894s-3,1.306-4.523,1.9a45.053,45.053,0,0,1-9.451,2.708,16.841,16.841,0,0,1-4.946.105,6.807,6.807,0,0,1-4.336-2.22.063.063,0,0,1,.094-.084,6.687,6.687,0,0,0,4.3,1.822,17.537,17.537,0,0,0,4.759-.365,50.733,50.733,0,0,0,9.157-3.01c2.986-1.225,5.808-2.793,8.912-4.006a24,24,0,0,1,4.841-1.3,9.784,9.784,0,0,1,2.6-.058,5.432,5.432,0,0,1,1.335.316,2.874,2.874,0,0,1,1.311.895.56.56,0,0,1-.011.727l-.034.039c-3.935,4.467-7.916,8.9-12.025,13.208s-8.139,8.688-12.356,12.911c-1.055,1.056-2.137,2.09-3.286,3.065a13.015,13.015,0,0,1-3.909,2.46,10.869,10.869,0,0,1-2.3.378l-1.1.153a10.676,10.676,0,0,1-1.183.062,7.35,7.35,0,0,1-4.473-1.53,10.137,10.137,0,0,1-2.841-3.692,14.334,14.334,0,0,1-.824-2.142,11.456,11.456,0,0,0-.723-2.045,49.883,49.883,0,0,0-4.8-7.434.063.063,0,0,1,.01-.089.066.066,0,0,1,.086.007Z" transform="translate(-102.593 -90.536)" fill="#0b0907"/>
          <path id="Path_269" data-name="Path 269" d="M504.58,420.865a6.43,6.43,0,0,0,2.381,1.73,3.926,3.926,0,0,0,1.4.265,9.234,9.234,0,0,0,1.518-.118,3.444,3.444,0,0,1-1.485.608,3.159,3.159,0,0,1-1.65-.166A3.6,3.6,0,0,1,504.58,420.865Z" transform="translate(-106.033 -98.459)" fill="#fff"/>
          <path id="Path_270" data-name="Path 270" d="M507.622,423.259a3.729,3.729,0,0,1-1.262-.233A3.945,3.945,0,0,1,504,420.49l-.374-1.29.925.974a6,6,0,0,0,2.256,1.647,3.6,3.6,0,0,0,1.285.246,7.617,7.617,0,0,0,1.3-.092l1.546-.191-1.143.765a3.731,3.731,0,0,1-1.628.661,2.849,2.849,0,0,1-.538.05Z" transform="translate(-105.766 -97.993)" fill="#0b0907"/>
          <path id="Path_271" data-name="Path 271" d="M510.627,427.381s-1.759,3.36,4.139,6.746c0,0,1.447,1.963,7.421-4.274l31.687-29.7s-2.523-7.379-8.343-3.823l-7.254,8.2s-2.466-6.586-4.468-7.612a10.048,10.048,0,0,0-11.357,4.684s7.456,7.28,4.044,15.369C526.5,416.975,517.488,424.625,510.627,427.381Z" transform="translate(-107.657 -91.321)" fill="#6a8eae"/>
          <path id="Path_272" data-name="Path 272" d="M451.364,104.908V75.525a3.8,3.8,0,0,0-3.788-3.788H395.24a3.8,3.8,0,0,0-3.788,3.788V170.1a3.8,3.8,0,0,0,3.787,3.795h52.338a3.8,3.8,0,0,0,3.788-3.795V144.593h-6.423v19.642a3.142,3.142,0,0,1-3.139,3.139H401.014a3.136,3.136,0,0,1-3.132-3.139V81.4a3.131,3.131,0,0,1,3.132-3.139H441.8a3.137,3.137,0,0,1,3.139,3.139v23.513Z" transform="translate(-74.108 0)" fill="#0b0907"/>
          <path id="Path_273" data-name="Path 273" d="M415.693,195.4a.786.786,0,0,1-.657-.353l-3.5-5.281a.787.787,0,0,1,.656-1.223,2.712,2.712,0,0,0,0-5.423.788.788,0,0,1,0-1.575,4.287,4.287,0,0,1,1.327,8.363l2.828,4.269a.787.787,0,0,1-.656,1.223Z" transform="translate(-79.614 -30.944)" fill="#0b0907"/>
          <path id="Path_274" data-name="Path 274" d="M416.815,183.117H406.509a.788.788,0,0,1,0-1.575h10.307a.788.788,0,1,1,0,1.575Z" transform="translate(-78.024 -30.935)" fill="#0b0907"/>
          <path id="Path_275" data-name="Path 275" d="M416.815,192.836H406.509a.788.788,0,0,1,0-1.575h10.307a.788.788,0,1,1,0,1.575Z" transform="translate(-78.024 -33.673)" fill="#0b0907"/>
          <path id="Path_276" data-name="Path 276" d="M434.993,195.4a.786.786,0,0,1-.657-.353l-3.5-5.281a.787.787,0,0,1,.656-1.223,2.712,2.712,0,0,0,0-5.423.788.788,0,0,1,0-1.575,4.287,4.287,0,0,1,1.327,8.364l2.828,4.268a.788.788,0,0,1-.656,1.223Z" transform="translate(-85.06 -30.944)" fill="#0b0907"/>
          <path id="Path_277" data-name="Path 277" d="M436.116,183.117H425.809a.788.788,0,1,1,0-1.575h10.307a.788.788,0,0,1,0,1.575Z" transform="translate(-83.47 -30.935)" fill="#0b0907"/>
          <path id="Path_278" data-name="Path 278" d="M436.116,192.836H425.809a.788.788,0,1,1,0-1.575h10.307a.788.788,0,0,1,0,1.575Z" transform="translate(-83.47 -33.673)" fill="#0b0907"/>
          <path id="Path_279" data-name="Path 279" d="M453.857,195.4a.786.786,0,0,1-.657-.353l-3.5-5.281a.787.787,0,0,1,.656-1.223,2.712,2.712,0,1,0,0-5.423.788.788,0,0,1,0-1.575,4.287,4.287,0,0,1,1.327,8.364l2.828,4.268a.788.788,0,0,1-.656,1.223Z" transform="translate(-90.382 -30.944)" fill="#0b0907"/>
          <path id="Path_280" data-name="Path 280" d="M454.98,183.117H444.673a.788.788,0,0,1,0-1.575H454.98a.788.788,0,1,1,0,1.575Z" transform="translate(-88.793 -30.935)" fill="#0b0907"/>
          <path id="Path_281" data-name="Path 281" d="M454.98,192.836H444.673a.788.788,0,0,1,0-1.575H454.98a.788.788,0,1,1,0,1.575Z" transform="translate(-88.793 -33.673)" fill="#0b0907"/>
          <path id="Path_282" data-name="Path 282" d="M502.771,117.449a2.451,2.451,0,0,1,2.424,2.118c.049,1.155.014,2.278.037,3.418.028,2.273.036,4.546.086,6.819l.253,13.637.115,6.819.041,3.409,0,.852a4.142,4.142,0,0,1-.072.981,2.946,2.946,0,0,1-1.154,1.746,2.982,2.982,0,0,1-.961.46,3.527,3.527,0,0,1-1,.109l-1.7,0-3.409-.015-6.818-.031-13.637-.188-6.819-.1-6.819-.045c-9.091-.071-18.183.027-27.274.139A2.772,2.772,0,0,1,433.3,155.2a8.711,8.711,0,0,1-.036-.9l-.012-.852-.023-1.7-.077-6.819-.1-13.637-.035-6.819-.018-3.409,0-.852a4.263,4.263,0,0,1,.074-1.005,3.074,3.074,0,0,1,2.194-2.292,3,3,0,0,1,.547-.1l.271-.013h.213l1.7,0,3.409.007,6.819.013c9.091,0,18.183.065,27.274.257S493.68,117.455,502.771,117.449Zm0,.138c-9.091-.005-18.183.206-27.274.385s-18.183.259-27.274.257l-6.819.013L438,118.25l-1.7,0h-.213l-.155.006a1.556,1.556,0,0,0-.29.048,1.64,1.64,0,0,0-1.182,1.209,2.906,2.906,0,0,0-.048.69l0,.852-.017,3.409-.035,6.819-.1,13.637-.076,6.819-.023,1.7-.012.852c0,.281-.016.587.006.8a1.967,1.967,0,0,0,1.922,1.735c9.091.112,18.183.21,27.274.139l6.819-.045,6.819-.1,13.637-.188,6.819-.031,3.409-.015,1.7,0a2.265,2.265,0,0,0,.686-.058,1.762,1.762,0,0,0,.57-.265,1.74,1.74,0,0,0,.7-1.028,2.99,2.99,0,0,0,.051-.714l0-.852.041-3.409.115-6.819.253-13.637c.05-2.273.058-4.546.086-6.819,0-1.131.03-2.284-.006-3.4a2.3,2.3,0,0,0-2.267-2Z" transform="translate(-85.993 -12.61)" fill="#0b0907"/>
          <rect id="Rectangle_88" data-name="Rectangle 88" width="71.438" height="3.937" transform="translate(347.704 113.144)" fill="#0b0907"/>
          <circle id="Ellipse_22" data-name="Ellipse 22" cx="3.827" cy="3.827" r="3.827" transform="translate(406.055 132.485)" fill="#0b0907"/>
          <path id="Path_283" data-name="Path 283" d="M439.39,81.757H416.655a1.575,1.575,0,0,1,0-3.15h22.736a1.575,1.575,0,1,1,0,3.15Z" transform="translate(-80.696 -1.923)" fill="#0b0907"/>
          <path id="Path_284" data-name="Path 284" d="M431.392,140.514v13.639a6.822,6.822,0,0,1,0-13.639Z" transform="translate(-83.384 -19.382)" fill="#0b0907"/>
          <rect id="Rectangle_89" data-name="Rectangle 89" width="47.059" height="2.362" transform="translate(323.782 86.149)" fill="#0b0907"/>
          <path id="Path_285" data-name="Path 285" d="M354.412,233.993a8.936,8.936,0,0,1,2,1.427,4.669,4.669,0,0,1,.814,1.011,2.221,2.221,0,0,1,.334,1.447,1.874,1.874,0,0,1-.333.776,2.238,2.238,0,0,1-.582.527,4.124,4.124,0,0,1-1.29.5,8.327,8.327,0,0,1-2.527.124,30.061,30.061,0,0,1-4.759-1.053c-1.551-.422-3.106-.814-4.658-1.264a27.62,27.62,0,0,1-4.551-1.69,22.534,22.534,0,0,1-4.228-2.495,11.055,11.055,0,0,1-1.819-1.769,5.042,5.042,0,0,1-.7-1.165,2.214,2.214,0,0,1-.1-1.551,1.9,1.9,0,0,1,1.07-1.1,4,4,0,0,1,1.278-.317,9.046,9.046,0,0,1,2.453.144l-.006.131a12.674,12.674,0,0,0-2.323.382,3.85,3.85,0,0,0-.992.423,1.006,1.006,0,0,0-.493.63c-.093.441.3,1.085.789,1.6a11.73,11.73,0,0,0,1.7,1.476,33.637,33.637,0,0,0,3.936,2.505c1.388.735,2.8,1.448,4.242,2.115a19.34,19.34,0,0,0,9.214,1.9,14.212,14.212,0,0,0,2.246-.17c.7-.129,1.348-.426,1.447-.86a1.45,1.45,0,0,0-.123-.862,5.26,5.26,0,0,0-.554-.949,18.53,18.53,0,0,0-1.553-1.78Z" transform="translate(-57.219 -43.86)" fill="#0b0907"/>
          <path id="Path_286" data-name="Path 286" d="M352.05,240.511a10.481,10.481,0,0,1,2.087,1.348,6.177,6.177,0,0,1,.906.916,3.208,3.208,0,0,1,.653,1.245,1.806,1.806,0,0,1-.353,1.6,2.853,2.853,0,0,1-1.271.8,6.951,6.951,0,0,1-2.59.288,27.374,27.374,0,0,1-4.859-.972c-1.58-.408-3.162-.8-4.741-1.241a27.9,27.9,0,0,1-4.631-1.685,23.22,23.22,0,0,1-4.31-2.5,11.81,11.81,0,0,1-1.868-1.761,5.682,5.682,0,0,1-.742-1.147,2.414,2.414,0,0,1-.215-1.536,1.862,1.862,0,0,1,1.011-1.2,3.839,3.839,0,0,1,1.3-.355,8.843,8.843,0,0,1,2.493.126l-.006.131a12.092,12.092,0,0,0-2.355.4,3.626,3.626,0,0,0-.989.446.959.959,0,0,0-.44.657,2.6,2.6,0,0,0,.9,1.646,12.733,12.733,0,0,0,1.751,1.48,34.692,34.692,0,0,0,4.022,2.511c1.415.736,2.853,1.45,4.325,2.113a21.726,21.726,0,0,0,4.592,1.5,20.311,20.311,0,0,0,4.774.3,9.782,9.782,0,0,0,2.221-.3,1.783,1.783,0,0,0,.793-.43.737.737,0,0,0,.2-.674,4.387,4.387,0,0,0-1.055-1.865c-.509-.6-1.086-1.163-1.671-1.735Z" transform="translate(-56.699 -45.804)" fill="#0b0907"/>
        </g>
        <text id="Add_your_monthly_income_and_expenses" data-name="Add your monthly
income and expenses" transform="translate(206 480)" fill="#0b0907" font-size="20" font-family="Raleway" font-weight="600"><tspan x="-84.05" y="0">Add your monthly</tspan><tspan x="-103.03" y="24">income and expenses</tspan></text>
      </g>
    </g>
    <g id="Logo" transform="translate(16.155 8.128)">
      <g id="Group_130" data-name="Group 130" transform="translate(85.845 15.872)">
        <path id="Path_558" data-name="Path 558" d="M44.191-18.618q0,9.309-5.778,15.087T23.326,2.247q-9.951,0-14.98-6.741a33.975,33.975,0,0,1-6.1-14.124,84.083,84.083,0,0,1-1.177-12.3q0-4.708.375-9.416T2.782-50.772A52.33,52.33,0,0,1,5.618-61.258a49.555,49.555,0,0,1,4.548-8.881,19.351,19.351,0,0,1,6.9-6.473,17.061,17.061,0,0,1,8.346-2.354,23.975,23.975,0,0,1,5.992.535,11.335,11.335,0,0,0,2.675.535,7.712,7.712,0,0,0,2.675-.856,11.039,11.039,0,0,1,4.6-.856q2.728,0,2.729,2.247,0,.107-.856,4.655a50.216,50.216,0,0,0-.856,9.309q0,4.761.856,6.313a6.115,6.115,0,0,1,.856,2.942,4.656,4.656,0,0,1-2.461,4.173,10.1,10.1,0,0,1-5.35,1.5q-7.49,0-7.49-7.7a22.45,22.45,0,0,1,.642-4.6,23.07,23.07,0,0,0,.642-3.745q0-2.247-2.461-2.247-3.424,0-6.848,6.206Q16.8-53.393,16.8-39.59a40.739,40.739,0,0,0,1.284,10.7q2.461,8.881,8.132,8.881,4.922,0,7.6-5.35a4.056,4.056,0,0,1,3.959-2.568q2.782,0,4.6,3.1A12.18,12.18,0,0,1,44.191-18.618Zm15.3,1.284q0,4.494,3.21,4.494t5.189-3.317a11.844,11.844,0,0,0,1.979-5.885q0-4.815-3.424-4.815a5.752,5.752,0,0,0-5.029,3.1A12.014,12.014,0,0,0,59.492-17.334Zm23-17.013-.321,14.873q0,8.881,2.247,10.272A3.35,3.35,0,0,1,85.814-6.42q0,3.1-4.12,5.778a15.262,15.262,0,0,1-8.4,2.675,4.855,4.855,0,0,1-3.21-.91,2.6,2.6,0,0,1-1.07-1.98q0-2.889-.749-2.889a9.048,9.048,0,0,0-1.338,1.23A14.531,14.531,0,0,1,63.291-.054a13.353,13.353,0,0,1-6.1,1.231A11.823,11.823,0,0,1,50.665-.642,9.412,9.412,0,0,1,46.759-5.35a24.3,24.3,0,0,1-1.926-8.988,23.3,23.3,0,0,1,1.284-7.811,18.342,18.342,0,0,1,3.21-5.885,23.162,23.162,0,0,1,4.494-4.012,21.3,21.3,0,0,1,4.815-2.568,40.069,40.069,0,0,1,4.6-1.338,28.9,28.9,0,0,1,4.6-.642l1.07-1.391q-.107-3.638-5.3-3.638a16.064,16.064,0,0,0-8.507,2.033,4.6,4.6,0,0,1-2.568.856q-2.568,0-2.568-3.852,0-9.951,15.836-9.951,12.2,0,15.3,8.132A29.065,29.065,0,0,1,82.5-34.347ZM118.77-20.33q5.778,0,5.778,7.062a16.244,16.244,0,0,1-1.819,7.437,14.148,14.148,0,0,1-3.8,4.708,15.63,15.63,0,0,1-5.082,2.408,30.313,30.313,0,0,1-8.667,1.177A16.391,16.391,0,0,1,96.674.214a15.224,15.224,0,0,1-5.831-6.1q-3.852-7.276-3.852-17.548a38.348,38.348,0,0,1,5.029-19.8,18.2,18.2,0,0,1,6.9-6.955,20.7,20.7,0,0,1,10.54-2.568,17.237,17.237,0,0,1,10.433,3.157q4.333,3.157,4.333,9.791,0,7.918-7.169,7.918a3.977,3.977,0,0,1-3.05-1.338,3.99,3.99,0,0,1-1.23-2.675,13.225,13.225,0,0,0-.16-2.247,6.762,6.762,0,0,0-1.284-2.461,3.38,3.38,0,0,0-2.836-1.551q-6.741,0-6.741,13.482a43.075,43.075,0,0,0,.749,8.025q1.6,7.49,5.992,7.49a4.469,4.469,0,0,0,4.494-3.424,4.281,4.281,0,0,1,2.033-2.622A6.688,6.688,0,0,1,118.77-20.33Zm23-29,.107,2.782q.214.749.642.749a1.233,1.233,0,0,0,.856-.428,12.525,12.525,0,0,1,4.6-3.905,12.7,12.7,0,0,1,6.1-1.765,7.556,7.556,0,0,1,6.688,3.424,18.646,18.646,0,0,1,2.942,7.811q.642,7.49.642,12.573t-.214,9.363q0,7.6,3.424,9.737a2.793,2.793,0,0,1,1.712,2.408,4.782,4.782,0,0,1-.749,2.622A11.526,11.526,0,0,1,163.443.107a16.6,16.6,0,0,1-5.832,1.605l-2.461.214q-3.21-.107-4.28-1.819a10.37,10.37,0,0,1-1.07-5.35l.963-18.4q.107-1.391.107-3.638,0-8.774-3.959-8.774-2.568,0-4.012,3a16.926,16.926,0,0,0-1.6,6.688q-.161,3.692-.161,8.079l.642,13.268A5.952,5.952,0,0,1,139.314.214a15.789,15.789,0,0,1-9.148,2.568q-5.4,0-5.4-3.531l.321-1.926q3.424-16.585,3.424-44.084.107-3.852.107-8.507t-.161-6.313a6.664,6.664,0,0,0-1.016-3,8.357,8.357,0,0,0-2.461-2.408,3.077,3.077,0,0,1-1.391-2.461q0-3.638,5.992-6.848T139.1-79.5q3.959,0,3.959,5.992,0,4.387-.642,12.412T141.775-49.327ZM183.933-32.1a1.452,1.452,0,0,0,.428,1.07,1.317,1.317,0,0,0,1.07.535q6.1-.535,8.132-5.778a9.873,9.873,0,0,0,.749-2.782q-.107-3.745-3-3.745a5.538,5.538,0,0,0-5.083,3.21A20.746,20.746,0,0,0,183.933-32.1Zm7.329-20.544q7.116,0,11.128,3.638T206.4-37.985a15.146,15.146,0,0,1-5.831,12.2q-5.831,4.815-14.712,4.815a1.135,1.135,0,0,0-1.284,1.284,6.068,6.068,0,0,0,1.872,4.441,6.94,6.94,0,0,0,5.136,1.873,7.71,7.71,0,0,0,5.885-3q2.621-3,4.6-3a3.651,3.651,0,0,1,3.157,1.712,8.539,8.539,0,0,1,1.177,4.869,14.2,14.2,0,0,1-1.551,6.313,12.933,12.933,0,0,1-3.691,4.762A18.3,18.3,0,0,1,196.345.856a23.534,23.534,0,0,1-8.4,1.5,16.8,16.8,0,0,1-8.293-2.14,15.566,15.566,0,0,1-5.992-5.778,31.791,31.791,0,0,1-4.173-16.1,49.415,49.415,0,0,1,2.14-15.355A24.711,24.711,0,0,1,178.958-48.1,18.058,18.058,0,0,1,191.263-52.644Z" transform="translate(0 98)" fill="#fbab36"/>
      </g>
      <text id="Save_Fast_Experience_More" data-name="Save Fast Experience More" transform="translate(89.845 131.872)" fill="#0b0907" font-size="16" font-family="Raleway" font-weight="500"><tspan x="0" y="0">Save </tspan><tspan y="0" fill="#fbab36">Fast </tspan><tspan y="0">Experience </tspan><tspan y="0" fill="#fbab36">More</tspan></text>
    </g>
    <g id="Top_Bar" data-name="Top Bar">
      <rect id="Rectangle" width="412" height="24" fill="#a4c0d9"/>
      <path id="Mask" d="M34,0H46L40,10ZM18,5a5,5,0,1,1,5,5A5,5,0,0,1,18,5ZM0,10V0H10V10Z" transform="translate(358 7)" fill="rgba(255,255,255,0.38)"/>
    </g>
  </g>
</svg>
