<svg xmlns="http://www.w3.org/2000/svg" xmlns:xlink="http://www.w3.org/1999/xlink" width="412" height="870" viewBox="0 0 412 870">
  <defs>
    <clipPath id="clip-_10-Spending_Overview">
      <rect width="412" height="870"/>
    </clipPath>
  </defs>
  <g id="_10-Spending_Overview" data-name="10-Spending Overview" clip-path="url(#clip-_10-Spending_Overview)">
    <rect width="412" height="870" fill="#fff"/>
    <g id="App_Bg" data-name="App Bg">
      <g id="App_BG-2" data-name="App BG" transform="translate(2.507 2.503)" opacity="0.2">
        <g id="Group_100" data-name="Group 100" transform="translate(-2.464 827.477)">
          <path id="Path_142" data-name="Path 142" d="M.01,872.16A2.492,2.492,0,0,1-2.4,870.21a2.494,2.494,0,0,1,1.857-2.99c3.695-.85,7.637-1.68,11.707-2.46a2.465,2.465,0,0,1,2.885,1.99,2.491,2.491,0,0,1-1.966,2.92c-4.021.77-7.894,1.58-11.53,2.42A2.022,2.022,0,0,1,.01,872.16Zm23.306-4.5a2.5,2.5,0,0,1-.4-4.96c3.754-.61,7.726-1.2,11.8-1.77a2.5,2.5,0,0,1,.672,4.96c-4.031.56-7.963,1.15-11.688,1.75C23.583,867.65,23.444,867.66,23.316,867.66Zm23.514-3.28a2.506,2.506,0,0,1-.287-4.99c3.823-.46,7.8-.91,11.836-1.33a2.465,2.465,0,0,1,2.707,2.23,2.494,2.494,0,0,1-2.2,2.74c-4,.42-7.963.86-11.757,1.32A.994.994,0,0,1,46.829,864.38Zm23.6-2.48a2.5,2.5,0,0,1-.227-4.99q5.854-.54,11.846-1.02a2.5,2.5,0,0,1,.4,4.98q-5.972.48-11.8,1.02A1.51,1.51,0,0,1,70.432,861.9Zm23.662-1.93a2.5,2.5,0,0,1-.168-4.99q5.869-.42,11.856-.81a2.5,2.5,0,0,1,.306,4.99q-5.972.39-11.826.81Zm23.682-1.53a2.5,2.5,0,0,1-.138-5c3.922-.23,7.884-.45,11.856-.66a2.5,2.5,0,0,1,.257,5q-5.957.315-11.836.66A.639.639,0,0,0,117.775,858.44Zm23.691-1.27a2.5,2.5,0,0,1-.119-5c3.932-.19,7.894-.38,11.856-.56a2.5,2.5,0,0,1,.217,4.99q-5.943.27-11.846.56A.366.366,0,0,1,141.467,857.17Zm23.711-1.08a2.5,2.5,0,0,1-.109-4.99q5.9-.255,11.826-.5a2.518,2.518,0,0,1,2.569,2.4,2.491,2.491,0,0,1-2.371,2.6q-5.928.24-11.816.5A.332.332,0,0,0,165.178,856.09Zm23.662-.97a2.5,2.5,0,0,1-.1-5l11.856-.47a2.5,2.5,0,0,1,.188,4.99l-11.856.47A.244.244,0,0,1,188.839,855.12Zm23.731-.94a2.5,2.5,0,0,1-.1-5l11.885-.47a2.5,2.5,0,0,1,.2,5l-11.885.47Zm23.741-.95a2.5,2.5,0,0,1-.1-5c3.962-.17,7.914-.33,11.846-.51a2.519,2.519,0,0,1,2.579,2.39,2.492,2.492,0,0,1-2.361,2.61l-11.856.51Zm23.7-1.04a2.5,2.5,0,0,1-.119-4.99q5.957-.285,11.846-.58a2.5,2.5,0,0,1,.247,4.99q-5.9.3-11.856.58A.47.47,0,0,0,260.012,852.19Zm23.7-1.2a2.5,2.5,0,0,1-.128-4.99q5.957-.33,11.836-.68a2.446,2.446,0,0,1,2.608,2.35,2.486,2.486,0,0,1-2.322,2.64q-5.883.36-11.856.69A.325.325,0,0,0,283.714,850.99Zm23.691-1.45a2.5,2.5,0,0,1-.158-4.99q5.972-.405,11.816-.85a2.5,2.5,0,0,1,.366,4.99q-5.869.45-11.856.85Zm23.662-1.8a2.5,2.5,0,0,1-.207-4.99c4.011-.34,7.973-.7,11.786-1.07a2.5,2.5,0,0,1,.474,4.98c-3.833.37-7.815.74-11.846,1.08Zm23.622-2.3a2.5,2.5,0,0,1-.267-4.99c4.021-.45,7.973-.92,11.747-1.4a2.468,2.468,0,0,1,2.756,2.17,2.493,2.493,0,0,1-2.144,2.79c-3.794.48-7.775.96-11.826,1.41A1.2,1.2,0,0,1,354.689,845.44Zm23.543-3.02a2.506,2.506,0,0,1-.356-4.98c4.031-.6,7.953-1.23,11.658-1.88a2.5,2.5,0,0,1,.84,4.93c-3.744.65-7.706,1.29-11.777,1.9A2.25,2.25,0,0,1,378.232,842.42Zm23.375-4.11a2.5,2.5,0,0,1-.494-4.95c1.818-.38,3.606-.76,5.355-1.16a2.486,2.486,0,0,1,2.954,1.89,2.513,2.513,0,0,1-1.867,2.99c-1.778.4-3.6.8-5.434,1.18A3.08,3.08,0,0,1,401.607,838.31Z" transform="translate(2.464 -832.14)" fill="#ffcc65"/>
        </g>
        <g id="Group_101" data-name="Group 101" transform="translate(-2.507 735.5)">
          <path id="Path_143" data-name="Path 143" d="M140.2,763.16a2.5,2.5,0,0,1,0-5c3.922-.01,7.864-.03,11.836-.08a2.5,2.5,0,0,1,.059,5q-6,.075-11.9.08Zm-11.856-.03h-.02c-4.011-.03-8.012-.08-11.885-.16a2.488,2.488,0,0,1-2.421-2.55,2.518,2.518,0,0,1,2.519-2.45c3.853.07,7.835.13,11.826.16a2.5,2.5,0,0,1-.02,5Zm35.567-.21a2.5,2.5,0,0,1-.04-5q5.9-.105,11.836-.24h.059a2.5,2.5,0,0,1,.059,5q-5.957.135-11.865.24Zm-59.278-.25h-.079c-4.061-.13-8.062-.29-11.885-.48a2.5,2.5,0,0,1,.237-5c3.8.19,7.775.35,11.806.48a2.5,2.5,0,0,1-.079,5Zm82.979-.29a2.5,2.5,0,0,1-.069-5q5.913-.165,11.846-.35a2.5,2.5,0,0,1,.158,5q-5.943.18-11.856.35Zm219.4-.72c-.109,0-.217-.01-.326-.02-1.976-.26-4-.51-6.056-.73a2.5,2.5,0,0,1,.543-4.97c2.114.23,4.189.49,6.155.75a2.5,2.5,0,0,1-.316,4.97Zm-195.7-.01a2.5,2.5,0,0,1-.079-5q5.928-.2,11.846-.41a2.5,2.5,0,0,1,.178,5q-5.928.21-11.856.41ZM80.953,761.5a.946.946,0,0,1-.168-.01c-4.061-.28-8.062-.59-11.875-.94a2.5,2.5,0,0,1,.435-4.98c3.784.34,7.736.66,11.767.93a2.5,2.5,0,0,1-.158,5Zm154.073-.69a2.5,2.5,0,0,1-.089-5l11.856-.43a2.5,2.5,0,0,1,.178,5l-11.856.43Zm23.7-.87a2.5,2.5,0,0,1-.089-5q5.957-.21,11.856-.41a2.5,2.5,0,0,1,.158,5q-5.9.2-11.846.41Zm130.372-.12a1.18,1.18,0,0,1-.188-.01c-3.754-.29-7.716-.55-11.767-.76a2.5,2.5,0,0,1,.257-5c4.1.21,8.1.47,11.9.77a2.505,2.505,0,0,1-.2,5Zm-331.759-.5a2.947,2.947,0,0,1-.3-.02c-4.07-.49-8.052-1.03-11.836-1.62a2.5,2.5,0,0,1,.751-4.94c3.725.58,7.657,1.11,11.668,1.59a2.506,2.506,0,0,1-.287,4.99Zm225.1-.17a2.5,2.5,0,0,1-.079-5q5.972-.18,11.865-.34h.069a2.5,2.5,0,0,1,.069,5q-5.883.165-11.846.34Zm82.989-.59h-.079c-3.784-.12-7.756-.22-11.816-.29a2.5,2.5,0,0,1,.079-5c4.08.07,8.082.17,11.9.29a2.5,2.5,0,0,1-.079,5Zm-59.288-.04a2.5,2.5,0,0,1-.049-5q5.987-.135,11.875-.22a2.5,2.5,0,0,1,.079,5q-5.868.09-11.836.22Zm23.721-.35a2.5,2.5,0,0,1-.02-5c4.011-.03,7.983-.03,11.885-.02a2.5,2.5,0,0,1-.01,5h-.01c-3.893-.01-7.835-.01-11.836.02ZM33.906,755.65a2.746,2.746,0,0,1-.484-.05c-4.09-.82-8.022-1.72-11.7-2.68a2.5,2.5,0,0,1-1.778-3.04,2.467,2.467,0,0,1,3-1.8c3.586.94,7.429,1.82,11.431,2.62a2.511,2.511,0,0,1,1.946,2.94A2.47,2.47,0,0,1,33.906,755.65Zm-22.931-6.06a2.482,2.482,0,0,1-.8-.13,113.3,113.3,0,0,1-11.253-4.53,2.506,2.506,0,0,1-1.2-3.32,2.45,2.45,0,0,1,3.28-1.21,106.987,106.987,0,0,0,10.769,4.33,2.5,2.5,0,0,1,1.541,3.17A2.47,2.47,0,0,1,10.976,749.59Z" transform="translate(2.507 -740.163)" fill="#ffcc65"/>
        </g>
        <g id="Group_102" data-name="Group 102" transform="translate(-2.505 596.623)">
          <path id="Path_144" data-name="Path 144" d="M-.03,664.25a2.475,2.475,0,0,1-2.183-1.32A2.511,2.511,0,0,1-1.2,659.55c3.349-1.81,7.034-3.56,10.947-5.2a2.461,2.461,0,0,1,3.231,1.36,2.512,2.512,0,0,1-1.344,3.27c-3.764,1.58-7.3,3.25-10.5,4.98A2.456,2.456,0,0,1-.03,664.25Zm21.844-9.26a2.466,2.466,0,0,1-2.341-1.71,2.5,2.5,0,0,1,1.561-3.16c3.616-1.22,7.479-2.4,11.48-3.51a2.468,2.468,0,0,1,3.033,1.75,2.505,2.505,0,0,1-1.729,3.07c-3.922,1.09-7.706,2.24-11.233,3.43A2.269,2.269,0,0,1,21.814,654.99Zm22.862-6.39a2.464,2.464,0,0,1-2.4-1.94,2.5,2.5,0,0,1,1.857-3c3.715-.86,7.647-1.71,11.688-2.51a2.5,2.5,0,0,1,.948,4.9c-3.991.79-7.874,1.63-11.53,2.48A2.168,2.168,0,0,1,44.675,648.6Zm23.286-4.65a2.468,2.468,0,0,1-2.43-2.08,2.5,2.5,0,0,1,2.025-2.88c3.774-.64,7.736-1.27,11.777-1.88a2.5,2.5,0,0,1,.721,4.95c-4.011.59-7.933,1.22-11.668,1.86A3.139,3.139,0,0,1,67.962,643.95Zm23.484-3.5a2.5,2.5,0,0,1-.316-4.98c3.833-.5,7.815-.98,11.816-1.44a2.5,2.5,0,0,1,.563,4.97c-3.981.46-7.933.94-11.747,1.43A1.736,1.736,0,0,1,91.446,640.45Zm23.583-2.71a2.5,2.5,0,0,1-.237-4.99q5.869-.6,11.836-1.15a2.5,2.5,0,0,1,.454,4.98q-5.943.54-11.786,1.14C115.2,637.73,115.107,637.74,115.028,637.74Zm23.632-2.18a2.5,2.5,0,0,1-.2-4.99q5.883-.5,11.846-.94a2.5,2.5,0,0,1,.366,4.99q-5.943.45-11.816.94A1.3,1.3,0,0,0,138.66,635.56Zm23.672-1.81a2.5,2.5,0,0,1-.168-5q5.9-.42,11.846-.81a2.5,2.5,0,0,1,.326,4.99q-5.943.39-11.826.81C162.451,633.74,162.391,633.75,162.332,633.75Zm23.652-1.58a2.5,2.5,0,0,1-.148-4.99q5.913-.375,11.836-.73a2.5,2.5,0,0,1,.3,4.99q-5.928.36-11.826.73Zm23.672-1.45a2.5,2.5,0,0,1-.138-4.99l11.865-.71a2.453,2.453,0,0,1,2.608,2.35,2.486,2.486,0,0,1-2.322,2.64l-11.865.72A.743.743,0,0,0,209.656,630.72Zm23.721-1.43a2.5,2.5,0,0,1-.148-5q5.928-.36,11.836-.74a2.5,2.5,0,0,1,.306,4.99q-5.913.375-11.856.74C233.475,629.28,233.426,629.29,233.377,629.29Zm23.682-1.52a2.5,2.5,0,0,1-.158-4.99q5.943-.405,11.826-.82a2.5,2.5,0,0,1,.346,4.99q-5.9.42-11.846.82Zm23.672-1.71a2.5,2.5,0,0,1-.188-4.99q5.943-.465,11.806-.96a2.5,2.5,0,0,1,.415,4.98q-5.883.5-11.846.97Zm23.652-2.02a2.5,2.5,0,0,1-.227-4.99q5.957-.57,11.786-1.18a2.469,2.469,0,0,1,2.717,2.23,2.5,2.5,0,0,1-2.2,2.75q-5.854.615-11.836,1.18C304.54,624.03,304.461,624.04,304.382,624.04Zm23.6-2.51a2.477,2.477,0,0,1-2.45-2.21,2.505,2.505,0,0,1,2.164-2.78c4.031-.48,7.973-.99,11.737-1.5a2.5,2.5,0,0,1,.662,4.95c-3.784.52-7.765,1.02-11.816,1.51A1.489,1.489,0,0,1,327.984,621.53Zm23.523-3.22a2.5,2.5,0,0,1-.375-4.97c3.991-.62,7.914-1.29,11.648-1.96a2.5,2.5,0,0,1,.869,4.92c-3.774.68-7.736,1.35-11.767,1.98A2.29,2.29,0,0,1,351.508,618.31Zm23.355-4.27a2.467,2.467,0,0,1-2.411-1.99,2.5,2.5,0,0,1,1.907-2.96c3.982-.85,7.835-1.75,11.47-2.67a2.46,2.46,0,0,1,2.994,1.82,2.494,2.494,0,0,1-1.8,3.03c-3.695.94-7.617,1.85-11.658,2.71A2.169,2.169,0,0,1,374.863,614.04Zm23-5.88a2.481,2.481,0,0,1-2.361-1.78,2.511,2.511,0,0,1,1.65-3.12c3.152-.97,6.185-1.98,9.02-3.02a2.458,2.458,0,0,1,3.161,1.5,2.5,2.5,0,0,1-1.482,3.2c-2.924,1.07-6.036,2.11-9.267,3.1A2.021,2.021,0,0,1,397.863,608.16Z" transform="translate(2.505 -600.09)" fill="#ffcc65"/>
        </g>
        <g id="Group_103" data-name="Group 103" transform="translate(-2.502 420.235)">
          <path id="Path_145" data-name="Path 145" d="M406.612,508.12a2.429,2.429,0,0,1-1.047-.24c-3.369-1.6-6.985-3.19-10.749-4.73a2.5,2.5,0,0,1-1.363-3.25,2.453,2.453,0,0,1,3.211-1.38c3.853,1.57,7.548,3.2,11,4.84a2.516,2.516,0,0,1,1.186,3.33A2.458,2.458,0,0,1,406.612,508.12Zm-21.972-9.03a2.427,2.427,0,0,1-.83-.15c-3.547-1.27-7.3-2.55-11.164-3.79a2.511,2.511,0,0,1-1.61-3.14,2.469,2.469,0,0,1,3.1-1.63c3.922,1.26,7.726,2.55,11.332,3.84a2.508,2.508,0,0,1,1.5,3.19A2.467,2.467,0,0,1,384.639,499.09Zm-22.6-7.28a2.3,2.3,0,0,1-.682-.1c-3.665-1.06-7.5-2.12-11.391-3.15a2.5,2.5,0,0,1-1.768-3.05,2.468,2.468,0,0,1,3.013-1.79c3.932,1.04,7.795,2.11,11.5,3.18a2.5,2.5,0,0,1,1.689,3.09A2.439,2.439,0,0,1,362.035,491.81Zm-22.95-6.09a2.378,2.378,0,0,1-.583-.07c-3.7-.9-7.578-1.81-11.52-2.7a2.494,2.494,0,0,1,1.077-4.87c3.962.9,7.864,1.81,11.6,2.72a2.5,2.5,0,0,1-.573,4.92Zm-23.158-5.24a2.868,2.868,0,0,1-.5-.05c-3.725-.79-7.627-1.59-11.6-2.38a2.5,2.5,0,0,1-1.946-2.93,2.471,2.471,0,0,1,2.895-1.97c3.991.79,7.914,1.6,11.658,2.39a2.5,2.5,0,0,1-.5,4.94Zm-23.286-4.64a2.4,2.4,0,0,1-.454-.04q-5.779-1.08-11.658-2.13a2.5,2.5,0,0,1-2.006-2.9,2.477,2.477,0,0,1,2.865-2.03q5.9,1.05,11.7,2.14a2.5,2.5,0,0,1,1.976,2.91A2.455,2.455,0,0,1,292.641,475.84Zm-23.365-4.16a2.9,2.9,0,0,1-.415-.03q-5.809-.99-11.687-1.95a2.5,2.5,0,0,1-2.045-2.87,2.471,2.471,0,0,1,2.835-2.07q5.9.96,11.727,1.95a2.505,2.505,0,0,1-.415,4.97Zm-23.424-3.83a2.5,2.5,0,0,1-.385-.03q-5.839-.915-11.717-1.81a2.5,2.5,0,0,1,.731-4.94q5.9.9,11.737,1.82a2.5,2.5,0,0,1,2.065,2.86A2.47,2.47,0,0,1,245.852,467.85Zm-23.464-3.58a2.348,2.348,0,0,1-.366-.03q-5.854-.87-11.737-1.72a2.5,2.5,0,0,1,.7-4.95q5.883.855,11.747,1.72a2.494,2.494,0,0,1,2.085,2.84A2.466,2.466,0,0,1,222.388,464.27Zm-23.513-3.41c-.119,0-.227-.01-.346-.02q-5.883-.84-11.757-1.66a2.49,2.49,0,0,1-2.1-2.82,2.465,2.465,0,0,1,2.786-2.13q5.883.825,11.767,1.66a2.5,2.5,0,0,1-.346,4.97Zm-23.513-3.31c-.109,0-.227-.01-.336-.02l-11.737-1.63a2.5,2.5,0,0,1,.672-4.96l11.737,1.63a2.5,2.5,0,0,1-.336,4.98Zm-23.454-3.27c-.109,0-.227-.01-.336-.02q-5.9-.825-11.757-1.64a2.5,2.5,0,0,1,.682-4.95q5.854.825,11.747,1.64a2.5,2.5,0,0,1-.336,4.97Zm-23.5-3.3c-.119,0-.227-.01-.346-.02q-5.913-.84-11.757-1.69a2.5,2.5,0,0,1,.7-4.95q5.839.855,11.737,1.69a2.5,2.5,0,0,1-.336,4.97Zm-23.494-3.42a2.348,2.348,0,0,1-.366-.03q-5.928-.885-11.747-1.78a2.5,2.5,0,0,1-2.075-2.85,2.473,2.473,0,0,1,2.816-2.1c3.873.59,7.785,1.19,11.727,1.77a2.511,2.511,0,0,1-.356,4.99Zm-23.464-3.61a2.5,2.5,0,0,1-.385-.03q-5.928-.945-11.737-1.91a2.5,2.5,0,0,1,.8-4.93q5.78.96,11.7,1.91a2.491,2.491,0,0,1,2.055,2.86A2.454,2.454,0,0,1,81.446,443.95Zm-23.415-3.91a2.038,2.038,0,0,1-.425-.04q-5.943-1.05-11.707-2.12a2.5,2.5,0,0,1-1.986-2.91,2.471,2.471,0,0,1,2.875-2.01q5.735,1.065,11.658,2.11a2.507,2.507,0,0,1,2.015,2.89A2.466,2.466,0,0,1,58.032,440.04ZM34.7,435.68a2.743,2.743,0,0,1-.484-.05c-4.011-.8-7.933-1.62-11.658-2.42a2.5,2.5,0,0,1-1.9-2.97,2.471,2.471,0,0,1,2.934-1.92c3.7.8,7.607,1.61,11.589,2.41a2.5,2.5,0,0,1-.484,4.95Zm-23.207-5.04a2.172,2.172,0,0,1-.563-.07c-4.021-.95-7.914-1.93-11.579-2.9a2.5,2.5,0,0,1-1.768-3.05,2.463,2.463,0,0,1,3.013-1.79c3.626.96,7.479,1.92,11.46,2.87a2.5,2.5,0,0,1,1.838,3A2.464,2.464,0,0,1,11.489,430.64Z" transform="translate(2.502 -422.748)" fill="#ffcc65"/>
        </g>
        <g id="Group_104" data-name="Group 104" transform="translate(-2.501 323.442)">
          <path id="Path_146" data-name="Path 146" d="M260.7,349.13a2.5,2.5,0,0,1-.01-5c3.972-.01,7.914-.05,11.836-.1h.03a2.5,2.5,0,0,1,.03,5q-5.9.09-11.885.1Zm-11.856,0h-.01q-5.913-.03-11.875-.1a2.5,2.5,0,0,1,.03-5h.03q5.943.075,11.846.1a2.5,2.5,0,0,1-.02,5Zm-23.721-.29h-.049q-5.913-.105-11.865-.25a2.5,2.5,0,0,1,.119-5q5.928.135,11.846.25a2.5,2.5,0,0,1-.049,5Zm59.288-.03a2.5,2.5,0,0,1-.059-5c4.031-.1,8.012-.22,11.816-.37a2.5,2.5,0,0,1,.188,4.99c-3.833.15-7.825.27-11.885.37A.124.124,0,0,1,284.415,348.81Zm-83-.51h-.069q-5.928-.165-11.856-.34a2.5,2.5,0,0,1,.148-4.99q5.928.18,11.846.34a2.5,2.5,0,0,1-.069,4.99Zm106.69-.39a2.5,2.5,0,0,1-.128-5c4.011-.21,7.983-.46,11.8-.73a2.5,2.5,0,0,1,.346,4.99c-3.833.27-7.835.52-11.875.74Zm-130.4-.34h-.079c-3.952-.13-7.914-.26-11.856-.4a2.5,2.5,0,0,1,.168-4.99q5.913.21,11.846.4a2.5,2.5,0,0,1-.079,4.99Zm-23.691-.8h-.089l-11.846-.41a2.5,2.5,0,0,1,.168-4.99l11.846.41a2.5,2.5,0,0,1-.079,4.99ZM-.03,346.76a2.494,2.494,0,0,1-2.46-2.26,2.5,2.5,0,0,1,2.223-2.73c3.764-.37,7.765-.69,11.885-.97a2.5,2.5,0,0,1,.326,4.99c-4.07.27-8.022.6-11.747.96A1.648,1.648,0,0,1-.03,346.76Zm331.788-.55a2.5,2.5,0,0,1-.227-4.99c4-.37,7.953-.78,11.737-1.23a2.5,2.5,0,0,1,.563,4.97c-3.823.45-7.815.86-11.856,1.24A1.442,1.442,0,0,1,331.758,346.21Zm-201.446-.26h-.079q-5.957-.2-11.846-.38a2.5,2.5,0,0,1,.158-5q5.9.18,11.856.38a2.5,2.5,0,0,1-.089,5Zm-23.7-.73h-.069q-5.972-.165-11.846-.3a2.5,2.5,0,0,1,.119-5q5.883.135,11.865.3a2.5,2.5,0,0,1-.069,5Zm-82.989-.08a2.5,2.5,0,0,1-.109-5c3.8-.17,7.8-.31,11.9-.41a2.5,2.5,0,0,1,.119,5c-4.061.1-8.032.24-11.806.41Zm59.278-.46h-.04q-5.987-.105-11.836-.16a2.5,2.5,0,0,1,.04-5q5.869.06,11.875.16a2.5,2.5,0,0,1-.04,5Zm-35.577-.16a2.5,2.5,0,0,1-.03-5q5.661-.06,11.49-.06h.4a2.5,2.5,0,0,1,0,5h-.4q-5.809,0-11.441.06Zm307.988-1.09a2.5,2.5,0,0,1-.356-4.97c3.991-.59,7.9-1.24,11.618-1.92a2.471,2.471,0,0,1,2.875,2.01,2.5,2.5,0,0,1-1.986,2.91c-3.764.69-7.736,1.35-11.786,1.95C355.549,343.42,355.43,343.43,355.311,343.43Zm23.316-4.33a2.5,2.5,0,0,1-.553-4.94c3.952-.91,7.765-1.9,11.352-2.94a2.464,2.464,0,0,1,3.053,1.72,2.5,2.5,0,0,1-1.7,3.09c-3.675,1.06-7.578,2.07-11.618,3A1.86,1.86,0,0,1,378.627,339.1Zm22.773-6.66a2.472,2.472,0,0,1-2.322-1.65,2.5,2.5,0,0,1,1.482-3.2c1.887-.69,3.744-1.42,5.513-2.16a2.468,2.468,0,0,1,3.231,1.35,2.516,2.516,0,0,1-1.334,3.27c-1.838.77-3.754,1.52-5.71,2.24A2.434,2.434,0,0,1,401.4,332.44Z" transform="translate(2.501 -325.239)" fill="#ffcc65"/>
        </g>
        <g id="Group_105" data-name="Group 105" transform="translate(-2.498 217.579)">
          <path id="Path_147" data-name="Path 147" d="M-.03,262.15a2.485,2.485,0,0,1-2.46-2.3,2.483,2.483,0,0,1,2.262-2.69c3.8-.31,7.765-.67,11.786-1.05a2.5,2.5,0,0,1,.464,4.97c-4.041.39-8.032.74-11.846,1.06A1.515,1.515,0,0,1-.03,262.15Zm23.622-2.25a2.474,2.474,0,0,1-2.45-2.24,2.5,2.5,0,0,1,2.2-2.75c3.873-.41,7.8-.85,11.767-1.3a2.5,2.5,0,0,1,.563,4.97q-5.972.69-11.816,1.31A2.558,2.558,0,0,1,23.592,259.9Zm23.573-2.7a2.5,2.5,0,0,1-.3-4.98q5.824-.72,11.757-1.48a2.5,2.5,0,0,1,.613,4.96q-5.943.765-11.786,1.48A2.584,2.584,0,0,1,47.165,257.2ZM70.7,254.18a2.5,2.5,0,0,1-.326-4.98q5.839-.78,11.747-1.59a2.5,2.5,0,0,1,.662,4.95c-3.942.54-7.874,1.07-11.767,1.59A1.616,1.616,0,0,1,70.7,254.18Zm23.5-3.22a2.5,2.5,0,0,1-.336-4.98q5.839-.825,11.747-1.66a2.5,2.5,0,0,1,.682,4.95q-5.9.84-11.757,1.66A1.827,1.827,0,0,1,94.2,250.96Zm23.494-3.34a2.476,2.476,0,0,1-2.44-2.15,2.506,2.506,0,0,1,2.094-2.83l11.717-1.69a2.5,2.5,0,0,1,.7,4.95l-11.717,1.69A2.134,2.134,0,0,1,117.7,247.62Zm23.444-3.39a2.505,2.505,0,0,1-.346-4.98l11.737-1.69a2.5,2.5,0,0,1,.7,4.95L141.5,244.2A2.134,2.134,0,0,1,141.14,244.23Zm23.484-3.37a2.5,2.5,0,0,1-.336-4.97q5.883-.84,11.757-1.66a2.5,2.5,0,0,1,.682,4.95q-5.869.825-11.757,1.66C164.851,240.85,164.733,240.86,164.624,240.86Zm23.523-3.3a2.5,2.5,0,0,1-.326-4.97c3.942-.54,7.864-1.08,11.8-1.6a2.5,2.5,0,0,1,.652,4.96q-5.869.78-11.777,1.6C188.375,237.55,188.256,237.56,188.148,237.56Zm23.543-3.16a2.5,2.5,0,0,1-.316-4.98q5.913-.765,11.777-1.5a2.5,2.5,0,0,1,.613,4.96q-5.854.735-11.757,1.5A1.628,1.628,0,0,1,211.691,234.4Zm23.543-2.93a2.5,2.5,0,0,1-.287-4.98q5.928-.705,11.806-1.36a2.5,2.5,0,0,1,.543,4.97q-5.854.66-11.767,1.36C235.432,231.46,235.333,231.47,235.234,231.47Zm171.777-.4a2.3,2.3,0,0,1-.682-.1c-2.015-.59-4.149-1.14-6.323-1.66a2.507,2.507,0,0,1-1.848-3,2.475,2.475,0,0,1,2.964-1.87c2.262.53,4.466,1.11,6.57,1.72a2.5,2.5,0,0,1,1.689,3.09A2.459,2.459,0,0,1,407.012,231.07Zm-148.195-2.24a2.5,2.5,0,0,1-.247-4.98q5.957-.615,11.826-1.18a2.5,2.5,0,0,1,.454,4.98q-5.839.555-11.786,1.17C258.985,228.82,258.906,228.83,258.817,228.83Zm130.115-1.74a2.729,2.729,0,0,1-.4-.03c-3.675-.59-7.588-1.11-11.618-1.54a2.5,2.5,0,0,1,.524-4.98c4.12.44,8.121.97,11.885,1.58a2.5,2.5,0,0,1-.4,4.97Zm-106.493-.5a2.5,2.5,0,0,1-.207-4.99c4.021-.34,8.012-.65,11.856-.93a2.5,2.5,0,0,1,.346,4.99c-3.833.28-7.8.59-11.8.92A1.247,1.247,0,0,1,282.439,226.59ZM306.1,224.9a2.5,2.5,0,0,1-.138-5c4.051-.23,8.052-.43,11.885-.59a2.5,2.5,0,0,1,.2,5c-3.814.16-7.785.35-11.806.59Zm59.268-.36h-.158c-3.754-.24-7.716-.42-11.757-.54a2.489,2.489,0,0,1-2.4-2.57,2.524,2.524,0,0,1,2.539-2.43c4.1.12,8.121.31,11.925.55a2.5,2.5,0,0,1-.148,4.99Zm-35.557-.6a2.5,2.5,0,0,1-.049-5c3.8-.08,7.558-.12,11.164-.12h.751a2.5,2.5,0,0,1,0,5h-.741c-3.576,0-7.291.04-11.065.12Z" transform="translate(2.498 -218.82)" fill="#ffcc65"/>
        </g>
        <g id="Group_106" data-name="Group 106" transform="translate(-2.497 78.093)">
          <path id="Path_148" data-name="Path 148" d="M-.03,159.81A2.462,2.462,0,0,1-2.4,158a2.5,2.5,0,0,1,1.689-3.09c3.7-1.08,7.558-2.17,11.451-3.25a2.468,2.468,0,0,1,3.033,1.75,2.505,2.505,0,0,1-1.729,3.07c-3.873,1.07-7.706,2.16-11.391,3.23A2.3,2.3,0,0,1-.03,159.81Zm22.881-6.34a2.5,2.5,0,0,1-.622-4.92q5.676-1.5,11.51-2.99a2.462,2.462,0,0,1,2.994,1.81,2.5,2.5,0,0,1-1.788,3.03q-5.809,1.485-11.47,2.98A2.231,2.231,0,0,1,22.851,153.47Zm23-5.86a2.5,2.5,0,0,1-.583-4.93c3.814-.94,7.667-1.86,11.559-2.79a2.461,2.461,0,0,1,2.964,1.86,2.5,2.5,0,0,1-1.838,3q-5.809,1.38-11.52,2.78A2.277,2.277,0,0,1,45.851,147.61Zm23.1-5.48a2.5,2.5,0,0,1-.543-4.94q5.75-1.32,11.589-2.62a2.5,2.5,0,0,1,1.057,4.89q-5.824,1.29-11.559,2.61A2.447,2.447,0,0,1,68.95,142.13Zm23.168-5.16a2.474,2.474,0,0,1-2.411-1.98,2.5,2.5,0,0,1,1.9-2.97q5.78-1.245,11.618-2.48a2.5,2.5,0,0,1,1.008,4.9q-5.839,1.23-11.589,2.47A1.874,1.874,0,0,1,92.117,136.97Zm23.227-4.89a2.478,2.478,0,0,1-2.421-2,2.51,2.51,0,0,1,1.927-2.95q5.794-1.185,11.638-2.36a2.5,2.5,0,0,1,.958,4.91q-5.839,1.17-11.618,2.36A2.567,2.567,0,0,1,115.344,132.08Zm23.276-4.66a2.506,2.506,0,0,1-.464-4.96q5.809-1.14,11.658-2.26a2.5,2.5,0,0,1,.919,4.91q-5.839,1.125-11.638,2.25A1.622,1.622,0,0,1,138.621,127.42Zm23.276-4.46a2.5,2.5,0,0,1-.454-4.95q5.809-1.1,11.658-2.16a2.5,2.5,0,0,1,.889,4.92q-5.824,1.065-11.638,2.16A3.585,3.585,0,0,1,161.9,122.96Zm23.306-4.28a2.5,2.5,0,0,1-.435-4.96q5.839-1.05,11.688-2.09a2.5,2.5,0,0,1,.85,4.92q-5.839,1.035-11.668,2.09A3.193,3.193,0,0,1,185.2,118.68Zm23.365-4.15a2.506,2.506,0,0,1-.415-4.97c3.9-.68,7.815-1.36,11.707-2.03a2.469,2.469,0,0,1,2.845,2.05,2.5,2.5,0,0,1-2.025,2.88q-5.854,1-11.7,2.02A1.431,1.431,0,0,1,208.569,114.53Zm23.425-4.02a2.505,2.505,0,0,1-.405-4.97q5.883-.99,11.737-1.97a2.469,2.469,0,0,1,2.835,2.06,2.5,2.5,0,0,1-2.035,2.87q-5.854.975-11.727,1.97A1.8,1.8,0,0,1,231.993,110.51Zm23.435-3.91a2.469,2.469,0,0,1-2.43-2.1,2.5,2.5,0,0,1,2.045-2.87q5.869-.96,11.717-1.91a2.461,2.461,0,0,1,2.826,2.07,2.489,2.489,0,0,1-2.045,2.86q-5.839.945-11.707,1.91A1.855,1.855,0,0,1,255.428,106.6Zm23.425-3.8a2.5,2.5,0,0,1-.385-4.97q5.883-.945,11.717-1.87a2.481,2.481,0,0,1,2.826,2.08,2.509,2.509,0,0,1-2.055,2.86q-5.839.93-11.717,1.87A2.5,2.5,0,0,1,278.853,102.8Zm23.435-3.72a2.5,2.5,0,0,1-.375-4.97q5.9-.93,11.727-1.83a2.473,2.473,0,0,1,2.816,2.09,2.5,2.5,0,0,1-2.065,2.85q-5.824.915-11.717,1.83A2.5,2.5,0,0,1,302.287,99.08Zm23.444-3.65a2.5,2.5,0,0,1-.375-4.97q5.9-.915,11.727-1.81a2.5,2.5,0,0,1,.741,4.95Q332,94.5,326.1,95.4A2.083,2.083,0,0,1,325.732,95.43Zm23.464-3.6a2.5,2.5,0,0,1-.366-4.97l11.737-1.78a2.5,2.5,0,0,1,.731,4.94L349.571,91.8A2.472,2.472,0,0,1,349.2,91.83Zm23.454-3.56a2.5,2.5,0,0,1-.366-4.97l11.737-1.77a2.473,2.473,0,0,1,2.806,2.1,2.5,2.5,0,0,1-2.075,2.84l-11.727,1.77A2.375,2.375,0,0,1,372.65,88.27Zm23.464-3.54a2.5,2.5,0,0,1-.366-4.97l10.887-1.64a2.5,2.5,0,0,1,.731,4.94L396.48,84.7A2.166,2.166,0,0,1,396.114,84.73Z" transform="translate(2.497 -78.093)" fill="#ffcc65"/>
        </g>
        <g id="Group_107" data-name="Group 107" transform="translate(-0.773 -2.503)">
          <path id="Path_149" data-name="Path 149" d="M407.012,50.6h-.04l-6.2-.12a2.488,2.488,0,0,1-2.42-2.55,2.517,2.517,0,0,1,2.519-2.45l6.194.12a2.5,2.5,0,0,1-.049,5Zm-18.049-.37H388.9c-3.981-.09-7.943-.2-11.855-.3a2.5,2.5,0,0,1,.138-5q5.868.165,11.845.3a2.5,2.5,0,0,1-.069,5Zm-23.7-.65h-.079q-5.987-.2-11.855-.4a2.5,2.5,0,0,1,.178-5q5.868.21,11.835.4a2.5,2.5,0,0,1-.079,5Zm-23.69-.85h-.1q-5.987-.24-11.855-.5a2.5,2.5,0,0,1,.217-5q5.868.255,11.835.5a2.5,2.5,0,0,1-.1,5Zm-23.69-1.05h-.119q-5.987-.3-11.845-.61a2.5,2.5,0,0,1,.267-4.99q5.853.315,11.825.61a2.5,2.5,0,0,1-.128,4.99Zm-23.67-1.27h-.148q-5.987-.345-11.845-.72a2.5,2.5,0,0,1,.306-4.99q5.853.375,11.815.72a2.5,2.5,0,0,1-.128,4.99ZM270.551,44.9a.948.948,0,0,1-.168-.01q-5.987-.405-11.835-.85a2.5,2.5,0,0,1,.366-4.99q5.839.435,11.815.84a2.509,2.509,0,0,1-.178,5.01ZM246.91,43.15a1.308,1.308,0,0,1-.2-.01q-5.987-.48-11.825-.98a2.5,2.5,0,0,1,.415-4.98c3.883.33,7.824.66,11.8.98a2.5,2.5,0,0,1-.188,4.99Zm-23.621-2.02a1.728,1.728,0,0,1-.227-.01q-5.987-.555-11.815-1.12a2.5,2.5,0,0,1,.474-4.98q5.824.57,11.786,1.12a2.5,2.5,0,0,1-.217,4.99Zm-23.6-2.31a2.206,2.206,0,0,1-.257-.01q-5.987-.63-11.806-1.27a2.5,2.5,0,0,1-2.183-2.76,2.468,2.468,0,0,1,2.727-2.21q5.809.645,11.766,1.27a2.5,2.5,0,0,1-.247,4.98ZM176.126,36.2a2.757,2.757,0,0,1-.286-.02q-5.987-.705-11.786-1.44a2.493,2.493,0,0,1-2.144-2.79,2.468,2.468,0,0,1,2.756-2.17c3.853.49,7.775.96,11.746,1.44a2.5,2.5,0,0,1-.286,4.98ZM152.6,33.23c-.109,0-.217-.01-.326-.02-3.991-.53-7.9-1.07-11.766-1.62a2.5,2.5,0,0,1-2.1-2.82,2.47,2.47,0,0,1,2.786-2.13c3.843.55,7.755,1.08,11.727,1.62a2.5,2.5,0,0,1,2.124,2.81A2.47,2.47,0,0,1,152.6,33.23ZM129.121,29.9a2.253,2.253,0,0,1-.366-.03q-5.972-.9-11.736-1.82a2.509,2.509,0,0,1-2.055-2.86,2.473,2.473,0,0,1,2.825-2.08q5.735.915,11.7,1.82a2.5,2.5,0,0,1-.366,4.97Zm-23.414-3.75a1.945,1.945,0,0,1-.415-.04q-5.972-1.02-11.707-2.05a2.5,2.5,0,0,1,.869-4.92q5.705,1.035,11.657,2.04a2.505,2.505,0,0,1-.405,4.97ZM82.373,21.94a2.5,2.5,0,0,1-.464-.04c-3.922-.75-7.844-1.53-11.657-2.3a2.5,2.5,0,0,1-1.936-2.94,2.474,2.474,0,0,1,2.9-1.96c3.794.77,7.706,1.54,11.608,2.29a2.5,2.5,0,0,1-.454,4.95ZM59.137,17.2a2.252,2.252,0,0,1-.514-.06c-3.892-.84-7.8-1.72-11.608-2.59a2.5,2.5,0,0,1,1.1-4.87c3.784.87,7.666,1.74,11.539,2.58a2.5,2.5,0,0,1,1.9,2.97A2.475,2.475,0,0,1,59.137,17.2ZM36.03,11.87a2.323,2.323,0,0,1-.583-.07c-3.922-.97-7.795-1.95-11.539-2.94A2.5,2.5,0,0,1,22.14,5.81a2.463,2.463,0,0,1,3.013-1.79c3.715.98,7.567,1.96,11.46,2.91a2.509,2.509,0,0,1-.583,4.94ZM13.09,5.83a2.513,2.513,0,0,1-.662-.09C8.556,4.65,4.7,3.52.988,2.4A2.52,2.52,0,0,1-.671-.72,2.474,2.474,0,0,1,2.4-2.4C6.086-1.28,9.9-.17,13.742.91a2.507,2.507,0,0,1,1.719,3.08A2.469,2.469,0,0,1,13.09,5.83Z" transform="translate(0.773 2.503)" fill="#ffcc65"/>
        </g>
      </g>
      <g id="App_BG-3" data-name="App BG" transform="translate(2.507 902.503)" opacity="0.2">
        <g id="Group_107-2" data-name="Group 107" transform="translate(-0.773 -2.503)">
          <path id="Path_149-2" data-name="Path 149" d="M407.012,50.6h-.04l-6.2-.12a2.488,2.488,0,0,1-2.42-2.55,2.517,2.517,0,0,1,2.519-2.45l6.194.12a2.5,2.5,0,0,1-.049,5Zm-18.049-.37H388.9c-3.981-.09-7.943-.2-11.855-.3a2.5,2.5,0,0,1,.138-5q5.868.165,11.845.3a2.5,2.5,0,0,1-.069,5Zm-23.7-.65h-.079q-5.987-.2-11.855-.4a2.5,2.5,0,0,1,.178-5q5.868.21,11.835.4a2.5,2.5,0,0,1-.079,5Zm-23.69-.85h-.1q-5.987-.24-11.855-.5a2.5,2.5,0,0,1,.217-5q5.868.255,11.835.5a2.5,2.5,0,0,1-.1,5Zm-23.69-1.05h-.119q-5.987-.3-11.845-.61a2.5,2.5,0,0,1,.267-4.99q5.853.315,11.825.61a2.5,2.5,0,0,1-.128,4.99Zm-23.67-1.27h-.148q-5.987-.345-11.845-.72a2.5,2.5,0,0,1,.306-4.99q5.853.375,11.815.72a2.5,2.5,0,0,1-.128,4.99ZM270.551,44.9a.948.948,0,0,1-.168-.01q-5.987-.405-11.835-.85a2.5,2.5,0,0,1,.366-4.99q5.839.435,11.815.84a2.509,2.509,0,0,1-.178,5.01ZM246.91,43.15a1.308,1.308,0,0,1-.2-.01q-5.987-.48-11.825-.98a2.5,2.5,0,0,1,.415-4.98c3.883.33,7.824.66,11.8.98a2.5,2.5,0,0,1-.188,4.99Zm-23.621-2.02a1.728,1.728,0,0,1-.227-.01q-5.987-.555-11.815-1.12a2.5,2.5,0,0,1,.474-4.98q5.824.57,11.786,1.12a2.5,2.5,0,0,1-.217,4.99Zm-23.6-2.31a2.206,2.206,0,0,1-.257-.01q-5.987-.63-11.806-1.27a2.5,2.5,0,0,1-2.183-2.76,2.468,2.468,0,0,1,2.727-2.21q5.809.645,11.766,1.27a2.5,2.5,0,0,1-.247,4.98ZM176.126,36.2a2.757,2.757,0,0,1-.286-.02q-5.987-.705-11.786-1.44a2.493,2.493,0,0,1-2.144-2.79,2.468,2.468,0,0,1,2.756-2.17c3.853.49,7.775.96,11.746,1.44a2.5,2.5,0,0,1-.286,4.98ZM152.6,33.23c-.109,0-.217-.01-.326-.02-3.991-.53-7.9-1.07-11.766-1.62a2.5,2.5,0,0,1-2.1-2.82,2.47,2.47,0,0,1,2.786-2.13c3.843.55,7.755,1.08,11.727,1.62a2.5,2.5,0,0,1,2.124,2.81A2.47,2.47,0,0,1,152.6,33.23ZM129.121,29.9a2.253,2.253,0,0,1-.366-.03q-5.972-.9-11.736-1.82a2.509,2.509,0,0,1-2.055-2.86,2.473,2.473,0,0,1,2.825-2.08q5.735.915,11.7,1.82a2.5,2.5,0,0,1-.366,4.97Zm-23.414-3.75a1.945,1.945,0,0,1-.415-.04q-5.972-1.02-11.707-2.05a2.5,2.5,0,0,1,.869-4.92q5.705,1.035,11.657,2.04a2.505,2.505,0,0,1-.405,4.97ZM82.373,21.94a2.5,2.5,0,0,1-.464-.04c-3.922-.75-7.844-1.53-11.657-2.3a2.5,2.5,0,0,1-1.936-2.94,2.474,2.474,0,0,1,2.9-1.96c3.794.77,7.706,1.54,11.608,2.29a2.5,2.5,0,0,1-.454,4.95ZM59.137,17.2a2.252,2.252,0,0,1-.514-.06c-3.892-.84-7.8-1.72-11.608-2.59a2.5,2.5,0,0,1,1.1-4.87c3.784.87,7.666,1.74,11.539,2.58a2.5,2.5,0,0,1,1.9,2.97A2.475,2.475,0,0,1,59.137,17.2ZM36.03,11.87a2.323,2.323,0,0,1-.583-.07c-3.922-.97-7.795-1.95-11.539-2.94A2.5,2.5,0,0,1,22.14,5.81a2.463,2.463,0,0,1,3.013-1.79c3.715.98,7.567,1.96,11.46,2.91a2.509,2.509,0,0,1-.583,4.94ZM13.09,5.83a2.513,2.513,0,0,1-.662-.09C8.556,4.65,4.7,3.52.988,2.4A2.52,2.52,0,0,1-.671-.72,2.474,2.474,0,0,1,2.4-2.4C6.086-1.28,9.9-.17,13.742.91a2.507,2.507,0,0,1,1.719,3.08A2.469,2.469,0,0,1,13.09,5.83Z" transform="translate(0.773 2.503)" fill="#ffcc65"/>
        </g>
      </g>
    </g>
    <g id="Transaction_History" data-name="Transaction History" transform="translate(0 -19)">
      <g id="Group_25" data-name="Group 25">
        <g id="Rectangle_74" data-name="Rectangle 74" transform="translate(22 666)" fill="rgba(255,255,255,0)" stroke="#707070" stroke-width="1">
          <rect width="368" height="52" stroke="none"/>
          <rect x="0.5" y="0.5" width="367" height="51" fill="none"/>
        </g>
        <text id="Transaction_title" data-name="Transaction title" transform="translate(27 688)" fill="#0b0907" font-size="16" font-family="Raleway" font-weight="600"><tspan x="0" y="0">Transaction title</tspan></text>
        <text id="Date" transform="translate(27 709)" fill="#0b0907" font-size="16" font-family="Raleway"><tspan x="0" y="0">Date</tspan></text>
        <text id="_XX.XX" data-name="$XX.XX" transform="translate(367 699)" fill="#0b0907" font-size="16" font-family="Raleway"><tspan x="-53.376" y="0">$XX.XX</tspan></text>
        <path id="Path_24" data-name="Path 24" d="M1869.583,557.733l8,7.5-8,7.5" transform="translate(-1492.583 127.267)" fill="none" stroke="#0b0907" stroke-linecap="round" stroke-linejoin="round" stroke-width="1"/>
      </g>
      <g id="Group_26" data-name="Group 26" transform="translate(0 51)">
        <g id="Rectangle_74-2" data-name="Rectangle 74" transform="translate(22 666)" fill="rgba(255,255,255,0)" stroke="#707070" stroke-width="1">
          <rect width="368" height="52" stroke="none"/>
          <rect x="0.5" y="0.5" width="367" height="51" fill="none"/>
        </g>
        <text id="Transaction_title-2" data-name="Transaction title" transform="translate(27 688)" fill="#0b0907" font-size="16" font-family="Raleway" font-weight="600"><tspan x="0" y="0">Transaction title</tspan></text>
        <text id="Date-2" data-name="Date" transform="translate(27 709)" fill="#0b0907" font-size="16" font-family="Raleway"><tspan x="0" y="0">Date</tspan></text>
        <text id="_XX.XX-2" data-name="$XX.XX" transform="translate(367 699)" fill="#0b0907" font-size="16" font-family="Raleway"><tspan x="-53.376" y="0">$XX.XX</tspan></text>
        <path id="Path_24-2" data-name="Path 24" d="M1869.583,557.733l8,7.5-8,7.5" transform="translate(-1492.583 127.267)" fill="none" stroke="#0b0907" stroke-linecap="round" stroke-linejoin="round" stroke-width="1"/>
      </g>
      <g id="Group_27" data-name="Group 27" transform="translate(0 102)">
        <g id="Rectangle_74-3" data-name="Rectangle 74" transform="translate(22 666)" fill="rgba(255,255,255,0)" stroke="#707070" stroke-width="1">
          <rect width="368" height="52" stroke="none"/>
          <rect x="0.5" y="0.5" width="367" height="51" fill="none"/>
        </g>
        <text id="Transaction_title-3" data-name="Transaction title" transform="translate(27 688)" fill="#0b0907" font-size="16" font-family="Raleway" font-weight="600"><tspan x="0" y="0">Transaction title</tspan></text>
        <text id="Date-3" data-name="Date" transform="translate(27 709)" fill="#0b0907" font-size="16" font-family="Raleway"><tspan x="0" y="0">Date</tspan></text>
        <text id="_XX.XX-3" data-name="$XX.XX" transform="translate(367 699)" fill="#0b0907" font-size="16" font-family="Raleway"><tspan x="-53.376" y="0">$XX.XX</tspan></text>
        <path id="Path_24-3" data-name="Path 24" d="M1869.583,557.733l8,7.5-8,7.5" transform="translate(-1492.583 127.267)" fill="none" stroke="#0b0907" stroke-linecap="round" stroke-linejoin="round" stroke-width="1"/>
      </g>
      <g id="Group_28" data-name="Group 28" transform="translate(0 153)">
        <g id="Rectangle_74-4" data-name="Rectangle 74" transform="translate(22 666)" fill="rgba(255,255,255,0)" stroke="#0b0907" stroke-width="1">
          <rect width="368" height="52" stroke="none"/>
          <rect x="0.5" y="0.5" width="367" height="51" fill="none"/>
        </g>
        <text id="Transaction_title-4" data-name="Transaction title" transform="translate(27 688)" fill="#0b0907" font-size="16" font-family="Raleway" font-weight="600"><tspan x="0" y="0">Transaction title</tspan></text>
        <text id="Date-4" data-name="Date" transform="translate(27 709)" fill="#0b0907" font-size="16" font-family="Raleway"><tspan x="0" y="0">Date</tspan></text>
        <text id="_XX.XX-4" data-name="$XX.XX" transform="translate(367 699)" fill="#0b0907" font-size="16" font-family="Raleway"><tspan x="-53.376" y="0">$XX.XX</tspan></text>
        <path id="Path_24-4" data-name="Path 24" d="M1869.583,557.733l8,7.5-8,7.5" transform="translate(-1492.583 127.267)" fill="none" stroke="#0b0907" stroke-linecap="round" stroke-linejoin="round" stroke-width="1"/>
      </g>
      <g id="Group_29" data-name="Group 29" transform="translate(0 204)">
        <g id="Rectangle_74-5" data-name="Rectangle 74" transform="translate(22 666)" fill="rgba(255,255,255,0)" stroke="#0b0907" stroke-width="1">
          <path d="M0,0H368a0,0,0,0,1,0,0V42a10,10,0,0,1-10,10H10A10,10,0,0,1,0,42V0A0,0,0,0,1,0,0Z" stroke="none"/>
          <path d="M1,.5H367a.5.5,0,0,1,.5.5V42a9.5,9.5,0,0,1-9.5,9.5H10A9.5,9.5,0,0,1,.5,42V1A.5.5,0,0,1,1,.5Z" fill="none"/>
        </g>
        <text id="Transaction_title-5" data-name="Transaction title" transform="translate(27 688)" fill="#0b0907" font-size="16" font-family="Raleway" font-weight="600"><tspan x="0" y="0">Transaction title</tspan></text>
        <text id="Date-5" data-name="Date" transform="translate(27 709)" fill="#0b0907" font-size="16" font-family="Raleway"><tspan x="0" y="0">Date</tspan></text>
        <text id="_XX.XX-5" data-name="$XX.XX" transform="translate(367 699)" fill="#0b0907" font-size="16" font-family="Raleway"><tspan x="-53.376" y="0">$XX.XX</tspan></text>
        <path id="Path_24-5" data-name="Path 24" d="M1869.583,557.733l8,7.5-8,7.5" transform="translate(-1492.583 127.267)" fill="none" stroke="#0b0907" stroke-linecap="round" stroke-linejoin="round" stroke-width="1"/>
      </g>
      <text id="Transaction_History-2" data-name="Transaction History" transform="translate(27 656)" fill="#0b0907" font-size="20" font-family="Raleway" font-weight="600"><tspan x="0" y="0">Transaction History</tspan></text>
      <g id="Rectangle_73" data-name="Rectangle 73" transform="translate(22 631)" fill="none" stroke="#0b0907" stroke-width="1">
        <rect width="368" height="291" rx="10" stroke="none"/>
        <rect x="0.5" y="0.5" width="367" height="290" rx="9.5" fill="none"/>
      </g>
    </g>
    <g id="Extra_Money" data-name="Extra Money" transform="translate(0 -15)">
      <g id="Rectangle_72" data-name="Rectangle 72" transform="translate(22 522)" fill="rgba(255,255,255,0)" stroke="#0b0907" stroke-width="1">
        <rect width="368" height="88" rx="10" stroke="none"/>
        <rect x="0.5" y="0.5" width="367" height="87" rx="9.5" fill="none"/>
      </g>
      <text id="No_thank_you" data-name="No, thank you" transform="translate(290 601)" fill="#f89939" font-size="14" font-family="Raleway" font-weight="600" text-decoration="underline"><tspan x="0" y="0">No, thank you</tspan></text>
      <text id="Yes_please" data-name="Yes, please" transform="translate(201 601)" fill="#f89939" font-size="14" font-family="Raleway" font-weight="600" text-decoration="underline"><tspan x="0" y="0">Yes, please</tspan></text>
      <text id="You_have_saved_an_extra_XXX.XX_this_month._Would_you_like_to_store_that_money_in_a_cache_" data-name="You have saved an extra $XXX.XX this month.
Would you like to store that money in a cache?" transform="translate(32 542)" fill="#0b0907" font-size="16" font-family="Raleway"><tspan x="0" y="0">You have saved an extra $XXX.XX this month.</tspan><tspan x="0" y="19">Would you like to store that money in a cache?</tspan></text>
    </g>
    <text id="You_are_doing_an_awesome_job_You_have_saved_XXX.XX_this_month_which_is_a_XX_improvement_over_last_month_" data-name="You are doing an awesome job! You have saved $XXX.XX this month which is a XX% improvement over last month!" transform="translate(22 440)" fill="#0b0907" font-size="16" font-family="Raleway"><tspan x="0" y="15">You are doing an awesome job! You have saved </tspan><tspan x="0" y="34">$XXX.XX this month which is a XX% improvement </tspan><tspan x="0" y="53">over last month!</tspan></text>
    <g id="Bar_Graph" data-name="Bar Graph" transform="translate(14.988 87.91)">
      <text id="Jan" transform="translate(30.657 339.209) rotate(-45)" fill="#0b0907" font-size="10" font-family="Raleway"><tspan x="0" y="0">Jan</tspan></text>
      <text id="Feb" transform="translate(59.508 340.414) rotate(-45)" fill="#0b0907" font-size="10" font-family="Raleway"><tspan x="0" y="0">Feb</tspan></text>
      <text id="Mar" transform="translate(88.829 340.43) rotate(-45)" fill="#0b0907" font-size="10" font-family="Raleway"><tspan x="0" y="0">Mar</tspan></text>
      <text id="Apr" transform="translate(118.58 340.057) rotate(-45)" fill="#0b0907" font-size="10" font-family="Raleway"><tspan x="0" y="0">Apr</tspan></text>
      <text id="May" transform="translate(146.956 340.923) rotate(-45)" fill="#0b0907" font-size="10" font-family="Raleway"><tspan x="0" y="0">May</tspan></text>
      <text id="Jun" transform="translate(177.182 340.124) rotate(-45)" fill="#0b0907" font-size="10" font-family="Raleway"><tspan x="0" y="0">Jun</tspan></text>
      <text id="Jul" transform="translate(207.535 339.209) rotate(-45)" fill="#0b0907" font-size="10" font-family="Raleway"><tspan x="0" y="0">Jul</tspan></text>
      <text id="Aug" transform="translate(235.111 340.796) rotate(-45)" fill="#0b0907" font-size="10" font-family="Raleway"><tspan x="0" y="0">Aug</tspan></text>
      <text id="Sep" transform="translate(264.678 340.59) rotate(-45)" fill="#0b0907" font-size="10" font-family="Raleway"><tspan x="0" y="0">Sep</tspan></text>
      <text id="Oct" transform="translate(294.583 340.078) rotate(-45)" fill="#0b0907" font-size="10" font-family="Raleway"><tspan x="0" y="0">Oct</tspan></text>
      <text id="Nov" transform="translate(323.215 340.715) rotate(-45)" fill="#0b0907" font-size="10" font-family="Raleway"><tspan x="0" y="0">Nov</tspan></text>
      <text id="Dec" transform="translate(352.563 340.705) rotate(-45)" fill="#0b0907" font-size="10" font-family="Raleway"><tspan x="0" y="0">Dec</tspan></text>
      <text id="_1k" data-name="$1k" transform="translate(7.526 294.22)" fill="#0b0907" font-size="10" font-family="Raleway"><tspan x="0" y="0">$1k</tspan></text>
      <text id="_2k" data-name="$2k" transform="translate(7.121 254.521)" fill="#0b0907" font-size="10" font-family="Raleway"><tspan x="0" y="0">$2k</tspan></text>
      <text id="_3k" data-name="$3k" transform="translate(7.098 214.823)" fill="#0b0907" font-size="10" font-family="Raleway"><tspan x="0" y="0">$3k</tspan></text>
      <text id="_4k" data-name="$4k" transform="translate(7.012 175.124)" fill="#0b0907" font-size="10" font-family="Raleway"><tspan x="0" y="0">$4k</tspan></text>
      <text id="_5k" data-name="$5k" transform="translate(7.06 135.425)" fill="#0b0907" font-size="10" font-family="Raleway"><tspan x="0" y="0">$5k</tspan></text>
      <line id="Line_53" data-name="Line 53" x2="347.973" transform="translate(27.039 135.173)" fill="none" stroke="#0b0907" stroke-linecap="round" stroke-miterlimit="10" stroke-width="1" opacity="0.2"/>
      <line id="Line_54" data-name="Line 54" x2="347.973" transform="translate(27.039 174.752)" fill="none" stroke="#0b0907" stroke-linecap="round" stroke-miterlimit="10" stroke-width="1" opacity="0.2"/>
      <line id="Line_55" data-name="Line 55" x2="347.973" transform="translate(27.039 214.325)" fill="none" stroke="#0b0907" stroke-linecap="round" stroke-miterlimit="10" stroke-width="1" opacity="0.2"/>
      <line id="Line_56" data-name="Line 56" x2="347.973" transform="translate(27.039 253.899)" fill="none" stroke="#0b0907" stroke-linecap="round" stroke-miterlimit="10" stroke-width="1" opacity="0.2"/>
      <line id="Line_57" data-name="Line 57" x2="347.973" transform="translate(27.039 293.472)" fill="none" stroke="#0b0907" stroke-linecap="round" stroke-miterlimit="10" stroke-width="1" opacity="0.2"/>
      <path id="Path_543" data-name="Path 543" d="M46.538,196.98h0a3.642,3.642,0,0,0-3.818,3.438V351.369h7.63V200.412A3.631,3.631,0,0,0,46.538,196.98Z" transform="translate(-6.448 -31.795)" fill="#fbab36"/>
      <path id="Path_544" data-name="Path 544" d="M62.148,231.81h0a3.642,3.642,0,0,0-3.818,3.438V364.893h7.63V235.248A3.631,3.631,0,0,0,62.148,231.81Z" transform="translate(-11.453 -45.318)" fill="#a4c0d9"/>
      <path id="Path_545" data-name="Path 545" d="M89.388,207.53h0a3.642,3.642,0,0,0-3.818,3.438v144.5H93.2v-144.5A3.635,3.635,0,0,0,89.388,207.53Z" transform="translate(-20.186 -35.891)" fill="#fbab36"/>
      <path id="Path_546" data-name="Path 546" d="M105,246.11h0a3.642,3.642,0,0,0-3.818,3.438v120.9h7.63v-120.9A3.627,3.627,0,0,0,105,246.11Z" transform="translate(-25.191 -50.871)" fill="#a4c0d9"/>
      <path id="Path_547" data-name="Path 547" d="M132.238,177.2h0a3.642,3.642,0,0,0-3.818,3.438V343.689h7.63V180.632A3.635,3.635,0,0,0,132.238,177.2Z" transform="translate(-33.924 -24.115)" fill="#fbab36"/>
      <path id="Path_548" data-name="Path 548" d="M147.848,214.78h0a3.642,3.642,0,0,0-3.818,3.438V358.281h7.63V218.218A3.632,3.632,0,0,0,147.848,214.78Z" transform="translate(-38.929 -38.706)" fill="#a4c0d9"/>
      <path id="Path_549" data-name="Path 549" d="M384.463,319.574H36.49V115.09" transform="translate(-9.451)" fill="none" stroke="#0b0907" stroke-linecap="round" stroke-miterlimit="10" stroke-width="2"/>
      <path id="Rectangle_105" data-name="Rectangle 105" d="M3.816,0h0A3.816,3.816,0,0,1,7.633,3.816V18.554a0,0,0,0,1,0,0H0a0,0,0,0,1,0,0V3.816A3.816,3.816,0,0,1,3.816,0Z" transform="translate(94.495 153.085)" fill="#f3881c"/>
      <path id="Rectangle_106" data-name="Rectangle 106" d="M3.816,0h0A3.816,3.816,0,0,1,7.633,3.816v6.949a0,0,0,0,1,0,0H0a0,0,0,0,1,0,0V3.816A3.816,3.816,0,0,1,3.816,0Z" transform="translate(65.384 171.639)" fill="#f3881c"/>
      <path id="Rectangle_107" data-name="Rectangle 107" d="M3.816,0h0A3.816,3.816,0,0,1,7.633,3.816V14.66a0,0,0,0,1,0,0H0a0,0,0,0,1,0,0V3.816A3.816,3.816,0,0,1,3.816,0Z" transform="translate(36.272 165.308)" fill="#f3881c"/>
      <circle id="Ellipse_27" data-name="Ellipse 27" cx="4" cy="4" r="4" transform="translate(144.012 115.09)" fill="#fbab36"/>
      <circle id="Ellipse_28" data-name="Ellipse 28" cx="4" cy="4" r="4" transform="translate(238.012 115.09)" fill="#f3881c"/>
      <circle id="Ellipse_29" data-name="Ellipse 29" cx="4" cy="4" r="4" transform="translate(329.012 115.09)" fill="#a4c0d9"/>
      <text id="Main_Income" data-name="Main Income" transform="translate(157.012 123.09)" fill="#0b0907" font-size="12" font-family="Raleway"><tspan x="0" y="0">Main Income</tspan></text>
      <text id="Alt_Income_1" data-name="Alt Income 1" transform="translate(251.012 123.09)" fill="#0b0907" font-size="12" font-family="Raleway"><tspan x="0" y="0">Alt Income 1</tspan></text>
      <text id="Spent" transform="translate(342.012 123.09)" fill="#0b0907" font-size="12" font-family="Raleway"><tspan x="0" y="0">Spent</tspan></text>
    </g>
    <g id="Categorize_Pop_up" data-name="Categorize Pop up">
      <g id="Rectangle_104" data-name="Rectangle 104" transform="translate(22 105)" fill="#fff" stroke="#0b0907" stroke-width="1">
        <rect width="368" height="88" rx="10" stroke="none"/>
        <rect x="0.5" y="0.5" width="367" height="87" rx="9.5" fill="none"/>
      </g>
      <text id="You_made_a_purchase_for_xx.xx_on_date_" data-name="You made a purchase for $xx.xx on [date]" transform="translate(32 125)" fill="#0b0907" font-size="16" font-family="Raleway" font-weight="600"><tspan x="0" y="0">You made a purchase for $xx.xx on [date]</tspan></text>
      <text id="Which_category_would_you_like_to_save_this_as_" data-name="Which category would you like to save this as?" transform="translate(32 149)" fill="#0b0907" font-size="16" font-family="Raleway"><tspan x="0" y="0">Which category would you like to save this as?</tspan></text>
      <text id="Select_a_category" data-name="Select a category" transform="translate(264 185)" fill="#f89939" font-size="14" font-family="Raleway" font-weight="600" text-decoration="underline"><tspan x="0" y="0">Select a category</tspan></text>
      <text id="Label_as_miscellaneous" data-name="Label as miscellaneous" transform="translate(94 185)" fill="#f89939" font-size="14" font-family="Raleway" font-weight="600" text-decoration="underline"><tspan x="0" y="0">Label as miscellaneous</tspan></text>
      <circle id="Ellipse_10" data-name="Ellipse 10" cx="11" cy="11" r="11" transform="translate(356 94)" fill="#fbab36"/>
      <text id="_3" data-name="3" transform="translate(363 108)" fill="#0b0907" font-size="14" font-family="Raleway" font-weight="700"><tspan x="0" y="0">3</tspan></text>
    </g>
    <g id="Menu_Dots" data-name="Menu Dots">
      <g id="Ellipse_7" data-name="Ellipse 7" transform="translate(385 59)" fill="#0b0907" stroke="#0b0907" stroke-width="1">
        <circle cx="2.5" cy="2.5" r="2.5" stroke="none"/>
        <circle cx="2.5" cy="2.5" r="2" fill="none"/>
      </g>
      <g id="Ellipse_9" data-name="Ellipse 9" transform="translate(385 69)" fill="#0b0907" stroke="#0b0907" stroke-width="1">
        <circle cx="2.5" cy="2.5" r="2.5" stroke="none"/>
        <circle cx="2.5" cy="2.5" r="2" fill="none"/>
      </g>
      <g id="Ellipse_8" data-name="Ellipse 8" transform="translate(385 49)" fill="#0b0907" stroke="#0b0907" stroke-width="1">
        <circle cx="2.5" cy="2.5" r="2.5" stroke="none"/>
        <circle cx="2.5" cy="2.5" r="2" fill="none"/>
      </g>
    </g>
    <text id="Spending_Overview" data-name="Spending Overview" transform="translate(94 70)" fill="#0b0907" font-size="24" font-family="Raleway" font-weight="700"><tspan x="0" y="0">Spending Overview</tspan></text>
    <g id="Back" transform="translate(0 -63.37)">
      <path id="Path_5" data-name="Path 5" d="M524,105l-10,9,10,9" transform="translate(-492 9.37)" fill="none" stroke="#0b0907" stroke-linecap="round" stroke-linejoin="round" stroke-width="1"/>
      <path id="Path_6" data-name="Path 6" d="M514,123.37h21" transform="translate(-492)" fill="none" stroke="#0b0907" stroke-linecap="round" stroke-width="1"/>
    </g>
    <g id="Component_6_3" data-name="Component 6 – 3" transform="translate(0 815)">
      <g id="Tab_Bar" data-name="Tab Bar" transform="translate(0 -878)">
        <rect id="Container" width="412" height="55" transform="translate(0 878)" fill="#fff"/>
        <g id="Tab_3" data-name="Tab 3">
          <text id="Overview" transform="translate(351 928)" fill="#0b0907" font-size="16" font-family="SegoeUI, Segoe UI"><tspan x="-32.563" y="0">Overview</tspan></text>
          <g id="Overview-2" data-name="Overview" transform="translate(340 883)">
            <path id="Path_550" data-name="Path 550" d="M65.183,30.05H45.577a1.707,1.707,0,0,1-1.7-1.717V3.767a1.707,1.707,0,0,1,1.7-1.717H65.183a1.707,1.707,0,0,1,1.7,1.717V28.333A1.707,1.707,0,0,1,65.183,30.05Z" transform="translate(-43.88 -2.05)" fill="#fbab36" stroke="#fbab36" stroke-miterlimit="10" stroke-width="1"/>
            <line id="Line_58" data-name="Line 58" x2="20" transform="translate(1.5 4.5)" fill="none" stroke="#fff" stroke-linecap="round" stroke-miterlimit="10" stroke-width="1"/>
            <line id="Line_59" data-name="Line 59" x2="6.621" transform="translate(1.722 8.527)" fill="none" stroke="#fff" stroke-linecap="round" stroke-miterlimit="10" stroke-width="1"/>
            <line id="Line_60" data-name="Line 60" x2="10.418" transform="translate(11.036 8.527)" fill="none" stroke="#fff" stroke-linecap="round" stroke-miterlimit="10" stroke-width="1"/>
            <line id="Line_61" data-name="Line 61" x2="12.095" transform="translate(9.359 12.547)" fill="none" stroke="#fff" stroke-linecap="round" stroke-miterlimit="10" stroke-width="1"/>
            <line id="Line_62" data-name="Line 62" x2="4.679" transform="translate(1.722 12.547)" fill="none" stroke="#fff" stroke-linecap="round" stroke-miterlimit="10" stroke-width="1"/>
            <line id="Line_63" data-name="Line 63" x2="12.993" transform="translate(1.722 16.568)" fill="none" stroke="#fff" stroke-linecap="round" stroke-miterlimit="10" stroke-width="1"/>
            <line id="Line_64" data-name="Line 64" x2="3.796" transform="translate(17.415 16.568)" fill="none" stroke="#fff" stroke-linecap="round" stroke-miterlimit="10" stroke-width="1"/>
            <line id="Line_65" data-name="Line 65" x2="19.732" transform="translate(1.722 20.588)" fill="none" stroke="#fff" stroke-linecap="round" stroke-miterlimit="10" stroke-width="1"/>
            <line id="Line_66" data-name="Line 66" x2="19.732" transform="translate(1.722 24.609)" fill="none" stroke="#fff" stroke-linecap="round" stroke-miterlimit="10" stroke-width="1"/>
          </g>
        </g>
        <g id="Tab_2" data-name="Tab 2">
          <text id="Create_Cache" data-name="Create Cache" transform="translate(206 928)" fill="#0b0907" font-size="16" font-family="SegoeUI, Segoe UI"><tspan x="-46.504" y="0">Create Cache</tspan></text>
          <g id="Component_15_2" data-name="Component 15 – 2" transform="translate(192 883)">
            <g id="Add" transform="translate(-314.442 7.405)">
              <path id="Path_551" data-name="Path 551" d="M335.848-430.125v16" transform="translate(-7.267 428.72)" fill="none" stroke="#fbb042" stroke-linecap="round" stroke-width="1"/>
              <path id="Path_552" data-name="Path 552" d="M0,0V16" transform="translate(336.442 6.595) rotate(90)" fill="none" stroke="#fbb042" stroke-linecap="round" stroke-width="1"/>
            </g>
            <circle id="Ellipse_30" data-name="Ellipse 30" cx="14" cy="14" r="14" fill="rgba(255,255,255,0)" stroke="#fbab36" stroke-width="1"/>
          </g>
        </g>
        <g id="Tab_1" data-name="Tab 1">
          <text id="Dashboard" transform="translate(61 928)" fill="#0b0907" font-size="16" font-family="SegoeUI, Segoe UI"><tspan x="-38.555" y="0">Dashboard</tspan></text>
          <g id="Dashboard-2" data-name="Dashboard" transform="translate(47 883)">
            <g id="Path_523" data-name="Path 523" transform="translate(-2 -2)" fill="rgba(0,0,0,0)" stroke-miterlimit="10">
              <path d="M 13.98016262054443 21.37096214294434 L 3.173062562942505 21.37096214294434 C 2.801932573318481 21.37096214294434 2.500002384185791 21.06903266906738 2.500002384185791 20.69790267944336 L 2.500002384185791 3.173063039779663 C 2.500002384185791 2.80193305015564 2.801932573318481 2.500002861022949 3.173062562942505 2.500002861022949 L 13.98016262054443 2.500002861022949 C 14.35129261016846 2.500002861022949 14.65322208404541 2.80193305015564 14.65322208404541 3.173063039779663 L 14.65322208404541 20.69790267944336 C 14.65322208404541 21.06903266906738 14.35129261016846 21.37096214294434 13.98016262054443 21.37096214294434 Z" stroke="none"/>
              <path d="M 13.98016262054443 20.87096214294434 C 14.07559204101563 20.87096214294434 14.15322208404541 20.79333305358887 14.15322208404541 20.69790267944336 L 14.15322208404541 3.173063039779663 C 14.15322208404541 3.077632904052734 14.07559204101563 3.000002861022949 13.98016262054443 3.000002861022949 L 3.173062562942505 3.000002861022949 C 3.077632427215576 3.000002861022949 3.000002384185791 3.077632904052734 3.000002384185791 3.173063039779663 L 3.000002384185791 20.69790267944336 C 3.000002384185791 20.79333305358887 3.077632427215576 20.87096214294434 3.173062562942505 20.87096214294434 L 13.98016262054443 20.87096214294434 M 13.98016262054443 21.87096214294434 L 3.173062562942505 21.87096214294434 C 2.525002479553223 21.87096214294434 2.000002384185791 21.34597206115723 2.000002384185791 20.69790267944336 L 2.000002384185791 3.173063039779663 C 2.000002384185791 2.525002956390381 2.525002479553223 2.000002861022949 3.173062562942505 2.000002861022949 L 13.98016262054443 2.000002861022949 C 14.62822246551514 2.000002861022949 15.15322208404541 2.525002956390381 15.15322208404541 3.173063039779663 L 15.15322208404541 20.69790267944336 C 15.15322208404541 21.34597206115723 14.62822246551514 21.87096214294434 13.98016262054443 21.87096214294434 Z" stroke="none" fill="#fbab36"/>
            </g>
            <g id="Path_524" data-name="Path 524" transform="translate(-252.984 -137.871)" fill="rgba(0,0,0,0)" stroke-miterlimit="10">
              <path d="M 279.8108215332031 165.3709716796875 L 269.1730651855469 165.3709716796875 C 268.8019409179688 165.3709716796875 268.5 165.0690307617188 268.5 164.6979064941406 L 268.5 147.1730651855469 C 268.5 146.8019409179688 268.8019409179688 146.5 269.1730651855469 146.5 L 279.8108215332031 146.5 C 280.1819458007813 146.5 280.48388671875 146.8019409179688 280.48388671875 147.1730651855469 L 280.48388671875 164.6979064941406 C 280.48388671875 165.0690307617188 280.1819458007813 165.3709716796875 279.8108215332031 165.3709716796875 Z" stroke="none"/>
              <path d="M 279.8108215332031 164.8709716796875 C 279.90625 164.8709716796875 279.98388671875 164.7933349609375 279.98388671875 164.6979064941406 L 279.98388671875 147.1730651855469 C 279.98388671875 147.07763671875 279.90625 147 279.8108215332031 147 L 269.1730651855469 147 C 269.07763671875 147 269 147.07763671875 269 147.1730651855469 L 269 164.6979064941406 C 269 164.7933349609375 269.07763671875 164.8709716796875 269.1730651855469 164.8709716796875 L 279.8108215332031 164.8709716796875 M 279.8108215332031 165.8709716796875 L 269.1730651855469 165.8709716796875 C 268.5249938964844 165.8709716796875 268 165.3459777832031 268 164.6979064941406 L 268 147.1730651855469 C 268 146.5250091552734 268.5249938964844 146 269.1730651855469 146 L 279.8108215332031 146 C 280.4588623046875 146 280.98388671875 146.5250091552734 280.98388671875 147.1730651855469 L 280.98388671875 164.6979064941406 C 280.98388671875 165.3459777832031 280.4588623046875 165.8709716796875 279.8108215332031 165.8709716796875 Z" stroke="none" fill="#fbab36"/>
            </g>
            <g id="Path_525" data-name="Path 525" transform="translate(-2 -354.887)" fill="rgba(0,0,0,0)" stroke-miterlimit="10">
              <path d="M 13.98016262054443 382.3871154785156 L 3.173062562942505 382.3871154785156 C 2.801932573318481 382.3871154785156 2.500002384185791 382.0851745605469 2.500002384185791 381.7140502929688 L 2.500002384185791 377.1730651855469 C 2.500002384185791 376.8019409179688 2.801932573318481 376.5 3.173062562942505 376.5 L 13.98016262054443 376.5 C 14.35129261016846 376.5 14.65322208404541 376.8019409179688 14.65322208404541 377.1730651855469 L 14.65322208404541 381.7140502929688 C 14.65322208404541 382.0851745605469 14.35129261016846 382.3871154785156 13.98016262054443 382.3871154785156 Z" stroke="none"/>
              <path d="M 13.98016262054443 381.8871154785156 C 14.07559204101563 381.8871154785156 14.15322208404541 381.8094787597656 14.15322208404541 381.7140502929688 L 14.15322208404541 377.1730651855469 C 14.15322208404541 377.07763671875 14.07559204101563 377 13.98016262054443 377 L 3.173062562942505 377 C 3.077632427215576 377 3.000002384185791 377.07763671875 3.000002384185791 377.1730651855469 L 3.000002384185791 381.7140502929688 C 3.000002384185791 381.8094787597656 3.077632427215576 381.8871154785156 3.173062562942505 381.8871154785156 L 13.98016262054443 381.8871154785156 M 13.98016262054443 382.8871154785156 L 3.173062562942505 382.8871154785156 C 2.525002479553223 382.8871154785156 2.000002384185791 382.3620910644531 2.000002384185791 381.7140502929688 L 2.000002384185791 377.1730651855469 C 2.000002384185791 376.5249938964844 2.525002479553223 376 3.173062562942505 376 L 13.98016262054443 376 C 14.62822246551514 376 15.15322208404541 376.5249938964844 15.15322208404541 377.1730651855469 L 15.15322208404541 381.7140502929688 C 15.15322208404541 382.3620910644531 14.62822246551514 382.8871154785156 13.98016262054443 382.8871154785156 Z" stroke="none" fill="#fbab36"/>
            </g>
            <g id="Path_526" data-name="Path 526" transform="translate(-252.984 -2)" fill="rgba(0,0,0,0)" stroke-miterlimit="10">
              <path d="M 279.8108215332031 8.274196624755859 L 269.1730651855469 8.274196624755859 C 268.8019409179688 8.274196624755859 268.5 7.972256183624268 268.5 7.601126194000244 L 268.5 3.173066377639771 C 268.5 2.801936388015747 268.8019409179688 2.499996423721313 269.1730651855469 2.499996423721313 L 279.8108215332031 2.499996423721313 C 280.1819458007813 2.499996423721313 280.48388671875 2.801936388015747 280.48388671875 3.173066377639771 L 280.48388671875 7.601126194000244 C 280.48388671875 7.972256183624268 280.1819458007813 8.274196624755859 279.8108215332031 8.274196624755859 Z" stroke="none"/>
              <path d="M 279.8108215332031 7.774196624755859 C 279.90625 7.774196624755859 279.98388671875 7.696556568145752 279.98388671875 7.601126194000244 L 279.98388671875 3.173066377639771 C 279.98388671875 3.077636480331421 279.90625 2.999996423721313 279.8108215332031 2.999996423721313 L 269.1730651855469 2.999996423721313 C 269.07763671875 2.999996423721313 269 3.077636480331421 269 3.173066377639771 L 269 7.601126194000244 C 269 7.696556568145752 269.07763671875 7.774196624755859 269.1730651855469 7.774196624755859 L 279.8108215332031 7.774196624755859 M 279.8108215332031 8.774196624755859 L 269.1730651855469 8.774196624755859 C 268.5249938964844 8.774196624755859 268 8.24919605255127 268 7.601126194000244 L 268 3.173066377639771 C 268 2.524996519088745 268.5249938964844 1.999996423721313 269.1730651855469 1.999996423721313 L 279.8108215332031 1.999996423721313 C 280.4588623046875 1.999996423721313 280.98388671875 2.524996519088745 280.98388671875 3.173066377639771 L 280.98388671875 7.601126194000244 C 280.98388671875 8.24919605255127 280.4588623046875 8.774196624755859 279.8108215332031 8.774196624755859 Z" stroke="none" fill="#fbab36"/>
            </g>
          </g>
        </g>
      </g>
    </g>
    <g id="Top_Bar" data-name="Top Bar">
      <rect id="Rectangle" width="412" height="24" fill="#a4c0d9"/>
      <path id="Mask" d="M34,0H46L40,10ZM18,5a5,5,0,1,1,5,5A5,5,0,0,1,18,5ZM0,10V0H10V10Z" transform="translate(303 7)" fill="rgba(255,255,255,0.38)"/>
    </g>
  </g>
</svg>
