<svg xmlns="http://www.w3.org/2000/svg" xmlns:xlink="http://www.w3.org/1999/xlink" width="412" height="870" viewBox="0 0 412 870">
  <defs>
    <clipPath id="clip-_5-Create_Caches">
      <rect width="412" height="870"/>
    </clipPath>
  </defs>
  <g id="_5-Create_Caches" data-name="5-Create Caches" clip-path="url(#clip-_5-Create_Caches)">
    <rect width="412" height="870" fill="#fff"/>
    <g id="App_BG" data-name="App BG" transform="translate(2.507 2.503)" opacity="0.2">
      <g id="Group_100" data-name="Group 100" transform="translate(-2.464 827.477)">
        <path id="Path_142" data-name="Path 142" d="M.01,872.16A2.492,2.492,0,0,1-2.4,870.21a2.494,2.494,0,0,1,1.857-2.99c3.695-.85,7.637-1.68,11.707-2.46a2.465,2.465,0,0,1,2.885,1.99,2.491,2.491,0,0,1-1.966,2.92c-4.021.77-7.894,1.58-11.53,2.42A2.022,2.022,0,0,1,.01,872.16Zm23.306-4.5a2.5,2.5,0,0,1-.4-4.96c3.754-.61,7.726-1.2,11.8-1.77a2.5,2.5,0,0,1,.672,4.96c-4.031.56-7.963,1.15-11.688,1.75C23.583,867.65,23.444,867.66,23.316,867.66Zm23.514-3.28a2.506,2.506,0,0,1-.287-4.99c3.823-.46,7.8-.91,11.836-1.33a2.465,2.465,0,0,1,2.707,2.23,2.494,2.494,0,0,1-2.2,2.74c-4,.42-7.963.86-11.757,1.32A.994.994,0,0,1,46.829,864.38Zm23.6-2.48a2.5,2.5,0,0,1-.227-4.99q5.854-.54,11.846-1.02a2.5,2.5,0,0,1,.4,4.98q-5.972.48-11.8,1.02A1.51,1.51,0,0,1,70.432,861.9Zm23.662-1.93a2.5,2.5,0,0,1-.168-4.99q5.869-.42,11.856-.81a2.5,2.5,0,0,1,.306,4.99q-5.972.39-11.826.81Zm23.682-1.53a2.5,2.5,0,0,1-.138-5c3.922-.23,7.884-.45,11.856-.66a2.5,2.5,0,0,1,.257,5q-5.957.315-11.836.66A.639.639,0,0,0,117.775,858.44Zm23.691-1.27a2.5,2.5,0,0,1-.119-5c3.932-.19,7.894-.38,11.856-.56a2.5,2.5,0,0,1,.217,4.99q-5.943.27-11.846.56A.366.366,0,0,1,141.467,857.17Zm23.711-1.08a2.5,2.5,0,0,1-.109-4.99q5.9-.255,11.826-.5a2.518,2.518,0,0,1,2.569,2.4,2.491,2.491,0,0,1-2.371,2.6q-5.928.24-11.816.5A.332.332,0,0,0,165.178,856.09Zm23.662-.97a2.5,2.5,0,0,1-.1-5l11.856-.47a2.5,2.5,0,0,1,.188,4.99l-11.856.47A.244.244,0,0,1,188.839,855.12Zm23.731-.94a2.5,2.5,0,0,1-.1-5l11.885-.47a2.5,2.5,0,0,1,.2,5l-11.885.47Zm23.741-.95a2.5,2.5,0,0,1-.1-5c3.962-.17,7.914-.33,11.846-.51a2.519,2.519,0,0,1,2.579,2.39,2.492,2.492,0,0,1-2.361,2.61l-11.856.51Zm23.7-1.04a2.5,2.5,0,0,1-.119-4.99q5.957-.285,11.846-.58a2.5,2.5,0,0,1,.247,4.99q-5.9.3-11.856.58A.47.47,0,0,0,260.012,852.19Zm23.7-1.2a2.5,2.5,0,0,1-.128-4.99q5.957-.33,11.836-.68a2.446,2.446,0,0,1,2.608,2.35,2.486,2.486,0,0,1-2.322,2.64q-5.883.36-11.856.69A.325.325,0,0,0,283.714,850.99Zm23.691-1.45a2.5,2.5,0,0,1-.158-4.99q5.972-.405,11.816-.85a2.5,2.5,0,0,1,.366,4.99q-5.869.45-11.856.85Zm23.662-1.8a2.5,2.5,0,0,1-.207-4.99c4.011-.34,7.973-.7,11.786-1.07a2.5,2.5,0,0,1,.474,4.98c-3.833.37-7.815.74-11.846,1.08Zm23.622-2.3a2.5,2.5,0,0,1-.267-4.99c4.021-.45,7.973-.92,11.747-1.4a2.468,2.468,0,0,1,2.756,2.17,2.493,2.493,0,0,1-2.144,2.79c-3.794.48-7.775.96-11.826,1.41A1.2,1.2,0,0,1,354.689,845.44Zm23.543-3.02a2.506,2.506,0,0,1-.356-4.98c4.031-.6,7.953-1.23,11.658-1.88a2.5,2.5,0,0,1,.84,4.93c-3.744.65-7.706,1.29-11.777,1.9A2.25,2.25,0,0,1,378.232,842.42Zm23.375-4.11a2.5,2.5,0,0,1-.494-4.95c1.818-.38,3.606-.76,5.355-1.16a2.486,2.486,0,0,1,2.954,1.89,2.513,2.513,0,0,1-1.867,2.99c-1.778.4-3.6.8-5.434,1.18A3.08,3.08,0,0,1,401.607,838.31Z" transform="translate(2.464 -832.14)" fill="#ffcc65"/>
      </g>
      <g id="Group_101" data-name="Group 101" transform="translate(-2.507 735.5)">
        <path id="Path_143" data-name="Path 143" d="M140.2,763.16a2.5,2.5,0,0,1,0-5c3.922-.01,7.864-.03,11.836-.08a2.5,2.5,0,0,1,.059,5q-6,.075-11.9.08Zm-11.856-.03h-.02c-4.011-.03-8.012-.08-11.885-.16a2.488,2.488,0,0,1-2.421-2.55,2.518,2.518,0,0,1,2.519-2.45c3.853.07,7.835.13,11.826.16a2.5,2.5,0,0,1-.02,5Zm35.567-.21a2.5,2.5,0,0,1-.04-5q5.9-.105,11.836-.24h.059a2.5,2.5,0,0,1,.059,5q-5.957.135-11.865.24Zm-59.278-.25h-.079c-4.061-.13-8.062-.29-11.885-.48a2.5,2.5,0,0,1,.237-5c3.8.19,7.775.35,11.806.48a2.5,2.5,0,0,1-.079,5Zm82.979-.29a2.5,2.5,0,0,1-.069-5q5.913-.165,11.846-.35a2.5,2.5,0,0,1,.158,5q-5.943.18-11.856.35Zm219.4-.72c-.109,0-.217-.01-.326-.02-1.976-.26-4-.51-6.056-.73a2.5,2.5,0,0,1,.543-4.97c2.114.23,4.189.49,6.155.75a2.5,2.5,0,0,1-.316,4.97Zm-195.7-.01a2.5,2.5,0,0,1-.079-5q5.928-.2,11.846-.41a2.5,2.5,0,0,1,.178,5q-5.928.21-11.856.41ZM80.953,761.5a.946.946,0,0,1-.168-.01c-4.061-.28-8.062-.59-11.875-.94a2.5,2.5,0,0,1,.435-4.98c3.784.34,7.736.66,11.767.93a2.5,2.5,0,0,1-.158,5Zm154.073-.69a2.5,2.5,0,0,1-.089-5l11.856-.43a2.5,2.5,0,0,1,.178,5l-11.856.43Zm23.7-.87a2.5,2.5,0,0,1-.089-5q5.957-.21,11.856-.41a2.5,2.5,0,0,1,.158,5q-5.9.2-11.846.41Zm130.372-.12a1.18,1.18,0,0,1-.188-.01c-3.754-.29-7.716-.55-11.767-.76a2.5,2.5,0,0,1,.257-5c4.1.21,8.1.47,11.9.77a2.505,2.505,0,0,1-.2,5Zm-331.759-.5a2.947,2.947,0,0,1-.3-.02c-4.07-.49-8.052-1.03-11.836-1.62a2.5,2.5,0,0,1,.751-4.94c3.725.58,7.657,1.11,11.668,1.59a2.506,2.506,0,0,1-.287,4.99Zm225.1-.17a2.5,2.5,0,0,1-.079-5q5.972-.18,11.865-.34h.069a2.5,2.5,0,0,1,.069,5q-5.883.165-11.846.34Zm82.989-.59h-.079c-3.784-.12-7.756-.22-11.816-.29a2.5,2.5,0,0,1,.079-5c4.08.07,8.082.17,11.9.29a2.5,2.5,0,0,1-.079,5Zm-59.288-.04a2.5,2.5,0,0,1-.049-5q5.987-.135,11.875-.22a2.5,2.5,0,0,1,.079,5q-5.868.09-11.836.22Zm23.721-.35a2.5,2.5,0,0,1-.02-5c4.011-.03,7.983-.03,11.885-.02a2.5,2.5,0,0,1-.01,5h-.01c-3.893-.01-7.835-.01-11.836.02ZM33.906,755.65a2.746,2.746,0,0,1-.484-.05c-4.09-.82-8.022-1.72-11.7-2.68a2.5,2.5,0,0,1-1.778-3.04,2.467,2.467,0,0,1,3-1.8c3.586.94,7.429,1.82,11.431,2.62a2.511,2.511,0,0,1,1.946,2.94A2.47,2.47,0,0,1,33.906,755.65Zm-22.931-6.06a2.482,2.482,0,0,1-.8-.13,113.3,113.3,0,0,1-11.253-4.53,2.506,2.506,0,0,1-1.2-3.32,2.45,2.45,0,0,1,3.28-1.21,106.987,106.987,0,0,0,10.769,4.33,2.5,2.5,0,0,1,1.541,3.17A2.47,2.47,0,0,1,10.976,749.59Z" transform="translate(2.507 -740.163)" fill="#ffcc65"/>
      </g>
      <g id="Group_102" data-name="Group 102" transform="translate(-2.505 596.623)">
        <path id="Path_144" data-name="Path 144" d="M-.03,664.25a2.475,2.475,0,0,1-2.183-1.32A2.511,2.511,0,0,1-1.2,659.55c3.349-1.81,7.034-3.56,10.947-5.2a2.461,2.461,0,0,1,3.231,1.36,2.512,2.512,0,0,1-1.344,3.27c-3.764,1.58-7.3,3.25-10.5,4.98A2.456,2.456,0,0,1-.03,664.25Zm21.844-9.26a2.466,2.466,0,0,1-2.341-1.71,2.5,2.5,0,0,1,1.561-3.16c3.616-1.22,7.479-2.4,11.48-3.51a2.468,2.468,0,0,1,3.033,1.75,2.505,2.505,0,0,1-1.729,3.07c-3.922,1.09-7.706,2.24-11.233,3.43A2.269,2.269,0,0,1,21.814,654.99Zm22.862-6.39a2.464,2.464,0,0,1-2.4-1.94,2.5,2.5,0,0,1,1.857-3c3.715-.86,7.647-1.71,11.688-2.51a2.5,2.5,0,0,1,.948,4.9c-3.991.79-7.874,1.63-11.53,2.48A2.168,2.168,0,0,1,44.675,648.6Zm23.286-4.65a2.468,2.468,0,0,1-2.43-2.08,2.5,2.5,0,0,1,2.025-2.88c3.774-.64,7.736-1.27,11.777-1.88a2.5,2.5,0,0,1,.721,4.95c-4.011.59-7.933,1.22-11.668,1.86A3.139,3.139,0,0,1,67.962,643.95Zm23.484-3.5a2.5,2.5,0,0,1-.316-4.98c3.833-.5,7.815-.98,11.816-1.44a2.5,2.5,0,0,1,.563,4.97c-3.981.46-7.933.94-11.747,1.43A1.736,1.736,0,0,1,91.446,640.45Zm23.583-2.71a2.5,2.5,0,0,1-.237-4.99q5.869-.6,11.836-1.15a2.5,2.5,0,0,1,.454,4.98q-5.943.54-11.786,1.14C115.2,637.73,115.107,637.74,115.028,637.74Zm23.632-2.18a2.5,2.5,0,0,1-.2-4.99q5.883-.5,11.846-.94a2.5,2.5,0,0,1,.366,4.99q-5.943.45-11.816.94A1.3,1.3,0,0,0,138.66,635.56Zm23.672-1.81a2.5,2.5,0,0,1-.168-5q5.9-.42,11.846-.81a2.5,2.5,0,0,1,.326,4.99q-5.943.39-11.826.81C162.451,633.74,162.391,633.75,162.332,633.75Zm23.652-1.58a2.5,2.5,0,0,1-.148-4.99q5.913-.375,11.836-.73a2.5,2.5,0,0,1,.3,4.99q-5.928.36-11.826.73Zm23.672-1.45a2.5,2.5,0,0,1-.138-4.99l11.865-.71a2.453,2.453,0,0,1,2.608,2.35,2.486,2.486,0,0,1-2.322,2.64l-11.865.72A.743.743,0,0,0,209.656,630.72Zm23.721-1.43a2.5,2.5,0,0,1-.148-5q5.928-.36,11.836-.74a2.5,2.5,0,0,1,.306,4.99q-5.913.375-11.856.74C233.475,629.28,233.426,629.29,233.377,629.29Zm23.682-1.52a2.5,2.5,0,0,1-.158-4.99q5.943-.405,11.826-.82a2.5,2.5,0,0,1,.346,4.99q-5.9.42-11.846.82Zm23.672-1.71a2.5,2.5,0,0,1-.188-4.99q5.943-.465,11.806-.96a2.5,2.5,0,0,1,.415,4.98q-5.883.5-11.846.97Zm23.652-2.02a2.5,2.5,0,0,1-.227-4.99q5.957-.57,11.786-1.18a2.469,2.469,0,0,1,2.717,2.23,2.5,2.5,0,0,1-2.2,2.75q-5.854.615-11.836,1.18C304.54,624.03,304.461,624.04,304.382,624.04Zm23.6-2.51a2.477,2.477,0,0,1-2.45-2.21,2.505,2.505,0,0,1,2.164-2.78c4.031-.48,7.973-.99,11.737-1.5a2.5,2.5,0,0,1,.662,4.95c-3.784.52-7.765,1.02-11.816,1.51A1.489,1.489,0,0,1,327.984,621.53Zm23.523-3.22a2.5,2.5,0,0,1-.375-4.97c3.991-.62,7.914-1.29,11.648-1.96a2.5,2.5,0,0,1,.869,4.92c-3.774.68-7.736,1.35-11.767,1.98A2.29,2.29,0,0,1,351.508,618.31Zm23.355-4.27a2.467,2.467,0,0,1-2.411-1.99,2.5,2.5,0,0,1,1.907-2.96c3.982-.85,7.835-1.75,11.47-2.67a2.46,2.46,0,0,1,2.994,1.82,2.494,2.494,0,0,1-1.8,3.03c-3.695.94-7.617,1.85-11.658,2.71A2.169,2.169,0,0,1,374.863,614.04Zm23-5.88a2.481,2.481,0,0,1-2.361-1.78,2.511,2.511,0,0,1,1.65-3.12c3.152-.97,6.185-1.98,9.02-3.02a2.458,2.458,0,0,1,3.161,1.5,2.5,2.5,0,0,1-1.482,3.2c-2.924,1.07-6.036,2.11-9.267,3.1A2.021,2.021,0,0,1,397.863,608.16Z" transform="translate(2.505 -600.09)" fill="#ffcc65"/>
      </g>
      <g id="Group_103" data-name="Group 103" transform="translate(-2.502 420.235)">
        <path id="Path_145" data-name="Path 145" d="M406.612,508.12a2.429,2.429,0,0,1-1.047-.24c-3.369-1.6-6.985-3.19-10.749-4.73a2.5,2.5,0,0,1-1.363-3.25,2.453,2.453,0,0,1,3.211-1.38c3.853,1.57,7.548,3.2,11,4.84a2.516,2.516,0,0,1,1.186,3.33A2.458,2.458,0,0,1,406.612,508.12Zm-21.972-9.03a2.427,2.427,0,0,1-.83-.15c-3.547-1.27-7.3-2.55-11.164-3.79a2.511,2.511,0,0,1-1.61-3.14,2.469,2.469,0,0,1,3.1-1.63c3.922,1.26,7.726,2.55,11.332,3.84a2.508,2.508,0,0,1,1.5,3.19A2.467,2.467,0,0,1,384.639,499.09Zm-22.6-7.28a2.3,2.3,0,0,1-.682-.1c-3.665-1.06-7.5-2.12-11.391-3.15a2.5,2.5,0,0,1-1.768-3.05,2.468,2.468,0,0,1,3.013-1.79c3.932,1.04,7.795,2.11,11.5,3.18a2.5,2.5,0,0,1,1.689,3.09A2.439,2.439,0,0,1,362.035,491.81Zm-22.95-6.09a2.378,2.378,0,0,1-.583-.07c-3.7-.9-7.578-1.81-11.52-2.7a2.494,2.494,0,0,1,1.077-4.87c3.962.9,7.864,1.81,11.6,2.72a2.5,2.5,0,0,1-.573,4.92Zm-23.158-5.24a2.868,2.868,0,0,1-.5-.05c-3.725-.79-7.627-1.59-11.6-2.38a2.5,2.5,0,0,1-1.946-2.93,2.471,2.471,0,0,1,2.895-1.97c3.991.79,7.914,1.6,11.658,2.39a2.5,2.5,0,0,1-.5,4.94Zm-23.286-4.64a2.4,2.4,0,0,1-.454-.04q-5.779-1.08-11.658-2.13a2.5,2.5,0,0,1-2.006-2.9,2.477,2.477,0,0,1,2.865-2.03q5.9,1.05,11.7,2.14a2.5,2.5,0,0,1,1.976,2.91A2.455,2.455,0,0,1,292.641,475.84Zm-23.365-4.16a2.9,2.9,0,0,1-.415-.03q-5.809-.99-11.687-1.95a2.5,2.5,0,0,1-2.045-2.87,2.471,2.471,0,0,1,2.835-2.07q5.9.96,11.727,1.95a2.505,2.505,0,0,1-.415,4.97Zm-23.424-3.83a2.5,2.5,0,0,1-.385-.03q-5.839-.915-11.717-1.81a2.5,2.5,0,0,1,.731-4.94q5.9.9,11.737,1.82a2.5,2.5,0,0,1,2.065,2.86A2.47,2.47,0,0,1,245.852,467.85Zm-23.464-3.58a2.348,2.348,0,0,1-.366-.03q-5.854-.87-11.737-1.72a2.5,2.5,0,0,1,.7-4.95q5.883.855,11.747,1.72a2.494,2.494,0,0,1,2.085,2.84A2.466,2.466,0,0,1,222.388,464.27Zm-23.513-3.41c-.119,0-.227-.01-.346-.02q-5.883-.84-11.757-1.66a2.49,2.49,0,0,1-2.1-2.82,2.465,2.465,0,0,1,2.786-2.13q5.883.825,11.767,1.66a2.5,2.5,0,0,1-.346,4.97Zm-23.513-3.31c-.109,0-.227-.01-.336-.02l-11.737-1.63a2.5,2.5,0,0,1,.672-4.96l11.737,1.63a2.5,2.5,0,0,1-.336,4.98Zm-23.454-3.27c-.109,0-.227-.01-.336-.02q-5.9-.825-11.757-1.64a2.5,2.5,0,0,1,.682-4.95q5.854.825,11.747,1.64a2.5,2.5,0,0,1-.336,4.97Zm-23.5-3.3c-.119,0-.227-.01-.346-.02q-5.913-.84-11.757-1.69a2.5,2.5,0,0,1,.7-4.95q5.839.855,11.737,1.69a2.5,2.5,0,0,1-.336,4.97Zm-23.494-3.42a2.348,2.348,0,0,1-.366-.03q-5.928-.885-11.747-1.78a2.5,2.5,0,0,1-2.075-2.85,2.473,2.473,0,0,1,2.816-2.1c3.873.59,7.785,1.19,11.727,1.77a2.511,2.511,0,0,1-.356,4.99Zm-23.464-3.61a2.5,2.5,0,0,1-.385-.03q-5.928-.945-11.737-1.91a2.5,2.5,0,0,1,.8-4.93q5.78.96,11.7,1.91a2.491,2.491,0,0,1,2.055,2.86A2.454,2.454,0,0,1,81.446,443.95Zm-23.415-3.91a2.038,2.038,0,0,1-.425-.04q-5.943-1.05-11.707-2.12a2.5,2.5,0,0,1-1.986-2.91,2.471,2.471,0,0,1,2.875-2.01q5.735,1.065,11.658,2.11a2.507,2.507,0,0,1,2.015,2.89A2.466,2.466,0,0,1,58.032,440.04ZM34.7,435.68a2.743,2.743,0,0,1-.484-.05c-4.011-.8-7.933-1.62-11.658-2.42a2.5,2.5,0,0,1-1.9-2.97,2.471,2.471,0,0,1,2.934-1.92c3.7.8,7.607,1.61,11.589,2.41a2.5,2.5,0,0,1-.484,4.95Zm-23.207-5.04a2.172,2.172,0,0,1-.563-.07c-4.021-.95-7.914-1.93-11.579-2.9a2.5,2.5,0,0,1-1.768-3.05,2.463,2.463,0,0,1,3.013-1.79c3.626.96,7.479,1.92,11.46,2.87a2.5,2.5,0,0,1,1.838,3A2.464,2.464,0,0,1,11.489,430.64Z" transform="translate(2.502 -422.748)" fill="#ffcc65"/>
      </g>
      <g id="Group_104" data-name="Group 104" transform="translate(-2.501 323.442)">
        <path id="Path_146" data-name="Path 146" d="M260.7,349.13a2.5,2.5,0,0,1-.01-5c3.972-.01,7.914-.05,11.836-.1h.03a2.5,2.5,0,0,1,.03,5q-5.9.09-11.885.1Zm-11.856,0h-.01q-5.913-.03-11.875-.1a2.5,2.5,0,0,1,.03-5h.03q5.943.075,11.846.1a2.5,2.5,0,0,1-.02,5Zm-23.721-.29h-.049q-5.913-.105-11.865-.25a2.5,2.5,0,0,1,.119-5q5.928.135,11.846.25a2.5,2.5,0,0,1-.049,5Zm59.288-.03a2.5,2.5,0,0,1-.059-5c4.031-.1,8.012-.22,11.816-.37a2.5,2.5,0,0,1,.188,4.99c-3.833.15-7.825.27-11.885.37A.124.124,0,0,1,284.415,348.81Zm-83-.51h-.069q-5.928-.165-11.856-.34a2.5,2.5,0,0,1,.148-4.99q5.928.18,11.846.34a2.5,2.5,0,0,1-.069,4.99Zm106.69-.39a2.5,2.5,0,0,1-.128-5c4.011-.21,7.983-.46,11.8-.73a2.5,2.5,0,0,1,.346,4.99c-3.833.27-7.835.52-11.875.74Zm-130.4-.34h-.079c-3.952-.13-7.914-.26-11.856-.4a2.5,2.5,0,0,1,.168-4.99q5.913.21,11.846.4a2.5,2.5,0,0,1-.079,4.99Zm-23.691-.8h-.089l-11.846-.41a2.5,2.5,0,0,1,.168-4.99l11.846.41a2.5,2.5,0,0,1-.079,4.99ZM-.03,346.76a2.494,2.494,0,0,1-2.46-2.26,2.5,2.5,0,0,1,2.223-2.73c3.764-.37,7.765-.69,11.885-.97a2.5,2.5,0,0,1,.326,4.99c-4.07.27-8.022.6-11.747.96A1.648,1.648,0,0,1-.03,346.76Zm331.788-.55a2.5,2.5,0,0,1-.227-4.99c4-.37,7.953-.78,11.737-1.23a2.5,2.5,0,0,1,.563,4.97c-3.823.45-7.815.86-11.856,1.24A1.442,1.442,0,0,1,331.758,346.21Zm-201.446-.26h-.079q-5.957-.2-11.846-.38a2.5,2.5,0,0,1,.158-5q5.9.18,11.856.38a2.5,2.5,0,0,1-.089,5Zm-23.7-.73h-.069q-5.972-.165-11.846-.3a2.5,2.5,0,0,1,.119-5q5.883.135,11.865.3a2.5,2.5,0,0,1-.069,5Zm-82.989-.08a2.5,2.5,0,0,1-.109-5c3.8-.17,7.8-.31,11.9-.41a2.5,2.5,0,0,1,.119,5c-4.061.1-8.032.24-11.806.41Zm59.278-.46h-.04q-5.987-.105-11.836-.16a2.5,2.5,0,0,1,.04-5q5.869.06,11.875.16a2.5,2.5,0,0,1-.04,5Zm-35.577-.16a2.5,2.5,0,0,1-.03-5q5.661-.06,11.49-.06h.4a2.5,2.5,0,0,1,0,5h-.4q-5.809,0-11.441.06Zm307.988-1.09a2.5,2.5,0,0,1-.356-4.97c3.991-.59,7.9-1.24,11.618-1.92a2.471,2.471,0,0,1,2.875,2.01,2.5,2.5,0,0,1-1.986,2.91c-3.764.69-7.736,1.35-11.786,1.95C355.549,343.42,355.43,343.43,355.311,343.43Zm23.316-4.33a2.5,2.5,0,0,1-.553-4.94c3.952-.91,7.765-1.9,11.352-2.94a2.464,2.464,0,0,1,3.053,1.72,2.5,2.5,0,0,1-1.7,3.09c-3.675,1.06-7.578,2.07-11.618,3A1.86,1.86,0,0,1,378.627,339.1Zm22.773-6.66a2.472,2.472,0,0,1-2.322-1.65,2.5,2.5,0,0,1,1.482-3.2c1.887-.69,3.744-1.42,5.513-2.16a2.468,2.468,0,0,1,3.231,1.35,2.516,2.516,0,0,1-1.334,3.27c-1.838.77-3.754,1.52-5.71,2.24A2.434,2.434,0,0,1,401.4,332.44Z" transform="translate(2.501 -325.239)" fill="#ffcc65"/>
      </g>
      <g id="Group_105" data-name="Group 105" transform="translate(-2.498 217.579)">
        <path id="Path_147" data-name="Path 147" d="M-.03,262.15a2.485,2.485,0,0,1-2.46-2.3,2.483,2.483,0,0,1,2.262-2.69c3.8-.31,7.765-.67,11.786-1.05a2.5,2.5,0,0,1,.464,4.97c-4.041.39-8.032.74-11.846,1.06A1.515,1.515,0,0,1-.03,262.15Zm23.622-2.25a2.474,2.474,0,0,1-2.45-2.24,2.5,2.5,0,0,1,2.2-2.75c3.873-.41,7.8-.85,11.767-1.3a2.5,2.5,0,0,1,.563,4.97q-5.972.69-11.816,1.31A2.558,2.558,0,0,1,23.592,259.9Zm23.573-2.7a2.5,2.5,0,0,1-.3-4.98q5.824-.72,11.757-1.48a2.5,2.5,0,0,1,.613,4.96q-5.943.765-11.786,1.48A2.584,2.584,0,0,1,47.165,257.2ZM70.7,254.18a2.5,2.5,0,0,1-.326-4.98q5.839-.78,11.747-1.59a2.5,2.5,0,0,1,.662,4.95c-3.942.54-7.874,1.07-11.767,1.59A1.616,1.616,0,0,1,70.7,254.18Zm23.5-3.22a2.5,2.5,0,0,1-.336-4.98q5.839-.825,11.747-1.66a2.5,2.5,0,0,1,.682,4.95q-5.9.84-11.757,1.66A1.827,1.827,0,0,1,94.2,250.96Zm23.494-3.34a2.476,2.476,0,0,1-2.44-2.15,2.506,2.506,0,0,1,2.094-2.83l11.717-1.69a2.5,2.5,0,0,1,.7,4.95l-11.717,1.69A2.134,2.134,0,0,1,117.7,247.62Zm23.444-3.39a2.505,2.505,0,0,1-.346-4.98l11.737-1.69a2.5,2.5,0,0,1,.7,4.95L141.5,244.2A2.134,2.134,0,0,1,141.14,244.23Zm23.484-3.37a2.5,2.5,0,0,1-.336-4.97q5.883-.84,11.757-1.66a2.5,2.5,0,0,1,.682,4.95q-5.869.825-11.757,1.66C164.851,240.85,164.733,240.86,164.624,240.86Zm23.523-3.3a2.5,2.5,0,0,1-.326-4.97c3.942-.54,7.864-1.08,11.8-1.6a2.5,2.5,0,0,1,.652,4.96q-5.869.78-11.777,1.6C188.375,237.55,188.256,237.56,188.148,237.56Zm23.543-3.16a2.5,2.5,0,0,1-.316-4.98q5.913-.765,11.777-1.5a2.5,2.5,0,0,1,.613,4.96q-5.854.735-11.757,1.5A1.628,1.628,0,0,1,211.691,234.4Zm23.543-2.93a2.5,2.5,0,0,1-.287-4.98q5.928-.705,11.806-1.36a2.5,2.5,0,0,1,.543,4.97q-5.854.66-11.767,1.36C235.432,231.46,235.333,231.47,235.234,231.47Zm171.777-.4a2.3,2.3,0,0,1-.682-.1c-2.015-.59-4.149-1.14-6.323-1.66a2.507,2.507,0,0,1-1.848-3,2.475,2.475,0,0,1,2.964-1.87c2.262.53,4.466,1.11,6.57,1.72a2.5,2.5,0,0,1,1.689,3.09A2.459,2.459,0,0,1,407.012,231.07Zm-148.195-2.24a2.5,2.5,0,0,1-.247-4.98q5.957-.615,11.826-1.18a2.5,2.5,0,0,1,.454,4.98q-5.839.555-11.786,1.17C258.985,228.82,258.906,228.83,258.817,228.83Zm130.115-1.74a2.729,2.729,0,0,1-.4-.03c-3.675-.59-7.588-1.11-11.618-1.54a2.5,2.5,0,0,1,.524-4.98c4.12.44,8.121.97,11.885,1.58a2.5,2.5,0,0,1-.4,4.97Zm-106.493-.5a2.5,2.5,0,0,1-.207-4.99c4.021-.34,8.012-.65,11.856-.93a2.5,2.5,0,0,1,.346,4.99c-3.833.28-7.8.59-11.8.92A1.247,1.247,0,0,1,282.439,226.59ZM306.1,224.9a2.5,2.5,0,0,1-.138-5c4.051-.23,8.052-.43,11.885-.59a2.5,2.5,0,0,1,.2,5c-3.814.16-7.785.35-11.806.59Zm59.268-.36h-.158c-3.754-.24-7.716-.42-11.757-.54a2.489,2.489,0,0,1-2.4-2.57,2.524,2.524,0,0,1,2.539-2.43c4.1.12,8.121.31,11.925.55a2.5,2.5,0,0,1-.148,4.99Zm-35.557-.6a2.5,2.5,0,0,1-.049-5c3.8-.08,7.558-.12,11.164-.12h.751a2.5,2.5,0,0,1,0,5h-.741c-3.576,0-7.291.04-11.065.12Z" transform="translate(2.498 -218.82)" fill="#ffcc65"/>
      </g>
      <g id="Group_106" data-name="Group 106" transform="translate(-2.497 78.093)">
        <path id="Path_148" data-name="Path 148" d="M-.03,159.81A2.462,2.462,0,0,1-2.4,158a2.5,2.5,0,0,1,1.689-3.09c3.7-1.08,7.558-2.17,11.451-3.25a2.468,2.468,0,0,1,3.033,1.75,2.505,2.505,0,0,1-1.729,3.07c-3.873,1.07-7.706,2.16-11.391,3.23A2.3,2.3,0,0,1-.03,159.81Zm22.881-6.34a2.5,2.5,0,0,1-.622-4.92q5.676-1.5,11.51-2.99a2.462,2.462,0,0,1,2.994,1.81,2.5,2.5,0,0,1-1.788,3.03q-5.809,1.485-11.47,2.98A2.231,2.231,0,0,1,22.851,153.47Zm23-5.86a2.5,2.5,0,0,1-.583-4.93c3.814-.94,7.667-1.86,11.559-2.79a2.461,2.461,0,0,1,2.964,1.86,2.5,2.5,0,0,1-1.838,3q-5.809,1.38-11.52,2.78A2.277,2.277,0,0,1,45.851,147.61Zm23.1-5.48a2.5,2.5,0,0,1-.543-4.94q5.75-1.32,11.589-2.62a2.5,2.5,0,0,1,1.057,4.89q-5.824,1.29-11.559,2.61A2.447,2.447,0,0,1,68.95,142.13Zm23.168-5.16a2.474,2.474,0,0,1-2.411-1.98,2.5,2.5,0,0,1,1.9-2.97q5.78-1.245,11.618-2.48a2.5,2.5,0,0,1,1.008,4.9q-5.839,1.23-11.589,2.47A1.874,1.874,0,0,1,92.117,136.97Zm23.227-4.89a2.478,2.478,0,0,1-2.421-2,2.51,2.51,0,0,1,1.927-2.95q5.794-1.185,11.638-2.36a2.5,2.5,0,0,1,.958,4.91q-5.839,1.17-11.618,2.36A2.567,2.567,0,0,1,115.344,132.08Zm23.276-4.66a2.506,2.506,0,0,1-.464-4.96q5.809-1.14,11.658-2.26a2.5,2.5,0,0,1,.919,4.91q-5.839,1.125-11.638,2.25A1.622,1.622,0,0,1,138.621,127.42Zm23.276-4.46a2.5,2.5,0,0,1-.454-4.95q5.809-1.1,11.658-2.16a2.5,2.5,0,0,1,.889,4.92q-5.824,1.065-11.638,2.16A3.585,3.585,0,0,1,161.9,122.96Zm23.306-4.28a2.5,2.5,0,0,1-.435-4.96q5.839-1.05,11.688-2.09a2.5,2.5,0,0,1,.85,4.92q-5.839,1.035-11.668,2.09A3.193,3.193,0,0,1,185.2,118.68Zm23.365-4.15a2.506,2.506,0,0,1-.415-4.97c3.9-.68,7.815-1.36,11.707-2.03a2.469,2.469,0,0,1,2.845,2.05,2.5,2.5,0,0,1-2.025,2.88q-5.854,1-11.7,2.02A1.431,1.431,0,0,1,208.569,114.53Zm23.425-4.02a2.505,2.505,0,0,1-.405-4.97q5.883-.99,11.737-1.97a2.469,2.469,0,0,1,2.835,2.06,2.5,2.5,0,0,1-2.035,2.87q-5.854.975-11.727,1.97A1.8,1.8,0,0,1,231.993,110.51Zm23.435-3.91a2.469,2.469,0,0,1-2.43-2.1,2.5,2.5,0,0,1,2.045-2.87q5.869-.96,11.717-1.91a2.461,2.461,0,0,1,2.826,2.07,2.489,2.489,0,0,1-2.045,2.86q-5.839.945-11.707,1.91A1.855,1.855,0,0,1,255.428,106.6Zm23.425-3.8a2.5,2.5,0,0,1-.385-4.97q5.883-.945,11.717-1.87a2.481,2.481,0,0,1,2.826,2.08,2.509,2.509,0,0,1-2.055,2.86q-5.839.93-11.717,1.87A2.5,2.5,0,0,1,278.853,102.8Zm23.435-3.72a2.5,2.5,0,0,1-.375-4.97q5.9-.93,11.727-1.83a2.473,2.473,0,0,1,2.816,2.09,2.5,2.5,0,0,1-2.065,2.85q-5.824.915-11.717,1.83A2.5,2.5,0,0,1,302.287,99.08Zm23.444-3.65a2.5,2.5,0,0,1-.375-4.97q5.9-.915,11.727-1.81a2.5,2.5,0,0,1,.741,4.95Q332,94.5,326.1,95.4A2.083,2.083,0,0,1,325.732,95.43Zm23.464-3.6a2.5,2.5,0,0,1-.366-4.97l11.737-1.78a2.5,2.5,0,0,1,.731,4.94L349.571,91.8A2.472,2.472,0,0,1,349.2,91.83Zm23.454-3.56a2.5,2.5,0,0,1-.366-4.97l11.737-1.77a2.473,2.473,0,0,1,2.806,2.1,2.5,2.5,0,0,1-2.075,2.84l-11.727,1.77A2.375,2.375,0,0,1,372.65,88.27Zm23.464-3.54a2.5,2.5,0,0,1-.366-4.97l10.887-1.64a2.5,2.5,0,0,1,.731,4.94L396.48,84.7A2.166,2.166,0,0,1,396.114,84.73Z" transform="translate(2.497 -78.093)" fill="#ffcc65"/>
      </g>
      <g id="Group_107" data-name="Group 107" transform="translate(-0.773 -2.503)">
        <path id="Path_149" data-name="Path 149" d="M407.012,50.6h-.04l-6.2-.12a2.488,2.488,0,0,1-2.42-2.55,2.517,2.517,0,0,1,2.519-2.45l6.194.12a2.5,2.5,0,0,1-.049,5Zm-18.049-.37H388.9c-3.981-.09-7.943-.2-11.855-.3a2.5,2.5,0,0,1,.138-5q5.868.165,11.845.3a2.5,2.5,0,0,1-.069,5Zm-23.7-.65h-.079q-5.987-.2-11.855-.4a2.5,2.5,0,0,1,.178-5q5.868.21,11.835.4a2.5,2.5,0,0,1-.079,5Zm-23.69-.85h-.1q-5.987-.24-11.855-.5a2.5,2.5,0,0,1,.217-5q5.868.255,11.835.5a2.5,2.5,0,0,1-.1,5Zm-23.69-1.05h-.119q-5.987-.3-11.845-.61a2.5,2.5,0,0,1,.267-4.99q5.853.315,11.825.61a2.5,2.5,0,0,1-.128,4.99Zm-23.67-1.27h-.148q-5.987-.345-11.845-.72a2.5,2.5,0,0,1,.306-4.99q5.853.375,11.815.72a2.5,2.5,0,0,1-.128,4.99ZM270.551,44.9a.948.948,0,0,1-.168-.01q-5.987-.405-11.835-.85a2.5,2.5,0,0,1,.366-4.99q5.839.435,11.815.84a2.509,2.509,0,0,1-.178,5.01ZM246.91,43.15a1.308,1.308,0,0,1-.2-.01q-5.987-.48-11.825-.98a2.5,2.5,0,0,1,.415-4.98c3.883.33,7.824.66,11.8.98a2.5,2.5,0,0,1-.188,4.99Zm-23.621-2.02a1.728,1.728,0,0,1-.227-.01q-5.987-.555-11.815-1.12a2.5,2.5,0,0,1,.474-4.98q5.824.57,11.786,1.12a2.5,2.5,0,0,1-.217,4.99Zm-23.6-2.31a2.206,2.206,0,0,1-.257-.01q-5.987-.63-11.806-1.27a2.5,2.5,0,0,1-2.183-2.76,2.468,2.468,0,0,1,2.727-2.21q5.809.645,11.766,1.27a2.5,2.5,0,0,1-.247,4.98ZM176.126,36.2a2.757,2.757,0,0,1-.286-.02q-5.987-.705-11.786-1.44a2.493,2.493,0,0,1-2.144-2.79,2.468,2.468,0,0,1,2.756-2.17c3.853.49,7.775.96,11.746,1.44a2.5,2.5,0,0,1-.286,4.98ZM152.6,33.23c-.109,0-.217-.01-.326-.02-3.991-.53-7.9-1.07-11.766-1.62a2.5,2.5,0,0,1-2.1-2.82,2.47,2.47,0,0,1,2.786-2.13c3.843.55,7.755,1.08,11.727,1.62a2.5,2.5,0,0,1,2.124,2.81A2.47,2.47,0,0,1,152.6,33.23ZM129.121,29.9a2.253,2.253,0,0,1-.366-.03q-5.972-.9-11.736-1.82a2.509,2.509,0,0,1-2.055-2.86,2.473,2.473,0,0,1,2.825-2.08q5.735.915,11.7,1.82a2.5,2.5,0,0,1-.366,4.97Zm-23.414-3.75a1.945,1.945,0,0,1-.415-.04q-5.972-1.02-11.707-2.05a2.5,2.5,0,0,1,.869-4.92q5.705,1.035,11.657,2.04a2.505,2.505,0,0,1-.405,4.97ZM82.373,21.94a2.5,2.5,0,0,1-.464-.04c-3.922-.75-7.844-1.53-11.657-2.3a2.5,2.5,0,0,1-1.936-2.94,2.474,2.474,0,0,1,2.9-1.96c3.794.77,7.706,1.54,11.608,2.29a2.5,2.5,0,0,1-.454,4.95ZM59.137,17.2a2.252,2.252,0,0,1-.514-.06c-3.892-.84-7.8-1.72-11.608-2.59a2.5,2.5,0,0,1,1.1-4.87c3.784.87,7.666,1.74,11.539,2.58a2.5,2.5,0,0,1,1.9,2.97A2.475,2.475,0,0,1,59.137,17.2ZM36.03,11.87a2.323,2.323,0,0,1-.583-.07c-3.922-.97-7.795-1.95-11.539-2.94A2.5,2.5,0,0,1,22.14,5.81a2.463,2.463,0,0,1,3.013-1.79c3.715.98,7.567,1.96,11.46,2.91a2.509,2.509,0,0,1-.583,4.94ZM13.09,5.83a2.513,2.513,0,0,1-.662-.09C8.556,4.65,4.7,3.52.988,2.4A2.52,2.52,0,0,1-.671-.72,2.474,2.474,0,0,1,2.4-2.4C6.086-1.28,9.9-.17,13.742.91a2.507,2.507,0,0,1,1.719,3.08A2.469,2.469,0,0,1,13.09,5.83Z" transform="translate(0.773 2.503)" fill="#ffcc65"/>
      </g>
    </g>
    <g id="Button" transform="translate(85 770)">
      <rect id="Rectangle_98" data-name="Rectangle 98" width="240" height="70" rx="10" transform="translate(1 2)" fill="rgba(0,62,119,0.55)"/>
      <rect id="Rectangle_4" data-name="Rectangle 4" width="242" height="70" rx="10" fill="#a4c0d9"/>
      <text id="Finish" transform="translate(121 42)" fill="#0b0907" font-size="20" font-family="Raleway" font-weight="600"><tspan x="-27.48" y="0">Finish</tspan></text>
    </g>
    <g id="Vacation" transform="translate(189 -37)">
      <g id="Component_14_5" data-name="Component 14 – 5" transform="translate(22 286)">
        <rect id="Rectangle_18" data-name="Rectangle 18" width="175" height="156" rx="10" transform="translate(2 4)" fill="rgba(177,177,177,0.38)"/>
        <rect id="Rectangle_83" data-name="Rectangle 83" width="179" height="156" rx="10" fill="#fff"/>
      </g>
      <g id="Group_115" data-name="Group 115" transform="translate(4.269 -2)">
        <text id="_0.00" data-name="$ 0.00" transform="translate(27.731 424)" fill="#0b0907" font-size="16" font-family="Raleway"><tspan x="0" y="0">$ 0.00</tspan></text>
        <text id="month" transform="translate(186.731 424)" fill="#0b0907" font-size="16" font-family="Raleway"><tspan x="-48.16" y="0">month</tspan></text>
      </g>
      <text id="Vacation-2" data-name="Vacation" transform="translate(112 384)" fill="#0b0907" font-size="16" font-family="Raleway"><tspan x="-31.944" y="0">Vacation</tspan></text>
      <g id="Vacation-3" data-name="Vacation" transform="translate(73.29 268.931)">
        <path id="Path_156" data-name="Path 156" d="M74.21,324.857v2.133a4.16,4.16,0,0,1-4.174,4.148H6.384A4.16,4.16,0,0,1,2.21,326.99v-2.134A21.943,21.943,0,0,1,24.22,302.98H36.793a58.4,58.4,0,0,1-4.407,7.917.834.834,0,0,0,.707,1.282h8.385a4.18,4.18,0,0,0,4.076-3.213c.459-1.964.84-3.966,1.168-5.986H52.2A21.945,21.945,0,0,1,74.21,324.857Z" transform="translate(0 -236.1)" fill="none" stroke="#0b0907" stroke-miterlimit="10" stroke-width="2"/>
        <path id="Path_157" data-name="Path 157" d="M224.91,121.411c-.407,3.628-.829,7.342-1.425,11-.328,2.02-.709,4.023-1.168,5.986a4.18,4.18,0,0,1-4.076,3.213h-8.385a.834.834,0,0,1-.707-1.282,58.409,58.409,0,0,0,4.407-7.917,89.829,89.829,0,0,0,3.886-11.264,59.809,59.809,0,0,0,2.2-10.985,34.722,34.722,0,0,0,5.189-6.535l.08.02C225.36,112.554,225.615,115.15,224.91,121.411Z" transform="translate(-176.763 -65.533)" fill="none" stroke="#0b0907" stroke-miterlimit="10" stroke-width="2"/>
        <path id="Path_158" data-name="Path 158" d="M176.925,40.839a10.816,10.816,0,0,0-3.4-2.134.157.157,0,0,0-.192.214,7.71,7.71,0,0,1,.54,1.691.159.159,0,0,1-.164.189,48.457,48.457,0,0,1-13.283-2.71h0a34.719,34.719,0,0,1-5.195,6.544A30.807,30.807,0,0,1,150,48.777a24.367,24.367,0,0,1-4.615,2.291.633.633,0,0,1-.845-.539c-.545-6.422.751-10.4,2.721-12.855a47.1,47.1,0,0,1-4.991-.6,8.71,8.71,0,0,1-1.241-2.788.2.2,0,0,0-.366-.038,2.878,2.878,0,0,0-.212,2.177.2.2,0,0,1-.234.241,36.578,36.578,0,0,1-6.173-1.922.628.628,0,0,1-.2-1.028c13.012-12.767,23.293-3.685,25.277-1.672,2.841-1.737,14.494-7.525,24.041,7.365a.629.629,0,0,1-.423.957,35.6,35.6,0,0,1-5.709.5A.156.156,0,0,1,176.925,40.839Z" transform="translate(-112.352)" fill="none" stroke="#0b0907" stroke-miterlimit="10" stroke-width="2"/>
      </g>
    </g>
    <g id="Savings" transform="translate(0 -37)">
      <g id="Component_14_4" data-name="Component 14 – 4" transform="translate(22 286)">
        <rect id="Rectangle_18-2" data-name="Rectangle 18" width="175" height="156" rx="10" transform="translate(2 4)" fill="rgba(177,177,177,0.38)"/>
        <rect id="Rectangle_83-2" data-name="Rectangle 83" width="179" height="156" rx="10" fill="#fff"/>
      </g>
      <g id="Group_114" data-name="Group 114" transform="translate(4.269 -2)">
        <text id="_0.00-2" data-name="$ 0.00" transform="translate(27.731 424)" fill="#0b0907" font-size="16" font-family="Raleway"><tspan x="0" y="0">$ 0.00</tspan></text>
        <text id="month-2" data-name="month" transform="translate(186.731 424)" fill="#0b0907" font-size="16" font-family="Raleway"><tspan x="-48.16" y="0">month</tspan></text>
      </g>
      <text id="Savings-2" data-name="Savings" transform="translate(112 384)" fill="#0b0907" font-size="16" font-family="Raleway"><tspan x="-28.568" y="0">Savings</tspan></text>
      <g id="Savings-3" data-name="Savings" transform="translate(64.838 254.788)">
        <path id="Path_159" data-name="Path 159" d="M79.724,103.136a2.417,2.417,0,0,1-.8,3.253L75.08,108.81a2.411,2.411,0,0,1-3.278-.682l-6.044-7.6A1.857,1.857,0,0,0,63.7,99.92a43.536,43.536,0,0,1-28.194-.047,1.856,1.856,0,0,0-2.064.6l-6.083,7.651a2.411,2.411,0,0,1-3.278.682l-3.843-2.421a2.416,2.416,0,0,1-.8-3.253l3.922-8.42a1.864,1.864,0,0,0-.437-2.172,29.314,29.314,0,0,1-8.227-12.021l-5.433-.469A2.353,2.353,0,0,1,7.11,77.706V65.743a2.357,2.357,0,0,1,2.02-2.335l5.808-.536a28.5,28.5,0,0,1,5.086-8.413l0-12.57a.707.707,0,0,1,1.164-.539L28.4,47.494a41.524,41.524,0,0,1,21.273-5.679c20.123,0,36.436,13.527,36.436,30.212,0,7.973-3.724,15.224-9.809,20.622a1.861,1.861,0,0,0-.444,2.177Z" transform="translate(0)" fill="none" stroke="#0b0907" stroke-miterlimit="10" stroke-width="2"/>
        <path id="Path_160" data-name="Path 160" d="M193.092,63.882c-.252.1,12.84-5.114,24.333,0" transform="translate(-155.736 -17.119)" fill="none" stroke="#000" stroke-linecap="round" stroke-miterlimit="10" stroke-width="2"/>
        <text id="_" data-name="$" transform="translate(44.521 78.769)" fill="#0b0907" font-size="26" font-family="Chicle-Regular, Chicle"><tspan x="0" y="0">$</tspan></text>
      </g>
    </g>
    <g id="Big_Purchase" data-name="Big Purchase" transform="translate(188 138)">
      <g id="Component_14_7" data-name="Component 14 – 7" transform="translate(23 286)">
        <rect id="Rectangle_18-3" data-name="Rectangle 18" width="175" height="156" rx="10" transform="translate(2 4)" fill="rgba(177,177,177,0.38)"/>
        <rect id="Rectangle_83-3" data-name="Rectangle 83" width="179" height="156" rx="10" fill="#fff"/>
      </g>
      <g id="Group_117" data-name="Group 117" transform="translate(5.269 -2)">
        <text id="_0.00-3" data-name="$ 0.00" transform="translate(27.731 424)" fill="#0b0907" font-size="16" font-family="Raleway"><tspan x="0" y="0">$ 0.00</tspan></text>
        <text id="month-3" data-name="month" transform="translate(186.731 424)" fill="#0b0907" font-size="16" font-family="Raleway"><tspan x="-48.16" y="0">month</tspan></text>
      </g>
      <text id="Big_Purchase-2" data-name="Big Purchase" transform="translate(112 384)" fill="#0b0907" font-size="16" font-family="Raleway"><tspan x="-48.44" y="0">Big Purchase</tspan></text>
      <g id="Big_Purchase-3" data-name="Big Purchase" transform="translate(60.423 208.34)">
        <path id="Path_161" data-name="Path 161" d="M123.02,161.162H61.512a4.071,4.071,0,0,1-4.072-4.072V118.912a4.071,4.071,0,0,1,4.072-4.072h73.941A3.342,3.342,0,0,1,138.692,119l-11.725,39.089A4.075,4.075,0,0,1,123.02,161.162Z" transform="translate(-42.213 -22.12)" fill="none" stroke="#000" stroke-linecap="round" stroke-miterlimit="10" stroke-width="2"/>
        <path id="Path_162" data-name="Path 162" d="M122.66,353.515h-60.9c-3.707,0-4.319-2.318-4.319-5.176V341.78" transform="translate(-42.213 -206.809)" fill="none" stroke="#000" stroke-linecap="round" stroke-miterlimit="10" stroke-width="2"/>
        <path id="Path_163" data-name="Path 163" d="M5.57,253.15" transform="translate(0 -134.68)" fill="none" stroke="#000" stroke-linecap="round" stroke-miterlimit="10" stroke-width="2"/>
        <path id="Path_164" data-name="Path 164" d="M5.57,87.66h6.5a3.156,3.156,0,0,1,3.156,3.156V118.47" transform="translate(0)" fill="none" stroke="#000" stroke-linecap="round" stroke-miterlimit="10" stroke-width="2"/>
        <circle id="Ellipse_16" data-name="Ellipse 16" cx="4.196" cy="4.196" r="4.196" transform="translate(72.055 147.267)" fill="none" stroke="#000" stroke-linecap="round" stroke-miterlimit="10" stroke-width="2"/>
        <circle id="Ellipse_17" data-name="Ellipse 17" cx="4.196" cy="4.196" r="4.196" transform="translate(20.399 147.267)" fill="none" stroke="#000" stroke-linecap="round" stroke-miterlimit="10" stroke-width="2"/>
      </g>
    </g>
    <g id="Education" transform="translate(0 138)">
      <g id="Component_14_6" data-name="Component 14 – 6" transform="translate(22 286)">
        <rect id="Rectangle_18-4" data-name="Rectangle 18" width="175" height="156" rx="10" transform="translate(2 4)" fill="rgba(177,177,177,0.38)"/>
        <rect id="Rectangle_83-4" data-name="Rectangle 83" width="179" height="156" rx="10" fill="#fff"/>
      </g>
      <g id="Group_116" data-name="Group 116" transform="translate(4.269 -2)">
        <text id="_0.00-4" data-name="$ 0.00" transform="translate(27.731 424)" fill="#0b0907" font-size="16" font-family="Raleway"><tspan x="0" y="0">$ 0.00</tspan></text>
        <text id="month-4" data-name="month" transform="translate(186.731 424)" fill="#0b0907" font-size="16" font-family="Raleway"><tspan x="-48.16" y="0">month</tspan></text>
      </g>
      <text id="Education-2" data-name="Education" transform="translate(112 384)" fill="#0b0907" font-size="16" font-family="Raleway"><tspan x="-37.048" y="0">Education</tspan></text>
      <g id="Education-3" data-name="Education" transform="translate(50.794 164.14)">
        <path id="Path_150" data-name="Path 150" d="M182.744,336.937H141.118a5.278,5.278,0,0,1-5.241-5.569l1.059-21.218,22.24,10.328a6.637,6.637,0,0,0,5.6,0l22.147-10.284,1.057,21.174A5.278,5.278,0,0,1,182.744,336.937Z" transform="translate(-100.773 -137.077)" fill="none" stroke="#0b0907" stroke-miterlimit="10" stroke-width="2"/>
        <path id="Path_151" data-name="Path 151" d="M116.139,159.195,86.155,173.117,64.008,183.4a6.637,6.637,0,0,1-5.6,0l-22.24-10.328L6.273,159.195a1.861,1.861,0,0,1,.023-3.377l52.192-23.375a6.631,6.631,0,0,1,5.435,0l52.192,23.375A1.861,1.861,0,0,1,116.139,159.195Z" transform="translate(0 0)" fill="none" stroke="#0b0907" stroke-miterlimit="10" stroke-width="2"/>
        <path id="Path_152" data-name="Path 152" d="M241.6,217.157a11.827,11.827,0,0,1-5.63,0,.51.51,0,0,1-.51-.515h0a3.344,3.344,0,0,1,3.326-3.361h0a3.344,3.344,0,0,1,3.326,3.361h0A.514.514,0,0,1,241.6,217.157Z" transform="translate(-177.58 -62.599)" fill="none" stroke="#0b0907" stroke-miterlimit="10" stroke-width="2"/>
        <path id="Path_153" data-name="Path 153" d="M263.31,229.32l32.37,13.87s.917.647.828,9.061" transform="translate(-199.059 -74.931)" fill="none" stroke="#0b0907" stroke-miterlimit="10" stroke-width="2"/>
        <path id="Path_154" data-name="Path 154" d="M404.711,328.937a1.6,1.6,0,0,1-.576,1.234,1.574,1.574,0,0,1-2.011,0,1.607,1.607,0,0,1-.574-1.234,1.59,1.59,0,0,1,1.576-1.6h0A1.591,1.591,0,0,1,404.711,328.937Z" transform="translate(-305.675 -150.293)" fill="none" stroke="#0b0907" stroke-miterlimit="10" stroke-width="2"/>
        <path id="Path_155" data-name="Path 155" d="M403.717,353.631a.8.8,0,0,1-.789.89h-2.4a.8.8,0,0,1-.789-.89l.986-14.041a1.574,1.574,0,0,0,2.011,0Z" transform="translate(-304.271 -159.711)" fill="none" stroke="#0b0907" stroke-miterlimit="10" stroke-width="2"/>
      </g>
    </g>
    <g id="Other" transform="translate(187 313)">
      <g id="Component_14_9" data-name="Component 14 – 9" transform="translate(24 286)">
        <rect id="Rectangle_18-5" data-name="Rectangle 18" width="175" height="156" rx="10" transform="translate(2 4)" fill="rgba(177,177,177,0.38)"/>
        <rect id="Rectangle_83-5" data-name="Rectangle 83" width="179" height="156" rx="10" fill="#fff"/>
      </g>
      <text id="Other-2" data-name="Other" transform="translate(112 384)" fill="#0b0907" font-size="16" font-family="Raleway"><tspan x="-20.856" y="0">Other</tspan></text>
      <g id="Other-3" data-name="Other" transform="translate(75.45 292.45)">
        <circle id="Ellipse_18" data-name="Ellipse 18" cx="34" cy="34" r="34" transform="translate(3.55 3.55)" fill="none" stroke="#000" stroke-miterlimit="10" stroke-width="2"/>
        <circle id="Ellipse_19" data-name="Ellipse 19" cx="5.292" cy="5.292" r="5.292" transform="translate(32.258 32.258)" fill="none" stroke="#000" stroke-miterlimit="10" stroke-width="2"/>
        <circle id="Ellipse_20" data-name="Ellipse 20" cx="5.292" cy="5.292" r="5.292" transform="translate(50.83 32.258)" fill="none" stroke="#000" stroke-miterlimit="10" stroke-width="2"/>
        <circle id="Ellipse_21" data-name="Ellipse 21" cx="5.292" cy="5.292" r="5.292" transform="translate(13.686 32.258)" fill="none" stroke="#000" stroke-miterlimit="10" stroke-width="2"/>
      </g>
      <g id="Group_120" data-name="Group 120" transform="translate(6.269 -2)">
        <text id="_0.00-5" data-name="$ 0.00" transform="translate(27.731 424)" fill="#0b0907" font-size="16" font-family="Raleway"><tspan x="0" y="0">$ 0.00</tspan></text>
        <text id="month-5" data-name="month" transform="translate(186.731 424)" fill="#0b0907" font-size="16" font-family="Raleway"><tspan x="-48.16" y="0">month</tspan></text>
      </g>
    </g>
    <g id="Reduce_Debt" data-name="Reduce Debt" transform="translate(0 313)">
      <g id="Component_14_8" data-name="Component 14 – 8" transform="translate(22 286)">
        <rect id="Rectangle_18-6" data-name="Rectangle 18" width="175" height="156" rx="10" transform="translate(2 4)" fill="rgba(177,177,177,0.38)"/>
        <rect id="Rectangle_83-6" data-name="Rectangle 83" width="179" height="156" rx="10" fill="#fff"/>
      </g>
      <g id="Group_119" data-name="Group 119" transform="translate(4.269 -2)">
        <text id="_0.00-6" data-name="$ 0.00" transform="translate(27.731 424)" fill="#0b0907" font-size="16" font-family="Raleway"><tspan x="0" y="0">$ 0.00</tspan></text>
        <text id="month-6" data-name="month" transform="translate(186.731 424)" fill="#0b0907" font-size="16" font-family="Raleway"><tspan x="-48.16" y="0">month</tspan></text>
      </g>
      <text id="Reduce_Debt-2" data-name="Reduce Debt" transform="translate(112 384)" fill="#0b0907" font-size="16" font-family="Raleway"><tspan x="-48.576" y="0">Reduce Debt</tspan></text>
      <g id="Reduce_Debt-3" data-name="Reduce Debt" transform="translate(69.23 288.91)">
        <path id="Path_175" data-name="Path 175" d="M8.27,7.09v68h68" fill="none" stroke="#000" stroke-linecap="round" stroke-miterlimit="10" stroke-width="2"/>
        <g id="Group_118" data-name="Group 118" transform="translate(14.075 14.274)">
          <path id="Path_176" data-name="Path 176" d="M31.978,118.936H28.05V60.07a1.957,1.957,0,0,1,1.964-1.95h0a1.957,1.957,0,0,1,1.964,1.95Z" transform="translate(-28.05 -58.12)" fill="none" stroke="#000" stroke-linecap="round" stroke-miterlimit="10" stroke-width="2"/>
          <path id="Path_178" data-name="Path 178" d="M122.528,192.812H118.6V146.05a1.957,1.957,0,0,1,1.964-1.95h0a1.957,1.957,0,0,1,1.964,1.95Z" transform="translate(-105.758 -131.996)" fill="none" stroke="#000" stroke-linecap="round" stroke-miterlimit="10" stroke-width="2"/>
          <path id="Path_180" data-name="Path 180" d="M213.087,266.679H209.16V232.02a1.957,1.957,0,0,1,1.964-1.95h0a1.957,1.957,0,0,1,1.964,1.95v34.66Z" transform="translate(-183.475 -205.863)" fill="none" stroke="#000" stroke-linecap="round" stroke-miterlimit="10" stroke-width="2"/>
          <path id="Path_182" data-name="Path 182" d="M303.628,340.555H299.7V318a1.957,1.957,0,0,1,1.964-1.95h0a1.957,1.957,0,0,1,1.964,1.95Z" transform="translate(-261.175 -279.739)" fill="none" stroke="#000" stroke-linecap="round" stroke-miterlimit="10" stroke-width="2"/>
          <path id="Path_184" data-name="Path 184" d="M394.187,414.431H390.26V403.98a1.957,1.957,0,0,1,1.964-1.95h0a1.957,1.957,0,0,1,1.964,1.95v10.451Z" transform="translate(-338.891 -353.615)" fill="none" stroke="#000" stroke-linecap="round" stroke-miterlimit="10" stroke-width="2"/>
        </g>
        <line id="Line_32" data-name="Line 32" x2="53.117" y2="46.979" transform="translate(21.047 12.158)" fill="none" stroke="#000" stroke-linecap="round" stroke-miterlimit="10" stroke-width="2"/>
        <path id="Path_186" data-name="Path 186" d="M409.736,335.19l.379,6.966-6.995.376" transform="translate(-335.852 -282.911)" fill="none" stroke="#000" stroke-linecap="round" stroke-miterlimit="10" stroke-width="2"/>
        <text id="_2" data-name="$" transform="translate(54.91 32.158)" font-size="22" font-family="Chicle-Regular, Chicle"><tspan x="0" y="0">$</tspan></text>
      </g>
    </g>
    <text id="You_have_about_XXX_extra_per_month_How_would_you_like_to_save_it_" data-name="You have about $XXX extra per month! 
How would you like to save it?" transform="translate(22 210)" fill="#0b0907" font-size="20" font-family="Raleway" font-weight="600"><tspan x="0" y="0">You have about $XXX extra per month! </tspan><tspan x="0" y="24">How would you like to save it?</tspan></text>
    <text id="Cache_your_saved_money" data-name="Cache your saved money" transform="translate(53 131)" fill="#0b0907" font-size="24" font-family="Raleway" font-weight="700"><tspan x="0" y="0">Cache your saved money</tspan></text>
    <g id="Back" transform="translate(0 -0.37)">
      <path id="Path_5" data-name="Path 5" d="M524,105l-10,9,10,9" transform="translate(-492 9.37)" fill="none" stroke="#707070" stroke-linecap="round" stroke-linejoin="round" stroke-width="1"/>
      <path id="Path_6" data-name="Path 6" d="M514,123.37h21" transform="translate(-492)" fill="none" stroke="#707070" stroke-linecap="round" stroke-width="1"/>
    </g>
    <g id="Logo" transform="translate(23.357 22.485)">
      <path id="Path_561" data-name="Path 561" d="M27.671-11.658a12.777,12.777,0,0,1-3.618,9.447,12.777,12.777,0,0,1-9.447,3.618q-6.231,0-9.38-4.221a21.274,21.274,0,0,1-3.819-8.844,52.65,52.65,0,0,1-.737-7.7q0-2.948.234-5.9t.837-6.533a32.767,32.767,0,0,1,1.776-6.566,31.03,31.03,0,0,1,2.848-5.561,12.117,12.117,0,0,1,4.322-4.053,10.683,10.683,0,0,1,5.226-1.474,15.013,15.013,0,0,1,3.752.335,7.1,7.1,0,0,0,1.675.335,4.829,4.829,0,0,0,1.675-.536,6.912,6.912,0,0,1,2.881-.536q1.708,0,1.708,1.407,0,.067-.536,2.914a31.444,31.444,0,0,0-.536,5.829,9.468,9.468,0,0,0,.536,3.953A3.829,3.829,0,0,1,27.6-33.9a2.915,2.915,0,0,1-1.541,2.613,6.325,6.325,0,0,1-3.35.938q-4.69,0-4.69-4.824a14.058,14.058,0,0,1,.4-2.881,14.446,14.446,0,0,0,.4-2.345q0-1.407-1.541-1.407-2.144,0-4.288,3.886-2.479,4.489-2.479,13.132a25.509,25.509,0,0,0,.8,6.7q1.541,5.561,5.092,5.561,3.082,0,4.757-3.35a2.539,2.539,0,0,1,2.479-1.608,3.324,3.324,0,0,1,2.881,1.943A7.627,7.627,0,0,1,27.671-11.658Zm9.581.8q0,2.814,2.01,2.814a3.7,3.7,0,0,0,3.25-2.077A7.416,7.416,0,0,0,43.751-13.8q0-3.015-2.144-3.015a3.6,3.6,0,0,0-3.149,1.943A7.523,7.523,0,0,0,37.252-10.854Zm14.4-10.653-.2,9.313q0,5.561,1.407,6.432a2.1,2.1,0,0,1,.871,1.742q0,1.943-2.579,3.618A9.557,9.557,0,0,1,45.9,1.273,3.04,3.04,0,0,1,43.885.7a1.628,1.628,0,0,1-.67-1.24q0-1.809-.469-1.809a5.666,5.666,0,0,0-.838.77A9.1,9.1,0,0,1,39.631-.034a8.361,8.361,0,0,1-3.819.771A7.4,7.4,0,0,1,31.725-.4,5.894,5.894,0,0,1,29.279-3.35a15.217,15.217,0,0,1-1.206-5.628,14.591,14.591,0,0,1,.8-4.891,11.485,11.485,0,0,1,2.01-3.685A14.5,14.5,0,0,1,33.7-20.067a13.339,13.339,0,0,1,3.015-1.608,25.09,25.09,0,0,1,2.881-.837,18.1,18.1,0,0,1,2.881-.4l.67-.871q-.067-2.278-3.317-2.278a10.059,10.059,0,0,0-5.326,1.273,2.882,2.882,0,0,1-1.608.536q-1.608,0-1.608-2.412,0-6.231,9.916-6.231,7.638,0,9.581,5.092A18.2,18.2,0,0,1,51.657-21.507ZM74.37-12.73q3.618,0,3.618,4.422a10.171,10.171,0,0,1-1.139,4.657A8.859,8.859,0,0,1,74.471-.7,9.787,9.787,0,0,1,71.288.8a18.981,18.981,0,0,1-5.427.737A10.264,10.264,0,0,1,60.535.134a9.533,9.533,0,0,1-3.651-3.819,23.211,23.211,0,0,1-2.412-10.988,24.012,24.012,0,0,1,3.149-12.4,11.4,11.4,0,0,1,4.321-4.355,12.958,12.958,0,0,1,6.6-1.608,10.793,10.793,0,0,1,6.533,1.977q2.713,1.977,2.714,6.131,0,4.958-4.489,4.958a2.49,2.49,0,0,1-1.91-.838,2.5,2.5,0,0,1-.771-1.675,8.281,8.281,0,0,0-.1-1.407,4.234,4.234,0,0,0-.8-1.541,2.117,2.117,0,0,0-1.775-.971q-4.221,0-4.221,8.442a26.972,26.972,0,0,0,.469,5.025q1,4.69,3.752,4.69a2.8,2.8,0,0,0,2.814-2.144,2.68,2.68,0,0,1,1.273-1.642A4.188,4.188,0,0,1,74.37-12.73Zm14.4-18.157.067,1.742q.134.469.4.469a.772.772,0,0,0,.536-.268,7.843,7.843,0,0,1,2.881-2.446A7.952,7.952,0,0,1,96.48-32.5a4.731,4.731,0,0,1,4.188,2.144,11.676,11.676,0,0,1,1.842,4.891q.4,4.69.4,7.872t-.134,5.863q0,4.757,2.144,6.1a1.749,1.749,0,0,1,1.072,1.508,2.994,2.994,0,0,1-.469,1.641A7.218,7.218,0,0,1,102.342.067a10.392,10.392,0,0,1-3.651,1.005l-1.541.134A3.053,3.053,0,0,1,94.47.067a6.494,6.494,0,0,1-.67-3.35l.6-11.524q.067-.871.067-2.278,0-5.494-2.479-5.494A2.779,2.779,0,0,0,89.479-20.7a10.6,10.6,0,0,0-1,4.188q-.1,2.312-.1,5.059l.4,8.308A3.727,3.727,0,0,1,87.234.134a9.886,9.886,0,0,1-5.729,1.608q-3.384,0-3.383-2.211l.2-1.206q2.144-10.385,2.144-27.6.067-2.412.067-5.326t-.1-3.953a4.173,4.173,0,0,0-.637-1.876,5.233,5.233,0,0,0-1.541-1.507,1.927,1.927,0,0,1-.871-1.541q0-2.278,3.752-4.288a13.812,13.812,0,0,1,5.963-2.01q2.479,0,2.479,3.752,0,2.747-.4,7.772T88.775-30.887Zm26.4,10.787a.909.909,0,0,0,.268.67.825.825,0,0,0,.67.335,5.512,5.512,0,0,0,5.092-3.618,6.183,6.183,0,0,0,.469-1.742Q121.6-26.8,119.8-26.8a3.468,3.468,0,0,0-3.183,2.01A12.99,12.99,0,0,0,115.173-20.1Zm4.59-12.864a10,10,0,0,1,6.968,2.278q2.513,2.278,2.512,6.9a9.484,9.484,0,0,1-3.651,7.638,13.987,13.987,0,0,1-9.213,3.015.711.711,0,0,0-.8.8,3.8,3.8,0,0,0,1.173,2.781,4.346,4.346,0,0,0,3.216,1.173,4.828,4.828,0,0,0,3.685-1.876q1.642-1.876,2.881-1.876a2.286,2.286,0,0,1,1.976,1.072,5.347,5.347,0,0,1,.737,3.049,8.893,8.893,0,0,1-.971,3.953,8.1,8.1,0,0,1-2.312,2.982A11.456,11.456,0,0,1,122.945.536a14.736,14.736,0,0,1-5.259.938,10.521,10.521,0,0,1-5.193-1.34,9.747,9.747,0,0,1-3.752-3.618,19.907,19.907,0,0,1-2.613-10.084,30.942,30.942,0,0,1,1.34-9.615,15.473,15.473,0,0,1,4.59-6.934A11.307,11.307,0,0,1,119.762-32.964Z" transform="translate(-1.357 60.515)" fill="#fbab36"/>
    </g>
    <g id="Top_Bar" data-name="Top Bar">
      <rect id="Rectangle" width="412" height="24" fill="#a4c0d9"/>
      <path id="Mask" d="M34,0H46L40,10ZM18,5a5,5,0,1,1,5,5A5,5,0,0,1,18,5ZM0,10V0H10V10Z" transform="translate(358 7)" fill="rgba(255,255,255,0.38)"/>
    </g>
  </g>
</svg>
