<svg xmlns="http://www.w3.org/2000/svg" xmlns:xlink="http://www.w3.org/1999/xlink" width="412" height="870" viewBox="0 0 412 870">
  <defs>
    <clipPath id="clip-_7-Setup_Complete">
      <rect width="412" height="870"/>
    </clipPath>
  </defs>
  <g id="_7-Setup_Complete" data-name="7-Setup Complete" clip-path="url(#clip-_7-Setup_Complete)">
    <rect width="412" height="870" fill="#fff"/>
    <g id="App_BG" data-name="App BG" transform="translate(2.507 2.503)" opacity="0.2">
      <g id="Group_100" data-name="Group 100" transform="translate(-2.464 827.477)">
        <path id="Path_142" data-name="Path 142" d="M.01,872.16A2.492,2.492,0,0,1-2.4,870.21a2.494,2.494,0,0,1,1.857-2.99c3.695-.85,7.637-1.68,11.707-2.46a2.465,2.465,0,0,1,2.885,1.99,2.491,2.491,0,0,1-1.966,2.92c-4.021.77-7.894,1.58-11.53,2.42A2.022,2.022,0,0,1,.01,872.16Zm23.306-4.5a2.5,2.5,0,0,1-.4-4.96c3.754-.61,7.726-1.2,11.8-1.77a2.5,2.5,0,0,1,.672,4.96c-4.031.56-7.963,1.15-11.688,1.75C23.583,867.65,23.444,867.66,23.316,867.66Zm23.514-3.28a2.506,2.506,0,0,1-.287-4.99c3.823-.46,7.8-.91,11.836-1.33a2.465,2.465,0,0,1,2.707,2.23,2.494,2.494,0,0,1-2.2,2.74c-4,.42-7.963.86-11.757,1.32A.994.994,0,0,1,46.829,864.38Zm23.6-2.48a2.5,2.5,0,0,1-.227-4.99q5.854-.54,11.846-1.02a2.5,2.5,0,0,1,.4,4.98q-5.972.48-11.8,1.02A1.51,1.51,0,0,1,70.432,861.9Zm23.662-1.93a2.5,2.5,0,0,1-.168-4.99q5.869-.42,11.856-.81a2.5,2.5,0,0,1,.306,4.99q-5.972.39-11.826.81Zm23.682-1.53a2.5,2.5,0,0,1-.138-5c3.922-.23,7.884-.45,11.856-.66a2.5,2.5,0,0,1,.257,5q-5.957.315-11.836.66A.639.639,0,0,0,117.775,858.44Zm23.691-1.27a2.5,2.5,0,0,1-.119-5c3.932-.19,7.894-.38,11.856-.56a2.5,2.5,0,0,1,.217,4.99q-5.943.27-11.846.56A.366.366,0,0,1,141.467,857.17Zm23.711-1.08a2.5,2.5,0,0,1-.109-4.99q5.9-.255,11.826-.5a2.518,2.518,0,0,1,2.569,2.4,2.491,2.491,0,0,1-2.371,2.6q-5.928.24-11.816.5A.332.332,0,0,0,165.178,856.09Zm23.662-.97a2.5,2.5,0,0,1-.1-5l11.856-.47a2.5,2.5,0,0,1,.188,4.99l-11.856.47A.244.244,0,0,1,188.839,855.12Zm23.731-.94a2.5,2.5,0,0,1-.1-5l11.885-.47a2.5,2.5,0,0,1,.2,5l-11.885.47Zm23.741-.95a2.5,2.5,0,0,1-.1-5c3.962-.17,7.914-.33,11.846-.51a2.519,2.519,0,0,1,2.579,2.39,2.492,2.492,0,0,1-2.361,2.61l-11.856.51Zm23.7-1.04a2.5,2.5,0,0,1-.119-4.99q5.957-.285,11.846-.58a2.5,2.5,0,0,1,.247,4.99q-5.9.3-11.856.58A.47.47,0,0,0,260.012,852.19Zm23.7-1.2a2.5,2.5,0,0,1-.128-4.99q5.957-.33,11.836-.68a2.446,2.446,0,0,1,2.608,2.35,2.486,2.486,0,0,1-2.322,2.64q-5.883.36-11.856.69A.325.325,0,0,0,283.714,850.99Zm23.691-1.45a2.5,2.5,0,0,1-.158-4.99q5.972-.405,11.816-.85a2.5,2.5,0,0,1,.366,4.99q-5.869.45-11.856.85Zm23.662-1.8a2.5,2.5,0,0,1-.207-4.99c4.011-.34,7.973-.7,11.786-1.07a2.5,2.5,0,0,1,.474,4.98c-3.833.37-7.815.74-11.846,1.08Zm23.622-2.3a2.5,2.5,0,0,1-.267-4.99c4.021-.45,7.973-.92,11.747-1.4a2.468,2.468,0,0,1,2.756,2.17,2.493,2.493,0,0,1-2.144,2.79c-3.794.48-7.775.96-11.826,1.41A1.2,1.2,0,0,1,354.689,845.44Zm23.543-3.02a2.506,2.506,0,0,1-.356-4.98c4.031-.6,7.953-1.23,11.658-1.88a2.5,2.5,0,0,1,.84,4.93c-3.744.65-7.706,1.29-11.777,1.9A2.25,2.25,0,0,1,378.232,842.42Zm23.375-4.11a2.5,2.5,0,0,1-.494-4.95c1.818-.38,3.606-.76,5.355-1.16a2.486,2.486,0,0,1,2.954,1.89,2.513,2.513,0,0,1-1.867,2.99c-1.778.4-3.6.8-5.434,1.18A3.08,3.08,0,0,1,401.607,838.31Z" transform="translate(2.464 -832.14)" fill="#ffcc65"/>
      </g>
      <g id="Group_101" data-name="Group 101" transform="translate(-2.507 735.5)">
        <path id="Path_143" data-name="Path 143" d="M140.2,763.16a2.5,2.5,0,0,1,0-5c3.922-.01,7.864-.03,11.836-.08a2.5,2.5,0,0,1,.059,5q-6,.075-11.9.08Zm-11.856-.03h-.02c-4.011-.03-8.012-.08-11.885-.16a2.488,2.488,0,0,1-2.421-2.55,2.518,2.518,0,0,1,2.519-2.45c3.853.07,7.835.13,11.826.16a2.5,2.5,0,0,1-.02,5Zm35.567-.21a2.5,2.5,0,0,1-.04-5q5.9-.105,11.836-.24h.059a2.5,2.5,0,0,1,.059,5q-5.957.135-11.865.24Zm-59.278-.25h-.079c-4.061-.13-8.062-.29-11.885-.48a2.5,2.5,0,0,1,.237-5c3.8.19,7.775.35,11.806.48a2.5,2.5,0,0,1-.079,5Zm82.979-.29a2.5,2.5,0,0,1-.069-5q5.913-.165,11.846-.35a2.5,2.5,0,0,1,.158,5q-5.943.18-11.856.35Zm219.4-.72c-.109,0-.217-.01-.326-.02-1.976-.26-4-.51-6.056-.73a2.5,2.5,0,0,1,.543-4.97c2.114.23,4.189.49,6.155.75a2.5,2.5,0,0,1-.316,4.97Zm-195.7-.01a2.5,2.5,0,0,1-.079-5q5.928-.2,11.846-.41a2.5,2.5,0,0,1,.178,5q-5.928.21-11.856.41ZM80.953,761.5a.946.946,0,0,1-.168-.01c-4.061-.28-8.062-.59-11.875-.94a2.5,2.5,0,0,1,.435-4.98c3.784.34,7.736.66,11.767.93a2.5,2.5,0,0,1-.158,5Zm154.073-.69a2.5,2.5,0,0,1-.089-5l11.856-.43a2.5,2.5,0,0,1,.178,5l-11.856.43Zm23.7-.87a2.5,2.5,0,0,1-.089-5q5.957-.21,11.856-.41a2.5,2.5,0,0,1,.158,5q-5.9.2-11.846.41Zm130.372-.12a1.18,1.18,0,0,1-.188-.01c-3.754-.29-7.716-.55-11.767-.76a2.5,2.5,0,0,1,.257-5c4.1.21,8.1.47,11.9.77a2.505,2.505,0,0,1-.2,5Zm-331.759-.5a2.947,2.947,0,0,1-.3-.02c-4.07-.49-8.052-1.03-11.836-1.62a2.5,2.5,0,0,1,.751-4.94c3.725.58,7.657,1.11,11.668,1.59a2.506,2.506,0,0,1-.287,4.99Zm225.1-.17a2.5,2.5,0,0,1-.079-5q5.972-.18,11.865-.34h.069a2.5,2.5,0,0,1,.069,5q-5.883.165-11.846.34Zm82.989-.59h-.079c-3.784-.12-7.756-.22-11.816-.29a2.5,2.5,0,0,1,.079-5c4.08.07,8.082.17,11.9.29a2.5,2.5,0,0,1-.079,5Zm-59.288-.04a2.5,2.5,0,0,1-.049-5q5.987-.135,11.875-.22a2.5,2.5,0,0,1,.079,5q-5.868.09-11.836.22Zm23.721-.35a2.5,2.5,0,0,1-.02-5c4.011-.03,7.983-.03,11.885-.02a2.5,2.5,0,0,1-.01,5h-.01c-3.893-.01-7.835-.01-11.836.02ZM33.906,755.65a2.746,2.746,0,0,1-.484-.05c-4.09-.82-8.022-1.72-11.7-2.68a2.5,2.5,0,0,1-1.778-3.04,2.467,2.467,0,0,1,3-1.8c3.586.94,7.429,1.82,11.431,2.62a2.511,2.511,0,0,1,1.946,2.94A2.47,2.47,0,0,1,33.906,755.65Zm-22.931-6.06a2.482,2.482,0,0,1-.8-.13,113.3,113.3,0,0,1-11.253-4.53,2.506,2.506,0,0,1-1.2-3.32,2.45,2.45,0,0,1,3.28-1.21,106.987,106.987,0,0,0,10.769,4.33,2.5,2.5,0,0,1,1.541,3.17A2.47,2.47,0,0,1,10.976,749.59Z" transform="translate(2.507 -740.163)" fill="#ffcc65"/>
      </g>
      <g id="Group_102" data-name="Group 102" transform="translate(-2.505 596.623)">
        <path id="Path_144" data-name="Path 144" d="M-.03,664.25a2.475,2.475,0,0,1-2.183-1.32A2.511,2.511,0,0,1-1.2,659.55c3.349-1.81,7.034-3.56,10.947-5.2a2.461,2.461,0,0,1,3.231,1.36,2.512,2.512,0,0,1-1.344,3.27c-3.764,1.58-7.3,3.25-10.5,4.98A2.456,2.456,0,0,1-.03,664.25Zm21.844-9.26a2.466,2.466,0,0,1-2.341-1.71,2.5,2.5,0,0,1,1.561-3.16c3.616-1.22,7.479-2.4,11.48-3.51a2.468,2.468,0,0,1,3.033,1.75,2.505,2.505,0,0,1-1.729,3.07c-3.922,1.09-7.706,2.24-11.233,3.43A2.269,2.269,0,0,1,21.814,654.99Zm22.862-6.39a2.464,2.464,0,0,1-2.4-1.94,2.5,2.5,0,0,1,1.857-3c3.715-.86,7.647-1.71,11.688-2.51a2.5,2.5,0,0,1,.948,4.9c-3.991.79-7.874,1.63-11.53,2.48A2.168,2.168,0,0,1,44.675,648.6Zm23.286-4.65a2.468,2.468,0,0,1-2.43-2.08,2.5,2.5,0,0,1,2.025-2.88c3.774-.64,7.736-1.27,11.777-1.88a2.5,2.5,0,0,1,.721,4.95c-4.011.59-7.933,1.22-11.668,1.86A3.139,3.139,0,0,1,67.962,643.95Zm23.484-3.5a2.5,2.5,0,0,1-.316-4.98c3.833-.5,7.815-.98,11.816-1.44a2.5,2.5,0,0,1,.563,4.97c-3.981.46-7.933.94-11.747,1.43A1.736,1.736,0,0,1,91.446,640.45Zm23.583-2.71a2.5,2.5,0,0,1-.237-4.99q5.869-.6,11.836-1.15a2.5,2.5,0,0,1,.454,4.98q-5.943.54-11.786,1.14C115.2,637.73,115.107,637.74,115.028,637.74Zm23.632-2.18a2.5,2.5,0,0,1-.2-4.99q5.883-.5,11.846-.94a2.5,2.5,0,0,1,.366,4.99q-5.943.45-11.816.94A1.3,1.3,0,0,0,138.66,635.56Zm23.672-1.81a2.5,2.5,0,0,1-.168-5q5.9-.42,11.846-.81a2.5,2.5,0,0,1,.326,4.99q-5.943.39-11.826.81C162.451,633.74,162.391,633.75,162.332,633.75Zm23.652-1.58a2.5,2.5,0,0,1-.148-4.99q5.913-.375,11.836-.73a2.5,2.5,0,0,1,.3,4.99q-5.928.36-11.826.73Zm23.672-1.45a2.5,2.5,0,0,1-.138-4.99l11.865-.71a2.453,2.453,0,0,1,2.608,2.35,2.486,2.486,0,0,1-2.322,2.64l-11.865.72A.743.743,0,0,0,209.656,630.72Zm23.721-1.43a2.5,2.5,0,0,1-.148-5q5.928-.36,11.836-.74a2.5,2.5,0,0,1,.306,4.99q-5.913.375-11.856.74C233.475,629.28,233.426,629.29,233.377,629.29Zm23.682-1.52a2.5,2.5,0,0,1-.158-4.99q5.943-.405,11.826-.82a2.5,2.5,0,0,1,.346,4.99q-5.9.42-11.846.82Zm23.672-1.71a2.5,2.5,0,0,1-.188-4.99q5.943-.465,11.806-.96a2.5,2.5,0,0,1,.415,4.98q-5.883.5-11.846.97Zm23.652-2.02a2.5,2.5,0,0,1-.227-4.99q5.957-.57,11.786-1.18a2.469,2.469,0,0,1,2.717,2.23,2.5,2.5,0,0,1-2.2,2.75q-5.854.615-11.836,1.18C304.54,624.03,304.461,624.04,304.382,624.04Zm23.6-2.51a2.477,2.477,0,0,1-2.45-2.21,2.505,2.505,0,0,1,2.164-2.78c4.031-.48,7.973-.99,11.737-1.5a2.5,2.5,0,0,1,.662,4.95c-3.784.52-7.765,1.02-11.816,1.51A1.489,1.489,0,0,1,327.984,621.53Zm23.523-3.22a2.5,2.5,0,0,1-.375-4.97c3.991-.62,7.914-1.29,11.648-1.96a2.5,2.5,0,0,1,.869,4.92c-3.774.68-7.736,1.35-11.767,1.98A2.29,2.29,0,0,1,351.508,618.31Zm23.355-4.27a2.467,2.467,0,0,1-2.411-1.99,2.5,2.5,0,0,1,1.907-2.96c3.982-.85,7.835-1.75,11.47-2.67a2.46,2.46,0,0,1,2.994,1.82,2.494,2.494,0,0,1-1.8,3.03c-3.695.94-7.617,1.85-11.658,2.71A2.169,2.169,0,0,1,374.863,614.04Zm23-5.88a2.481,2.481,0,0,1-2.361-1.78,2.511,2.511,0,0,1,1.65-3.12c3.152-.97,6.185-1.98,9.02-3.02a2.458,2.458,0,0,1,3.161,1.5,2.5,2.5,0,0,1-1.482,3.2c-2.924,1.07-6.036,2.11-9.267,3.1A2.021,2.021,0,0,1,397.863,608.16Z" transform="translate(2.505 -600.09)" fill="#ffcc65"/>
      </g>
      <g id="Group_103" data-name="Group 103" transform="translate(-2.502 420.235)">
        <path id="Path_145" data-name="Path 145" d="M406.612,508.12a2.429,2.429,0,0,1-1.047-.24c-3.369-1.6-6.985-3.19-10.749-4.73a2.5,2.5,0,0,1-1.363-3.25,2.453,2.453,0,0,1,3.211-1.38c3.853,1.57,7.548,3.2,11,4.84a2.516,2.516,0,0,1,1.186,3.33A2.458,2.458,0,0,1,406.612,508.12Zm-21.972-9.03a2.427,2.427,0,0,1-.83-.15c-3.547-1.27-7.3-2.55-11.164-3.79a2.511,2.511,0,0,1-1.61-3.14,2.469,2.469,0,0,1,3.1-1.63c3.922,1.26,7.726,2.55,11.332,3.84a2.508,2.508,0,0,1,1.5,3.19A2.467,2.467,0,0,1,384.639,499.09Zm-22.6-7.28a2.3,2.3,0,0,1-.682-.1c-3.665-1.06-7.5-2.12-11.391-3.15a2.5,2.5,0,0,1-1.768-3.05,2.468,2.468,0,0,1,3.013-1.79c3.932,1.04,7.795,2.11,11.5,3.18a2.5,2.5,0,0,1,1.689,3.09A2.439,2.439,0,0,1,362.035,491.81Zm-22.95-6.09a2.378,2.378,0,0,1-.583-.07c-3.7-.9-7.578-1.81-11.52-2.7a2.494,2.494,0,0,1,1.077-4.87c3.962.9,7.864,1.81,11.6,2.72a2.5,2.5,0,0,1-.573,4.92Zm-23.158-5.24a2.868,2.868,0,0,1-.5-.05c-3.725-.79-7.627-1.59-11.6-2.38a2.5,2.5,0,0,1-1.946-2.93,2.471,2.471,0,0,1,2.895-1.97c3.991.79,7.914,1.6,11.658,2.39a2.5,2.5,0,0,1-.5,4.94Zm-23.286-4.64a2.4,2.4,0,0,1-.454-.04q-5.779-1.08-11.658-2.13a2.5,2.5,0,0,1-2.006-2.9,2.477,2.477,0,0,1,2.865-2.03q5.9,1.05,11.7,2.14a2.5,2.5,0,0,1,1.976,2.91A2.455,2.455,0,0,1,292.641,475.84Zm-23.365-4.16a2.9,2.9,0,0,1-.415-.03q-5.809-.99-11.687-1.95a2.5,2.5,0,0,1-2.045-2.87,2.471,2.471,0,0,1,2.835-2.07q5.9.96,11.727,1.95a2.505,2.505,0,0,1-.415,4.97Zm-23.424-3.83a2.5,2.5,0,0,1-.385-.03q-5.839-.915-11.717-1.81a2.5,2.5,0,0,1,.731-4.94q5.9.9,11.737,1.82a2.5,2.5,0,0,1,2.065,2.86A2.47,2.47,0,0,1,245.852,467.85Zm-23.464-3.58a2.348,2.348,0,0,1-.366-.03q-5.854-.87-11.737-1.72a2.5,2.5,0,0,1,.7-4.95q5.883.855,11.747,1.72a2.494,2.494,0,0,1,2.085,2.84A2.466,2.466,0,0,1,222.388,464.27Zm-23.513-3.41c-.119,0-.227-.01-.346-.02q-5.883-.84-11.757-1.66a2.49,2.49,0,0,1-2.1-2.82,2.465,2.465,0,0,1,2.786-2.13q5.883.825,11.767,1.66a2.5,2.5,0,0,1-.346,4.97Zm-23.513-3.31c-.109,0-.227-.01-.336-.02l-11.737-1.63a2.5,2.5,0,0,1,.672-4.96l11.737,1.63a2.5,2.5,0,0,1-.336,4.98Zm-23.454-3.27c-.109,0-.227-.01-.336-.02q-5.9-.825-11.757-1.64a2.5,2.5,0,0,1,.682-4.95q5.854.825,11.747,1.64a2.5,2.5,0,0,1-.336,4.97Zm-23.5-3.3c-.119,0-.227-.01-.346-.02q-5.913-.84-11.757-1.69a2.5,2.5,0,0,1,.7-4.95q5.839.855,11.737,1.69a2.5,2.5,0,0,1-.336,4.97Zm-23.494-3.42a2.348,2.348,0,0,1-.366-.03q-5.928-.885-11.747-1.78a2.5,2.5,0,0,1-2.075-2.85,2.473,2.473,0,0,1,2.816-2.1c3.873.59,7.785,1.19,11.727,1.77a2.511,2.511,0,0,1-.356,4.99Zm-23.464-3.61a2.5,2.5,0,0,1-.385-.03q-5.928-.945-11.737-1.91a2.5,2.5,0,0,1,.8-4.93q5.78.96,11.7,1.91a2.491,2.491,0,0,1,2.055,2.86A2.454,2.454,0,0,1,81.446,443.95Zm-23.415-3.91a2.038,2.038,0,0,1-.425-.04q-5.943-1.05-11.707-2.12a2.5,2.5,0,0,1-1.986-2.91,2.471,2.471,0,0,1,2.875-2.01q5.735,1.065,11.658,2.11a2.507,2.507,0,0,1,2.015,2.89A2.466,2.466,0,0,1,58.032,440.04ZM34.7,435.68a2.743,2.743,0,0,1-.484-.05c-4.011-.8-7.933-1.62-11.658-2.42a2.5,2.5,0,0,1-1.9-2.97,2.471,2.471,0,0,1,2.934-1.92c3.7.8,7.607,1.61,11.589,2.41a2.5,2.5,0,0,1-.484,4.95Zm-23.207-5.04a2.172,2.172,0,0,1-.563-.07c-4.021-.95-7.914-1.93-11.579-2.9a2.5,2.5,0,0,1-1.768-3.05,2.463,2.463,0,0,1,3.013-1.79c3.626.96,7.479,1.92,11.46,2.87a2.5,2.5,0,0,1,1.838,3A2.464,2.464,0,0,1,11.489,430.64Z" transform="translate(2.502 -422.748)" fill="#ffcc65"/>
      </g>
      <g id="Group_104" data-name="Group 104" transform="translate(-2.501 323.442)">
        <path id="Path_146" data-name="Path 146" d="M260.7,349.13a2.5,2.5,0,0,1-.01-5c3.972-.01,7.914-.05,11.836-.1h.03a2.5,2.5,0,0,1,.03,5q-5.9.09-11.885.1Zm-11.856,0h-.01q-5.913-.03-11.875-.1a2.5,2.5,0,0,1,.03-5h.03q5.943.075,11.846.1a2.5,2.5,0,0,1-.02,5Zm-23.721-.29h-.049q-5.913-.105-11.865-.25a2.5,2.5,0,0,1,.119-5q5.928.135,11.846.25a2.5,2.5,0,0,1-.049,5Zm59.288-.03a2.5,2.5,0,0,1-.059-5c4.031-.1,8.012-.22,11.816-.37a2.5,2.5,0,0,1,.188,4.99c-3.833.15-7.825.27-11.885.37A.124.124,0,0,1,284.415,348.81Zm-83-.51h-.069q-5.928-.165-11.856-.34a2.5,2.5,0,0,1,.148-4.99q5.928.18,11.846.34a2.5,2.5,0,0,1-.069,4.99Zm106.69-.39a2.5,2.5,0,0,1-.128-5c4.011-.21,7.983-.46,11.8-.73a2.5,2.5,0,0,1,.346,4.99c-3.833.27-7.835.52-11.875.74Zm-130.4-.34h-.079c-3.952-.13-7.914-.26-11.856-.4a2.5,2.5,0,0,1,.168-4.99q5.913.21,11.846.4a2.5,2.5,0,0,1-.079,4.99Zm-23.691-.8h-.089l-11.846-.41a2.5,2.5,0,0,1,.168-4.99l11.846.41a2.5,2.5,0,0,1-.079,4.99ZM-.03,346.76a2.494,2.494,0,0,1-2.46-2.26,2.5,2.5,0,0,1,2.223-2.73c3.764-.37,7.765-.69,11.885-.97a2.5,2.5,0,0,1,.326,4.99c-4.07.27-8.022.6-11.747.96A1.648,1.648,0,0,1-.03,346.76Zm331.788-.55a2.5,2.5,0,0,1-.227-4.99c4-.37,7.953-.78,11.737-1.23a2.5,2.5,0,0,1,.563,4.97c-3.823.45-7.815.86-11.856,1.24A1.442,1.442,0,0,1,331.758,346.21Zm-201.446-.26h-.079q-5.957-.2-11.846-.38a2.5,2.5,0,0,1,.158-5q5.9.18,11.856.38a2.5,2.5,0,0,1-.089,5Zm-23.7-.73h-.069q-5.972-.165-11.846-.3a2.5,2.5,0,0,1,.119-5q5.883.135,11.865.3a2.5,2.5,0,0,1-.069,5Zm-82.989-.08a2.5,2.5,0,0,1-.109-5c3.8-.17,7.8-.31,11.9-.41a2.5,2.5,0,0,1,.119,5c-4.061.1-8.032.24-11.806.41Zm59.278-.46h-.04q-5.987-.105-11.836-.16a2.5,2.5,0,0,1,.04-5q5.869.06,11.875.16a2.5,2.5,0,0,1-.04,5Zm-35.577-.16a2.5,2.5,0,0,1-.03-5q5.661-.06,11.49-.06h.4a2.5,2.5,0,0,1,0,5h-.4q-5.809,0-11.441.06Zm307.988-1.09a2.5,2.5,0,0,1-.356-4.97c3.991-.59,7.9-1.24,11.618-1.92a2.471,2.471,0,0,1,2.875,2.01,2.5,2.5,0,0,1-1.986,2.91c-3.764.69-7.736,1.35-11.786,1.95C355.549,343.42,355.43,343.43,355.311,343.43Zm23.316-4.33a2.5,2.5,0,0,1-.553-4.94c3.952-.91,7.765-1.9,11.352-2.94a2.464,2.464,0,0,1,3.053,1.72,2.5,2.5,0,0,1-1.7,3.09c-3.675,1.06-7.578,2.07-11.618,3A1.86,1.86,0,0,1,378.627,339.1Zm22.773-6.66a2.472,2.472,0,0,1-2.322-1.65,2.5,2.5,0,0,1,1.482-3.2c1.887-.69,3.744-1.42,5.513-2.16a2.468,2.468,0,0,1,3.231,1.35,2.516,2.516,0,0,1-1.334,3.27c-1.838.77-3.754,1.52-5.71,2.24A2.434,2.434,0,0,1,401.4,332.44Z" transform="translate(2.501 -325.239)" fill="#ffcc65"/>
      </g>
      <g id="Group_105" data-name="Group 105" transform="translate(-2.498 217.579)">
        <path id="Path_147" data-name="Path 147" d="M-.03,262.15a2.485,2.485,0,0,1-2.46-2.3,2.483,2.483,0,0,1,2.262-2.69c3.8-.31,7.765-.67,11.786-1.05a2.5,2.5,0,0,1,.464,4.97c-4.041.39-8.032.74-11.846,1.06A1.515,1.515,0,0,1-.03,262.15Zm23.622-2.25a2.474,2.474,0,0,1-2.45-2.24,2.5,2.5,0,0,1,2.2-2.75c3.873-.41,7.8-.85,11.767-1.3a2.5,2.5,0,0,1,.563,4.97q-5.972.69-11.816,1.31A2.558,2.558,0,0,1,23.592,259.9Zm23.573-2.7a2.5,2.5,0,0,1-.3-4.98q5.824-.72,11.757-1.48a2.5,2.5,0,0,1,.613,4.96q-5.943.765-11.786,1.48A2.584,2.584,0,0,1,47.165,257.2ZM70.7,254.18a2.5,2.5,0,0,1-.326-4.98q5.839-.78,11.747-1.59a2.5,2.5,0,0,1,.662,4.95c-3.942.54-7.874,1.07-11.767,1.59A1.616,1.616,0,0,1,70.7,254.18Zm23.5-3.22a2.5,2.5,0,0,1-.336-4.98q5.839-.825,11.747-1.66a2.5,2.5,0,0,1,.682,4.95q-5.9.84-11.757,1.66A1.827,1.827,0,0,1,94.2,250.96Zm23.494-3.34a2.476,2.476,0,0,1-2.44-2.15,2.506,2.506,0,0,1,2.094-2.83l11.717-1.69a2.5,2.5,0,0,1,.7,4.95l-11.717,1.69A2.134,2.134,0,0,1,117.7,247.62Zm23.444-3.39a2.505,2.505,0,0,1-.346-4.98l11.737-1.69a2.5,2.5,0,0,1,.7,4.95L141.5,244.2A2.134,2.134,0,0,1,141.14,244.23Zm23.484-3.37a2.5,2.5,0,0,1-.336-4.97q5.883-.84,11.757-1.66a2.5,2.5,0,0,1,.682,4.95q-5.869.825-11.757,1.66C164.851,240.85,164.733,240.86,164.624,240.86Zm23.523-3.3a2.5,2.5,0,0,1-.326-4.97c3.942-.54,7.864-1.08,11.8-1.6a2.5,2.5,0,0,1,.652,4.96q-5.869.78-11.777,1.6C188.375,237.55,188.256,237.56,188.148,237.56Zm23.543-3.16a2.5,2.5,0,0,1-.316-4.98q5.913-.765,11.777-1.5a2.5,2.5,0,0,1,.613,4.96q-5.854.735-11.757,1.5A1.628,1.628,0,0,1,211.691,234.4Zm23.543-2.93a2.5,2.5,0,0,1-.287-4.98q5.928-.705,11.806-1.36a2.5,2.5,0,0,1,.543,4.97q-5.854.66-11.767,1.36C235.432,231.46,235.333,231.47,235.234,231.47Zm171.777-.4a2.3,2.3,0,0,1-.682-.1c-2.015-.59-4.149-1.14-6.323-1.66a2.507,2.507,0,0,1-1.848-3,2.475,2.475,0,0,1,2.964-1.87c2.262.53,4.466,1.11,6.57,1.72a2.5,2.5,0,0,1,1.689,3.09A2.459,2.459,0,0,1,407.012,231.07Zm-148.195-2.24a2.5,2.5,0,0,1-.247-4.98q5.957-.615,11.826-1.18a2.5,2.5,0,0,1,.454,4.98q-5.839.555-11.786,1.17C258.985,228.82,258.906,228.83,258.817,228.83Zm130.115-1.74a2.729,2.729,0,0,1-.4-.03c-3.675-.59-7.588-1.11-11.618-1.54a2.5,2.5,0,0,1,.524-4.98c4.12.44,8.121.97,11.885,1.58a2.5,2.5,0,0,1-.4,4.97Zm-106.493-.5a2.5,2.5,0,0,1-.207-4.99c4.021-.34,8.012-.65,11.856-.93a2.5,2.5,0,0,1,.346,4.99c-3.833.28-7.8.59-11.8.92A1.247,1.247,0,0,1,282.439,226.59ZM306.1,224.9a2.5,2.5,0,0,1-.138-5c4.051-.23,8.052-.43,11.885-.59a2.5,2.5,0,0,1,.2,5c-3.814.16-7.785.35-11.806.59Zm59.268-.36h-.158c-3.754-.24-7.716-.42-11.757-.54a2.489,2.489,0,0,1-2.4-2.57,2.524,2.524,0,0,1,2.539-2.43c4.1.12,8.121.31,11.925.55a2.5,2.5,0,0,1-.148,4.99Zm-35.557-.6a2.5,2.5,0,0,1-.049-5c3.8-.08,7.558-.12,11.164-.12h.751a2.5,2.5,0,0,1,0,5h-.741c-3.576,0-7.291.04-11.065.12Z" transform="translate(2.498 -218.82)" fill="#ffcc65"/>
      </g>
      <g id="Group_106" data-name="Group 106" transform="translate(-2.497 78.093)">
        <path id="Path_148" data-name="Path 148" d="M-.03,159.81A2.462,2.462,0,0,1-2.4,158a2.5,2.5,0,0,1,1.689-3.09c3.7-1.08,7.558-2.17,11.451-3.25a2.468,2.468,0,0,1,3.033,1.75,2.505,2.505,0,0,1-1.729,3.07c-3.873,1.07-7.706,2.16-11.391,3.23A2.3,2.3,0,0,1-.03,159.81Zm22.881-6.34a2.5,2.5,0,0,1-.622-4.92q5.676-1.5,11.51-2.99a2.462,2.462,0,0,1,2.994,1.81,2.5,2.5,0,0,1-1.788,3.03q-5.809,1.485-11.47,2.98A2.231,2.231,0,0,1,22.851,153.47Zm23-5.86a2.5,2.5,0,0,1-.583-4.93c3.814-.94,7.667-1.86,11.559-2.79a2.461,2.461,0,0,1,2.964,1.86,2.5,2.5,0,0,1-1.838,3q-5.809,1.38-11.52,2.78A2.277,2.277,0,0,1,45.851,147.61Zm23.1-5.48a2.5,2.5,0,0,1-.543-4.94q5.75-1.32,11.589-2.62a2.5,2.5,0,0,1,1.057,4.89q-5.824,1.29-11.559,2.61A2.447,2.447,0,0,1,68.95,142.13Zm23.168-5.16a2.474,2.474,0,0,1-2.411-1.98,2.5,2.5,0,0,1,1.9-2.97q5.78-1.245,11.618-2.48a2.5,2.5,0,0,1,1.008,4.9q-5.839,1.23-11.589,2.47A1.874,1.874,0,0,1,92.117,136.97Zm23.227-4.89a2.478,2.478,0,0,1-2.421-2,2.51,2.51,0,0,1,1.927-2.95q5.794-1.185,11.638-2.36a2.5,2.5,0,0,1,.958,4.91q-5.839,1.17-11.618,2.36A2.567,2.567,0,0,1,115.344,132.08Zm23.276-4.66a2.506,2.506,0,0,1-.464-4.96q5.809-1.14,11.658-2.26a2.5,2.5,0,0,1,.919,4.91q-5.839,1.125-11.638,2.25A1.622,1.622,0,0,1,138.621,127.42Zm23.276-4.46a2.5,2.5,0,0,1-.454-4.95q5.809-1.1,11.658-2.16a2.5,2.5,0,0,1,.889,4.92q-5.824,1.065-11.638,2.16A3.585,3.585,0,0,1,161.9,122.96Zm23.306-4.28a2.5,2.5,0,0,1-.435-4.96q5.839-1.05,11.688-2.09a2.5,2.5,0,0,1,.85,4.92q-5.839,1.035-11.668,2.09A3.193,3.193,0,0,1,185.2,118.68Zm23.365-4.15a2.506,2.506,0,0,1-.415-4.97c3.9-.68,7.815-1.36,11.707-2.03a2.469,2.469,0,0,1,2.845,2.05,2.5,2.5,0,0,1-2.025,2.88q-5.854,1-11.7,2.02A1.431,1.431,0,0,1,208.569,114.53Zm23.425-4.02a2.505,2.505,0,0,1-.405-4.97q5.883-.99,11.737-1.97a2.469,2.469,0,0,1,2.835,2.06,2.5,2.5,0,0,1-2.035,2.87q-5.854.975-11.727,1.97A1.8,1.8,0,0,1,231.993,110.51Zm23.435-3.91a2.469,2.469,0,0,1-2.43-2.1,2.5,2.5,0,0,1,2.045-2.87q5.869-.96,11.717-1.91a2.461,2.461,0,0,1,2.826,2.07,2.489,2.489,0,0,1-2.045,2.86q-5.839.945-11.707,1.91A1.855,1.855,0,0,1,255.428,106.6Zm23.425-3.8a2.5,2.5,0,0,1-.385-4.97q5.883-.945,11.717-1.87a2.481,2.481,0,0,1,2.826,2.08,2.509,2.509,0,0,1-2.055,2.86q-5.839.93-11.717,1.87A2.5,2.5,0,0,1,278.853,102.8Zm23.435-3.72a2.5,2.5,0,0,1-.375-4.97q5.9-.93,11.727-1.83a2.473,2.473,0,0,1,2.816,2.09,2.5,2.5,0,0,1-2.065,2.85q-5.824.915-11.717,1.83A2.5,2.5,0,0,1,302.287,99.08Zm23.444-3.65a2.5,2.5,0,0,1-.375-4.97q5.9-.915,11.727-1.81a2.5,2.5,0,0,1,.741,4.95Q332,94.5,326.1,95.4A2.083,2.083,0,0,1,325.732,95.43Zm23.464-3.6a2.5,2.5,0,0,1-.366-4.97l11.737-1.78a2.5,2.5,0,0,1,.731,4.94L349.571,91.8A2.472,2.472,0,0,1,349.2,91.83Zm23.454-3.56a2.5,2.5,0,0,1-.366-4.97l11.737-1.77a2.473,2.473,0,0,1,2.806,2.1,2.5,2.5,0,0,1-2.075,2.84l-11.727,1.77A2.375,2.375,0,0,1,372.65,88.27Zm23.464-3.54a2.5,2.5,0,0,1-.366-4.97l10.887-1.64a2.5,2.5,0,0,1,.731,4.94L396.48,84.7A2.166,2.166,0,0,1,396.114,84.73Z" transform="translate(2.497 -78.093)" fill="#ffcc65"/>
      </g>
      <g id="Group_107" data-name="Group 107" transform="translate(-0.773 -2.503)">
        <path id="Path_149" data-name="Path 149" d="M407.012,50.6h-.04l-6.2-.12a2.488,2.488,0,0,1-2.42-2.55,2.517,2.517,0,0,1,2.519-2.45l6.194.12a2.5,2.5,0,0,1-.049,5Zm-18.049-.37H388.9c-3.981-.09-7.943-.2-11.855-.3a2.5,2.5,0,0,1,.138-5q5.868.165,11.845.3a2.5,2.5,0,0,1-.069,5Zm-23.7-.65h-.079q-5.987-.2-11.855-.4a2.5,2.5,0,0,1,.178-5q5.868.21,11.835.4a2.5,2.5,0,0,1-.079,5Zm-23.69-.85h-.1q-5.987-.24-11.855-.5a2.5,2.5,0,0,1,.217-5q5.868.255,11.835.5a2.5,2.5,0,0,1-.1,5Zm-23.69-1.05h-.119q-5.987-.3-11.845-.61a2.5,2.5,0,0,1,.267-4.99q5.853.315,11.825.61a2.5,2.5,0,0,1-.128,4.99Zm-23.67-1.27h-.148q-5.987-.345-11.845-.72a2.5,2.5,0,0,1,.306-4.99q5.853.375,11.815.72a2.5,2.5,0,0,1-.128,4.99ZM270.551,44.9a.948.948,0,0,1-.168-.01q-5.987-.405-11.835-.85a2.5,2.5,0,0,1,.366-4.99q5.839.435,11.815.84a2.509,2.509,0,0,1-.178,5.01ZM246.91,43.15a1.308,1.308,0,0,1-.2-.01q-5.987-.48-11.825-.98a2.5,2.5,0,0,1,.415-4.98c3.883.33,7.824.66,11.8.98a2.5,2.5,0,0,1-.188,4.99Zm-23.621-2.02a1.728,1.728,0,0,1-.227-.01q-5.987-.555-11.815-1.12a2.5,2.5,0,0,1,.474-4.98q5.824.57,11.786,1.12a2.5,2.5,0,0,1-.217,4.99Zm-23.6-2.31a2.206,2.206,0,0,1-.257-.01q-5.987-.63-11.806-1.27a2.5,2.5,0,0,1-2.183-2.76,2.468,2.468,0,0,1,2.727-2.21q5.809.645,11.766,1.27a2.5,2.5,0,0,1-.247,4.98ZM176.126,36.2a2.757,2.757,0,0,1-.286-.02q-5.987-.705-11.786-1.44a2.493,2.493,0,0,1-2.144-2.79,2.468,2.468,0,0,1,2.756-2.17c3.853.49,7.775.96,11.746,1.44a2.5,2.5,0,0,1-.286,4.98ZM152.6,33.23c-.109,0-.217-.01-.326-.02-3.991-.53-7.9-1.07-11.766-1.62a2.5,2.5,0,0,1-2.1-2.82,2.47,2.47,0,0,1,2.786-2.13c3.843.55,7.755,1.08,11.727,1.62a2.5,2.5,0,0,1,2.124,2.81A2.47,2.47,0,0,1,152.6,33.23ZM129.121,29.9a2.253,2.253,0,0,1-.366-.03q-5.972-.9-11.736-1.82a2.509,2.509,0,0,1-2.055-2.86,2.473,2.473,0,0,1,2.825-2.08q5.735.915,11.7,1.82a2.5,2.5,0,0,1-.366,4.97Zm-23.414-3.75a1.945,1.945,0,0,1-.415-.04q-5.972-1.02-11.707-2.05a2.5,2.5,0,0,1,.869-4.92q5.705,1.035,11.657,2.04a2.505,2.505,0,0,1-.405,4.97ZM82.373,21.94a2.5,2.5,0,0,1-.464-.04c-3.922-.75-7.844-1.53-11.657-2.3a2.5,2.5,0,0,1-1.936-2.94,2.474,2.474,0,0,1,2.9-1.96c3.794.77,7.706,1.54,11.608,2.29a2.5,2.5,0,0,1-.454,4.95ZM59.137,17.2a2.252,2.252,0,0,1-.514-.06c-3.892-.84-7.8-1.72-11.608-2.59a2.5,2.5,0,0,1,1.1-4.87c3.784.87,7.666,1.74,11.539,2.58a2.5,2.5,0,0,1,1.9,2.97A2.475,2.475,0,0,1,59.137,17.2ZM36.03,11.87a2.323,2.323,0,0,1-.583-.07c-3.922-.97-7.795-1.95-11.539-2.94A2.5,2.5,0,0,1,22.14,5.81a2.463,2.463,0,0,1,3.013-1.79c3.715.98,7.567,1.96,11.46,2.91a2.509,2.509,0,0,1-.583,4.94ZM13.09,5.83a2.513,2.513,0,0,1-.662-.09C8.556,4.65,4.7,3.52.988,2.4A2.52,2.52,0,0,1-.671-.72,2.474,2.474,0,0,1,2.4-2.4C6.086-1.28,9.9-.17,13.742.91a2.507,2.507,0,0,1,1.719,3.08A2.469,2.469,0,0,1,13.09,5.83Z" transform="translate(0.773 2.503)" fill="#ffcc65"/>
      </g>
    </g>
    <text id="Back" transform="translate(206 737)" fill="#f89939" font-size="16" font-family="Raleway" font-weight="700" text-decoration="underline"><tspan x="-19.008" y="0">Back</tspan></text>
    <g id="Button" transform="translate(85 640)">
      <rect id="Rectangle_98" data-name="Rectangle 98" width="240" height="70" rx="10" transform="translate(1 2)" fill="rgba(0,62,119,0.55)"/>
      <rect id="Rectangle_4" data-name="Rectangle 4" width="242" height="70" rx="10" fill="#a4c0d9"/>
      <text id="Take_me_to_my_dashboard" data-name="Take me to my
dashboard" transform="translate(122 30)" fill="#0b0907" font-size="20" font-family="Raleway" font-weight="600"><tspan x="-68.91" y="0">Take me to my</tspan><tspan x="-50.87" y="24">dashboard</tspan></text>
    </g>
    <g id="jumping-2194230-0" transform="translate(-105.838 104.837)">
      <path id="Path_187" data-name="Path 187" d="M378.868,203.738s-12.65-11.774-17.482-8.444c0,0-6.325,14.3-9.236,15.4-1.2,3.506-2.942,6.843-5.357,6.729a7.4,7.4,0,0,0,.076,3.566c.518,2.134-4.42,11.476-7.712,10.562s-7.994-9.259-6.622-13.961a9.017,9.017,0,0,0,.206-.968c-.175-.343-5.975-11.324-6.561-17.055-.6-5.822-3.117-3.3-3.117-3.3s3.338,2.942-1.867,5.258-18.145,4.138-12.993-.678c0,0-.754-2.256-3.277-.2,0,0-1.821,2.4,2.568,10.562,0,0,6.8,34.971,5.586,43.727,0,0-1.913,22.26.244,24.378,1.029,1.013,14.273,4.786,27.373,4.4a92.23,92.23,0,0,0,24.561-3.94l-.785-30.658a46.756,46.756,0,0,1,3.521-19.051Zm-42.363,66.1a16.548,16.548,0,0,1-7.24-3.482,17.038,17.038,0,0,1-4.74-6.493,18.339,18.339,0,0,1-1.463-7.75,27.632,27.632,0,0,0,2.538,7.247,18.945,18.945,0,0,0,4.641,5.83,15.107,15.107,0,0,0,3.094,2.065c.541.32,1.128.541,1.692.808.594.2,1.174.465,1.783.625a35.574,35.574,0,0,0,7.59,1.334,21.035,21.035,0,0,1-7.895-.182Z" transform="translate(-21.852 -26.835)" fill="#6a8eae"/>
      <path id="Path_188" data-name="Path 188" d="M359.662,199.634l-.038.015c.259-4.786-2.172-15.112-2.172-15.112s-12.963.633-14.723.175c0,0-3.864-.076-3.49,11.583,0,0-4.054-3.879-3.132.991.168.884.343,1.654.526,2.317-7.735-4.953,1.593-25.407,1.631-23.624a2.391,2.391,0,0,0,.716,1.455c1.6,1.8,4.092-.168,6.325-.945.45-.16.884-.3,1.311-.419a11.453,11.453,0,0,1,14.555,10.684,42.474,42.474,0,0,1-1.509,12.879Z" transform="translate(-27.428 -23.047)" fill="#0b0907"/>
      <path id="Path_189" data-name="Path 189" d="M345.811,218.333a10.612,10.612,0,0,1-3.141-2.615,8.673,8.673,0,0,1-1.1-1.75,5.263,5.263,0,0,1-.482-2,9.614,9.614,0,0,0,.822,1.824,14.585,14.585,0,0,0,1.146,1.618,35.031,35.031,0,0,0,2.76,2.924Z" transform="translate(-28.873 -30.095)" fill="#0b0907"/>
      <path id="Path_190" data-name="Path 190" d="M351.606,221.708a3.524,3.524,0,0,0,1.044.2c.35.034.7.083,1.054.127.351.06.706.116,1.061.207a5.05,5.05,0,0,1,1.07.373,4.76,4.76,0,0,1-2.245.173,4.388,4.388,0,0,1-1.1-.31,1.487,1.487,0,0,1-.886-.77Z" transform="translate(-30.895 -31.983)" fill="#0b0907"/>
      <path id="Path_191" data-name="Path 191" d="M360.141,201.675a8.533,8.533,0,0,1-.081,1.053c-.059.356-.143.687-.216,1.031l-.469,2.045a40.844,40.844,0,0,1-1.168,4.045,19.028,19.028,0,0,1-1.773,3.868,6.669,6.669,0,0,1-1.435,1.67,3.322,3.322,0,0,1-2.178.79l.393-.278a7.011,7.011,0,0,0-.043,2.605c.037.22.078.438.13.655a3.213,3.213,0,0,1,.067.413,3.057,3.057,0,0,1-.007.408,7.059,7.059,0,0,1-.307,1.46,19.968,19.968,0,0,1-2.567,5.093,14.165,14.165,0,0,1-1.829,2.212,5.265,5.265,0,0,1-2.55,1.52,2.059,2.059,0,0,1-.814-.007,3.565,3.565,0,0,1-.731-.269,5.615,5.615,0,0,1-1.206-.843,11.506,11.506,0,0,1-1.87-2.155,20.118,20.118,0,0,1-2.535-5.032,15.144,15.144,0,0,1-.656-2.746,8.1,8.1,0,0,1,.028-2.835,52.181,52.181,0,0,0,.861-5.515q.327-2.777.606-5.559l.356.338a2.014,2.014,0,0,1-.982-.056,2.156,2.156,0,0,1-.829-.522,4.871,4.871,0,0,1-.968-1.515,17.978,17.978,0,0,1-.99-3.275,12.293,12.293,0,0,1-.343-1.7,4.187,4.187,0,0,1-.009-.937,1.429,1.429,0,0,1,.542-1.042,1.375,1.375,0,0,1,1.2-.1,4.073,4.073,0,0,1,.857.406,9.235,9.235,0,0,1,1.41,1.078l-.8.355c-.017-1.082-.055-2.163,0-3.25a25.115,25.115,0,0,1,.3-3.261,11.928,11.928,0,0,1,.937-3.21c.126-.258.275-.51.422-.761a5.282,5.282,0,0,1,.559-.7,3.152,3.152,0,0,1,.73-.592,2.356,2.356,0,0,1,.449-.215,1.814,1.814,0,0,1,.571-.113h.026l.092.015.381.061.44.033c.29.028.6.027.9.042q.909.024,1.827.021l3.673-.044c2.451-.036,4.906-.1,7.357-.187h.011a.385.385,0,0,1,.388.3c.55,2.5.982,5.021,1.352,7.553q.281,1.9.426,3.814a25.677,25.677,0,0,1,.063,3.837.049.049,0,0,1-.053.045.05.05,0,0,1-.045-.05,25.486,25.486,0,0,0-.28-3.8c-.169-1.26-.385-2.514-.612-3.765-.453-2.5-1.025-4.987-1.611-7.456l.4.3q-3.684.217-7.37.367c-1.229.054-2.46.069-3.695.08q-.925.008-1.857-.012c-.314-.014-.619-.01-.941-.039l-.478-.034-.528-.085.118.016a1.342,1.342,0,0,0-.482.192,2.152,2.152,0,0,0-.508.421,4.276,4.276,0,0,0-.436.554c-.12.212-.244.423-.353.646a12.09,12.09,0,0,0-.856,2.941,24.117,24.117,0,0,0-.334,3.13c-.067,1.054-.044,2.115-.041,3.176v.01a.473.473,0,0,1-.8.346,8.373,8.373,0,0,0-1.24-.975,3.209,3.209,0,0,0-.651-.323c-.209-.068-.383-.063-.419-.022-.058.017-.142.2-.17.42a3.435,3.435,0,0,0-.011.738,11.667,11.667,0,0,0,.278,1.6,17.338,17.338,0,0,0,.854,3.17c.382.98,1.036,1.964,2.021,1.767a.3.3,0,0,1,.357.332v.006q-.364,2.779-.776,5.549c-.291,1.843-.544,3.7-.977,5.523a10.275,10.275,0,0,0,.618,5.408,17.855,17.855,0,0,0,2.591,4.871,11.016,11.016,0,0,0,1.865,1.991,5.074,5.074,0,0,0,1.105.715,3.026,3.026,0,0,0,.583.195,1.408,1.408,0,0,0,.575-.019,4.623,4.623,0,0,0,2.123-1.41,15.992,15.992,0,0,0,1.689-2.129,21.189,21.189,0,0,0,2.429-4.885,6.281,6.281,0,0,0,.29-1.268,2.24,2.24,0,0,0,.011-.29,2.1,2.1,0,0,0-.042-.277c-.053-.238-.1-.478-.132-.719a7.689,7.689,0,0,1,.109-2.955.369.369,0,0,1,.376-.279h.018a2.554,2.554,0,0,0,1.676-.6,6.627,6.627,0,0,0,1.314-1.466,18.443,18.443,0,0,0,1.842-3.671c.5-1.293.929-2.616,1.336-3.949l.583-2.01c.09-.335.2-.676.28-1a8.4,8.4,0,0,0,.157-1.026.049.049,0,0,1,.1.006Z" transform="translate(-27.896 -25.115)" fill="#0b0907"/>
      <path id="Path_192" data-name="Path 192" d="M364.179,196.337c-.453-.227-.874-.447-1.293-.639a4.881,4.881,0,0,0-1.247-.41,2.171,2.171,0,0,0-1.19.119,4.624,4.624,0,0,0-1.149.768,2.233,2.233,0,0,1,.855-1.285,2.169,2.169,0,0,1,1.607-.354,3.24,3.24,0,0,1,1.431.655,3.48,3.48,0,0,1,.986,1.145Z" transform="translate(-32.373 -26.696)" fill="#0b0907"/>
      <path id="Path_193" data-name="Path 193" d="M349.608,195.3a5.965,5.965,0,0,0-3.116-.64,4.255,4.255,0,0,0-1.474.443c-.251.1-.465.268-.716.394-.236.148-.459.32-.722.466a5.583,5.583,0,0,1,.474-.746,4.044,4.044,0,0,1,.651-.619,3.39,3.39,0,0,1,1.7-.694,3.468,3.468,0,0,1,1.816.291,3.4,3.4,0,0,1,1.384,1.106Z" transform="translate(-29.352 -26.575)" fill="#0b0907"/>
      <path id="Path_194" data-name="Path 194" d="M358.641,205.411a2.109,2.109,0,0,1-1.421,1.673,2.367,2.367,0,0,1-1.146.11,2.119,2.119,0,0,1-1.027-.433c.377-.076.708-.1,1.025-.162a5.065,5.065,0,0,0,.89-.232,4.462,4.462,0,0,0,.829-.386,10.131,10.131,0,0,0,.85-.571Z" transform="translate(-31.556 -28.816)" fill="#0b0907"/>
      <path id="Path_195" data-name="Path 195" d="M361,201.252a1.144,1.144,0,1,0-1.1-1.143,1.144,1.144,0,0,0,1.1,1.143Z" transform="translate(-32.488 -27.564)" fill="#0b0907"/>
      <path id="Path_196" data-name="Path 196" d="M348.555,201.1a1.144,1.144,0,1,0-1.1-1.143,1.144,1.144,0,0,0,1.1,1.143Z" transform="translate(-30.096 -27.534)" fill="#0b0907"/>
      <path id="Path_197" data-name="Path 197" d="M353.2,210.414a1.815,1.815,0,0,0,.062,1.326,2.579,2.579,0,0,0,.762.988,2.5,2.5,0,0,0,1.121.532,1.712,1.712,0,0,0,1.291-.26,1.435,1.435,0,0,1-1.316.855,2.349,2.349,0,0,1-1.575-.535,2.393,2.393,0,0,1-.853-1.423A1.482,1.482,0,0,1,353.2,210.414Z" transform="translate(-31.097 -29.79)" fill="#0b0907"/>
      <path id="Path_198" data-name="Path 198" d="M316.768,185.313l-4.385-8.632-4.434-8.6c-1.49-2.859-3.007-5.7-4.6-8.5-.787-1.4-1.585-2.8-2.433-4.159-.424-.679-.861-1.349-1.323-1.993a8.015,8.015,0,0,0-1.5-1.691l-.013-.009a.39.39,0,0,1-.089-.544.4.4,0,0,1,.123-.111,1.39,1.39,0,0,0,.464-.582,2.472,2.472,0,0,0,.188-.852,5.525,5.525,0,0,0-.3-1.861,12.34,12.34,0,0,0-.778-1.805c-.3-.591-.655-1.153-1-1.721l-.009-.014a.233.233,0,0,1-.031-.082l-.59-3.487-.143-.873-.07-.439-.032-.22a.986.986,0,0,0-.049-.169,1.7,1.7,0,0,0-1.1-1.041c-.482-.083-.92.414-.952.935-.014.553,0,1.167.006,1.748s.013,1.177.047,1.761a1.013,1.013,0,0,1-.294.933,1.365,1.365,0,0,1-.935.281,3.5,3.5,0,0,1-1.729-.608c-.256-.161-.495-.367-.718-.528s-.48-.317-.732-.463a29.129,29.129,0,0,0-3.168-1.511l-1.634-.658a10.838,10.838,0,0,0-1.618-.555,1.268,1.268,0,0,0-1.308.411,2.025,2.025,0,0,0,.059,1.492.291.291,0,0,1-.39.356l0,0-1.415-.6a3.573,3.573,0,0,0-1.353-.4,1.676,1.676,0,0,0-1.171.355c-.239.221-.2.628-.017,1.052a.362.362,0,0,1-.427.492l-.013,0a14.131,14.131,0,0,0-1.619-.34,4.261,4.261,0,0,0-1.527-.013,1.327,1.327,0,0,0-.867.849c-.093.345.144.727.515,1.056a.443.443,0,0,1,.069.585l-.006.009a1.517,1.517,0,0,0-.32,1.172c.076.261.525.459,1.027.517a7.5,7.5,0,0,1,.879.125,7.129,7.129,0,0,1,.868.266,13.072,13.072,0,0,1,1.6.735,29.16,29.16,0,0,1,2.918,1.833c.936.661,1.839,1.346,2.728,2.081l-.055-.041c1.563.995,3.125,2,4.7,2.968.787.481,1.583.97,2.374,1.4l.289.147.433.191a1.019,1.019,0,0,1,.21.264l.1.173.168.327c.212.43.4.856.593,1.285,1.5,3.422,2.813,6.9,4.1,10.4s2.49,7.014,3.568,10.578c.539,1.781,1.059,3.57,1.487,5.384A26.562,26.562,0,0,1,302,189.87a.049.049,0,0,1-.048.05.052.052,0,0,1-.05-.049,26.379,26.379,0,0,0-1.118-5.427q-.78-2.669-1.678-5.3c-1.2-3.509-2.494-6.989-3.827-10.451s-2.739-6.9-4.217-10.287c-.188-.42-.379-.84-.58-1.243l-.152-.292-.074-.129c-.007-.025-.084-.1,0-.016.043.025,0,.016.156.083a.465.465,0,0,0,.139.019l-.034,0a1.092,1.092,0,0,1-.137-.021,1.184,1.184,0,0,1-.142-.046c-.085-.03-.131-.056-.2-.084l-.333-.167c-.846-.453-1.636-.935-2.436-1.418-1.59-.974-3.167-1.958-4.729-2.972l-.05-.036-.005,0a36.5,36.5,0,0,0-5.434-3.858,12.121,12.121,0,0,0-1.471-.7,6.183,6.183,0,0,0-.748-.239,6.778,6.778,0,0,0-.8-.119,3.1,3.1,0,0,1-.95-.276,1.54,1.54,0,0,1-.8-.847,1.766,1.766,0,0,1,.012-1.117,3.2,3.2,0,0,1,.444-.889l.063.593a2.827,2.827,0,0,1-.625-.8,1.645,1.645,0,0,1-.125-1.123,1.937,1.937,0,0,1,.572-.913,2.114,2.114,0,0,1,.907-.511,4.864,4.864,0,0,1,1.859.034,14.845,14.845,0,0,1,1.706.4l-.44.488a2.42,2.42,0,0,1-.188-.885,1.3,1.3,0,0,1,.391-.937,2.3,2.3,0,0,1,1.693-.517,4.181,4.181,0,0,1,1.566.49l1.4.634-.395.354a2.5,2.5,0,0,1,.032-1.943,1.359,1.359,0,0,1,.873-.6,2.406,2.406,0,0,1,.981-.02,10.822,10.822,0,0,1,1.705.626l1.627.7c1.076.49,2.149.986,3.182,1.582.257.151.511.31.756.489s.458.37.7.525a3.2,3.2,0,0,0,1.557.571,1.065,1.065,0,0,0,.724-.2.709.709,0,0,0,.2-.684l-.057-1.771c-.01-.6-.036-1.161-.026-1.785a1.509,1.509,0,0,1,.386-.9,1.1,1.1,0,0,1,.943-.355,1.541,1.541,0,0,1,.863.467,2.475,2.475,0,0,1,.54.785,1.323,1.323,0,0,1,.074.254l.034.217.074.433.162.867.7,3.462-.039-.1c.374.569.757,1.132,1.085,1.735a12.813,12.813,0,0,1,.875,1.874,6.168,6.168,0,0,1,.39,2.095,2.457,2.457,0,0,1-1,2.082l.021-.664a7.655,7.655,0,0,1,1.759,1.861c.485.662.936,1.341,1.374,2.026.871,1.372,1.7,2.766,2.49,4.176,1.567,2.831,3.054,5.7,4.513,8.583s2.844,5.8,4.229,8.717,2.711,5.861,4,8.823a.049.049,0,0,1-.089.042Z" transform="translate(-15.6 -15.659)" fill="#0b0907"/>
      <path id="Path_199" data-name="Path 199" d="M297.876,159.289a6.191,6.191,0,0,1-3,1.508.42.42,0,1,1-.156-.825.452.452,0,0,1,.109-.006A5.778,5.778,0,0,0,297.876,159.289Z" transform="translate(-19.897 -19.851)"/>
      <path id="Path_200" data-name="Path 200" d="M297.746,147.048c.264.8.455,1.588.723,2.343a8.221,8.221,0,0,0,.451,1.1,4.431,4.431,0,0,0,.677,1,2.283,2.283,0,0,1-1-.8,4.133,4.133,0,0,1-.59-1.143,5.44,5.44,0,0,1-.259-2.5Z" transform="translate(-20.536 -17.473)" fill="#0b0907"/>
      <path id="Path_201" data-name="Path 201" d="M289.585,144.767l-6.338-2.469a.246.246,0,1,1,.178-.458l.016.007Z" transform="translate(-17.728 -16.456)" fill="#0b0907"/>
      <path id="Path_202" data-name="Path 202" d="M285.519,146.19l-7.481-2.811a.246.246,0,1,1,.173-.46l.014.006Z" transform="translate(-16.727 -16.667)" fill="#0b0907"/>
      <path id="Path_203" data-name="Path 203" d="M281.284,147.885c-1.308-.442-2.629-.845-3.96-1.2-.666-.172-1.335-.335-2.007-.461a6.8,6.8,0,0,0-1.973-.147l-.027,0a.246.246,0,0,1-.066-.487l.016,0a7.033,7.033,0,0,1,2.129.272c.676.169,1.339.373,2,.586Q279.366,147.1,281.284,147.885Z" transform="translate(-15.796 -17.188)" fill="#0b0907"/>
      <path id="Path_204" data-name="Path 204" d="M389.01,186.141l2.815-10.464,1.385-5.234c.221-.873.444-1.749.635-2.622a25.346,25.346,0,0,0,.4-2.644c.4-3.579.734-7.179,1.11-10.773q.277-2.7.607-5.393.167-1.348.378-2.7c.086-.451.161-.9.26-1.352l.168-.683a6.985,6.985,0,0,1,.276-.734.276.276,0,0,1,.133-.146l.057-.029a14.864,14.864,0,0,0,2.291-1.459,17.884,17.884,0,0,0,2.057-1.821,19.093,19.093,0,0,0,3.218-4.439l.005-.01a.353.353,0,0,1,.063-.085l4.671-4.607a1.189,1.189,0,0,0,.268-.6,2.5,2.5,0,0,0,.019-.735.783.783,0,0,0-.264-.532.819.819,0,0,0-.585-.122,1.191,1.191,0,0,0-.6.29l-.58.567c-.4.384-.8.762-1.212,1.131a12.35,12.35,0,0,1-2.708,1.975,1.539,1.539,0,0,1-.456.121.564.564,0,0,1-.531-.231,1.192,1.192,0,0,1-.038-.96,5.468,5.468,0,0,1,.828-1.485,22.224,22.224,0,0,1,2.2-2.483,7.008,7.008,0,0,0,1.887-2.577c.188-.489.124-1.044-.357-1.229a1.436,1.436,0,0,0-1.415.207,11.009,11.009,0,0,0-2.422,2.139c-.36.409-.712.826-1.045,1.259s-.632.885-1.031,1.307a4.186,4.186,0,0,1-.653.558,2.635,2.635,0,0,1-.379.227.608.608,0,0,1-.57.042.4.4,0,0,1-.137-.152.915.915,0,0,1-.044-.155,1.034,1.034,0,0,1,0-.253,2.382,2.382,0,0,1,.1-.435,7.216,7.216,0,0,1,.3-.794,9.74,9.74,0,0,1,.805-1.476l.934-1.358a19.566,19.566,0,0,0,1.6-2.824,3.874,3.874,0,0,0,.387-1.464.716.716,0,0,0-.247-.531.568.568,0,0,0-.519-.158,2.439,2.439,0,0,0-1.183.8,7.642,7.642,0,0,0-.933,1.277c-.282.46-.508.927-.754,1.434s-.525.987-.81,1.464a21.3,21.3,0,0,1-1.917,2.754c-.094.109-.194.217-.3.324a2.31,2.31,0,0,1-.178.159.623.623,0,0,1-.138.1,1.037,1.037,0,0,1-.121.056.607.607,0,0,1-.219.012.514.514,0,0,1-.324-.2.694.694,0,0,1-.1-.191,1.472,1.472,0,0,1-.069-.279,3.864,3.864,0,0,1-.033-.46,14.58,14.58,0,0,1,.1-1.7,30.831,30.831,0,0,1,.691-3.265,6.42,6.42,0,0,0,.162-1.53,3.982,3.982,0,0,0-.251-1.435c-.083-.194-.217-.328-.237-.313s-.009,0-.029,0a.157.157,0,0,1-.072.026,1.378,1.378,0,0,0-.218.169,5.588,5.588,0,0,0-.851,1.235,12.969,12.969,0,0,0-1.175,2.947c-.137.516-.25,1.038-.346,1.569s-.155,1.048-.3,1.663a14.036,14.036,0,0,1-1.252,3.179,3.126,3.126,0,0,1-1.374,1.38,1.4,1.4,0,0,1-.614.1,2.029,2.029,0,0,1-.316-.041l-.271-.117a2.49,2.49,0,0,1-.8-.633c-.846-1-1.03-2.19-1.566-2.942a1.377,1.377,0,0,0-1-.62,2.5,2.5,0,0,0-.678.008l-.348.062c-.087.038-.2.063-.269.1-.147.1-.113.071-.125.175a1.429,1.429,0,0,0,.213.543c.247.426.582.861.9,1.326a7.28,7.28,0,0,1,.466.747,3.591,3.591,0,0,1,.339.886c.134.579.2,1.128.275,1.681l.383,3.269c.073.536.151,1.072.261,1.587a6.252,6.252,0,0,0,.2.736,1.635,1.635,0,0,0,.236.492l.114.176a.427.427,0,0,1,.05.351c-1.025,3.436-2.108,6.854-3.159,10.281l-3.176,10.276-3.176,10.276-3.253,10.253a.049.049,0,0,1-.094-.028l2.916-10.354,2.993-10.331,2.993-10.331c1.005-3.441,1.978-6.892,3.01-10.326l.163.527a1.711,1.711,0,0,1-.364-.487,2.338,2.338,0,0,1-.188-.449,7.17,7.17,0,0,1-.232-.853c-.121-.56-.2-1.112-.279-1.663l-.393-3.275c-.072-.535-.144-1.077-.26-1.569a3.76,3.76,0,0,0-.658-1.294c-.3-.44-.645-.873-.952-1.4a2.319,2.319,0,0,1-.349-.989.794.794,0,0,1,.025-.346.809.809,0,0,1,.141-.346,1.3,1.3,0,0,1,.5-.451,3.606,3.606,0,0,1,.5-.192l.462-.086a3.518,3.518,0,0,1,.962-.011,2.441,2.441,0,0,1,1.713,1.045c.71,1.065.88,2.179,1.493,2.866a1.519,1.519,0,0,0,.471.389.88.88,0,0,1,.1.055c.033.007.062,0,.092.005.058.03.123-.021.189-.024a2.277,2.277,0,0,0,.881-.945,13.146,13.146,0,0,0,1.174-2.93c.115-.452.191-1.039.3-1.576s.227-1.1.376-1.645a13.914,13.914,0,0,1,1.285-3.149,6.3,6.3,0,0,1,1.037-1.451,2.144,2.144,0,0,1,.441-.318,3.055,3.055,0,0,1,.319-.1,1.324,1.324,0,0,1,.38.011,1.341,1.341,0,0,1,.859.831,4.793,4.793,0,0,1,.316,1.789,7.1,7.1,0,0,1-.21,1.735,30.667,30.667,0,0,0-.731,3.165,13.922,13.922,0,0,0-.12,1.591,3.171,3.171,0,0,0,.019.362.853.853,0,0,0,.025.121c.005.025,0,0-.01-.008a.287.287,0,0,0-.161-.09.2.2,0,0,0-.117.009.055.055,0,0,0-.03.007c-.032.026.012-.008.028-.023a1.539,1.539,0,0,0,.13-.113c.089-.083.177-.176.264-.273a20.69,20.69,0,0,0,1.886-2.618c.286-.46.561-.929.809-1.4s.5-1,.8-1.467a8.248,8.248,0,0,1,1.032-1.361,2.95,2.95,0,0,1,1.54-.956,1.152,1.152,0,0,1,.993.32,1.309,1.309,0,0,1,.3.413,1.258,1.258,0,0,1,.113.511,4.284,4.284,0,0,1-.461,1.694,20.014,20.014,0,0,1-1.7,2.871,16.462,16.462,0,0,0-1.755,2.738,6.821,6.821,0,0,0-.293.743,2.031,2.031,0,0,0-.09.366.52.52,0,0,0,0,.2.465.465,0,0,0,.214-.059,2.3,2.3,0,0,0,.328-.194,3.816,3.816,0,0,0,.6-.507c.361-.374.664-.848,1.016-1.273s.7-.856,1.068-1.269a11.293,11.293,0,0,1,2.516-2.187,2.656,2.656,0,0,1,.808-.33,1.419,1.419,0,0,1,.9.122,1.014,1.014,0,0,1,.592.708,1.713,1.713,0,0,1-.085.889,7.284,7.284,0,0,1-1.938,2.715,21.906,21.906,0,0,0-2.146,2.461,5.155,5.155,0,0,0-.762,1.384.885.885,0,0,0-.005.638c.04.108.3.071.527-.031a11.5,11.5,0,0,0,2.554-1.951c.4-.372.788-.755,1.172-1.144l.585-.6a1.7,1.7,0,0,1,.855-.432,1.341,1.341,0,0,1,.989.2,1.326,1.326,0,0,1,.5.88,3.046,3.046,0,0,1,0,.906,1.784,1.784,0,0,1-.378.894l-4.609,4.753.069-.1a19.454,19.454,0,0,1-1.461,2.469,17.938,17.938,0,0,1-1.827,2.213,18.725,18.725,0,0,1-2.137,1.917,15.571,15.571,0,0,1-2.438,1.57l.19-.174c-.056.184-.134.331-.187.537l-.151.633c-.091.429-.162.873-.242,1.309-.144.884-.278,1.772-.4,2.665q-.356,2.677-.651,5.369c-.414,3.586-.75,7.181-1.222,10.773a26,26,0,0,1-.469,2.7c-.214.887-.456,1.757-.7,2.63l-1.5,5.211c-1.037,3.462-2.1,6.913-3.179,10.362a.049.049,0,1,1-.094-.028Z" transform="translate(-35.471 -11.754)" fill="#0b0907"/>
      <path id="Path_205" data-name="Path 205" d="M405.852,137.327a24.931,24.931,0,0,0-2.077-2.128,6.466,6.466,0,0,0-1.172-.839,4.115,4.115,0,0,0-1.386-.46,2.615,2.615,0,0,1,1.543.111,4.362,4.362,0,0,1,1.336.817,6.361,6.361,0,0,1,1.756,2.5Z" transform="translate(-40.429 -14.733)" fill="#0b0907"/>
      <path id="Path_206" data-name="Path 206" d="M398.88,135.623a7.568,7.568,0,0,1,0,2.394,7.074,7.074,0,0,1-.276,1.173,2.757,2.757,0,0,1-.589,1.065,8.669,8.669,0,0,0,.217-1.155l.164-1.155a16.277,16.277,0,0,1,.482-2.321Z" transform="translate(-39.814 -15.078)" fill="#0b0907"/>
      <path id="Path_207" data-name="Path 207" d="M393.6,145.055a5.772,5.772,0,0,1-1.737-.061,3,3,0,0,1-1.691-.9l-.019-.021a.5.5,0,1,1,.742-.67.514.514,0,0,1,.087.134,2.258,2.258,0,0,0,1.044.99,5.532,5.532,0,0,0,1.576.525Z" transform="translate(-38.277 -16.732)"/>
      <path id="Path_208" data-name="Path 208" d="M313.949,300.362c.016,4.717.018,9.434-.041,14.149s-.083,9.431-.19,14.145l-.281,14.143q-.171,7.071-.475,14.138l-.186-.4a37.113,37.113,0,0,0,6.588,4.069,28.736,28.736,0,0,0,7.359,2.476,19.01,19.01,0,0,0,7.719-.108,16.8,16.8,0,0,0,6.881-3.414.265.265,0,0,1,.2-.059l.014,0a68.471,68.471,0,0,0,8.39.475,61.828,61.828,0,0,0,8.358-.58,33.458,33.458,0,0,0,8.014-2.087,15.332,15.332,0,0,0,6.487-4.7l-.137.488-1.544-13.265-1.466-13.275-1.476-13.274c-.505-4.423-1-8.848-1.546-13.269a.069.069,0,0,1,.135-.022c.854,4.375,1.571,8.775,2.244,13.18.7,4.4,1.287,8.818,1.886,13.233s1.146,8.836,1.68,13.258q.771,6.638,1.443,13.287v.011a.671.671,0,0,1-.138.477,16.624,16.624,0,0,1-7.1,5.03,33.432,33.432,0,0,1-8.346,1.994,56.757,56.757,0,0,1-8.51.326,71.733,71.733,0,0,1-8.462-.744l.214-.057a17.845,17.845,0,0,1-7.128,3.412,20.879,20.879,0,0,1-7.894.13,32.169,32.169,0,0,1-7.571-2.3,37.47,37.47,0,0,1-6.908-3.93.45.45,0,0,1-.186-.366v-.031q.058-7.073.229-14.144l.424-14.139c.128-4.713.33-9.425.514-14.137s.412-9.423.663-14.133a.068.068,0,0,1,.137,0Z" transform="translate(-23.28 -47.307)" fill="#0b0907"/>
      <path id="Path_209" data-name="Path 209" d="M355.472,316.949c1.093-.367,2.166-.762,3.234-1.153s2.123-.814,3.145-1.295a22.444,22.444,0,0,0,2.977-1.593,11.731,11.731,0,0,0,2.581-2.188,7.938,7.938,0,0,1-2.271,2.624,14.883,14.883,0,0,1-3,1.779,21.422,21.422,0,0,1-3.266,1.179A19.478,19.478,0,0,1,355.472,316.949Z" transform="translate(-31.638 -49.293)" fill="#0b0907"/>
      <path id="Path_210" data-name="Path 210" d="M348.518,363.139c.22-3.884.6-7.757,1.046-11.622s1.011-7.716,1.634-11.558c.67-3.834,1.4-7.662,2.349-11.441a65.836,65.836,0,0,1,3.633-11.09l-.941,2.758-.8,2.8c-.5,1.875-.987,3.752-1.378,5.653-.422,1.893-.8,3.8-1.183,5.7-.343,1.91-.7,3.817-1,5.735-.678,3.823-1.237,7.667-1.788,11.512q-.423,2.883-.8,5.774Z" transform="translate(-30.301 -50.672)" fill="#0b0907"/>
      <path id="Path_211" data-name="Path 211" d="M356.918,364.991l.545-10.255c.168-3.417.357-6.833.444-10.251q.212-5.124.154-10.249c-.019-1.707-.072-3.415-.215-5.114a18.6,18.6,0,0,0-.927-5.015,17.258,17.258,0,0,1,1.26,4.98c.212,1.706.325,3.42.408,5.134.152,3.43.091,6.861,0,10.287-.144,3.425-.323,6.847-.6,10.262S357.376,361.6,356.918,364.991Z" transform="translate(-31.915 -51.962)" fill="#0b0907"/>
      <path id="Path_212" data-name="Path 212" d="M313.216,330.136a63.957,63.957,0,0,1,6.647-.463.512.512,0,0,1,.524.5v.025c.021,1.125.048,2.249,0,3.374s-.14,2.249-.213,3.374a46.99,46.99,0,0,0,0,6.747c.059,1.124.152,2.249.2,3.374s.069,2.249.1,3.374c.077,2.249.066,4.5-.008,6.747l0,.05a.557.557,0,0,1-.492.535,15.313,15.313,0,0,1-2,.117,12.255,12.255,0,0,1-1.993-.161,6.744,6.744,0,0,1-1.935-.6,2.549,2.549,0,0,1-1.352-1.478.062.062,0,0,1,.044-.076.063.063,0,0,1,.07.029,2.392,2.392,0,0,0,1.443,1.047,6.648,6.648,0,0,0,1.812.28,18.508,18.508,0,0,0,1.868-.071c.618-.062,1.255-.141,1.845-.258l-.494.585c-.074-2.249-.085-4.5-.008-6.747.028-1.124.049-2.249.1-3.374s.14-2.249.2-3.374a46.963,46.963,0,0,0,0-6.747c-.073-1.125-.166-2.249-.213-3.374s-.023-2.249,0-3.374l.524.524a63.973,63.973,0,0,1-6.647-.463.062.062,0,0,1,0-.123Z" transform="translate(-23.414 -53.019)" fill="#0b0907"/>
      <path id="Path_213" data-name="Path 213" d="M313.231,336.318a15.308,15.308,0,0,1,3.425.222,15.14,15.14,0,0,1,3.313.9,15.134,15.134,0,0,1-3.425-.222A15.318,15.318,0,0,1,313.231,336.318Z" transform="translate(-23.52 -54.257)" fill="#0b0907"/>
      <path id="Path_214" data-name="Path 214" d="M306.26,372.228c-.807.885-1.57,1.806-2.3,2.749a26.975,26.975,0,0,1-2.243,2.839c-.429.436-.883.839-1.351,1.229-.486.389-.989.726-1.487,1.063l-2.985,1.985a83.765,83.765,0,0,0-11.123,8.863c-1.721,1.63-3.356,3.347-4.931,5.119-1.56,1.8-3.025,3.627-4.5,5.538a65.344,65.344,0,0,1-4.776,5.425c-1.678,1.741-3.577,3.2-5.363,4.8.714-.967,1.521-1.867,2.3-2.771s1.6-1.781,2.389-2.664c1.594-1.762,3.078-3.619,4.5-5.519a70.975,70.975,0,0,1,9.451-10.911,62.4,62.4,0,0,1,5.537-4.659,69.132,69.132,0,0,1,5.984-4.046c1.023-.629,2.071-1.219,3.1-1.822.513-.3,1.019-.609,1.494-.932.477-.344.944-.706,1.382-1.094a26.693,26.693,0,0,0,2.386-2.636A31.494,31.494,0,0,1,306.26,372.228Z" transform="translate(-14.291 -61.325)" fill="#0b0907"/>
      <path id="Path_215" data-name="Path 215" d="M273.233,426.72c1.165-1.165,2.363-2.295,3.576-3.409s2.422-2.235,3.672-3.308c2.5-2.152,5.028-4.264,7.634-6.294a88.478,88.478,0,0,1,8.164-5.655,36.015,36.015,0,0,1,4.462-2.317c.386-.173.8-.3,1.2-.448s.756-.256,1.132-.4c.744-.291,1.483-.607,2.207-.964a66.118,66.118,0,0,0,15.772-11.4,50.825,50.825,0,0,0,6.378-7.409,22.217,22.217,0,0,0,3.945-8.895,21.4,21.4,0,0,1-3.446,9.222,47.649,47.649,0,0,1-6.2,7.761,63.709,63.709,0,0,1-7.432,6.6,52.241,52.241,0,0,1-8.435,5.327c-.749.375-1.521.712-2.308,1.024-.39.154-.809.29-1.191.43s-.742.257-1.107.422a34.7,34.7,0,0,0-4.3,2.2c-2.794,1.663-5.506,3.5-8.153,5.435-2.671,1.9-5.283,3.893-7.862,5.928C278.351,422.58,275.791,424.644,273.233,426.72Z" transform="translate(-15.834 -62.269)"/>
      <path id="Path_216" data-name="Path 216" d="M317.745,388.662c-.675,1.119-1.382,2.163-1.947,3.268a7.583,7.583,0,0,0-.676,1.694,3.255,3.255,0,0,0,.018,1.822,2.445,2.445,0,0,1-.546-1.906,5.171,5.171,0,0,1,.6-1.923,8.428,8.428,0,0,1,2.556-2.955Z" transform="translate(-23.777 -64.446)" fill="#0b0907"/>
      <path id="Path_217" data-name="Path 217" d="M267.317,435.362a3.363,3.363,0,0,0-2.256-.732c-1.722.046-5.494-.351-6.836-4.382a7.457,7.457,0,0,1,.678-5.83c.983-1.806,2.027-4.5.617-6.066-2.271-2.5-6.95,2.225-6.95,2.225s-3.193,2.248-5.86,2.02a7,7,0,0,0-5.883,2.286c-1.958,2.187-2.995,5.624,1.5,10.3,0,0,3.4,3.056,5.228,14.418s6.4,25.361,14.35,21.223a2.573,2.573,0,0,0,1.029-1.966,2.21,2.21,0,0,0-1.3-1.661,2.951,2.951,0,0,0-1.052-.282,5.84,5.84,0,0,0-1.135.046,6.084,6.084,0,0,1-2.439-.4,8.282,8.282,0,0,1-3.7-3.193,17.319,17.319,0,0,1-2-4.4l-.015-.03v-.023c-.6-2.827-1.242-5.654-1.974-8.444-.366-1.395-.754-2.789-1.2-4.153a15.743,15.743,0,0,0-1.676-3.848,19.007,19.007,0,0,1-1.829-4.069c-.472-1.387-.869-2.8-1.2-4.222a30.752,30.752,0,0,1-.686-4.336,9.933,9.933,0,0,1,.381-4.336,10.741,10.741,0,0,0,0,4.3,42.55,42.55,0,0,0,.945,4.214c.4,1.387.846,2.751,1.372,4.085a21.494,21.494,0,0,0,1.867,3.8c.175.259.411.648.6.968.168.343.343.678.488,1.021.3.686.549,1.379.785,2.08.465,1.395.869,2.8,1.25,4.207.724,2.827,1.372,5.654,1.905,8.527a18.147,18.147,0,0,0,1.753,4.168,7.444,7.444,0,0,0,3.193,3.041,5.351,5.351,0,0,0,2.157.465,6.058,6.058,0,0,1,1.219.038,3.339,3.339,0,0,1,1.181.427,2.509,2.509,0,0,1,1.334,2,2.628,2.628,0,0,1-1.257,1.974s3.048-.061,3.041-7.552c-.008-4.42.091-11.111.168-15.843-.694-.3-1.326-.64-1.951-.975l-1.844-1a15.6,15.6,0,0,0-1.829-.831,3.137,3.137,0,0,0-1.989-.152,2.313,2.313,0,0,1,2.164-.724,6.032,6.032,0,0,1,2.187.693,8.833,8.833,0,0,1,1.821,1.288,6.875,6.875,0,0,1,1.44,1.7c.061-3.284.107-5.632.107-5.632-.579-.511-1.059-1.021-1.593-1.471A12.447,12.447,0,0,0,262,439.1a13.616,13.616,0,0,0-3.833-1.631,4.446,4.446,0,0,1,2.279-.168,5.732,5.732,0,0,1,2.164.831,5.869,5.869,0,0,1,1.684,1.585,5.418,5.418,0,0,1,.93,2.073S270.274,437.839,267.317,435.362Zm-15.272,2.065c-1.349.312-3.871-1.661-3.109-4.382.884-3.163.419-5.19,1.768-5.5s2.743,1.654,3.109,4.382-.418,5.19-1.768,5.5Zm7.537,12.063a5.518,5.518,0,0,1,2.263.625,7.187,7.187,0,0,1,1.859,1.364,6,6,0,0,1,1.318,1.844c-1.311-.77-2.461-1.57-3.7-2.187a11.89,11.89,0,0,0-1.882-.77,9.421,9.421,0,0,0-2.1-.274,3.685,3.685,0,0,1,2.241-.6Z" transform="translate(-9.285 -70.226)" fill="#6a8eae"/>
      <path id="Path_218" data-name="Path 218" d="M350.864,374.243c-.67.993-1.292,2.014-1.874,3.053a26.965,26.965,0,0,1-1.808,3.134c-.361.494-.753.958-1.158,1.412-.425.456-.873.861-1.317,1.267l-2.666,2.4a83.756,83.756,0,0,0-9.721,10.382c-1.466,1.862-2.835,3.8-4.137,5.779-1.283,2-2.467,4.027-3.647,6.132a65.385,65.385,0,0,1-3.939,6.06c-1.408,1.966-3.075,3.685-4.61,5.531.566-1.06,1.234-2.068,1.878-3.076s1.323-1.994,1.978-2.982c1.322-1.975,2.52-4.027,3.653-6.113a70.975,70.975,0,0,1,7.769-12.166,62.4,62.4,0,0,1,4.8-5.413,69.11,69.11,0,0,1,5.335-4.87c.921-.771,1.872-1.507,2.8-2.252.464-.372.92-.75,1.343-1.138.422-.409.832-.835,1.209-1.283a26.7,26.7,0,0,0,1.979-2.954,31.469,31.469,0,0,1,2.13-2.9Z" transform="translate(-24.05 -61.89)" fill="#0b0907"/>
      <path id="Path_219" data-name="Path 219" d="M326.464,431.066a169.781,169.781,0,0,1,13.7-15.905,74.829,74.829,0,0,1,7.855-7.055c.71-.533,1.436-1.05,2.2-1.529.741-.482,1.618-.9,2.324-1.284a30.241,30.241,0,0,0,4.212-2.9,62.032,62.032,0,0,0,7.442-7.2,63.834,63.834,0,0,0,6.219-8.3,38.741,38.741,0,0,0,4.324-9.4,17.938,17.938,0,0,0,.253-10.253,17.6,17.6,0,0,1,.3,10.4,36.84,36.84,0,0,1-4.077,9.73,61.087,61.087,0,0,1-13.625,16.059,31.514,31.514,0,0,1-4.391,3.057c-.832.447-1.526.794-2.257,1.255s-1.422.938-2.113,1.449A88.606,88.606,0,0,0,340.994,416q-3.768,3.61-7.373,7.41Q330.006,427.2,326.464,431.066Z" transform="translate(-26.063 -60.543)" fill="#0b0907"/>
      <path id="Path_220" data-name="Path 220" d="M363.417,390.146c-.506,1.205-1.054,2.341-1.453,3.516a7.584,7.584,0,0,0-.424,1.774,3.256,3.256,0,0,0,.282,1.8,2.446,2.446,0,0,1-.816-1.807,5.171,5.171,0,0,1,.31-1.989A8.425,8.425,0,0,1,363.417,390.146Z" transform="translate(-32.7 -64.735)" fill="#0b0907"/>
      <path id="Path_221" data-name="Path 221" d="M322.2,471.075c-.4-2.736-.9-6.363-1.364-9.846-1.41-.579-2.667-1.2-3.97-1.631a12.055,12.055,0,0,0-1.974-.488,9.079,9.079,0,0,0-2.126.031,3.749,3.749,0,0,1,2.126-.922,5.852,5.852,0,0,1,2.332.289,7.051,7.051,0,0,1,2.035,1.082,6.092,6.092,0,0,1,1.577,1.638c-.274-2.073-.541-4.1-.762-5.853a20.042,20.042,0,0,1-2.073-.686l-1.966-.716a16.2,16.2,0,0,0-1.936-.556,3.13,3.13,0,0,0-2,.137,2.361,2.361,0,0,1,2.042-1.029,6.062,6.062,0,0,1,2.263.373,8.772,8.772,0,0,1,2,1.006,7.264,7.264,0,0,1,1.669,1.471c-.427-3.254-.716-5.586-.716-5.586-.64-.419-1.2-.861-1.791-1.227a13.551,13.551,0,0,0-1.783-.976,13.867,13.867,0,0,0-4.031-1.052,4.319,4.319,0,0,1,2.225-.5,5.924,5.924,0,0,1,4.161,1.836,5.4,5.4,0,0,1,1.219,1.913s4.428-4.649,1.143-6.668a3.339,3.339,0,0,0-2.34-.4c-1.7.29-5.479.45-7.4-3.345a7.458,7.458,0,0,1-.168-5.868c.709-1.928,1.349-4.748-.274-6.089-2.606-2.149-6.554,3.208-6.554,3.208s-2.835,2.69-5.51,2.85a7.006,7.006,0,0,0-5.487,3.109c-1.616,2.454-2.141,6,2.98,9.975,0,0,3.8,2.53,7.262,13.5s10.013,24.165,17.276,18.914a2.547,2.547,0,0,0,.732-2.088,2.2,2.2,0,0,0-1.524-1.456,2.894,2.894,0,0,0-1.082-.13,5.872,5.872,0,0,0-1.12.213,6.166,6.166,0,0,1-2.477-.046,8.293,8.293,0,0,1-4.115-2.621,17.307,17.307,0,0,1-2.614-4.069l-.015-.023-.008-.023c-1.006-2.705-2.05-5.411-3.178-8.07-.564-1.326-1.151-2.644-1.783-3.932a16.071,16.071,0,0,0-2.218-3.567,18.989,18.989,0,0,1-2.4-3.757,43.8,43.8,0,0,1-1.8-4.008,29.91,29.91,0,0,1-1.311-4.184,10.016,10.016,0,0,1-.251-4.351,10.781,10.781,0,0,0,.617,4.252,43.049,43.049,0,0,0,1.555,4.031c.587,1.311,1.235,2.6,1.951,3.848a21.472,21.472,0,0,0,2.393,3.483c.213.236.5.587.739.876.206.313.434.625.633.945.389.632.739,1.28,1.074,1.935.663,1.311,1.265,2.644,1.844,3.986,1.128,2.69,2.179,5.4,3.124,8.162a18.224,18.224,0,0,0,2.332,3.871,7.519,7.519,0,0,0,3.6,2.545,5.5,5.5,0,0,0,2.2.145,5.876,5.876,0,0,1,1.212-.137,3.381,3.381,0,0,1,1.227.244,2.5,2.5,0,0,1,1.608,1.8,2.586,2.586,0,0,1-.953,2.126S323.287,478.482,322.2,471.075Zm-16.514-23.693c-1.288.5-4.069-1.082-3.711-3.887.419-3.262-.335-5.2.953-5.7s2.957,1.234,3.719,3.879S306.972,446.88,305.684,447.382Z" transform="translate(-19.372 -72.012)" fill="#6a8eae"/>
      <path id="Path_222" data-name="Path 222" d="M252.338,172.708a96.636,96.636,0,0,0,1.867,10.748,60.945,60.945,0,0,0,3.313,10.274,35.3,35.3,0,0,0,2.431,4.778,29.429,29.429,0,0,0,3.125,4.333,25.848,25.848,0,0,0,3.938,3.625,26.714,26.714,0,0,0,4.728,2.663,20.222,20.222,0,0,1-5.136-2.035,22.555,22.555,0,0,1-4.4-3.441,30.123,30.123,0,0,1-6.085-9.319,47.115,47.115,0,0,1-3.076-10.642A49.274,49.274,0,0,1,252.338,172.708Z" transform="translate(-11.808 -22.487)" fill="#fbab36"/>
      <path id="Path_223" data-name="Path 223" d="M247.084,202.981a79.479,79.479,0,0,0,4.112,9.641c.8,1.54,1.634,3.063,2.565,4.52a38.765,38.765,0,0,0,2.99,4.213,29.519,29.519,0,0,0,7.584,6.846A24.366,24.366,0,0,0,269,230.349a27.386,27.386,0,0,0,5.105,1.1,20.186,20.186,0,0,1-5.3-.379,21.259,21.259,0,0,1-5.056-1.834,25.189,25.189,0,0,1-4.46-3.043,31.235,31.235,0,0,1-3.73-3.886,40.166,40.166,0,0,1-5.44-9.183,42.944,42.944,0,0,1-3.04-10.145Z" transform="translate(-10.809 -28.37)" fill="#fbab36"/>
      <path id="Path_224" data-name="Path 224" d="M208.5,391.748a96.639,96.639,0,0,0-2.708,10.567,60.95,60.95,0,0,0-1.194,10.729,35.3,35.3,0,0,0,.257,5.355,29.423,29.423,0,0,0,1.072,5.233,25.841,25.841,0,0,0,2.1,4.921,26.7,26.7,0,0,0,3.219,4.368,20.219,20.219,0,0,1-3.849-3.964,22.559,22.559,0,0,1-2.6-4.943,30.122,30.122,0,0,1-1.725-11,47.117,47.117,0,0,1,1.561-10.967,49.27,49.27,0,0,1,3.863-10.306Z" transform="translate(-2.349 -65.254)" fill="#fbab36"/>
      <path id="Path_225" data-name="Path 225" d="M192.237,417.194a79.461,79.461,0,0,0-.205,10.479c.1,1.735.233,3.464.484,5.175a38.777,38.777,0,0,0,1,5.069,29.519,29.519,0,0,0,4.107,9.356A24.365,24.365,0,0,0,201,451.147a27.386,27.386,0,0,0,4.2,3.1,20.188,20.188,0,0,1-4.678-2.521,21.256,21.256,0,0,1-3.858-3.747,25.186,25.186,0,0,1-2.818-4.6,31.236,31.236,0,0,1-1.807-5.074,40.166,40.166,0,0,1-1.193-10.606A42.948,42.948,0,0,1,192.237,417.194Z" transform="translate(0 -70.144)" fill="#fbab36"/>
      <path id="Path_226" data-name="Path 226" d="M427.986,274.36a49.273,49.273,0,0,1-.77,10.979,47.119,47.119,0,0,1-3.138,10.623,30.123,30.123,0,0,1-6.14,9.284,22.561,22.561,0,0,1-4.419,3.415,20.213,20.213,0,0,1-5.148,2.005,26.7,26.7,0,0,0,4.744-2.635,25.841,25.841,0,0,0,3.959-3.6,29.416,29.416,0,0,0,3.15-4.314,35.29,35.29,0,0,0,2.459-4.764,60.945,60.945,0,0,0,3.374-10.254,96.643,96.643,0,0,0,1.93-10.737Z" transform="translate(-41.803 -42.27)" fill="#fbab36"/>
      <path id="Path_227" data-name="Path 227" d="M431.272,304.663a42.947,42.947,0,0,1-3.1,10.127,40.171,40.171,0,0,1-5.494,9.151,31.25,31.25,0,0,1-3.752,3.864,25.185,25.185,0,0,1-4.477,3.017,21.255,21.255,0,0,1-5.066,1.8,20.188,20.188,0,0,1-5.3.348,27.374,27.374,0,0,0,5.111-1.072,24.378,24.378,0,0,0,4.682-2.121,29.523,29.523,0,0,0,7.624-6.8,38.775,38.775,0,0,0,3.015-4.2c.94-1.451,1.778-2.969,2.591-4.505A79.471,79.471,0,0,0,431.272,304.663Z" transform="translate(-40.978 -48.153)" fill="#fbab36"/>
      <path id="Path_228" data-name="Path 228" d="M251.378,94.714a1.22,1.22,0,0,0-.344-.9l-4.626-4.35c-.355-.3-.806-.152-1.036.322a1.4,1.4,0,0,0,.182,1.479l3.662,3.45-3.662,3.45a1.351,1.351,0,0,0,0,1.8l3.662,3.45-3.662,3.45a1.351,1.351,0,0,0,0,1.8l4.626,4.35c.355.331.831.2,1.066-.3a1.363,1.363,0,0,0-.211-1.5l-3.662-3.45,3.662-3.45a1.351,1.351,0,0,0,0-1.8l-3.662-3.45,3.662-3.45a1.22,1.22,0,0,0,.344-.9Zm0,0" transform="translate(-10.449 -6.177)" fill="#fbab36"/>
      <path id="Path_229" data-name="Path 229" d="M218.722,326.067a1.355,1.355,0,0,0,.276.874l2.944,3.35L219,333.641a1.569,1.569,0,0,0-.155,1.445c.183.469.557.61.842.3l3.718-4.224a1.521,1.521,0,0,0,0-1.749l-2.944-3.35,2.944-3.35a1.521,1.521,0,0,0,0-1.749l-2.944-3.35,2.944-3.35a1.569,1.569,0,0,0,.155-1.445c-.183-.469-.557-.61-.842-.3L219,316.744a1.521,1.521,0,0,0,0,1.749l2.944,3.35L219,325.192a1.328,1.328,0,0,0-.276.874Zm0,0" transform="translate(-5.358 -49.641)" fill="#fbab36"/>
      <path id="Path_230" data-name="Path 230" d="M197.024,169.4a1.355,1.355,0,0,0,.276.874l2.944,3.35-2.944,3.35a1.569,1.569,0,0,0-.155,1.445c.183.469.557.61.842.3l3.718-4.224a1.521,1.521,0,0,0,0-1.749l-2.944-3.35,2.944-3.35a1.521,1.521,0,0,0,0-1.749l-2.944-3.35,2.944-3.35a1.569,1.569,0,0,0,.155-1.445c-.183-.469-.557-.61-.842-.3l-3.718,4.224a1.521,1.521,0,0,0,0,1.749l2.944,3.35-2.944,3.35a1.328,1.328,0,0,0-.276.874Zm0,0" transform="translate(-1.188 -19.165)" fill="#fbab36"/>
      <path id="Path_231" data-name="Path 231" d="M458.954,375.549a1.278,1.278,0,0,0,.328.9l3.495,3.45-3.495,3.45a1.436,1.436,0,0,0-.184,1.488c.218.483.661.629,1,.313l4.415-4.35a1.4,1.4,0,0,0,0-1.8l-3.495-3.45,3.495-3.45a1.4,1.4,0,0,0,0-1.8l-3.495-3.45,3.495-3.45a1.436,1.436,0,0,0,.184-1.488c-.218-.483-.661-.629-1-.313l-4.415,4.35a1.4,1.4,0,0,0,0,1.8l3.495,3.45-3.495,3.45a1.252,1.252,0,0,0-.328.9Zm0,0" transform="translate(-51.523 -59.188)" fill="#fbab36"/>
      <path id="Path_232" data-name="Path 232" d="M472.777,210.6l-2.746,2.48a3.847,3.847,0,0,0,0,5.292l.791.722a1.283,1.283,0,0,1,0,1.758l-.791.722a3.847,3.847,0,0,0,0,5.292l.791.722a1.284,1.284,0,0,1,0,1.758l-.791.722a3.847,3.847,0,0,0,0,5.291l.791.722a1.283,1.283,0,0,1,0,1.758l-2.752,2.489a1.307,1.307,0,0,0-.2,1.452.668.668,0,0,0,1.065.306l2.746-2.48a3.847,3.847,0,0,0,0-5.291l-.791-.722a1.166,1.166,0,0,1-.342-.879,1.147,1.147,0,0,1,.348-.879l.791-.722a3.864,3.864,0,0,0,0-5.292l-.791-.722a1.284,1.284,0,0,1,0-1.758l.791-.722a3.863,3.863,0,0,0,0-5.291l-.791-.722a1.284,1.284,0,0,1,0-1.758l2.746-2.489a1.3,1.3,0,0,0,.221-1.467.669.669,0,0,0-1.09-.291Zm0,0" transform="translate(-53.212 -29.822)" fill="#fbab36"/>
      <path id="Path_233" data-name="Path 233" d="M432.438,87.776l-2.9-2.549a1.288,1.288,0,0,1,0-1.8l.834-.74a3.86,3.86,0,0,0,0-5.42l-.834-.739a1.288,1.288,0,0,1,0-1.8l.834-.74a3.86,3.86,0,0,0,0-5.42l-.834-.74a1.288,1.288,0,0,1,0-1.8l.834-.739a3.86,3.86,0,0,0,0-5.42l-2.894-2.541a.712.712,0,0,0-1.123.313,1.31,1.31,0,0,0,.207,1.488l2.9,2.549a1.288,1.288,0,0,1,0,1.8l-.833.739a3.86,3.86,0,0,0,0,5.42l.833.74a1.288,1.288,0,0,1,0,1.8l-.833.74a3.86,3.86,0,0,0,0,5.42l.833.739a1.288,1.288,0,0,1,0,1.8l-.833.74a3.86,3.86,0,0,0,0,5.42l2.894,2.541a.715.715,0,0,0,1.143-.3,1.292,1.292,0,0,0-.227-1.5Zm0,0" transform="translate(-45.231)" fill="#fbab36"/>
      <path id="Path_234" data-name="Path 234" d="M364.573,74.949a4.353,4.353,0,1,1-4.343-4.06A4.213,4.213,0,0,1,364.573,74.949Zm0,0" transform="translate(-31.715 -2.637)" fill="#fbab36"/>
      <path id="Path_235" data-name="Path 235" d="M427.1,414.194a4.367,4.367,0,1,1-4.357-4.073,4.226,4.226,0,0,1,4.357,4.073Zm0,0" transform="translate(-43.726 -68.784)" fill="#fbab36"/>
      <path id="Path_236" data-name="Path 236" d="M488.733,158.512a3.5,3.5,0,1,1-3.49-3.263A3.383,3.383,0,0,1,488.733,158.512Zm0,0" transform="translate(-55.903 -19.069)" fill="#fbab36"/>
      <path id="Path_237" data-name="Path 237" d="M292.824,338.633a3.5,3.5,0,1,1-3.49-3.263,3.383,3.383,0,0,1,3.49,3.263Zm0,0" transform="translate(-18.255 -54.086)" fill="#fbab36"/>
      <path id="Path_238" data-name="Path 238" d="M340.559,154.288c2.942,0,2.947-4.572,0-4.572S337.612,154.288,340.559,154.288Z" transform="translate(-28.347 -17.992)" fill="#fbab36"/>
      <path id="Path_239" data-name="Path 239" d="M238.63,251.56c2.942,0,2.947-4.572,0-4.572S235.683,251.56,238.63,251.56Z" transform="translate(-8.76 -36.901)" fill="#fbab36"/>
      <path id="Path_240" data-name="Path 240" d="M458.429,323.928c2.942,0,2.947-4.572,0-4.572S455.482,323.928,458.429,323.928Z" transform="translate(-50.998 -50.969)" fill="#fbab36"/>
      <path id="Path_241" data-name="Path 241" d="M413.785,231.874c2.942,0,2.947-4.572,0-4.572S410.838,231.874,413.785,231.874Z" transform="translate(-42.419 -33.074)" fill="#fbab36"/>
    </g>
    <text id="Congratulations_" data-name="Congratulations!" transform="translate(206 131)" fill="#0b0907" font-size="24" font-family="Raleway" font-weight="700"><tspan x="-96.228" y="0">Congratulations!</tspan></text>
    <g id="Logo" transform="translate(23.357 22.485)">
      <path id="Path_563" data-name="Path 563" d="M27.671-11.658a12.777,12.777,0,0,1-3.618,9.447,12.777,12.777,0,0,1-9.447,3.618q-6.231,0-9.38-4.221a21.274,21.274,0,0,1-3.819-8.844,52.65,52.65,0,0,1-.737-7.7q0-2.948.234-5.9t.837-6.533a32.767,32.767,0,0,1,1.776-6.566,31.03,31.03,0,0,1,2.848-5.561,12.117,12.117,0,0,1,4.322-4.053,10.683,10.683,0,0,1,5.226-1.474,15.013,15.013,0,0,1,3.752.335,7.1,7.1,0,0,0,1.675.335,4.829,4.829,0,0,0,1.675-.536,6.912,6.912,0,0,1,2.881-.536q1.708,0,1.708,1.407,0,.067-.536,2.914a31.444,31.444,0,0,0-.536,5.829,9.468,9.468,0,0,0,.536,3.953A3.829,3.829,0,0,1,27.6-33.9a2.915,2.915,0,0,1-1.541,2.613,6.325,6.325,0,0,1-3.35.938q-4.69,0-4.69-4.824a14.058,14.058,0,0,1,.4-2.881,14.446,14.446,0,0,0,.4-2.345q0-1.407-1.541-1.407-2.144,0-4.288,3.886-2.479,4.489-2.479,13.132a25.509,25.509,0,0,0,.8,6.7q1.541,5.561,5.092,5.561,3.082,0,4.757-3.35a2.539,2.539,0,0,1,2.479-1.608,3.324,3.324,0,0,1,2.881,1.943A7.627,7.627,0,0,1,27.671-11.658Zm9.581.8q0,2.814,2.01,2.814a3.7,3.7,0,0,0,3.25-2.077A7.416,7.416,0,0,0,43.751-13.8q0-3.015-2.144-3.015a3.6,3.6,0,0,0-3.149,1.943A7.523,7.523,0,0,0,37.252-10.854Zm14.4-10.653-.2,9.313q0,5.561,1.407,6.432a2.1,2.1,0,0,1,.871,1.742q0,1.943-2.579,3.618A9.557,9.557,0,0,1,45.9,1.273,3.04,3.04,0,0,1,43.885.7a1.628,1.628,0,0,1-.67-1.24q0-1.809-.469-1.809a5.666,5.666,0,0,0-.838.77A9.1,9.1,0,0,1,39.631-.034a8.361,8.361,0,0,1-3.819.771A7.4,7.4,0,0,1,31.725-.4,5.894,5.894,0,0,1,29.279-3.35a15.217,15.217,0,0,1-1.206-5.628,14.591,14.591,0,0,1,.8-4.891,11.485,11.485,0,0,1,2.01-3.685A14.5,14.5,0,0,1,33.7-20.067a13.339,13.339,0,0,1,3.015-1.608,25.09,25.09,0,0,1,2.881-.837,18.1,18.1,0,0,1,2.881-.4l.67-.871q-.067-2.278-3.317-2.278a10.059,10.059,0,0,0-5.326,1.273,2.882,2.882,0,0,1-1.608.536q-1.608,0-1.608-2.412,0-6.231,9.916-6.231,7.638,0,9.581,5.092A18.2,18.2,0,0,1,51.657-21.507ZM74.37-12.73q3.618,0,3.618,4.422a10.171,10.171,0,0,1-1.139,4.657A8.859,8.859,0,0,1,74.471-.7,9.787,9.787,0,0,1,71.288.8a18.981,18.981,0,0,1-5.427.737A10.264,10.264,0,0,1,60.535.134a9.533,9.533,0,0,1-3.651-3.819,23.211,23.211,0,0,1-2.412-10.988,24.012,24.012,0,0,1,3.149-12.4,11.4,11.4,0,0,1,4.321-4.355,12.958,12.958,0,0,1,6.6-1.608,10.793,10.793,0,0,1,6.533,1.977q2.713,1.977,2.714,6.131,0,4.958-4.489,4.958a2.49,2.49,0,0,1-1.91-.838,2.5,2.5,0,0,1-.771-1.675,8.281,8.281,0,0,0-.1-1.407,4.234,4.234,0,0,0-.8-1.541,2.117,2.117,0,0,0-1.775-.971q-4.221,0-4.221,8.442a26.972,26.972,0,0,0,.469,5.025q1,4.69,3.752,4.69a2.8,2.8,0,0,0,2.814-2.144,2.68,2.68,0,0,1,1.273-1.642A4.188,4.188,0,0,1,74.37-12.73Zm14.4-18.157.067,1.742q.134.469.4.469a.772.772,0,0,0,.536-.268,7.843,7.843,0,0,1,2.881-2.446A7.952,7.952,0,0,1,96.48-32.5a4.731,4.731,0,0,1,4.188,2.144,11.676,11.676,0,0,1,1.842,4.891q.4,4.69.4,7.872t-.134,5.863q0,4.757,2.144,6.1a1.749,1.749,0,0,1,1.072,1.508,2.994,2.994,0,0,1-.469,1.641A7.218,7.218,0,0,1,102.342.067a10.392,10.392,0,0,1-3.651,1.005l-1.541.134A3.053,3.053,0,0,1,94.47.067a6.494,6.494,0,0,1-.67-3.35l.6-11.524q.067-.871.067-2.278,0-5.494-2.479-5.494A2.779,2.779,0,0,0,89.479-20.7a10.6,10.6,0,0,0-1,4.188q-.1,2.312-.1,5.059l.4,8.308A3.727,3.727,0,0,1,87.234.134a9.886,9.886,0,0,1-5.729,1.608q-3.384,0-3.383-2.211l.2-1.206q2.144-10.385,2.144-27.6.067-2.412.067-5.326t-.1-3.953a4.173,4.173,0,0,0-.637-1.876,5.233,5.233,0,0,0-1.541-1.507,1.927,1.927,0,0,1-.871-1.541q0-2.278,3.752-4.288a13.812,13.812,0,0,1,5.963-2.01q2.479,0,2.479,3.752,0,2.747-.4,7.772T88.775-30.887Zm26.4,10.787a.909.909,0,0,0,.268.67.825.825,0,0,0,.67.335,5.512,5.512,0,0,0,5.092-3.618,6.183,6.183,0,0,0,.469-1.742Q121.6-26.8,119.8-26.8a3.468,3.468,0,0,0-3.183,2.01A12.99,12.99,0,0,0,115.173-20.1Zm4.59-12.864a10,10,0,0,1,6.968,2.278q2.513,2.278,2.512,6.9a9.484,9.484,0,0,1-3.651,7.638,13.987,13.987,0,0,1-9.213,3.015.711.711,0,0,0-.8.8,3.8,3.8,0,0,0,1.173,2.781,4.346,4.346,0,0,0,3.216,1.173,4.828,4.828,0,0,0,3.685-1.876q1.642-1.876,2.881-1.876a2.286,2.286,0,0,1,1.976,1.072,5.347,5.347,0,0,1,.737,3.049,8.893,8.893,0,0,1-.971,3.953,8.1,8.1,0,0,1-2.312,2.982A11.456,11.456,0,0,1,122.945.536a14.736,14.736,0,0,1-5.259.938,10.521,10.521,0,0,1-5.193-1.34,9.747,9.747,0,0,1-3.752-3.618,19.907,19.907,0,0,1-2.613-10.084,30.942,30.942,0,0,1,1.34-9.615,15.473,15.473,0,0,1,4.59-6.934A11.307,11.307,0,0,1,119.762-32.964Z" transform="translate(-1.357 60.515)" fill="#fbab36"/>
    </g>
    <g id="Top_Bar" data-name="Top Bar">
      <rect id="Rectangle" width="412" height="24" fill="#a4c0d9"/>
      <path id="Mask" d="M34,0H46L40,10ZM18,5a5,5,0,1,1,5,5A5,5,0,0,1,18,5ZM0,10V0H10V10Z" transform="translate(358 7)" fill="rgba(255,255,255,0.38)"/>
    </g>
    <text id="You_ve_completed_your_account_set_up_" data-name="You&apos;ve completed your account set up!" transform="translate(206 585)" fill="#0b0907" font-size="20" font-family="Raleway" font-weight="600"><tspan x="-184.26" y="0">You&apos;ve completed your account set up!</tspan></text>
  </g>
</svg>
