<svg xmlns="http://www.w3.org/2000/svg" xmlns:xlink="http://www.w3.org/1999/xlink" width="412" height="870" viewBox="0 0 412 870">
  <defs>
    <clipPath id="clip-_9-Vacation_Cache">
      <rect width="412" height="870"/>
    </clipPath>
  </defs>
  <g id="_9-Vacation_Cache" data-name="9-Vacation Cache" clip-path="url(#clip-_9-Vacation_Cache)">
    <rect width="412" height="870" fill="#fff"/>
    <g id="App_BG" data-name="App BG" transform="translate(2.507 2.503)" opacity="0.2">
      <g id="Group_100" data-name="Group 100" transform="translate(-2.464 827.477)">
        <path id="Path_142" data-name="Path 142" d="M.01,872.16A2.492,2.492,0,0,1-2.4,870.21a2.494,2.494,0,0,1,1.857-2.99c3.695-.85,7.637-1.68,11.707-2.46a2.465,2.465,0,0,1,2.885,1.99,2.491,2.491,0,0,1-1.966,2.92c-4.021.77-7.894,1.58-11.53,2.42A2.022,2.022,0,0,1,.01,872.16Zm23.306-4.5a2.5,2.5,0,0,1-.4-4.96c3.754-.61,7.726-1.2,11.8-1.77a2.5,2.5,0,0,1,.672,4.96c-4.031.56-7.963,1.15-11.688,1.75C23.583,867.65,23.444,867.66,23.316,867.66Zm23.514-3.28a2.506,2.506,0,0,1-.287-4.99c3.823-.46,7.8-.91,11.836-1.33a2.465,2.465,0,0,1,2.707,2.23,2.494,2.494,0,0,1-2.2,2.74c-4,.42-7.963.86-11.757,1.32A.994.994,0,0,1,46.829,864.38Zm23.6-2.48a2.5,2.5,0,0,1-.227-4.99q5.854-.54,11.846-1.02a2.5,2.5,0,0,1,.4,4.98q-5.972.48-11.8,1.02A1.51,1.51,0,0,1,70.432,861.9Zm23.662-1.93a2.5,2.5,0,0,1-.168-4.99q5.869-.42,11.856-.81a2.5,2.5,0,0,1,.306,4.99q-5.972.39-11.826.81Zm23.682-1.53a2.5,2.5,0,0,1-.138-5c3.922-.23,7.884-.45,11.856-.66a2.5,2.5,0,0,1,.257,5q-5.957.315-11.836.66A.639.639,0,0,0,117.775,858.44Zm23.691-1.27a2.5,2.5,0,0,1-.119-5c3.932-.19,7.894-.38,11.856-.56a2.5,2.5,0,0,1,.217,4.99q-5.943.27-11.846.56A.366.366,0,0,1,141.467,857.17Zm23.711-1.08a2.5,2.5,0,0,1-.109-4.99q5.9-.255,11.826-.5a2.518,2.518,0,0,1,2.569,2.4,2.491,2.491,0,0,1-2.371,2.6q-5.928.24-11.816.5A.332.332,0,0,0,165.178,856.09Zm23.662-.97a2.5,2.5,0,0,1-.1-5l11.856-.47a2.5,2.5,0,0,1,.188,4.99l-11.856.47A.244.244,0,0,1,188.839,855.12Zm23.731-.94a2.5,2.5,0,0,1-.1-5l11.885-.47a2.5,2.5,0,0,1,.2,5l-11.885.47Zm23.741-.95a2.5,2.5,0,0,1-.1-5c3.962-.17,7.914-.33,11.846-.51a2.519,2.519,0,0,1,2.579,2.39,2.492,2.492,0,0,1-2.361,2.61l-11.856.51Zm23.7-1.04a2.5,2.5,0,0,1-.119-4.99q5.957-.285,11.846-.58a2.5,2.5,0,0,1,.247,4.99q-5.9.3-11.856.58A.47.47,0,0,0,260.012,852.19Zm23.7-1.2a2.5,2.5,0,0,1-.128-4.99q5.957-.33,11.836-.68a2.446,2.446,0,0,1,2.608,2.35,2.486,2.486,0,0,1-2.322,2.64q-5.883.36-11.856.69A.325.325,0,0,0,283.714,850.99Zm23.691-1.45a2.5,2.5,0,0,1-.158-4.99q5.972-.405,11.816-.85a2.5,2.5,0,0,1,.366,4.99q-5.869.45-11.856.85Zm23.662-1.8a2.5,2.5,0,0,1-.207-4.99c4.011-.34,7.973-.7,11.786-1.07a2.5,2.5,0,0,1,.474,4.98c-3.833.37-7.815.74-11.846,1.08Zm23.622-2.3a2.5,2.5,0,0,1-.267-4.99c4.021-.45,7.973-.92,11.747-1.4a2.468,2.468,0,0,1,2.756,2.17,2.493,2.493,0,0,1-2.144,2.79c-3.794.48-7.775.96-11.826,1.41A1.2,1.2,0,0,1,354.689,845.44Zm23.543-3.02a2.506,2.506,0,0,1-.356-4.98c4.031-.6,7.953-1.23,11.658-1.88a2.5,2.5,0,0,1,.84,4.93c-3.744.65-7.706,1.29-11.777,1.9A2.25,2.25,0,0,1,378.232,842.42Zm23.375-4.11a2.5,2.5,0,0,1-.494-4.95c1.818-.38,3.606-.76,5.355-1.16a2.486,2.486,0,0,1,2.954,1.89,2.513,2.513,0,0,1-1.867,2.99c-1.778.4-3.6.8-5.434,1.18A3.08,3.08,0,0,1,401.607,838.31Z" transform="translate(2.464 -832.14)" fill="#ffcc65"/>
      </g>
      <g id="Group_101" data-name="Group 101" transform="translate(-2.507 735.5)">
        <path id="Path_143" data-name="Path 143" d="M140.2,763.16a2.5,2.5,0,0,1,0-5c3.922-.01,7.864-.03,11.836-.08a2.5,2.5,0,0,1,.059,5q-6,.075-11.9.08Zm-11.856-.03h-.02c-4.011-.03-8.012-.08-11.885-.16a2.488,2.488,0,0,1-2.421-2.55,2.518,2.518,0,0,1,2.519-2.45c3.853.07,7.835.13,11.826.16a2.5,2.5,0,0,1-.02,5Zm35.567-.21a2.5,2.5,0,0,1-.04-5q5.9-.105,11.836-.24h.059a2.5,2.5,0,0,1,.059,5q-5.957.135-11.865.24Zm-59.278-.25h-.079c-4.061-.13-8.062-.29-11.885-.48a2.5,2.5,0,0,1,.237-5c3.8.19,7.775.35,11.806.48a2.5,2.5,0,0,1-.079,5Zm82.979-.29a2.5,2.5,0,0,1-.069-5q5.913-.165,11.846-.35a2.5,2.5,0,0,1,.158,5q-5.943.18-11.856.35Zm219.4-.72c-.109,0-.217-.01-.326-.02-1.976-.26-4-.51-6.056-.73a2.5,2.5,0,0,1,.543-4.97c2.114.23,4.189.49,6.155.75a2.5,2.5,0,0,1-.316,4.97Zm-195.7-.01a2.5,2.5,0,0,1-.079-5q5.928-.2,11.846-.41a2.5,2.5,0,0,1,.178,5q-5.928.21-11.856.41ZM80.953,761.5a.946.946,0,0,1-.168-.01c-4.061-.28-8.062-.59-11.875-.94a2.5,2.5,0,0,1,.435-4.98c3.784.34,7.736.66,11.767.93a2.5,2.5,0,0,1-.158,5Zm154.073-.69a2.5,2.5,0,0,1-.089-5l11.856-.43a2.5,2.5,0,0,1,.178,5l-11.856.43Zm23.7-.87a2.5,2.5,0,0,1-.089-5q5.957-.21,11.856-.41a2.5,2.5,0,0,1,.158,5q-5.9.2-11.846.41Zm130.372-.12a1.18,1.18,0,0,1-.188-.01c-3.754-.29-7.716-.55-11.767-.76a2.5,2.5,0,0,1,.257-5c4.1.21,8.1.47,11.9.77a2.505,2.505,0,0,1-.2,5Zm-331.759-.5a2.947,2.947,0,0,1-.3-.02c-4.07-.49-8.052-1.03-11.836-1.62a2.5,2.5,0,0,1,.751-4.94c3.725.58,7.657,1.11,11.668,1.59a2.506,2.506,0,0,1-.287,4.99Zm225.1-.17a2.5,2.5,0,0,1-.079-5q5.972-.18,11.865-.34h.069a2.5,2.5,0,0,1,.069,5q-5.883.165-11.846.34Zm82.989-.59h-.079c-3.784-.12-7.756-.22-11.816-.29a2.5,2.5,0,0,1,.079-5c4.08.07,8.082.17,11.9.29a2.5,2.5,0,0,1-.079,5Zm-59.288-.04a2.5,2.5,0,0,1-.049-5q5.987-.135,11.875-.22a2.5,2.5,0,0,1,.079,5q-5.868.09-11.836.22Zm23.721-.35a2.5,2.5,0,0,1-.02-5c4.011-.03,7.983-.03,11.885-.02a2.5,2.5,0,0,1-.01,5h-.01c-3.893-.01-7.835-.01-11.836.02ZM33.906,755.65a2.746,2.746,0,0,1-.484-.05c-4.09-.82-8.022-1.72-11.7-2.68a2.5,2.5,0,0,1-1.778-3.04,2.467,2.467,0,0,1,3-1.8c3.586.94,7.429,1.82,11.431,2.62a2.511,2.511,0,0,1,1.946,2.94A2.47,2.47,0,0,1,33.906,755.65Zm-22.931-6.06a2.482,2.482,0,0,1-.8-.13,113.3,113.3,0,0,1-11.253-4.53,2.506,2.506,0,0,1-1.2-3.32,2.45,2.45,0,0,1,3.28-1.21,106.987,106.987,0,0,0,10.769,4.33,2.5,2.5,0,0,1,1.541,3.17A2.47,2.47,0,0,1,10.976,749.59Z" transform="translate(2.507 -740.163)" fill="#ffcc65"/>
      </g>
      <g id="Group_102" data-name="Group 102" transform="translate(-2.505 596.623)">
        <path id="Path_144" data-name="Path 144" d="M-.03,664.25a2.475,2.475,0,0,1-2.183-1.32A2.511,2.511,0,0,1-1.2,659.55c3.349-1.81,7.034-3.56,10.947-5.2a2.461,2.461,0,0,1,3.231,1.36,2.512,2.512,0,0,1-1.344,3.27c-3.764,1.58-7.3,3.25-10.5,4.98A2.456,2.456,0,0,1-.03,664.25Zm21.844-9.26a2.466,2.466,0,0,1-2.341-1.71,2.5,2.5,0,0,1,1.561-3.16c3.616-1.22,7.479-2.4,11.48-3.51a2.468,2.468,0,0,1,3.033,1.75,2.505,2.505,0,0,1-1.729,3.07c-3.922,1.09-7.706,2.24-11.233,3.43A2.269,2.269,0,0,1,21.814,654.99Zm22.862-6.39a2.464,2.464,0,0,1-2.4-1.94,2.5,2.5,0,0,1,1.857-3c3.715-.86,7.647-1.71,11.688-2.51a2.5,2.5,0,0,1,.948,4.9c-3.991.79-7.874,1.63-11.53,2.48A2.168,2.168,0,0,1,44.675,648.6Zm23.286-4.65a2.468,2.468,0,0,1-2.43-2.08,2.5,2.5,0,0,1,2.025-2.88c3.774-.64,7.736-1.27,11.777-1.88a2.5,2.5,0,0,1,.721,4.95c-4.011.59-7.933,1.22-11.668,1.86A3.139,3.139,0,0,1,67.962,643.95Zm23.484-3.5a2.5,2.5,0,0,1-.316-4.98c3.833-.5,7.815-.98,11.816-1.44a2.5,2.5,0,0,1,.563,4.97c-3.981.46-7.933.94-11.747,1.43A1.736,1.736,0,0,1,91.446,640.45Zm23.583-2.71a2.5,2.5,0,0,1-.237-4.99q5.869-.6,11.836-1.15a2.5,2.5,0,0,1,.454,4.98q-5.943.54-11.786,1.14C115.2,637.73,115.107,637.74,115.028,637.74Zm23.632-2.18a2.5,2.5,0,0,1-.2-4.99q5.883-.5,11.846-.94a2.5,2.5,0,0,1,.366,4.99q-5.943.45-11.816.94A1.3,1.3,0,0,0,138.66,635.56Zm23.672-1.81a2.5,2.5,0,0,1-.168-5q5.9-.42,11.846-.81a2.5,2.5,0,0,1,.326,4.99q-5.943.39-11.826.81C162.451,633.74,162.391,633.75,162.332,633.75Zm23.652-1.58a2.5,2.5,0,0,1-.148-4.99q5.913-.375,11.836-.73a2.5,2.5,0,0,1,.3,4.99q-5.928.36-11.826.73Zm23.672-1.45a2.5,2.5,0,0,1-.138-4.99l11.865-.71a2.453,2.453,0,0,1,2.608,2.35,2.486,2.486,0,0,1-2.322,2.64l-11.865.72A.743.743,0,0,0,209.656,630.72Zm23.721-1.43a2.5,2.5,0,0,1-.148-5q5.928-.36,11.836-.74a2.5,2.5,0,0,1,.306,4.99q-5.913.375-11.856.74C233.475,629.28,233.426,629.29,233.377,629.29Zm23.682-1.52a2.5,2.5,0,0,1-.158-4.99q5.943-.405,11.826-.82a2.5,2.5,0,0,1,.346,4.99q-5.9.42-11.846.82Zm23.672-1.71a2.5,2.5,0,0,1-.188-4.99q5.943-.465,11.806-.96a2.5,2.5,0,0,1,.415,4.98q-5.883.5-11.846.97Zm23.652-2.02a2.5,2.5,0,0,1-.227-4.99q5.957-.57,11.786-1.18a2.469,2.469,0,0,1,2.717,2.23,2.5,2.5,0,0,1-2.2,2.75q-5.854.615-11.836,1.18C304.54,624.03,304.461,624.04,304.382,624.04Zm23.6-2.51a2.477,2.477,0,0,1-2.45-2.21,2.505,2.505,0,0,1,2.164-2.78c4.031-.48,7.973-.99,11.737-1.5a2.5,2.5,0,0,1,.662,4.95c-3.784.52-7.765,1.02-11.816,1.51A1.489,1.489,0,0,1,327.984,621.53Zm23.523-3.22a2.5,2.5,0,0,1-.375-4.97c3.991-.62,7.914-1.29,11.648-1.96a2.5,2.5,0,0,1,.869,4.92c-3.774.68-7.736,1.35-11.767,1.98A2.29,2.29,0,0,1,351.508,618.31Zm23.355-4.27a2.467,2.467,0,0,1-2.411-1.99,2.5,2.5,0,0,1,1.907-2.96c3.982-.85,7.835-1.75,11.47-2.67a2.46,2.46,0,0,1,2.994,1.82,2.494,2.494,0,0,1-1.8,3.03c-3.695.94-7.617,1.85-11.658,2.71A2.169,2.169,0,0,1,374.863,614.04Zm23-5.88a2.481,2.481,0,0,1-2.361-1.78,2.511,2.511,0,0,1,1.65-3.12c3.152-.97,6.185-1.98,9.02-3.02a2.458,2.458,0,0,1,3.161,1.5,2.5,2.5,0,0,1-1.482,3.2c-2.924,1.07-6.036,2.11-9.267,3.1A2.021,2.021,0,0,1,397.863,608.16Z" transform="translate(2.505 -600.09)" fill="#ffcc65"/>
      </g>
      <g id="Group_103" data-name="Group 103" transform="translate(-2.502 420.235)">
        <path id="Path_145" data-name="Path 145" d="M406.612,508.12a2.429,2.429,0,0,1-1.047-.24c-3.369-1.6-6.985-3.19-10.749-4.73a2.5,2.5,0,0,1-1.363-3.25,2.453,2.453,0,0,1,3.211-1.38c3.853,1.57,7.548,3.2,11,4.84a2.516,2.516,0,0,1,1.186,3.33A2.458,2.458,0,0,1,406.612,508.12Zm-21.972-9.03a2.427,2.427,0,0,1-.83-.15c-3.547-1.27-7.3-2.55-11.164-3.79a2.511,2.511,0,0,1-1.61-3.14,2.469,2.469,0,0,1,3.1-1.63c3.922,1.26,7.726,2.55,11.332,3.84a2.508,2.508,0,0,1,1.5,3.19A2.467,2.467,0,0,1,384.639,499.09Zm-22.6-7.28a2.3,2.3,0,0,1-.682-.1c-3.665-1.06-7.5-2.12-11.391-3.15a2.5,2.5,0,0,1-1.768-3.05,2.468,2.468,0,0,1,3.013-1.79c3.932,1.04,7.795,2.11,11.5,3.18a2.5,2.5,0,0,1,1.689,3.09A2.439,2.439,0,0,1,362.035,491.81Zm-22.95-6.09a2.378,2.378,0,0,1-.583-.07c-3.7-.9-7.578-1.81-11.52-2.7a2.494,2.494,0,0,1,1.077-4.87c3.962.9,7.864,1.81,11.6,2.72a2.5,2.5,0,0,1-.573,4.92Zm-23.158-5.24a2.868,2.868,0,0,1-.5-.05c-3.725-.79-7.627-1.59-11.6-2.38a2.5,2.5,0,0,1-1.946-2.93,2.471,2.471,0,0,1,2.895-1.97c3.991.79,7.914,1.6,11.658,2.39a2.5,2.5,0,0,1-.5,4.94Zm-23.286-4.64a2.4,2.4,0,0,1-.454-.04q-5.779-1.08-11.658-2.13a2.5,2.5,0,0,1-2.006-2.9,2.477,2.477,0,0,1,2.865-2.03q5.9,1.05,11.7,2.14a2.5,2.5,0,0,1,1.976,2.91A2.455,2.455,0,0,1,292.641,475.84Zm-23.365-4.16a2.9,2.9,0,0,1-.415-.03q-5.809-.99-11.687-1.95a2.5,2.5,0,0,1-2.045-2.87,2.471,2.471,0,0,1,2.835-2.07q5.9.96,11.727,1.95a2.505,2.505,0,0,1-.415,4.97Zm-23.424-3.83a2.5,2.5,0,0,1-.385-.03q-5.839-.915-11.717-1.81a2.5,2.5,0,0,1,.731-4.94q5.9.9,11.737,1.82a2.5,2.5,0,0,1,2.065,2.86A2.47,2.47,0,0,1,245.852,467.85Zm-23.464-3.58a2.348,2.348,0,0,1-.366-.03q-5.854-.87-11.737-1.72a2.5,2.5,0,0,1,.7-4.95q5.883.855,11.747,1.72a2.494,2.494,0,0,1,2.085,2.84A2.466,2.466,0,0,1,222.388,464.27Zm-23.513-3.41c-.119,0-.227-.01-.346-.02q-5.883-.84-11.757-1.66a2.49,2.49,0,0,1-2.1-2.82,2.465,2.465,0,0,1,2.786-2.13q5.883.825,11.767,1.66a2.5,2.5,0,0,1-.346,4.97Zm-23.513-3.31c-.109,0-.227-.01-.336-.02l-11.737-1.63a2.5,2.5,0,0,1,.672-4.96l11.737,1.63a2.5,2.5,0,0,1-.336,4.98Zm-23.454-3.27c-.109,0-.227-.01-.336-.02q-5.9-.825-11.757-1.64a2.5,2.5,0,0,1,.682-4.95q5.854.825,11.747,1.64a2.5,2.5,0,0,1-.336,4.97Zm-23.5-3.3c-.119,0-.227-.01-.346-.02q-5.913-.84-11.757-1.69a2.5,2.5,0,0,1,.7-4.95q5.839.855,11.737,1.69a2.5,2.5,0,0,1-.336,4.97Zm-23.494-3.42a2.348,2.348,0,0,1-.366-.03q-5.928-.885-11.747-1.78a2.5,2.5,0,0,1-2.075-2.85,2.473,2.473,0,0,1,2.816-2.1c3.873.59,7.785,1.19,11.727,1.77a2.511,2.511,0,0,1-.356,4.99Zm-23.464-3.61a2.5,2.5,0,0,1-.385-.03q-5.928-.945-11.737-1.91a2.5,2.5,0,0,1,.8-4.93q5.78.96,11.7,1.91a2.491,2.491,0,0,1,2.055,2.86A2.454,2.454,0,0,1,81.446,443.95Zm-23.415-3.91a2.038,2.038,0,0,1-.425-.04q-5.943-1.05-11.707-2.12a2.5,2.5,0,0,1-1.986-2.91,2.471,2.471,0,0,1,2.875-2.01q5.735,1.065,11.658,2.11a2.507,2.507,0,0,1,2.015,2.89A2.466,2.466,0,0,1,58.032,440.04ZM34.7,435.68a2.743,2.743,0,0,1-.484-.05c-4.011-.8-7.933-1.62-11.658-2.42a2.5,2.5,0,0,1-1.9-2.97,2.471,2.471,0,0,1,2.934-1.92c3.7.8,7.607,1.61,11.589,2.41a2.5,2.5,0,0,1-.484,4.95Zm-23.207-5.04a2.172,2.172,0,0,1-.563-.07c-4.021-.95-7.914-1.93-11.579-2.9a2.5,2.5,0,0,1-1.768-3.05,2.463,2.463,0,0,1,3.013-1.79c3.626.96,7.479,1.92,11.46,2.87a2.5,2.5,0,0,1,1.838,3A2.464,2.464,0,0,1,11.489,430.64Z" transform="translate(2.502 -422.748)" fill="#ffcc65"/>
      </g>
      <g id="Group_104" data-name="Group 104" transform="translate(-2.501 323.442)">
        <path id="Path_146" data-name="Path 146" d="M260.7,349.13a2.5,2.5,0,0,1-.01-5c3.972-.01,7.914-.05,11.836-.1h.03a2.5,2.5,0,0,1,.03,5q-5.9.09-11.885.1Zm-11.856,0h-.01q-5.913-.03-11.875-.1a2.5,2.5,0,0,1,.03-5h.03q5.943.075,11.846.1a2.5,2.5,0,0,1-.02,5Zm-23.721-.29h-.049q-5.913-.105-11.865-.25a2.5,2.5,0,0,1,.119-5q5.928.135,11.846.25a2.5,2.5,0,0,1-.049,5Zm59.288-.03a2.5,2.5,0,0,1-.059-5c4.031-.1,8.012-.22,11.816-.37a2.5,2.5,0,0,1,.188,4.99c-3.833.15-7.825.27-11.885.37A.124.124,0,0,1,284.415,348.81Zm-83-.51h-.069q-5.928-.165-11.856-.34a2.5,2.5,0,0,1,.148-4.99q5.928.18,11.846.34a2.5,2.5,0,0,1-.069,4.99Zm106.69-.39a2.5,2.5,0,0,1-.128-5c4.011-.21,7.983-.46,11.8-.73a2.5,2.5,0,0,1,.346,4.99c-3.833.27-7.835.52-11.875.74Zm-130.4-.34h-.079c-3.952-.13-7.914-.26-11.856-.4a2.5,2.5,0,0,1,.168-4.99q5.913.21,11.846.4a2.5,2.5,0,0,1-.079,4.99Zm-23.691-.8h-.089l-11.846-.41a2.5,2.5,0,0,1,.168-4.99l11.846.41a2.5,2.5,0,0,1-.079,4.99ZM-.03,346.76a2.494,2.494,0,0,1-2.46-2.26,2.5,2.5,0,0,1,2.223-2.73c3.764-.37,7.765-.69,11.885-.97a2.5,2.5,0,0,1,.326,4.99c-4.07.27-8.022.6-11.747.96A1.648,1.648,0,0,1-.03,346.76Zm331.788-.55a2.5,2.5,0,0,1-.227-4.99c4-.37,7.953-.78,11.737-1.23a2.5,2.5,0,0,1,.563,4.97c-3.823.45-7.815.86-11.856,1.24A1.442,1.442,0,0,1,331.758,346.21Zm-201.446-.26h-.079q-5.957-.2-11.846-.38a2.5,2.5,0,0,1,.158-5q5.9.18,11.856.38a2.5,2.5,0,0,1-.089,5Zm-23.7-.73h-.069q-5.972-.165-11.846-.3a2.5,2.5,0,0,1,.119-5q5.883.135,11.865.3a2.5,2.5,0,0,1-.069,5Zm-82.989-.08a2.5,2.5,0,0,1-.109-5c3.8-.17,7.8-.31,11.9-.41a2.5,2.5,0,0,1,.119,5c-4.061.1-8.032.24-11.806.41Zm59.278-.46h-.04q-5.987-.105-11.836-.16a2.5,2.5,0,0,1,.04-5q5.869.06,11.875.16a2.5,2.5,0,0,1-.04,5Zm-35.577-.16a2.5,2.5,0,0,1-.03-5q5.661-.06,11.49-.06h.4a2.5,2.5,0,0,1,0,5h-.4q-5.809,0-11.441.06Zm307.988-1.09a2.5,2.5,0,0,1-.356-4.97c3.991-.59,7.9-1.24,11.618-1.92a2.471,2.471,0,0,1,2.875,2.01,2.5,2.5,0,0,1-1.986,2.91c-3.764.69-7.736,1.35-11.786,1.95C355.549,343.42,355.43,343.43,355.311,343.43Zm23.316-4.33a2.5,2.5,0,0,1-.553-4.94c3.952-.91,7.765-1.9,11.352-2.94a2.464,2.464,0,0,1,3.053,1.72,2.5,2.5,0,0,1-1.7,3.09c-3.675,1.06-7.578,2.07-11.618,3A1.86,1.86,0,0,1,378.627,339.1Zm22.773-6.66a2.472,2.472,0,0,1-2.322-1.65,2.5,2.5,0,0,1,1.482-3.2c1.887-.69,3.744-1.42,5.513-2.16a2.468,2.468,0,0,1,3.231,1.35,2.516,2.516,0,0,1-1.334,3.27c-1.838.77-3.754,1.52-5.71,2.24A2.434,2.434,0,0,1,401.4,332.44Z" transform="translate(2.501 -325.239)" fill="#ffcc65"/>
      </g>
      <g id="Group_105" data-name="Group 105" transform="translate(-2.498 217.579)">
        <path id="Path_147" data-name="Path 147" d="M-.03,262.15a2.485,2.485,0,0,1-2.46-2.3,2.483,2.483,0,0,1,2.262-2.69c3.8-.31,7.765-.67,11.786-1.05a2.5,2.5,0,0,1,.464,4.97c-4.041.39-8.032.74-11.846,1.06A1.515,1.515,0,0,1-.03,262.15Zm23.622-2.25a2.474,2.474,0,0,1-2.45-2.24,2.5,2.5,0,0,1,2.2-2.75c3.873-.41,7.8-.85,11.767-1.3a2.5,2.5,0,0,1,.563,4.97q-5.972.69-11.816,1.31A2.558,2.558,0,0,1,23.592,259.9Zm23.573-2.7a2.5,2.5,0,0,1-.3-4.98q5.824-.72,11.757-1.48a2.5,2.5,0,0,1,.613,4.96q-5.943.765-11.786,1.48A2.584,2.584,0,0,1,47.165,257.2ZM70.7,254.18a2.5,2.5,0,0,1-.326-4.98q5.839-.78,11.747-1.59a2.5,2.5,0,0,1,.662,4.95c-3.942.54-7.874,1.07-11.767,1.59A1.616,1.616,0,0,1,70.7,254.18Zm23.5-3.22a2.5,2.5,0,0,1-.336-4.98q5.839-.825,11.747-1.66a2.5,2.5,0,0,1,.682,4.95q-5.9.84-11.757,1.66A1.827,1.827,0,0,1,94.2,250.96Zm23.494-3.34a2.476,2.476,0,0,1-2.44-2.15,2.506,2.506,0,0,1,2.094-2.83l11.717-1.69a2.5,2.5,0,0,1,.7,4.95l-11.717,1.69A2.134,2.134,0,0,1,117.7,247.62Zm23.444-3.39a2.505,2.505,0,0,1-.346-4.98l11.737-1.69a2.5,2.5,0,0,1,.7,4.95L141.5,244.2A2.134,2.134,0,0,1,141.14,244.23Zm23.484-3.37a2.5,2.5,0,0,1-.336-4.97q5.883-.84,11.757-1.66a2.5,2.5,0,0,1,.682,4.95q-5.869.825-11.757,1.66C164.851,240.85,164.733,240.86,164.624,240.86Zm23.523-3.3a2.5,2.5,0,0,1-.326-4.97c3.942-.54,7.864-1.08,11.8-1.6a2.5,2.5,0,0,1,.652,4.96q-5.869.78-11.777,1.6C188.375,237.55,188.256,237.56,188.148,237.56Zm23.543-3.16a2.5,2.5,0,0,1-.316-4.98q5.913-.765,11.777-1.5a2.5,2.5,0,0,1,.613,4.96q-5.854.735-11.757,1.5A1.628,1.628,0,0,1,211.691,234.4Zm23.543-2.93a2.5,2.5,0,0,1-.287-4.98q5.928-.705,11.806-1.36a2.5,2.5,0,0,1,.543,4.97q-5.854.66-11.767,1.36C235.432,231.46,235.333,231.47,235.234,231.47Zm171.777-.4a2.3,2.3,0,0,1-.682-.1c-2.015-.59-4.149-1.14-6.323-1.66a2.507,2.507,0,0,1-1.848-3,2.475,2.475,0,0,1,2.964-1.87c2.262.53,4.466,1.11,6.57,1.72a2.5,2.5,0,0,1,1.689,3.09A2.459,2.459,0,0,1,407.012,231.07Zm-148.195-2.24a2.5,2.5,0,0,1-.247-4.98q5.957-.615,11.826-1.18a2.5,2.5,0,0,1,.454,4.98q-5.839.555-11.786,1.17C258.985,228.82,258.906,228.83,258.817,228.83Zm130.115-1.74a2.729,2.729,0,0,1-.4-.03c-3.675-.59-7.588-1.11-11.618-1.54a2.5,2.5,0,0,1,.524-4.98c4.12.44,8.121.97,11.885,1.58a2.5,2.5,0,0,1-.4,4.97Zm-106.493-.5a2.5,2.5,0,0,1-.207-4.99c4.021-.34,8.012-.65,11.856-.93a2.5,2.5,0,0,1,.346,4.99c-3.833.28-7.8.59-11.8.92A1.247,1.247,0,0,1,282.439,226.59ZM306.1,224.9a2.5,2.5,0,0,1-.138-5c4.051-.23,8.052-.43,11.885-.59a2.5,2.5,0,0,1,.2,5c-3.814.16-7.785.35-11.806.59Zm59.268-.36h-.158c-3.754-.24-7.716-.42-11.757-.54a2.489,2.489,0,0,1-2.4-2.57,2.524,2.524,0,0,1,2.539-2.43c4.1.12,8.121.31,11.925.55a2.5,2.5,0,0,1-.148,4.99Zm-35.557-.6a2.5,2.5,0,0,1-.049-5c3.8-.08,7.558-.12,11.164-.12h.751a2.5,2.5,0,0,1,0,5h-.741c-3.576,0-7.291.04-11.065.12Z" transform="translate(2.498 -218.82)" fill="#ffcc65"/>
      </g>
      <g id="Group_106" data-name="Group 106" transform="translate(-2.497 78.093)">
        <path id="Path_148" data-name="Path 148" d="M-.03,159.81A2.462,2.462,0,0,1-2.4,158a2.5,2.5,0,0,1,1.689-3.09c3.7-1.08,7.558-2.17,11.451-3.25a2.468,2.468,0,0,1,3.033,1.75,2.505,2.505,0,0,1-1.729,3.07c-3.873,1.07-7.706,2.16-11.391,3.23A2.3,2.3,0,0,1-.03,159.81Zm22.881-6.34a2.5,2.5,0,0,1-.622-4.92q5.676-1.5,11.51-2.99a2.462,2.462,0,0,1,2.994,1.81,2.5,2.5,0,0,1-1.788,3.03q-5.809,1.485-11.47,2.98A2.231,2.231,0,0,1,22.851,153.47Zm23-5.86a2.5,2.5,0,0,1-.583-4.93c3.814-.94,7.667-1.86,11.559-2.79a2.461,2.461,0,0,1,2.964,1.86,2.5,2.5,0,0,1-1.838,3q-5.809,1.38-11.52,2.78A2.277,2.277,0,0,1,45.851,147.61Zm23.1-5.48a2.5,2.5,0,0,1-.543-4.94q5.75-1.32,11.589-2.62a2.5,2.5,0,0,1,1.057,4.89q-5.824,1.29-11.559,2.61A2.447,2.447,0,0,1,68.95,142.13Zm23.168-5.16a2.474,2.474,0,0,1-2.411-1.98,2.5,2.5,0,0,1,1.9-2.97q5.78-1.245,11.618-2.48a2.5,2.5,0,0,1,1.008,4.9q-5.839,1.23-11.589,2.47A1.874,1.874,0,0,1,92.117,136.97Zm23.227-4.89a2.478,2.478,0,0,1-2.421-2,2.51,2.51,0,0,1,1.927-2.95q5.794-1.185,11.638-2.36a2.5,2.5,0,0,1,.958,4.91q-5.839,1.17-11.618,2.36A2.567,2.567,0,0,1,115.344,132.08Zm23.276-4.66a2.506,2.506,0,0,1-.464-4.96q5.809-1.14,11.658-2.26a2.5,2.5,0,0,1,.919,4.91q-5.839,1.125-11.638,2.25A1.622,1.622,0,0,1,138.621,127.42Zm23.276-4.46a2.5,2.5,0,0,1-.454-4.95q5.809-1.1,11.658-2.16a2.5,2.5,0,0,1,.889,4.92q-5.824,1.065-11.638,2.16A3.585,3.585,0,0,1,161.9,122.96Zm23.306-4.28a2.5,2.5,0,0,1-.435-4.96q5.839-1.05,11.688-2.09a2.5,2.5,0,0,1,.85,4.92q-5.839,1.035-11.668,2.09A3.193,3.193,0,0,1,185.2,118.68Zm23.365-4.15a2.506,2.506,0,0,1-.415-4.97c3.9-.68,7.815-1.36,11.707-2.03a2.469,2.469,0,0,1,2.845,2.05,2.5,2.5,0,0,1-2.025,2.88q-5.854,1-11.7,2.02A1.431,1.431,0,0,1,208.569,114.53Zm23.425-4.02a2.505,2.505,0,0,1-.405-4.97q5.883-.99,11.737-1.97a2.469,2.469,0,0,1,2.835,2.06,2.5,2.5,0,0,1-2.035,2.87q-5.854.975-11.727,1.97A1.8,1.8,0,0,1,231.993,110.51Zm23.435-3.91a2.469,2.469,0,0,1-2.43-2.1,2.5,2.5,0,0,1,2.045-2.87q5.869-.96,11.717-1.91a2.461,2.461,0,0,1,2.826,2.07,2.489,2.489,0,0,1-2.045,2.86q-5.839.945-11.707,1.91A1.855,1.855,0,0,1,255.428,106.6Zm23.425-3.8a2.5,2.5,0,0,1-.385-4.97q5.883-.945,11.717-1.87a2.481,2.481,0,0,1,2.826,2.08,2.509,2.509,0,0,1-2.055,2.86q-5.839.93-11.717,1.87A2.5,2.5,0,0,1,278.853,102.8Zm23.435-3.72a2.5,2.5,0,0,1-.375-4.97q5.9-.93,11.727-1.83a2.473,2.473,0,0,1,2.816,2.09,2.5,2.5,0,0,1-2.065,2.85q-5.824.915-11.717,1.83A2.5,2.5,0,0,1,302.287,99.08Zm23.444-3.65a2.5,2.5,0,0,1-.375-4.97q5.9-.915,11.727-1.81a2.5,2.5,0,0,1,.741,4.95Q332,94.5,326.1,95.4A2.083,2.083,0,0,1,325.732,95.43Zm23.464-3.6a2.5,2.5,0,0,1-.366-4.97l11.737-1.78a2.5,2.5,0,0,1,.731,4.94L349.571,91.8A2.472,2.472,0,0,1,349.2,91.83Zm23.454-3.56a2.5,2.5,0,0,1-.366-4.97l11.737-1.77a2.473,2.473,0,0,1,2.806,2.1,2.5,2.5,0,0,1-2.075,2.84l-11.727,1.77A2.375,2.375,0,0,1,372.65,88.27Zm23.464-3.54a2.5,2.5,0,0,1-.366-4.97l10.887-1.64a2.5,2.5,0,0,1,.731,4.94L396.48,84.7A2.166,2.166,0,0,1,396.114,84.73Z" transform="translate(2.497 -78.093)" fill="#ffcc65"/>
      </g>
      <g id="Group_107" data-name="Group 107" transform="translate(-0.773 -2.503)">
        <path id="Path_149" data-name="Path 149" d="M407.012,50.6h-.04l-6.2-.12a2.488,2.488,0,0,1-2.42-2.55,2.517,2.517,0,0,1,2.519-2.45l6.194.12a2.5,2.5,0,0,1-.049,5Zm-18.049-.37H388.9c-3.981-.09-7.943-.2-11.855-.3a2.5,2.5,0,0,1,.138-5q5.868.165,11.845.3a2.5,2.5,0,0,1-.069,5Zm-23.7-.65h-.079q-5.987-.2-11.855-.4a2.5,2.5,0,0,1,.178-5q5.868.21,11.835.4a2.5,2.5,0,0,1-.079,5Zm-23.69-.85h-.1q-5.987-.24-11.855-.5a2.5,2.5,0,0,1,.217-5q5.868.255,11.835.5a2.5,2.5,0,0,1-.1,5Zm-23.69-1.05h-.119q-5.987-.3-11.845-.61a2.5,2.5,0,0,1,.267-4.99q5.853.315,11.825.61a2.5,2.5,0,0,1-.128,4.99Zm-23.67-1.27h-.148q-5.987-.345-11.845-.72a2.5,2.5,0,0,1,.306-4.99q5.853.375,11.815.72a2.5,2.5,0,0,1-.128,4.99ZM270.551,44.9a.948.948,0,0,1-.168-.01q-5.987-.405-11.835-.85a2.5,2.5,0,0,1,.366-4.99q5.839.435,11.815.84a2.509,2.509,0,0,1-.178,5.01ZM246.91,43.15a1.308,1.308,0,0,1-.2-.01q-5.987-.48-11.825-.98a2.5,2.5,0,0,1,.415-4.98c3.883.33,7.824.66,11.8.98a2.5,2.5,0,0,1-.188,4.99Zm-23.621-2.02a1.728,1.728,0,0,1-.227-.01q-5.987-.555-11.815-1.12a2.5,2.5,0,0,1,.474-4.98q5.824.57,11.786,1.12a2.5,2.5,0,0,1-.217,4.99Zm-23.6-2.31a2.206,2.206,0,0,1-.257-.01q-5.987-.63-11.806-1.27a2.5,2.5,0,0,1-2.183-2.76,2.468,2.468,0,0,1,2.727-2.21q5.809.645,11.766,1.27a2.5,2.5,0,0,1-.247,4.98ZM176.126,36.2a2.757,2.757,0,0,1-.286-.02q-5.987-.705-11.786-1.44a2.493,2.493,0,0,1-2.144-2.79,2.468,2.468,0,0,1,2.756-2.17c3.853.49,7.775.96,11.746,1.44a2.5,2.5,0,0,1-.286,4.98ZM152.6,33.23c-.109,0-.217-.01-.326-.02-3.991-.53-7.9-1.07-11.766-1.62a2.5,2.5,0,0,1-2.1-2.82,2.47,2.47,0,0,1,2.786-2.13c3.843.55,7.755,1.08,11.727,1.62a2.5,2.5,0,0,1,2.124,2.81A2.47,2.47,0,0,1,152.6,33.23ZM129.121,29.9a2.253,2.253,0,0,1-.366-.03q-5.972-.9-11.736-1.82a2.509,2.509,0,0,1-2.055-2.86,2.473,2.473,0,0,1,2.825-2.08q5.735.915,11.7,1.82a2.5,2.5,0,0,1-.366,4.97Zm-23.414-3.75a1.945,1.945,0,0,1-.415-.04q-5.972-1.02-11.707-2.05a2.5,2.5,0,0,1,.869-4.92q5.705,1.035,11.657,2.04a2.505,2.505,0,0,1-.405,4.97ZM82.373,21.94a2.5,2.5,0,0,1-.464-.04c-3.922-.75-7.844-1.53-11.657-2.3a2.5,2.5,0,0,1-1.936-2.94,2.474,2.474,0,0,1,2.9-1.96c3.794.77,7.706,1.54,11.608,2.29a2.5,2.5,0,0,1-.454,4.95ZM59.137,17.2a2.252,2.252,0,0,1-.514-.06c-3.892-.84-7.8-1.72-11.608-2.59a2.5,2.5,0,0,1,1.1-4.87c3.784.87,7.666,1.74,11.539,2.58a2.5,2.5,0,0,1,1.9,2.97A2.475,2.475,0,0,1,59.137,17.2ZM36.03,11.87a2.323,2.323,0,0,1-.583-.07c-3.922-.97-7.795-1.95-11.539-2.94A2.5,2.5,0,0,1,22.14,5.81a2.463,2.463,0,0,1,3.013-1.79c3.715.98,7.567,1.96,11.46,2.91a2.509,2.509,0,0,1-.583,4.94ZM13.09,5.83a2.513,2.513,0,0,1-.662-.09C8.556,4.65,4.7,3.52.988,2.4A2.52,2.52,0,0,1-.671-.72,2.474,2.474,0,0,1,2.4-2.4C6.086-1.28,9.9-.17,13.742.91a2.507,2.507,0,0,1,1.719,3.08A2.469,2.469,0,0,1,13.09,5.83Z" transform="translate(0.773 2.503)" fill="#ffcc65"/>
      </g>
    </g>
    <g id="Button" transform="translate(85 711)">
      <rect id="Rectangle_98" data-name="Rectangle 98" width="240" height="70" rx="10" transform="translate(1 2)" fill="rgba(0,62,119,0.55)"/>
      <rect id="Rectangle_4" data-name="Rectangle 4" width="242" height="70" rx="10" fill="#a4c0d9"/>
      <text id="Make_a_deposit" data-name="Make a deposit" transform="translate(121 42)" fill="#0b0907" font-size="20" font-family="Raleway" font-weight="600"><tspan x="-71.64" y="0">Make a deposit</tspan></text>
    </g>
    <text id="View_more" data-name="View more" transform="translate(390 693)" fill="#f89939" font-size="16" font-family="Raleway" font-weight="700" text-decoration="underline"><tspan x="-81.312" y="0">View more</tspan></text>
    <g id="Deposit_6" data-name="Deposit 6" transform="translate(0 282)">
      <g id="Rectangle_11" data-name="Rectangle 11" transform="translate(22 346)" fill="rgba(255,255,255,0)" stroke="#0b0907" stroke-width="1">
        <path d="M0,0H368a0,0,0,0,1,0,0V30a10,10,0,0,1-10,10H10A10,10,0,0,1,0,30V0A0,0,0,0,1,0,0Z" stroke="none"/>
        <path d="M1,.5H367a.5.5,0,0,1,.5.5V30a9.5,9.5,0,0,1-9.5,9.5H10A9.5,9.5,0,0,1,.5,30V1A.5.5,0,0,1,1,.5Z" fill="none"/>
      </g>
      <text id="_xx.xx_auto_" data-name="$xx.xx (auto)" transform="translate(27 372)" fill="#0b0907" font-size="16" font-family="Raleway"><tspan x="0" y="0">$XX.XX (auto)</tspan></text>
      <text id="Date" transform="translate(385 372)" fill="#0b0907" font-size="16" font-family="Raleway"><tspan x="-34.64" y="0">Date</tspan></text>
    </g>
    <g id="Deposit_5" data-name="Deposit 5" transform="translate(0 243)">
      <g id="Rectangle_11-2" data-name="Rectangle 11" transform="translate(22 346)" fill="rgba(255,255,255,0)" stroke="#0b0907" stroke-width="1">
        <rect width="368" height="40" stroke="none"/>
        <rect x="0.5" y="0.5" width="367" height="39" fill="none"/>
      </g>
      <text id="_xx.xx_auto_2" data-name="$xx.xx (auto)" transform="translate(27 372)" fill="#0b0907" font-size="16" font-family="Raleway"><tspan x="0" y="0">$XX.XX (auto)</tspan></text>
      <text id="Date-2" data-name="Date" transform="translate(385 372)" fill="#0b0907" font-size="16" font-family="Raleway"><tspan x="-34.64" y="0">Date</tspan></text>
    </g>
    <g id="Deposit_4" data-name="Deposit 4" transform="translate(0 204)">
      <g id="Rectangle_11-3" data-name="Rectangle 11" transform="translate(22 346)" fill="rgba(255,255,255,0)" stroke="#0b0907" stroke-width="1">
        <rect width="368" height="40" stroke="none"/>
        <rect x="0.5" y="0.5" width="367" height="39" fill="none"/>
      </g>
      <text id="_xx.xx" data-name="$xx.xx" transform="translate(27 372)" fill="#0b0907" font-size="16" font-family="Raleway"><tspan x="0" y="0">$XX.XX</tspan></text>
      <text id="Date-3" data-name="Date" transform="translate(385 372)" fill="#0b0907" font-size="16" font-family="Raleway"><tspan x="-34.64" y="0">Date</tspan></text>
    </g>
    <g id="Deposit_3" data-name="Deposit 3" transform="translate(0 165)">
      <g id="Rectangle_11-4" data-name="Rectangle 11" transform="translate(22 346)" fill="rgba(255,255,255,0)" stroke="#0b0907" stroke-width="1">
        <rect width="368" height="40" stroke="none"/>
        <rect x="0.5" y="0.5" width="367" height="39" fill="none"/>
      </g>
      <text id="_xx.xx_auto_3" data-name="$xx.xx (auto)" transform="translate(27 372)" fill="#0b0907" font-size="16" font-family="Raleway"><tspan x="0" y="0">$XX.XX (auto)</tspan></text>
      <text id="Date-4" data-name="Date" transform="translate(385 372)" fill="#0b0907" font-size="16" font-family="Raleway"><tspan x="-34.64" y="0">Date</tspan></text>
    </g>
    <g id="Deposit_2" data-name="Deposit 2" transform="translate(0 126)">
      <g id="Rectangle_11-5" data-name="Rectangle 11" transform="translate(22 346)" fill="rgba(255,255,255,0)" stroke="#0b0907" stroke-width="1">
        <rect width="368" height="40" stroke="none"/>
        <rect x="0.5" y="0.5" width="367" height="39" fill="none"/>
      </g>
      <text id="_xx.xx_auto_4" data-name="$xx.xx (auto)" transform="translate(27 372)" fill="#0b0907" font-size="16" font-family="Raleway"><tspan x="0" y="0">$XX.XX (auto)</tspan></text>
      <text id="Date-5" data-name="Date" transform="translate(385 372)" fill="#0b0907" font-size="16" font-family="Raleway"><tspan x="-34.64" y="0">Date</tspan></text>
    </g>
    <g id="Deposit_1" data-name="Deposit 1" transform="translate(0 87)">
      <g id="Rectangle_11-6" data-name="Rectangle 11" transform="translate(22 346)" fill="rgba(255,255,255,0)" stroke="#0b0907" stroke-width="1">
        <path d="M10,0H358a10,10,0,0,1,10,10V40a0,0,0,0,1,0,0H0a0,0,0,0,1,0,0V10A10,10,0,0,1,10,0Z" stroke="none"/>
        <path d="M10,.5H358a9.5,9.5,0,0,1,9.5,9.5V39a.5.5,0,0,1-.5.5H1A.5.5,0,0,1,.5,39V10A9.5,9.5,0,0,1,10,.5Z" fill="none"/>
      </g>
      <text id="_XX.XX_auto_5" data-name="$XX.XX (auto)" transform="translate(27 372)" fill="#0b0907" font-size="16" font-family="Raleway"><tspan x="0" y="0">$XX.XX (auto)</tspan></text>
      <text id="Date-6" data-name="Date" transform="translate(385 372)" fill="#0b0907" font-size="16" font-family="Raleway"><tspan x="-34.64" y="0">Date</tspan></text>
    </g>
    <text id="Recent_deposits" data-name="Recent deposits" transform="translate(22 418)" fill="#0b0907" font-size="20" font-family="Raleway" font-weight="600"><tspan x="0" y="0">Recent deposits</tspan></text>
    <text id="You_will_reach_your_goal_in_XX_days_at_this_rate_" data-name="You will reach your goal in XX days at this rate!" transform="translate(22 385)" fill="#0b0907" font-size="16" font-family="Raleway"><tspan x="0" y="0">You will reach your goal in XX days at this rate!</tspan></text>
    <g id="Savings_Status_Bar" data-name="Savings Status Bar" transform="translate(0 -9)">
      <path id="Rectangle_35" data-name="Rectangle 35" d="M20,0H294a0,0,0,0,1,0,0V40a0,0,0,0,1,0,0H20A20,20,0,0,1,0,20v0A20,20,0,0,1,20,0Z" transform="translate(22 334)" fill="#fbab36"/>
      <g id="Rectangle_34" data-name="Rectangle 34" transform="translate(22 334)" fill="none" stroke="#0b0907" stroke-width="2">
        <rect width="368" height="40" rx="20" stroke="none"/>
        <rect x="1" y="1" width="366" height="38" rx="19" fill="none"/>
      </g>
      <text id="_XX.XX_XX.XX" data-name="$XX.XX/$XX.XX" transform="translate(32 361)" fill="#0b0907" font-size="20" font-family="Raleway" font-weight="600"><tspan x="0" y="0">$XX.XX/$XX.XX</tspan></text>
      <text id="_80_" data-name="(80%)" transform="translate(380 361)" fill="#0b0907" font-size="20" font-family="Raleway" font-weight="600"><tspan x="-51.3" y="0">(80%)</tspan></text>
    </g>
    <g id="girl-going-with-the-luggage-2194217-0" transform="translate(-73.616 16.523)">
      <path id="Path_353" data-name="Path 353" d="M390.674,186.041a10.631,10.631,0,0,1,.778,1.819,17.805,17.805,0,0,1,.508,1.877,17.521,17.521,0,0,1,.3,1.921,10.517,10.517,0,0,1,.03,1.981,10.484,10.484,0,0,1-.779-1.818,17.482,17.482,0,0,1-.506-1.877,17.814,17.814,0,0,1-.3-1.922A10.667,10.667,0,0,1,390.674,186.041Z" transform="translate(-89.451 -55.447)" fill="#0b0907"/>
      <path id="Path_339" data-name="Path 339" d="M216.223,310.348a.259.259,0,0,1,.005.063l.005-.095Zm0,0a.259.259,0,0,1,.005.063l.005-.095Zm0,0a.259.259,0,0,1,.005.063l.005-.095Zm0,0a.259.259,0,0,1,.005.063l.005-.095Zm32.5-7.458s-27.587.532-30.858.058a4.094,4.094,0,0,0-4.444,2.121s-14.375,44.83-14.146,51.551c0,0,8.533,8.258,11.459,8.258,0,0,29.22-2.595,29.924-3.184l12.972-56.388s.339-2.975-4.909-2.417Zm-24.379,11.927c-.986,3.816-2.013,7.627-3.03,11.432q-1.518,5.732-3.1,11.443-1.557,5.716-3.166,11.422-1.588,5.708-3.26,11.4,1.432-5.748,2.937-11.485,1.479-5.74,3.03-11.459,1.518-5.732,3.093-11.443c1.043-3.811,2.076-7.627,3.156-11.427a.164.164,0,0,1,.026-.053l.016-.021a1.594,1.594,0,0,0,.073-1.379,4.637,4.637,0,0,0-.762-1.353,12.876,12.876,0,0,0-2.295-2.2l-.631-.489-.662-.458-.579-.4h-.005a6.6,6.6,0,0,0-.73.132,2.873,2.873,0,0,0-1.257.663,1.587,1.587,0,0,0-.5,1.211v.021a.312.312,0,0,1-.01.074l-3.166,11.538L210.308,333.5l-3.26,11.506-3.328,11.5,3.041-11.574,3.114-11.548,3.156-11.543,3.192-11.49a2.051,2.051,0,0,1,.647-1.542,3.254,3.254,0,0,1,1.466-.774,2.293,2.293,0,0,1,.261-.053l-.177-.111c-.9-.579-1.846-1.084-2.775-1.616.949.49,1.919.958,2.837,1.511l.308.174a7.6,7.6,0,0,1,1.142-.1,15.212,15.212,0,0,1,1.552.079h.029l10.583-.395,10.614-.337-10.6.616-10.609.558h-.031a14.822,14.822,0,0,0-1.528-.068,4.23,4.23,0,0,0-.516.031l.437.279.678.437.657.474a12.174,12.174,0,0,1,2.394,2.195,4.78,4.78,0,0,1,.84,1.432A1.929,1.929,0,0,1,224.345,314.817ZM244.05,312l-2.509.147c-1.674.1-3.349.153-5.023.211-1.68.042-3.354.084-5.028.084s-3.354.005-5.033-.053c1.674-.158,3.349-.258,5.018-.347s3.354-.153,5.028-.211c1.674-.042,3.349-.084,5.028-.089h2.514c.84.021,1.68.021,2.514.058-.835.084-1.669.132-2.509.2Zm-27.817-1.679-.01.032a.258.258,0,0,1,.005.063Zm-.01.032a.258.258,0,0,1,.005.063l.005-.095Zm0,0a.258.258,0,0,1,.005.063l.005-.095Zm0,0a.258.258,0,0,1,.005.063l.005-.095Zm0,0a.258.258,0,0,1,.005.063l.005-.095Z" transform="translate(-1.224 -108.712)" fill="#6a8eae"/>
      <path id="Path_340" data-name="Path 340" d="M383.694,317.488s-8.069,26.544-89.427-9.2c0,0-4.98,1.228,10.418-78.752l.405.13a29.792,29.792,0,0,0,5.513.537c9.656.253,17.865-6.239,22.554-14.38a72.7,72.7,0,0,0,7.49-18.549c.417-1.547.8-3.111,1.158-4.679a54.24,54.24,0,0,0,6.817-.911s29.543,108.534,34.436,124l-3.015-1.195a.031.031,0,0,0-.021-.005.058.058,0,0,0-.057.058l-.063,6.737-5.581-4.221a.164.164,0,0,0-.052-.026.146.146,0,0,0-.116.012.148.148,0,0,0-.071.094l-2.332,7.711-4.726-5.958a.233.233,0,0,0-.4.063l-2.587,6.669-4.1-6.853a.247.247,0,0,0-.1-.095.266.266,0,0,0-.365.105l-3.761,6.811-3.281-7.416a.234.234,0,0,0-.083-.105.252.252,0,0,0-.36.063l-4.574,6.553-3.286-7.585a.243.243,0,0,0-.083-.095.2.2,0,0,0-.282.063l-3.922,6.237-3.416-7.859a.167.167,0,0,0-.057-.063.13.13,0,0,0-.1-.013.131.131,0,0,0-.08.066l-3.463,6.2-3.609-8.011a.083.083,0,0,0-.037-.037.075.075,0,0,0-.06,0,.075.075,0,0,0-.044.041l-3.14,5.969-3.422-7.922a.145.145,0,0,0-.057-.068.15.15,0,0,0-.2.058L319,317.172l-2.916-7.363a.253.253,0,0,0-.063-.084.2.2,0,0,0-.282.037l-3.771,4.769c-.814-2.316-1.669-4.621-2.5-6.932a.217.217,0,0,0-.37-.058l-3.489,4.5-1.7-7.553a.158.158,0,0,0-.118-.129.156.156,0,0,0-.163.061l-4.246,5.2c-.725-2.258-1.476-4.511-2.227-6.758a.072.072,0,0,0-.026-.042.08.08,0,0,0-.11.016l-3.15,4.321a.026.026,0,0,0,.005.037.032.032,0,0,0,.037-.005l3.14-4.137c.72,2.295,1.424,4.6,2.159,6.885a.1.1,0,0,0,.042.063.132.132,0,0,0,.188-.016l4.225-5.1,1.653,7.637a.22.22,0,0,0,.068.11.191.191,0,0,0,.271-.032l3.531-4.479c.835,2.321,1.648,4.642,2.493,6.953a.274.274,0,0,0,.073.1.224.224,0,0,0,.318-.037l3.766-4.848,2.978,7.343a.2.2,0,0,0,.073.089.176.176,0,0,0,.235-.068l3.14-5.6,3.458,7.827a.1.1,0,0,0,.052.053.106.106,0,0,0,.141-.047l3.119-6.037,3.578,8.074a.115.115,0,0,0,.047.053.1.1,0,0,0,.082.011.1.1,0,0,0,.064-.053l3.479-6.127,3.375,7.937a.158.158,0,0,0,.063.079.166.166,0,0,0,.128.024.168.168,0,0,0,.106-.076l3.943-6.143,3.244,7.653a.3.3,0,0,0,.083.1.234.234,0,0,0,.334-.058l4.585-6.511,3.286,7.522a.247.247,0,0,0,.12.132.272.272,0,0,0,.376-.105l3.792-6.9,4.147,6.9a.272.272,0,0,0,.13.111.26.26,0,0,0,.2-.005.264.264,0,0,0,.138-.147l2.582-6.806,4.762,5.879a.177.177,0,0,0,.094.068.2.2,0,0,0,.245-.137l2.3-7.874,5.633,4.174a.124.124,0,0,0,.073.026.122.122,0,0,0,.12-.121l-.062-6.9,3,1.126A12.789,12.789,0,0,0,383.694,317.488Z" transform="translate(-44.665 -58.021)" fill="#6a8eae"/>
      <path id="Path_341" data-name="Path 341" d="M352.312,128.3l4.7-.1-.147.151q-.2-4.989-.274-9.983l-.067-4.994-.019-2.485c-.013-.407-.037-.819-.067-1.23a9.464,9.464,0,0,0-.161-1.187,8.767,8.767,0,0,0-8.387-7.084l-2.468-.06c-1.641-.025-3.3-.061-4.91.023H340.5a.409.409,0,0,1-.128-.014,3.483,3.483,0,0,1-2.583-3.116,3.988,3.988,0,0,1,.135-1.408l0-.007a.357.357,0,0,1,.3-.258,3.448,3.448,0,0,0,2.4-1.619A9.363,9.363,0,0,0,341.846,92a20.673,20.673,0,0,0,.525-3.213,27.654,27.654,0,0,0,.1-3.27l.213.2a3.678,3.678,0,0,1-2.033-.586,4.264,4.264,0,0,1-1.367-1.606,7.805,7.805,0,0,1-.677-1.972,10.973,10.973,0,0,1-.237-2.064l.307.069a13.159,13.159,0,0,1-1.562,2.368,12.529,12.529,0,0,1-2.007,1.992,9.6,9.6,0,0,1-2.451,1.413,8.708,8.708,0,0,1-2.769.587.167.167,0,0,1-.109-.033l-.007-.005c-.449-.332-1.118-.574-1.5-.209a2.5,2.5,0,0,0-.518,1.628,3.637,3.637,0,0,0,.223,1.745.6.6,0,0,0,.558.358,1.478,1.478,0,0,0,.745-.262l0,0a.24.24,0,0,1,.328.062,9.6,9.6,0,0,1,1.309,2.616,8.7,8.7,0,0,1,.43,2.923,10.33,10.33,0,0,1-.687,2.866,21,21,0,0,1-1.208,2.649.348.348,0,0,1-.3.183h-.016a92.817,92.817,0,0,0-11.3.792c-.932.13-1.859.288-2.769.493-.461.087-.9.228-1.352.34a8.527,8.527,0,0,0-1.258.484,11.239,11.239,0,0,0-4.058,3.6,24.867,24.867,0,0,0-2.681,4.922,45.852,45.852,0,0,0-1.871,5.356,90.7,90.7,0,0,0-2.353,11.171l-.359-.551,13.348,3.629-.452.2a9.554,9.554,0,0,0,.815-2.862,27.814,27.814,0,0,1,.618-3.086,33.037,33.037,0,0,0,1.189-6.052,36.294,36.294,0,0,0,.092-6.182,37.571,37.571,0,0,0-.95-6.131.049.049,0,1,1,.094-.025,35.9,35.9,0,0,1,1.276,12.385,33.665,33.665,0,0,1-1.054,6.18,30.352,30.352,0,0,0-.531,3.031,10.271,10.271,0,0,1-.845,3.11.391.391,0,0,1-.446.2l-.006,0L300.892,128a.49.49,0,0,1-.36-.546v-.005a91.739,91.739,0,0,1,2.344-11.307,33.381,33.381,0,0,1,4.733-10.587,12.187,12.187,0,0,1,4.45-3.865,9.456,9.456,0,0,1,1.4-.526c.471-.113.94-.257,1.413-.343.945-.2,1.893-.356,2.842-.481a90.471,90.471,0,0,1,11.422-.638l-.316.183a20.475,20.475,0,0,0,1.219-2.523,9.731,9.731,0,0,0,.708-2.663,8.16,8.16,0,0,0-.342-2.722,9.079,9.079,0,0,0-1.19-2.5l.331.06a1.914,1.914,0,0,1-1.019.328,1.024,1.024,0,0,1-.567-.172,1.151,1.151,0,0,1-.376-.439,3.977,3.977,0,0,1-.236-1.983,4.791,4.791,0,0,1,.161-.976,1.878,1.878,0,0,1,.52-.9,1.159,1.159,0,0,1,1.042-.231,2.441,2.441,0,0,1,.916.441l-.115-.038a8.369,8.369,0,0,0,2.665-.545,9.275,9.275,0,0,0,2.38-1.349,11.836,11.836,0,0,0,1.968-1.932,12.9,12.9,0,0,0,1.5-2.318.162.162,0,0,1,.307.069,10.664,10.664,0,0,0,.249,1.99,7.453,7.453,0,0,0,.663,1.875,3.891,3.891,0,0,0,1.257,1.455,3.158,3.158,0,0,0,1.818.483.211.211,0,0,1,.213.2,28.064,28.064,0,0,1-.022,3.334,21.179,21.179,0,0,1-.459,3.313,9.948,9.948,0,0,1-1.236,3.161,4.806,4.806,0,0,1-1.19,1.3,3.8,3.8,0,0,1-1.655.69l.3-.266a3.244,3.244,0,0,0-.079,1.13,2.751,2.751,0,0,0,2.035,2.389l-.137-.014c1.681-.1,3.324-.074,4.979-.062l2.477.041a9.61,9.61,0,0,1,9.111,7.818,26.732,26.732,0,0,1,.2,5.054l-.046,4.989-.014,9.98v.006a.144.144,0,0,1-.144.145h0l-4.7-.1a.049.049,0,0,1,0-.1Z" transform="translate(-47.905 -6.773)" fill="#0b0907"/>
      <path id="Path_346" data-name="Path 346" d="M371.869,225.9a1,1,0,0,1,.256.235c.03.053.051.1-.021.108a1.913,1.913,0,0,0-.27-.011c-.046.017-.013.071.054.143a.479.479,0,0,1,.129.181c.017.048.038.1.009.123-.072.044-.2.059-.512-.019a.23.23,0,0,1-.087-.044c-.251-.2-.322-.316-.335-.4,0-.038.05-.051.1-.066a.478.478,0,0,1,.218-.009c.1.009.16,0,.143-.046s-.139-.143-.181-.2.009-.072.068-.082a1.063,1.063,0,0,1,.344.046.272.272,0,0,1,.089.041Z" transform="translate(-80.438 -73.587)" fill="#020202"/>
      <path id="Path_347" data-name="Path 347" d="M387.988,134.537a5.189,5.189,0,0,0,.285.918l.344.9c.236.6.481,1.191.73,1.783s.479,1.21.757,1.745c.144.274.306.541.475.81a4.469,4.469,0,0,1,.246.439,3.05,3.05,0,0,1,.22.469,7.036,7.036,0,0,1,.441,1.989,11.672,11.672,0,0,1-.046,2,16.51,16.51,0,0,1-.9,3.864l.028-.242c.291,1.963.545,3.932.808,5.9l.364,2.955c.125.984.225,1.973.339,2.959l0,.022a.334.334,0,0,1-.112.288,5.222,5.222,0,0,1-1.79.957,12.093,12.093,0,0,1-1.891.468,26.529,26.529,0,0,1-3.824.352,37.717,37.717,0,0,0,3.732-.77,15.174,15.174,0,0,0,1.777-.6,5.027,5.027,0,0,0,1.516-.93l-.109.31c-.158-.98-.331-1.958-.477-2.939l-.452-2.943c-.282-1.965-.572-3.928-.825-5.9a.5.5,0,0,1,.026-.236l0-.006a18.332,18.332,0,0,0,.923-3.62,8.265,8.265,0,0,0-.189-3.635,2.465,2.465,0,0,0-.168-.412c-.063-.135-.116-.268-.2-.415-.153-.287-.3-.581-.437-.887-.266-.63-.433-1.233-.632-1.852s-.376-1.234-.552-1.855a10.151,10.151,0,0,1-.41-1.892Z" transform="translate(-86.602 -31.956)" fill="#0b0907"/>
      <path id="Path_348" data-name="Path 348" d="M287.643,168.267c-.913,3.977-1.879,7.939-2.865,11.9-.961,3.964-2.013,7.9-3.018,11.855-.5,1.977-1.027,3.946-1.562,5.914s-1.054,3.939-1.615,5.9c-1.095,3.928-2.23,7.845-3.3,11.78a.183.183,0,0,1-.209.133h0a4.838,4.838,0,0,0-1.506-.03,3.686,3.686,0,0,0-1.416.485,3.125,3.125,0,0,0-1.045,1.062,4.522,4.522,0,0,0-.527,1.432.209.209,0,0,1-.007.025,5.849,5.849,0,0,0-.3,1.186,2.16,2.16,0,0,0-.006.584.479.479,0,0,0,.232.391.153.153,0,0,1,.092.145v.01a6.3,6.3,0,0,0,.219,2.032,1.947,1.947,0,0,0,.469.832.982.982,0,0,0,.828.248.179.179,0,0,1,.2.14l0,.008a2.07,2.07,0,0,0,.913,1.414,1.724,1.724,0,0,0,1.607-.224.22.22,0,0,1,.206-.008.223.223,0,0,1,.123.167l0,.017a2.739,2.739,0,0,0,.669,1.544,1.2,1.2,0,0,0,1.448.055,3.177,3.177,0,0,0,1.254-1.146,3.726,3.726,0,0,0,.377-.779l.305-.889,1.232-3.562a3.233,3.233,0,0,1,1.222-1.7,2.872,2.872,0,0,1,.991-.44,2.249,2.249,0,0,1,.571-.061,1.139,1.139,0,0,1,.682.238.416.416,0,0,1,.154.351v.011l-.209,3.01-.649-.435a1.408,1.408,0,0,0,.327-.317,1.935,1.935,0,0,0,.254-.455,2.645,2.645,0,0,0,.155-1.1,5.009,5.009,0,0,0-.2-1.175c-.066-.194-.121-.391-.194-.584l-.236-.576,0-.011a.487.487,0,0,1-.015-.328c1.187-3.854,2.361-7.712,3.591-11.552s2.411-7.7,3.673-11.526,2.48-7.674,3.766-11.5c1.262-3.83,2.565-7.647,3.872-11.462a.049.049,0,0,1,.061-.031.049.049,0,0,1,.032.06c-1.109,3.879-2.223,7.756-3.377,11.621-1.13,3.872-2.322,7.725-3.483,11.587s-2.387,7.7-3.576,11.557-2.429,7.69-3.659,11.531l-.019-.339.253.636c.079.215.141.439.212.659a5.937,5.937,0,0,1,.221,1.4,3.556,3.556,0,0,1-.232,1.468,2.841,2.841,0,0,1-.388.676,2.132,2.132,0,0,1-.626.558.43.43,0,0,1-.451-.008.439.439,0,0,1-.2-.407l0-.02.259-3.006.153.362a.751.751,0,0,0-.546-.023,2.062,2.062,0,0,0-.715.3,2.432,2.432,0,0,0-.952,1.287l-1.322,3.529-.334.883a4.35,4.35,0,0,1-.47.9,3.759,3.759,0,0,1-1.525,1.307,2.284,2.284,0,0,1-1.021.241,1.458,1.458,0,0,1-1.009-.436,3.18,3.18,0,0,1-.771-1.864l.332.176a3.026,3.026,0,0,1-.959.343,1.638,1.638,0,0,1-1.05-.16,1.914,1.914,0,0,1-.728-.752,3.265,3.265,0,0,1-.353-.954l.2.148a1.34,1.34,0,0,1-1.108-.351,2.277,2.277,0,0,1-.553-.987,6.606,6.606,0,0,1-.213-2.155l.091.156a.789.789,0,0,1-.406-.632,2.455,2.455,0,0,1,.011-.673,6.267,6.267,0,0,1,.325-1.252l-.007.025a4.824,4.824,0,0,1,.548-1.538,3.448,3.448,0,0,1,1.14-1.183,4.02,4.02,0,0,1,1.539-.547,5.16,5.16,0,0,1,1.63.016l-.213.132c1.013-3.95,1.959-7.918,2.945-11.875.479-1.982,1-3.954,1.506-5.928s1.019-3.948,1.56-5.914c1.076-3.933,2.106-7.878,3.225-11.8,1.095-3.928,2.21-7.85,3.378-11.759a.049.049,0,0,1,.059-.033.049.049,0,0,1,.035.059Z" transform="translate(-33.805 -47.313)" fill="#0b0907"/>
      <path id="Path_349" data-name="Path 349" d="M260.746,256.711l-2.364-.505a2.713,2.713,0,0,0-3.124,1.764c-2.377,6.751-8.482,23.264-8.385,24.922.117,2.005,4.763,2.073,4.763,2.073l7.227-23.83h.935" transform="translate(-23.168 -87.423)" fill="#0b0907"/>
      <path id="Path_350" data-name="Path 350" d="M287.629,264.971l-4.559,24.241a2.567,2.567,0,0,1-3.974,1.3l4.967-24.118s1.355-5.42,3.8-4.428Z" transform="translate(-38.024 -90.021)" fill="#0b0907"/>
      <path id="Path_351" data-name="Path 351" d="M230.722,316.635l.01-.032-.005.095A.26.26,0,0,0,230.722,316.635Z" transform="translate(-15.723 -114.999)" fill="#fff"/>
      <path id="Path_496" data-name="Path 496" d="M2.653-.005c1.466,0,2.653.546,2.652,1.224S4.115,2.448,2.649,2.45,0,1.9,0,1.226,1.187,0,2.653-.005Z" transform="translate(196.621 250.401) rotate(-81.297)" fill="#0b0907"/>
      <path id="Path_497" data-name="Path 497" d="M2.653-.005c1.466,0,2.653.546,2.652,1.224S4.115,2.448,2.649,2.45,0,1.9,0,1.226,1.187,0,2.653-.005Z" transform="translate(207.843 258.805) rotate(-81.297)" fill="#0b0907"/>
      <path id="Path_498" data-name="Path 498" d="M2.653-.005c1.466,0,2.653.546,2.652,1.224S4.115,2.448,2.649,2.45,0,1.9,0,1.226,1.187,0,2.653-.005Z" transform="translate(234.275 256.671) rotate(-81.297)" fill="#0b0907"/>
      <path id="Path_352" data-name="Path 352" d="M355.469,121.621c-.029,4.346-.178,8.684-.388,13.027s-.565,8.682-1.076,13.007a119.315,119.315,0,0,1-2.212,12.888c-.506,2.124-1.062,4.234-1.7,6.323-.321,1.044-.667,2.082-1.025,3.116-.174.52-.361,1.031-.558,1.537l-.294.757-.147.379-.073.189-.037.095-.019.05a1.093,1.093,0,0,1-.087.177l.062-.121c-.458,1.135-.947,2.267-1.454,3.368s-1.064,2.205-1.637,3.276l.028-.067a.675.675,0,0,1-.1.191l.041-.065c-.54,1-1.118,1.988-1.715,2.948l-.022.036a.173.173,0,0,1-.038.043l.023-.026a.383.383,0,0,0,.084-.242l-.061.213-.666,1.022.023-.04-.022.032-.022.039A43.6,43.6,0,0,1,339.14,188a31.3,31.3,0,0,1-3.818,3.7,26.3,26.3,0,0,1-4.433,2.913,22.331,22.331,0,0,1-4.966,1.875l.02-.005-.237.057.022,0a21.209,21.209,0,0,1-2.768.488,26.491,26.491,0,0,1-2.8.194,30.278,30.278,0,0,1-5.59-.459l.075.007h-.005a.406.406,0,0,1-.411-.4v-.05c.363-4.569.718-9.136,1.178-13.694l.694-6.838.787-6.829c.553-4.55,1.142-9.1,1.848-13.635.366-2.267.757-4.531,1.206-6.791a60.272,60.272,0,0,1,1.694-6.753.809.809,0,0,1,.241-.361q3.545-3.032,7.146-5.985t7.283-5.814q3.679-2.861,7.415-5.647c1.249-.924,2.508-1.836,3.789-2.717.643-.437,1.285-.876,1.942-1.294a10.436,10.436,0,0,1,2.085-1.1l-.045.024a1.355,1.355,0,0,1,.51-.174,4.333,4.333,0,0,1,.491-.055,9.592,9.592,0,0,1,.974,0,18.767,18.767,0,0,1,1.921.225.093.093,0,0,1,.078.09Zm-.157,0-.025-2.65.078.09a18.582,18.582,0,0,0-1.9-.2,8.172,8.172,0,0,0-.949.01,2.346,2.346,0,0,0-.858.2l-.027.016-.018.008a10.329,10.329,0,0,0-1.985,1.123q-.959.648-1.882,1.353c-1.232.936-2.443,1.9-3.644,2.883-2.4,1.958-4.762,3.973-7.108,6l-14.058,12.193.241-.361a65.3,65.3,0,0,0-1.587,6.569c-.446,2.229-.838,4.475-1.205,6.726-.742,4.5-1.4,9.026-2.007,13.558s-1.172,9.071-1.724,13.613c-.533,4.543-1.111,9.085-1.6,13.633l-.409-.452h.018a.368.368,0,0,1,.063.007,29.55,29.55,0,0,0,5.439.615,22.12,22.12,0,0,0,2.738-.117,20.637,20.637,0,0,0,2.7-.444l.023,0,.16-.037.02-.005a21.825,21.825,0,0,0,4.864-1.776,22.992,22.992,0,0,0,4.342-2.865,27.389,27.389,0,0,0,3.684-3.695,37.188,37.188,0,0,0,3.041-4.26l-.022.039.02-.031.023-.041.617-1.03-.061.213a.411.411,0,0,1,.091-.26l.035-.041-.06.079c.559-.979,1.087-1.962,1.581-2.968l.041-.066a.239.239,0,0,0-.039.076l.028-.067c.53-1.086,1.026-2.17,1.494-3.283s.9-2.229,1.308-3.358l.062-.121a.261.261,0,0,0-.046.084l.016-.046.033-.1.067-.192.133-.385.267-.77.51-1.536c.332-1.023.652-2.049.948-3.085.6-2.069,1.155-4.154,1.643-6.255,1.007-4.2,1.811-8.447,2.534-12.709s1.269-8.574,1.679-12.889c.2-2.158.371-4.324.483-6.491.067-1.083.089-2.167.123-3.252s.061-2.169.069-3.253Z" transform="translate(-54.224 -24.703)" fill="#0b0907"/>
      <path id="Path_354" data-name="Path 354" d="M399.905,192.57c1.61,2.122,3.209,4.252,4.774,6.407l2.357,3.225c.789,1.072,1.551,2.164,2.328,3.245a.362.362,0,0,1,.046.087l0,.008c.808,2.234,1.649,4.457,2.429,6.7l.585,1.683.287.845.254.862a3.906,3.906,0,0,0,.668,1.458,1.368,1.368,0,0,0,.583.4,2,2,0,0,0,.728.155.375.375,0,0,0,.381-.292,2.059,2.059,0,0,0,.044-.767,10.032,10.032,0,0,0-.355-1.7c-.16-.565-.34-1.129-.53-1.69-.092-.282-.2-.551-.285-.859a1.221,1.221,0,0,1-.047-.525.35.35,0,0,1,.109-.19.313.313,0,0,1,.216-.074.7.7,0,0,1,.282.081,7.524,7.524,0,0,1,1.4,1.16c.425.418.833.849,1.235,1.285q1.208,1.307,2.371,2.652a13.925,13.925,0,0,0,2.489,2.462,10.278,10.278,0,0,0,1.479.9,4.965,4.965,0,0,0,.785.31,1.663,1.663,0,0,0,.74.08.557.557,0,0,0,.392-.422.52.52,0,0,0-.021-.289.578.578,0,0,0-.068-.131l-.132-.179-1.059-1.428-2.113-2.858c-2.806-3.818-5.577-7.66-8.353-11.5a.531.531,0,0,1-.03-.047c-.736-1.337-1.479-2.671-2.194-4.02-.683-1.366-1.406-2.712-2.05-4.1-1.31-2.76-2.547-5.557-3.632-8.416s-2.1-5.746-2.908-8.7c-.4-1.476-.792-2.954-1.09-4.455a39.163,39.163,0,0,1-.715-4.529.049.049,0,0,1,.011-.036.048.048,0,0,1,.033-.017.051.051,0,0,1,.053.043q.378,2.25.979,4.453c.389,1.469.819,2.926,1.28,4.373.94,2.888,2.006,5.732,3.157,8.539l.886,2.1.936,2.074c.6,1.392,1.281,2.749,1.933,4.118s1.367,2.707,2.045,4.063l2.147,4.011-.029-.046c2.727,3.882,5.459,7.758,8.156,11.659l2.014,2.931,1,1.467.126.183a1.166,1.166,0,0,1,.126.268,1.086,1.086,0,0,1-.087.856,1.069,1.069,0,0,1-.68.519,2.03,2.03,0,0,1-1-.115,5.418,5.418,0,0,1-.847-.366,10.688,10.688,0,0,1-1.511-.99,15.247,15.247,0,0,1-2.508-2.555c-.765-.9-1.534-1.8-2.338-2.664-.4-.431-.813-.855-1.235-1.264a6.7,6.7,0,0,0-1.333-1.078.406.406,0,0,0-.139-.042c-.021.013.042-.036.018-.006a1,1,0,0,0,.053.353c.077.265.2.544.3.823.211.556.424,1.113.613,1.683a10.483,10.483,0,0,1,.457,1.77,2.592,2.592,0,0,1-.023,1,1.037,1.037,0,0,1-.321.525,1.061,1.061,0,0,1-.573.232,2.572,2.572,0,0,1-1-.149,2.079,2.079,0,0,1-.888-.551,4.567,4.567,0,0,1-.9-1.7c-.337-1.125-.807-2.226-1.186-3.348-.809-2.231-1.557-4.484-2.339-6.725l.049.094c-.753-1.1-1.522-2.185-2.263-3.292l-2.235-3.312c-1.5-2.2-2.958-4.432-4.408-6.668a.05.05,0,0,1,.013-.067.048.048,0,0,1,.067.01Z" transform="translate(-93.682 -47.842)" fill="#0b0907"/>
      <path id="Path_355" data-name="Path 355" d="M273.827,266.89a5.045,5.045,0,0,1-.2-1.452,7.141,7.141,0,0,1,.137-1.427,5.774,5.774,0,0,1,.448-1.384,3.365,3.365,0,0,1,.4-.645,1.213,1.213,0,0,1,.621-.458,1.994,1.994,0,0,0-.19.667c-.046.215-.064.447-.1.669-.067.446-.132.9-.224,1.346s-.2.9-.337,1.346A7.083,7.083,0,0,1,273.827,266.89Z" transform="translate(-35.502 -89.876)" fill="#0b0907"/>
      <path id="Path_356" data-name="Path 356" d="M279.1,268.691a6.791,6.791,0,0,1-.108-1.664,10.125,10.125,0,0,1,.211-1.622,8.432,8.432,0,0,1,.492-1.574,5.358,5.358,0,0,1,.4-.749,2.832,2.832,0,0,1,.271-.345.7.7,0,0,1,.373-.239,1.926,1.926,0,0,0-.2.761l-.107.787c-.076.524-.163,1.047-.276,1.567a16.057,16.057,0,0,1-.412,1.552A8.571,8.571,0,0,1,279.1,268.691Z" transform="translate(-37.972 -90.321)" fill="#0b0907"/>
      <path id="Path_357" data-name="Path 357" d="M270.848,262.178s1.055-3.505,1.493-3.881" transform="translate(-34.222 -88.404)" fill="none" stroke="#0b0907" stroke-linecap="round" stroke-linejoin="round" stroke-width="0.904"/>
      <path id="Path_358" data-name="Path 358" d="M294.737,406.082c.061,1.178.176,2.236.227,3.262l-.046-.147,3.527,4.5,3.573,4.457a38.364,38.364,0,0,0,3.826,4.226,13.315,13.315,0,0,0,2.262,1.7,5.139,5.139,0,0,0,1.272.53,1.738,1.738,0,0,0,1.239-.1l-.046.031a2.491,2.491,0,0,0,.512-.989,4.1,4.1,0,0,0,.139-1.162,7.72,7.72,0,0,0-.45-2.343,15.643,15.643,0,0,0-1.013-2.216c-.211-.352-.4-.715-.627-1.057l-.683-1.027.043.054a8.653,8.653,0,0,1-.766-1,7.926,7.926,0,0,1-.611-1.09,5.8,5.8,0,0,1-.575-2.5l.319.492c-.99-.435-1.981-.852-2.965-1.313l-2.974-1.379Zm-.054-.082,6.165,2.25,3.2,1.211c1.074.4,2.142.849,3.21,1.277a.509.509,0,0,1,.318.455v.037a4.863,4.863,0,0,0,.127,1.031,5.944,5.944,0,0,0,.355,1.015,9.479,9.479,0,0,0,.521.968,7.8,7.8,0,0,0,.636.884l.025.029.018.025.679,1.088c.225.363.415.752.624,1.126s.367.781.549,1.172c.157.4.3.813.43,1.23a7.571,7.571,0,0,1,.334,2.613,3.753,3.753,0,0,1-1,2.488.152.152,0,0,1-.042.029l0,0a2.146,2.146,0,0,1-1.546.042,5.676,5.676,0,0,1-1.335-.618,17.677,17.677,0,0,1-2.312-1.73,55.3,55.3,0,0,1-4.164-3.982,48.623,48.623,0,0,1-3.69-4.42c-1.153-1.535-2.257-3.1-3.283-4.732l-.012-.019a.221.221,0,0,1-.034-.128c.051-1.176.166-2.32.227-3.344Z" transform="translate(-45.106 -155.774)" fill="#0b0907"/>
      <path id="Path_359" data-name="Path 359" d="M291.89,409.979h0a3.886,3.886,0,0,0-2.167,3.493v8.067h3.858l.468-4.26s11.572,20.066,21.625,21.128-7.728-19.048-7.728-19.048,2.7,4.152.6,7.177c0,0-2.229,1.641-7.59-4.781,0,0,4.317-4.725,5.719-4.475,0,0-.147-1.49-1.067-1.564,0,0-5.777,2.593-6.037,4.5C299.568,420.219,293.473,412.574,291.89,409.979Z" transform="translate(-42.924 -157.589)" fill="#6a8eae"/>
      <path id="Path_360" data-name="Path 360" d="M432.305,437.217c.332.828.629,1.668.942,2.5s.6,1.676.892,2.518q.872,2.524,1.677,5.069l-.2-.248c1.668.893,3.352,1.779,5.017,2.7,1.678.892,3.36,1.787,5.1,2.547a32.92,32.92,0,0,0,5.37,1.857,14.286,14.286,0,0,0,2.767.423,5.032,5.032,0,0,0,1.33-.108,1.61,1.61,0,0,0,.976-.567l-.046.081a2.434,2.434,0,0,0,.032-1.033,4.2,4.2,0,0,0-.348-1.075,7.09,7.09,0,0,0-1.371-1.9c-.282-.282-.582-.552-.887-.813-.324-.243-.627-.51-.967-.734s-.664-.469-1.014-.68l-1.051-.633-.018-.011a.48.48,0,0,1-.056-.04c-1.02-.853-1.968-1.752-2.907-2.676s-1.812-1.908-2.66-2.919a23.813,23.813,0,0,1-2.305-3.223,13.162,13.162,0,0,1-.9-1.775l-.329-.942-.187-.979a.049.049,0,0,1,.1-.021v0A10.536,10.536,0,0,0,443,437.966a29.7,29.7,0,0,0,2.464,2.981q1.315,1.422,2.745,2.736c.938.886,1.915,1.746,2.894,2.566l-.074-.051,1.094.663c.364.223.71.481,1.06.727s.672.541,1.009.81c.322.29.638.59.938.908a8.008,8.008,0,0,1,1.492,2.2,4.612,4.612,0,0,1,.37,1.33,3.1,3.1,0,0,1-.147,1.46.266.266,0,0,1-.041.074l-.005.007a2.3,2.3,0,0,1-1.463.8,5.669,5.669,0,0,1-1.511.018,15.824,15.824,0,0,1-2.834-.625c-1.834-.565-3.611-1.262-5.382-1.972s-3.546-1.419-5.288-2.205a54,54,0,0,1-5.123-2.58l-.005,0a.424.424,0,0,1-.2-.245q-.769-2.556-1.473-5.133-.355-1.287-.683-2.583c-.212-.866-.44-1.727-.633-2.6a.049.049,0,0,1,.033-.058.049.049,0,0,1,.06.029Z" transform="translate(-108.616 -168.77)" fill="#0b0907"/>
      <path id="Path_361" data-name="Path 361" d="M435.427,456.03h0a3.911,3.911,0,0,0-.425,4.1l-.392,7.326h6.19l-.255-5.824s19.135,12.891,28.627,9.386-15.238-13.682-15.238-13.682,4.235,2.531,3.662,6.181c0,0-1.287,2.463-8.9-.928,0,0,1.82-6.159,3.188-6.557,0,0-.781-1.273-1.64-.931,0,0-4.06,4.891-3.462,6.723C446.784,461.821,437.979,457.658,435.427,456.03Z" transform="translate(-109.722 -178.143)" fill="#6a8eae"/>
      <path id="Path_362" data-name="Path 362" d="M364.382,82.12c4.4.426-.416-16.312-13.735-7.785-5.968,3.821-1.352,10.843-1.352,10.843s-.771-4.591,2.287-2.822c0,0,4.979.128,8.65-6.252C360.232,76.1,359.786,81.676,364.382,82.12Z" transform="translate(-69.604 -3.391)" fill="#0b0907"/>
      <path id="Path_363" data-name="Path 363" d="M347.907,72.714s-5.086-2.978,0-7.048,5.858,3.616,5.858,3.616" transform="translate(-68.707 0)" fill="#020202"/>
      <path id="Path_364" data-name="Path 364" d="M373.1,98.219a1,1,0,0,1,.506.26.968.968,0,0,1,.308.537.671.671,0,0,1-.244.646.741.741,0,0,1-.569.149,3.246,3.246,0,0,0,.288-.407.435.435,0,0,0,.046-.305A7.056,7.056,0,0,0,373.1,98.219Z" transform="translate(-81.366 -15.39)" fill="#0b0907"/>
      <path id="Path_365" data-name="Path 365" d="M365.02,95.41a.738.738,0,1,0-.705-.737A.735.735,0,0,0,365.02,95.41Z" transform="translate(-77.313 -13.437)" fill="#0b0907"/>
      <path id="Path_366" data-name="Path 366" d="M352.449,96.369a.4.4,0,1,0-.378-.395A.393.393,0,0,0,352.449,96.369Z" transform="translate(-71.669 -14.186)" fill="#0b0907"/>
      <path id="Path_368" data-name="Path 368" d="M375.267,95.248a.738.738,0,1,0-.705-.737.735.735,0,0,0,.705.737Z" transform="translate(-82.037 -13.362)" fill="#0b0907"/>
      <path id="Path_369" data-name="Path 369" d="M361.312,92.348a1.915,1.915,0,0,1,.842-.54,2.928,2.928,0,0,1,2.84.54c-.335-.032-.641-.093-.948-.13s-.606-.065-.906-.076A6.729,6.729,0,0,0,361.312,92.348Z" transform="translate(-75.929 -12.395)" fill="#0b0907"/>
      <path id="Path_370" data-name="Path 370" d="M373.1,92.046a1.559,1.559,0,0,1,.7-.438,2.521,2.521,0,0,1,.82-.122,2.44,2.44,0,0,1,1.52.561c-.281.007-.536-.018-.789-.033s-.5-.031-.742-.037A10.577,10.577,0,0,0,373.1,92.046Z" transform="translate(-81.366 -12.319)" fill="#0b0907"/>
      <path id="Path_371" data-name="Path 371" d="M391.54,159.831a5.788,5.788,0,0,1-.432,1.781,6.905,6.905,0,0,1-.906,1.6,4.3,4.3,0,0,1-1.439,1.247,2.3,2.3,0,0,1-.965.249,1.462,1.462,0,0,1-.912-.291,2.209,2.209,0,0,0,1.467-.611,8.3,8.3,0,0,0,1.081-1.2C390.117,161.726,390.732,160.762,391.54,159.831Z" transform="translate(-87.72 -43.493)" fill="#0b0907"/>
      <path id="Path_372" data-name="Path 372" d="M356.649,125.02a6.978,6.978,0,0,1-1.552-2.279,22.7,22.7,0,0,1-.985-2.57c-.263-.876-.509-1.756-.7-2.648s-.363-1.786-.486-2.7l-.006-.044a.308.308,0,0,1,.033-.185,33.2,33.2,0,0,1,1.789-3.072,33.37,33.37,0,0,1-1.1,3.385l.027-.228c.228.868.458,1.743.672,2.617l.663,2.615c.222.87.45,1.736.694,2.6A11.887,11.887,0,0,0,356.649,125.02Z" transform="translate(-72.058 -21.46)" fill="#0b0907"/>
      <path id="Path_373" data-name="Path 373" d="M384.156,186.06c-.134.01-.234-.106-.3-.265a1.033,1.033,0,0,1-.037-.547.487.487,0,1,1,.957.182l0,.009a.685.685,0,0,1-.167.335,1.07,1.07,0,0,1-.438.288l-.009.007A.014.014,0,0,1,384.156,186.06Zm0,0a.008.008,0,0,0,.005-.008l-.008.007a1.022,1.022,0,0,1-.3-.428.713.713,0,0,1-.031-.381l.955.191c-.011.058-.069.091-.178.168a1.859,1.859,0,0,0-.44.451Z" transform="translate(-86.296 -54.903)" fill="#020202"/>
      <path id="Path_374" data-name="Path 374" d="M357.34,161.646a4.4,4.4,0,0,1-.432,1.53,5.315,5.315,0,0,1-.9,1.318,3.423,3.423,0,0,1-1.369.932,1.751,1.751,0,0,1-1.628-.164,2.69,2.69,0,0,0,1.291-.53,6.862,6.862,0,0,0,1-.915l.965-1.067A15.126,15.126,0,0,1,357.34,161.646Z" transform="translate(-72.104 -44.32)" fill="#0b0907"/>
      <path id="Path_375" data-name="Path 375" d="M368.144,103.476a3.908,3.908,0,0,0,1.151.968,1.936,1.936,0,0,0,.667.193c.244.038.5.023.8.039a1.519,1.519,0,0,1-.784.371,1.478,1.478,0,0,1-.9-.129,1.656,1.656,0,0,1-.673-.609,1.547,1.547,0,0,1-.253-.833Z" transform="translate(-79.079 -17.788)" fill="#0b0907"/>
      <path id="Path_376" data-name="Path 376" d="M319.536,256.693a.79.79,0,1,0-.756-.79A.787.787,0,0,0,319.536,256.693Z" transform="translate(-56.321 -86.953)" fill="#0b0907"/>
      <path id="Path_377" data-name="Path 377" d="M328.363,256.461a.79.79,0,1,0-.756-.789A.787.787,0,0,0,328.363,256.461Z" transform="translate(-60.39 -86.847)" fill="#0b0907"/>
      <path id="Path_378" data-name="Path 378" d="M337.886,254.138a.79.79,0,1,0-.756-.789A.787.787,0,0,0,337.886,254.138Z" transform="translate(-64.78 -85.787)" fill="#0b0907"/>
      <path id="Path_379" data-name="Path 379" d="M346.247,249.725a.79.79,0,1,0-.756-.79A.787.787,0,0,0,346.247,249.725Z" transform="translate(-68.635 -83.774)" fill="#0b0907"/>
      <path id="Path_380" data-name="Path 380" d="M354.145,242.989a.79.79,0,1,0-.756-.79A.787.787,0,0,0,354.145,242.989Z" transform="translate(-72.276 -80.702)" fill="#0b0907"/>
      <path id="Path_381" data-name="Path 381" d="M360.88,234.86a.79.79,0,1,0-.756-.79A.787.787,0,0,0,360.88,234.86Z" transform="translate(-75.382 -76.994)" fill="#0b0907"/>
      <path id="Path_382" data-name="Path 382" d="M365.757,226.034a.79.79,0,1,0-.756-.79A.787.787,0,0,0,365.757,226.034Z" transform="translate(-77.63 -72.968)" fill="#0b0907"/>
      <path id="Path_383" data-name="Path 383" d="M370.4,216.976a.79.79,0,1,0-.756-.79.787.787,0,0,0,.756.79Z" transform="translate(-79.772 -68.837)" fill="#0b0907"/>
      <path id="Path_384" data-name="Path 384" d="M374.12,206.988a.79.79,0,1,0-.756-.79A.787.787,0,0,0,374.12,206.988Z" transform="translate(-81.485 -64.281)" fill="#0b0907"/>
      <path id="Path_385" data-name="Path 385" d="M376.906,197.466a.79.79,0,1,0-.756-.79.787.787,0,0,0,.756.79Z" transform="translate(-82.77 -59.938)" fill="#0b0907"/>
      <path id="Path_386" data-name="Path 386" d="M379.228,187.478a.79.79,0,1,0-.756-.79.787.787,0,0,0,.756.79Z" transform="translate(-83.841 -55.382)" fill="#0b0907"/>
      <path id="Path_387" data-name="Path 387" d="M381.32,176.562a.79.79,0,1,0-.756-.79A.787.787,0,0,0,381.32,176.562Z" transform="translate(-84.805 -50.403)" fill="#0b0907"/>
      <path id="Path_388" data-name="Path 388" d="M383.409,165.645a.79.79,0,1,0-.756-.79.787.787,0,0,0,.756.79Z" transform="translate(-85.768 -45.424)" fill="#0b0907"/>
      <path id="Path_389" data-name="Path 389" d="M384.8,155.426a.79.79,0,1,0-.756-.79.787.787,0,0,0,.756.79Z" transform="translate(-86.411 -40.763)" fill="#0b0907"/>
      <path id="Path_390" data-name="Path 390" d="M385.733,145.438a.79.79,0,1,0-.756-.79.787.787,0,0,0,.756.79Z" transform="translate(-86.839 -36.207)" fill="#0b0907"/>
      <path id="Path_391" data-name="Path 391" d="M386.429,134.986a.79.79,0,1,0-.756-.79A.787.787,0,0,0,386.429,134.986Z" transform="translate(-87.161 -31.44)" fill="#0b0907"/>
      <path id="Path_392" data-name="Path 392" d="M386.894,124.3a.79.79,0,1,0-.756-.79A.787.787,0,0,0,386.894,124.3Z" transform="translate(-87.375 -26.567)" fill="#0b0907"/>
      <path id="Path_393" data-name="Path 393" d="M305.484,165.006a.79.79,0,1,0-.756-.79.787.787,0,0,0,.756.79Z" transform="translate(-49.842 -45.133)" fill="#0b0907"/>
      <path id="Path_394" data-name="Path 394" d="M311.291,166.748a.79.79,0,1,0-.756-.79A.787.787,0,0,0,311.291,166.748Z" transform="translate(-52.519 -45.927)" fill="#0b0907"/>
      <path id="Path_395" data-name="Path 395" d="M317.215,168.374a.79.79,0,1,0-.756-.79A.787.787,0,0,0,317.215,168.374Z" transform="translate(-55.25 -46.669)" fill="#0b0907"/>
      <path id="Path_396" data-name="Path 396" d="M322.672,169.594a.79.79,0,1,0-.756-.79.787.787,0,0,0,.756.79Z" transform="translate(-57.766 -47.225)" fill="#0b0907"/>
      <path id="Path_397" data-name="Path 397" d="M309.732,158.724a50.68,50.68,0,0,1,5.328,1.307,50.141,50.141,0,0,1,5.181,1.812,50.083,50.083,0,0,1-5.328-1.307A50.729,50.729,0,0,1,309.732,158.724Z" transform="translate(-52.149 -42.988)" fill="#0b0907"/>
      <path id="Path_398" data-name="Path 398" d="M401.584,166.168a.79.79,0,1,0-.756-.79A.787.787,0,0,0,401.584,166.168Z" transform="translate(-94.148 -45.663)" fill="#0b0907"/>
      <path id="Path_399" data-name="Path 399" d="M396.706,166.342a.79.79,0,1,0-.756-.79.787.787,0,0,0,.756.79Z" transform="translate(-91.899 -45.742)" fill="#0b0907"/>
      <path id="Path_400" data-name="Path 400" d="M397.353,161.425a8,8,0,0,1,2.155-.263,7.912,7.912,0,0,1,2.155.263,7.909,7.909,0,0,1-2.155.263A8,8,0,0,1,397.353,161.425Z" transform="translate(-92.545 -44.099)" fill="#0b0907"/>
      <path id="Path_401" data-name="Path 401" d="M427.286,247.307l6.639,12.3q3.31,6.154,6.711,12.256c2.28,4.059,4.535,8.133,6.916,12.126,1.188,2,2.4,3.981,3.669,5.918.636.967,1.286,1.924,1.968,2.847.344.457.691.914,1.059,1.34a7.308,7.308,0,0,0,1.137,1.131l.006,0a.524.524,0,0,1,.163.645.515.515,0,0,1-.6.281,14.481,14.481,0,0,0-3.513-.477,7.447,7.447,0,0,0-3.371.663,3.937,3.937,0,0,0-1.293,1.023,4.335,4.335,0,0,0-.762,1.483,5.652,5.652,0,0,0-.19.844c-.032.291-.067.576-.089.908a13.087,13.087,0,0,1-.325,1.888,21.313,21.313,0,0,1-3.192,6.792,28.652,28.652,0,0,1-2.309,2.933,17.58,17.58,0,0,1-1.31,1.324,8.859,8.859,0,0,1-.722.588,3.136,3.136,0,0,1-.395.247.979.979,0,0,1-.218.084c-.072.022-.176,0-.193-.084a.138.138,0,0,0,.08.075.137.137,0,0,0,.109-.008.955.955,0,0,0,.206-.1,3.084,3.084,0,0,0,.37-.271,8.8,8.8,0,0,0,.67-.632q.639-.665,1.22-1.385a28.362,28.362,0,0,0,2.123-3.017,22,22,0,0,0,2.863-6.711,12.344,12.344,0,0,0,.248-1.787c.01-.287.033-.621.056-.948a6.533,6.533,0,0,1,.177-.978,4.793,4.793,0,0,1,.884-1.818,4.855,4.855,0,0,1,1.569-1.283,8.362,8.362,0,0,1,3.792-.819,15.406,15.406,0,0,1,3.79.461l-.429.93a12.945,12.945,0,0,1-2.441-2.708c-.694-.953-1.346-1.927-1.982-2.91-1.269-1.967-2.473-3.967-3.651-5.982q-3.52-6.051-6.811-12.222t-6.455-12.407C431.378,255.686,429.284,251.52,427.286,247.307Z" transform="translate(-106.345 -83.392)" fill="#0b0907"/>
      <path id="Path_402" data-name="Path 402" d="M445.831,365.277a.79.79,0,1,0-.756-.79A.787.787,0,0,0,445.831,365.277Z" transform="translate(-114.547 -136.479)" fill="#0b0907"/>
      <path id="Path_403" data-name="Path 403" d="M449.837,360.051a.79.79,0,1,0-.756-.789.787.787,0,0,0,.756.789Z" transform="translate(-116.394 -134.096)" fill="#0b0907"/>
      <path id="Path_404" data-name="Path 404" d="M453.669,354.3a.79.79,0,1,0-.756-.79A.787.787,0,0,0,453.669,354.3Z" transform="translate(-118.161 -131.474)" fill="#0b0907"/>
      <path id="Path_405" data-name="Path 405" d="M456.108,346.115a.79.79,0,1,0-.756-.79A.787.787,0,0,0,456.108,346.115Z" transform="translate(-119.285 -127.739)" fill="#0b0907"/>
      <path id="Path_406" data-name="Path 406" d="M458.373,337.4a.79.79,0,1,0-.756-.789A.787.787,0,0,0,458.373,337.4Z" transform="translate(-120.329 -123.767)" fill="#0b0907"/>
      <path id="Path_407" data-name="Path 407" d="M463.773,332.7a.79.79,0,1,0-.756-.79A.787.787,0,0,0,463.773,332.7Z" transform="translate(-122.819 -121.621)" fill="#0b0907"/>
      <path id="Path_408" data-name="Path 408" d="M469.085,331.683a.79.79,0,1,0-.756-.789.787.787,0,0,0,.756.789Z" transform="translate(-125.268 -121.157)" fill="#0b0907"/>
      <path id="Path_409" data-name="Path 409" d="M374.4,121.882c.012-.107.026-.214.037-.321.072-.861.125-1.724.14-2.591h-.51l-.278-.107c-.13.866-.23,1.735-.321,2.6-.033.39-.063.781-.091,1.172Z" transform="translate(-81.49 -24.806)" fill="#0b0907"/>
    </g>
    <g id="Menu_Dots" data-name="Menu Dots">
      <g id="Ellipse_7" data-name="Ellipse 7" transform="translate(385 59)" fill="#0b0907" stroke="#0b0907" stroke-width="1">
        <circle cx="2.5" cy="2.5" r="2.5" stroke="none"/>
        <circle cx="2.5" cy="2.5" r="2" fill="none"/>
      </g>
      <g id="Ellipse_9" data-name="Ellipse 9" transform="translate(385 69)" fill="#0b0907" stroke="#0b0907" stroke-width="1">
        <circle cx="2.5" cy="2.5" r="2.5" stroke="none"/>
        <circle cx="2.5" cy="2.5" r="2" fill="none"/>
      </g>
      <g id="Ellipse_8" data-name="Ellipse 8" transform="translate(385 49)" fill="#0b0907" stroke="#0b0907" stroke-width="1">
        <circle cx="2.5" cy="2.5" r="2.5" stroke="none"/>
        <circle cx="2.5" cy="2.5" r="2" fill="none"/>
      </g>
    </g>
    <text id="Trip_to_Hawaii" data-name="Trip to Hawaii" transform="translate(128 70)" fill="#0b0907" font-size="24" font-family="Raleway" font-weight="700"><tspan x="0" y="0">Trip to Hawaii</tspan></text>
    <g id="Back" transform="translate(0 -63.37)">
      <path id="Path_5" data-name="Path 5" d="M524,105l-10,9,10,9" transform="translate(-492 9.37)" fill="none" stroke="#0b0907" stroke-linecap="round" stroke-linejoin="round" stroke-width="1"/>
      <path id="Path_6" data-name="Path 6" d="M514,123.37h21" transform="translate(-492)" fill="none" stroke="#0b0907" stroke-linecap="round" stroke-width="1"/>
    </g>
    <g id="Component_6_2" data-name="Component 6  2" transform="translate(0 815)">
      <g id="Tab_Bar" data-name="Tab Bar" transform="translate(0 -878)">
        <rect id="Container" width="412" height="55" transform="translate(0 878)" fill="#fff"/>
        <g id="Tab_3" data-name="Tab 3">
          <text id="Overview" transform="translate(351 928)" fill="#0b0907" font-size="16" font-family="SegoeUI, Segoe UI"><tspan x="-32.563" y="0">Overview</tspan></text>
          <g id="Overview-2" data-name="Overview" transform="translate(340 883)">
            <path id="Path_550" data-name="Path 550" d="M65.183,30.05H45.577a1.707,1.707,0,0,1-1.7-1.717V3.767a1.707,1.707,0,0,1,1.7-1.717H65.183a1.707,1.707,0,0,1,1.7,1.717V28.333A1.707,1.707,0,0,1,65.183,30.05Z" transform="translate(-43.88 -2.05)" fill="rgba(0,0,0,0)" stroke="#fbab36" stroke-miterlimit="10" stroke-width="1"/>
            <line id="Line_58" data-name="Line 58" x2="23" transform="translate(0 4.953)" fill="none" stroke="#fbab36" stroke-miterlimit="10" stroke-width="1"/>
            <line id="Line_59" data-name="Line 59" x2="6.621" transform="translate(1.722 8.527)" fill="none" stroke="#fbab36" stroke-linecap="round" stroke-miterlimit="10" stroke-width="1"/>
            <line id="Line_60" data-name="Line 60" x2="10.418" transform="translate(11.036 8.527)" fill="none" stroke="#fbab36" stroke-linecap="round" stroke-miterlimit="10" stroke-width="1"/>
            <line id="Line_61" data-name="Line 61" x2="12.095" transform="translate(9.359 12.547)" fill="none" stroke="#fbab36" stroke-linecap="round" stroke-miterlimit="10" stroke-width="1"/>
            <line id="Line_62" data-name="Line 62" x2="4.679" transform="translate(1.722 12.547)" fill="none" stroke="#fbab36" stroke-linecap="round" stroke-miterlimit="10" stroke-width="1"/>
            <line id="Line_63" data-name="Line 63" x2="12.993" transform="translate(1.722 16.568)" fill="none" stroke="#fbab36" stroke-linecap="round" stroke-miterlimit="10" stroke-width="1"/>
            <line id="Line_64" data-name="Line 64" x2="3.796" transform="translate(17.415 16.568)" fill="none" stroke="#fbab36" stroke-linecap="round" stroke-miterlimit="10" stroke-width="1"/>
            <line id="Line_65" data-name="Line 65" x2="19.732" transform="translate(1.722 20.588)" fill="none" stroke="#fbab36" stroke-linecap="round" stroke-miterlimit="10" stroke-width="1"/>
            <line id="Line_66" data-name="Line 66" x2="19.732" transform="translate(1.722 24.609)" fill="none" stroke="#fbab36" stroke-linecap="round" stroke-miterlimit="10" stroke-width="1"/>
          </g>
        </g>
        <g id="Tab_2" data-name="Tab 2">
          <text id="Create_Cache" data-name="Create Cache" transform="translate(206 928)" fill="#0b0907" font-size="16" font-family="SegoeUI, Segoe UI"><tspan x="-46.504" y="0">Create Cache</tspan></text>
          <g id="Component_15_2" data-name="Component 15  2" transform="translate(192 883)">
            <g id="Add" transform="translate(-314.442 7.405)">
              <path id="Path_551" data-name="Path 551" d="M335.848-430.125v16" transform="translate(-7.267 428.72)" fill="none" stroke="#fbb042" stroke-linecap="round" stroke-width="1"/>
              <path id="Path_552" data-name="Path 552" d="M0,0V16" transform="translate(336.442 6.595) rotate(90)" fill="none" stroke="#fbb042" stroke-linecap="round" stroke-width="1"/>
            </g>
            <circle id="Ellipse_30" data-name="Ellipse 30" cx="14" cy="14" r="14" fill="rgba(255,255,255,0)" stroke="#fbab36" stroke-width="1"/>
          </g>
        </g>
        <g id="Tab_1" data-name="Tab 1">
          <text id="Dashboard" transform="translate(61 928)" fill="#0b0907" font-size="16" font-family="SegoeUI, Segoe UI"><tspan x="-38.555" y="0">Dashboard</tspan></text>
          <g id="Dashboard-2" data-name="Dashboard" transform="translate(47 883)">
            <g id="Path_523" data-name="Path 523" transform="translate(-2 -2)" fill="rgba(0,0,0,0)" stroke-miterlimit="10">
              <path d="M 13.98016262054443 21.37096214294434 L 3.173062562942505 21.37096214294434 C 2.801932573318481 21.37096214294434 2.500002384185791 21.06903266906738 2.500002384185791 20.69790267944336 L 2.500002384185791 3.173063039779663 C 2.500002384185791 2.80193305015564 2.801932573318481 2.500002861022949 3.173062562942505 2.500002861022949 L 13.98016262054443 2.500002861022949 C 14.35129261016846 2.500002861022949 14.65322208404541 2.80193305015564 14.65322208404541 3.173063039779663 L 14.65322208404541 20.69790267944336 C 14.65322208404541 21.06903266906738 14.35129261016846 21.37096214294434 13.98016262054443 21.37096214294434 Z" stroke="none"/>
              <path d="M 13.98016262054443 20.87096214294434 C 14.07559204101563 20.87096214294434 14.15322208404541 20.79333305358887 14.15322208404541 20.69790267944336 L 14.15322208404541 3.173063039779663 C 14.15322208404541 3.077632904052734 14.07559204101563 3.000002861022949 13.98016262054443 3.000002861022949 L 3.173062562942505 3.000002861022949 C 3.077632427215576 3.000002861022949 3.000002384185791 3.077632904052734 3.000002384185791 3.173063039779663 L 3.000002384185791 20.69790267944336 C 3.000002384185791 20.79333305358887 3.077632427215576 20.87096214294434 3.173062562942505 20.87096214294434 L 13.98016262054443 20.87096214294434 M 13.98016262054443 21.87096214294434 L 3.173062562942505 21.87096214294434 C 2.525002479553223 21.87096214294434 2.000002384185791 21.34597206115723 2.000002384185791 20.69790267944336 L 2.000002384185791 3.173063039779663 C 2.000002384185791 2.525002956390381 2.525002479553223 2.000002861022949 3.173062562942505 2.000002861022949 L 13.98016262054443 2.000002861022949 C 14.62822246551514 2.000002861022949 15.15322208404541 2.525002956390381 15.15322208404541 3.173063039779663 L 15.15322208404541 20.69790267944336 C 15.15322208404541 21.34597206115723 14.62822246551514 21.87096214294434 13.98016262054443 21.87096214294434 Z" stroke="none" fill="#fbab36"/>
            </g>
            <g id="Path_524" data-name="Path 524" transform="translate(-252.984 -137.871)" fill="rgba(0,0,0,0)" stroke-miterlimit="10">
              <path d="M 279.8108215332031 165.3709716796875 L 269.1730651855469 165.3709716796875 C 268.8019409179688 165.3709716796875 268.5 165.0690307617188 268.5 164.6979064941406 L 268.5 147.1730651855469 C 268.5 146.8019409179688 268.8019409179688 146.5 269.1730651855469 146.5 L 279.8108215332031 146.5 C 280.1819458007813 146.5 280.48388671875 146.8019409179688 280.48388671875 147.1730651855469 L 280.48388671875 164.6979064941406 C 280.48388671875 165.0690307617188 280.1819458007813 165.3709716796875 279.8108215332031 165.3709716796875 Z" stroke="none"/>
              <path d="M 279.8108215332031 164.8709716796875 C 279.90625 164.8709716796875 279.98388671875 164.7933349609375 279.98388671875 164.6979064941406 L 279.98388671875 147.1730651855469 C 279.98388671875 147.07763671875 279.90625 147 279.8108215332031 147 L 269.1730651855469 147 C 269.07763671875 147 269 147.07763671875 269 147.1730651855469 L 269 164.6979064941406 C 269 164.7933349609375 269.07763671875 164.8709716796875 269.1730651855469 164.8709716796875 L 279.8108215332031 164.8709716796875 M 279.8108215332031 165.8709716796875 L 269.1730651855469 165.8709716796875 C 268.5249938964844 165.8709716796875 268 165.3459777832031 268 164.6979064941406 L 268 147.1730651855469 C 268 146.5250091552734 268.5249938964844 146 269.1730651855469 146 L 279.8108215332031 146 C 280.4588623046875 146 280.98388671875 146.5250091552734 280.98388671875 147.1730651855469 L 280.98388671875 164.6979064941406 C 280.98388671875 165.3459777832031 280.4588623046875 165.8709716796875 279.8108215332031 165.8709716796875 Z" stroke="none" fill="#fbab36"/>
            </g>
            <g id="Path_525" data-name="Path 525" transform="translate(-2 -354.887)" fill="rgba(0,0,0,0)" stroke-miterlimit="10">
              <path d="M 13.98016262054443 382.3871154785156 L 3.173062562942505 382.3871154785156 C 2.801932573318481 382.3871154785156 2.500002384185791 382.0851745605469 2.500002384185791 381.7140502929688 L 2.500002384185791 377.1730651855469 C 2.500002384185791 376.8019409179688 2.801932573318481 376.5 3.173062562942505 376.5 L 13.98016262054443 376.5 C 14.35129261016846 376.5 14.65322208404541 376.8019409179688 14.65322208404541 377.1730651855469 L 14.65322208404541 381.7140502929688 C 14.65322208404541 382.0851745605469 14.35129261016846 382.3871154785156 13.98016262054443 382.3871154785156 Z" stroke="none"/>
              <path d="M 13.98016262054443 381.8871154785156 C 14.07559204101563 381.8871154785156 14.15322208404541 381.8094787597656 14.15322208404541 381.7140502929688 L 14.15322208404541 377.1730651855469 C 14.15322208404541 377.07763671875 14.07559204101563 377 13.98016262054443 377 L 3.173062562942505 377 C 3.077632427215576 377 3.000002384185791 377.07763671875 3.000002384185791 377.1730651855469 L 3.000002384185791 381.7140502929688 C 3.000002384185791 381.8094787597656 3.077632427215576 381.8871154785156 3.173062562942505 381.8871154785156 L 13.98016262054443 381.8871154785156 M 13.98016262054443 382.8871154785156 L 3.173062562942505 382.8871154785156 C 2.525002479553223 382.8871154785156 2.000002384185791 382.3620910644531 2.000002384185791 381.7140502929688 L 2.000002384185791 377.1730651855469 C 2.000002384185791 376.5249938964844 2.525002479553223 376 3.173062562942505 376 L 13.98016262054443 376 C 14.62822246551514 376 15.15322208404541 376.5249938964844 15.15322208404541 377.1730651855469 L 15.15322208404541 381.7140502929688 C 15.15322208404541 382.3620910644531 14.62822246551514 382.8871154785156 13.98016262054443 382.8871154785156 Z" stroke="none" fill="#fbab36"/>
            </g>
            <g id="Path_526" data-name="Path 526" transform="translate(-252.984 -2)" fill="rgba(0,0,0,0)" stroke-miterlimit="10">
              <path d="M 279.8108215332031 8.274196624755859 L 269.1730651855469 8.274196624755859 C 268.8019409179688 8.274196624755859 268.5 7.972256183624268 268.5 7.601126194000244 L 268.5 3.173066377639771 C 268.5 2.801936388015747 268.8019409179688 2.499996423721313 269.1730651855469 2.499996423721313 L 279.8108215332031 2.499996423721313 C 280.1819458007813 2.499996423721313 280.48388671875 2.801936388015747 280.48388671875 3.173066377639771 L 280.48388671875 7.601126194000244 C 280.48388671875 7.972256183624268 280.1819458007813 8.274196624755859 279.8108215332031 8.274196624755859 Z" stroke="none"/>
              <path d="M 279.8108215332031 7.774196624755859 C 279.90625 7.774196624755859 279.98388671875 7.696556568145752 279.98388671875 7.601126194000244 L 279.98388671875 3.173066377639771 C 279.98388671875 3.077636480331421 279.90625 2.999996423721313 279.8108215332031 2.999996423721313 L 269.1730651855469 2.999996423721313 C 269.07763671875 2.999996423721313 269 3.077636480331421 269 3.173066377639771 L 269 7.601126194000244 C 269 7.696556568145752 269.07763671875 7.774196624755859 269.1730651855469 7.774196624755859 L 279.8108215332031 7.774196624755859 M 279.8108215332031 8.774196624755859 L 269.1730651855469 8.774196624755859 C 268.5249938964844 8.774196624755859 268 8.24919605255127 268 7.601126194000244 L 268 3.173066377639771 C 268 2.524996519088745 268.5249938964844 1.999996423721313 269.1730651855469 1.999996423721313 L 279.8108215332031 1.999996423721313 C 280.4588623046875 1.999996423721313 280.98388671875 2.524996519088745 280.98388671875 3.173066377639771 L 280.98388671875 7.601126194000244 C 280.98388671875 8.24919605255127 280.4588623046875 8.774196624755859 279.8108215332031 8.774196624755859 Z" stroke="none" fill="#fbab36"/>
            </g>
          </g>
        </g>
      </g>
    </g>
    <g id="Top_Bar" data-name="Top Bar">
      <rect id="Rectangle" width="412" height="24" fill="#a4c0d9"/>
      <path id="Mask" d="M34,0H46L40,10ZM18,5a5,5,0,1,1,5,5A5,5,0,0,1,18,5ZM0,10V0H10V10Z" transform="translate(303 7)" fill="rgba(255,255,255,0.38)"/>
    </g>
  </g>
</svg>
