<svg xmlns="http://www.w3.org/2000/svg" xmlns:xlink="http://www.w3.org/1999/xlink" width="412" height="870" viewBox="0 0 412 870">
  <defs>
    <clipPath id="clip-_9.1-Big_Purchase_Cache">
      <rect width="412" height="870"/>
    </clipPath>
  </defs>
  <g id="_9.1-Big_Purchase_Cache" data-name="9.1-Big Purchase Cache" clip-path="url(#clip-_9.1-Big_Purchase_Cache)">
    <rect width="412" height="870" fill="#fff"/>
    <g id="App_BG" data-name="App BG" transform="translate(2.507 2.503)" opacity="0.2">
      <g id="Group_100" data-name="Group 100" transform="translate(-2.464 827.477)">
        <path id="Path_142" data-name="Path 142" d="M.01,872.16A2.492,2.492,0,0,1-2.4,870.21a2.494,2.494,0,0,1,1.857-2.99c3.695-.85,7.637-1.68,11.707-2.46a2.465,2.465,0,0,1,2.885,1.99,2.491,2.491,0,0,1-1.966,2.92c-4.021.77-7.894,1.58-11.53,2.42A2.022,2.022,0,0,1,.01,872.16Zm23.306-4.5a2.5,2.5,0,0,1-.4-4.96c3.754-.61,7.726-1.2,11.8-1.77a2.5,2.5,0,0,1,.672,4.96c-4.031.56-7.963,1.15-11.688,1.75C23.583,867.65,23.444,867.66,23.316,867.66Zm23.514-3.28a2.506,2.506,0,0,1-.287-4.99c3.823-.46,7.8-.91,11.836-1.33a2.465,2.465,0,0,1,2.707,2.23,2.494,2.494,0,0,1-2.2,2.74c-4,.42-7.963.86-11.757,1.32A.994.994,0,0,1,46.829,864.38Zm23.6-2.48a2.5,2.5,0,0,1-.227-4.99q5.854-.54,11.846-1.02a2.5,2.5,0,0,1,.4,4.98q-5.972.48-11.8,1.02A1.51,1.51,0,0,1,70.432,861.9Zm23.662-1.93a2.5,2.5,0,0,1-.168-4.99q5.869-.42,11.856-.81a2.5,2.5,0,0,1,.306,4.99q-5.972.39-11.826.81Zm23.682-1.53a2.5,2.5,0,0,1-.138-5c3.922-.23,7.884-.45,11.856-.66a2.5,2.5,0,0,1,.257,5q-5.957.315-11.836.66A.639.639,0,0,0,117.775,858.44Zm23.691-1.27a2.5,2.5,0,0,1-.119-5c3.932-.19,7.894-.38,11.856-.56a2.5,2.5,0,0,1,.217,4.99q-5.943.27-11.846.56A.366.366,0,0,1,141.467,857.17Zm23.711-1.08a2.5,2.5,0,0,1-.109-4.99q5.9-.255,11.826-.5a2.518,2.518,0,0,1,2.569,2.4,2.491,2.491,0,0,1-2.371,2.6q-5.928.24-11.816.5A.332.332,0,0,0,165.178,856.09Zm23.662-.97a2.5,2.5,0,0,1-.1-5l11.856-.47a2.5,2.5,0,0,1,.188,4.99l-11.856.47A.244.244,0,0,1,188.839,855.12Zm23.731-.94a2.5,2.5,0,0,1-.1-5l11.885-.47a2.5,2.5,0,0,1,.2,5l-11.885.47Zm23.741-.95a2.5,2.5,0,0,1-.1-5c3.962-.17,7.914-.33,11.846-.51a2.519,2.519,0,0,1,2.579,2.39,2.492,2.492,0,0,1-2.361,2.61l-11.856.51Zm23.7-1.04a2.5,2.5,0,0,1-.119-4.99q5.957-.285,11.846-.58a2.5,2.5,0,0,1,.247,4.99q-5.9.3-11.856.58A.47.47,0,0,0,260.012,852.19Zm23.7-1.2a2.5,2.5,0,0,1-.128-4.99q5.957-.33,11.836-.68a2.446,2.446,0,0,1,2.608,2.35,2.486,2.486,0,0,1-2.322,2.64q-5.883.36-11.856.69A.325.325,0,0,0,283.714,850.99Zm23.691-1.45a2.5,2.5,0,0,1-.158-4.99q5.972-.405,11.816-.85a2.5,2.5,0,0,1,.366,4.99q-5.869.45-11.856.85Zm23.662-1.8a2.5,2.5,0,0,1-.207-4.99c4.011-.34,7.973-.7,11.786-1.07a2.5,2.5,0,0,1,.474,4.98c-3.833.37-7.815.74-11.846,1.08Zm23.622-2.3a2.5,2.5,0,0,1-.267-4.99c4.021-.45,7.973-.92,11.747-1.4a2.468,2.468,0,0,1,2.756,2.17,2.493,2.493,0,0,1-2.144,2.79c-3.794.48-7.775.96-11.826,1.41A1.2,1.2,0,0,1,354.689,845.44Zm23.543-3.02a2.506,2.506,0,0,1-.356-4.98c4.031-.6,7.953-1.23,11.658-1.88a2.5,2.5,0,0,1,.84,4.93c-3.744.65-7.706,1.29-11.777,1.9A2.25,2.25,0,0,1,378.232,842.42Zm23.375-4.11a2.5,2.5,0,0,1-.494-4.95c1.818-.38,3.606-.76,5.355-1.16a2.486,2.486,0,0,1,2.954,1.89,2.513,2.513,0,0,1-1.867,2.99c-1.778.4-3.6.8-5.434,1.18A3.08,3.08,0,0,1,401.607,838.31Z" transform="translate(2.464 -832.14)" fill="#ffcc65"/>
      </g>
      <g id="Group_101" data-name="Group 101" transform="translate(-2.507 735.5)">
        <path id="Path_143" data-name="Path 143" d="M140.2,763.16a2.5,2.5,0,0,1,0-5c3.922-.01,7.864-.03,11.836-.08a2.5,2.5,0,0,1,.059,5q-6,.075-11.9.08Zm-11.856-.03h-.02c-4.011-.03-8.012-.08-11.885-.16a2.488,2.488,0,0,1-2.421-2.55,2.518,2.518,0,0,1,2.519-2.45c3.853.07,7.835.13,11.826.16a2.5,2.5,0,0,1-.02,5Zm35.567-.21a2.5,2.5,0,0,1-.04-5q5.9-.105,11.836-.24h.059a2.5,2.5,0,0,1,.059,5q-5.957.135-11.865.24Zm-59.278-.25h-.079c-4.061-.13-8.062-.29-11.885-.48a2.5,2.5,0,0,1,.237-5c3.8.19,7.775.35,11.806.48a2.5,2.5,0,0,1-.079,5Zm82.979-.29a2.5,2.5,0,0,1-.069-5q5.913-.165,11.846-.35a2.5,2.5,0,0,1,.158,5q-5.943.18-11.856.35Zm219.4-.72c-.109,0-.217-.01-.326-.02-1.976-.26-4-.51-6.056-.73a2.5,2.5,0,0,1,.543-4.97c2.114.23,4.189.49,6.155.75a2.5,2.5,0,0,1-.316,4.97Zm-195.7-.01a2.5,2.5,0,0,1-.079-5q5.928-.2,11.846-.41a2.5,2.5,0,0,1,.178,5q-5.928.21-11.856.41ZM80.953,761.5a.946.946,0,0,1-.168-.01c-4.061-.28-8.062-.59-11.875-.94a2.5,2.5,0,0,1,.435-4.98c3.784.34,7.736.66,11.767.93a2.5,2.5,0,0,1-.158,5Zm154.073-.69a2.5,2.5,0,0,1-.089-5l11.856-.43a2.5,2.5,0,0,1,.178,5l-11.856.43Zm23.7-.87a2.5,2.5,0,0,1-.089-5q5.957-.21,11.856-.41a2.5,2.5,0,0,1,.158,5q-5.9.2-11.846.41Zm130.372-.12a1.18,1.18,0,0,1-.188-.01c-3.754-.29-7.716-.55-11.767-.76a2.5,2.5,0,0,1,.257-5c4.1.21,8.1.47,11.9.77a2.505,2.505,0,0,1-.2,5Zm-331.759-.5a2.947,2.947,0,0,1-.3-.02c-4.07-.49-8.052-1.03-11.836-1.62a2.5,2.5,0,0,1,.751-4.94c3.725.58,7.657,1.11,11.668,1.59a2.506,2.506,0,0,1-.287,4.99Zm225.1-.17a2.5,2.5,0,0,1-.079-5q5.972-.18,11.865-.34h.069a2.5,2.5,0,0,1,.069,5q-5.883.165-11.846.34Zm82.989-.59h-.079c-3.784-.12-7.756-.22-11.816-.29a2.5,2.5,0,0,1,.079-5c4.08.07,8.082.17,11.9.29a2.5,2.5,0,0,1-.079,5Zm-59.288-.04a2.5,2.5,0,0,1-.049-5q5.987-.135,11.875-.22a2.5,2.5,0,0,1,.079,5q-5.868.09-11.836.22Zm23.721-.35a2.5,2.5,0,0,1-.02-5c4.011-.03,7.983-.03,11.885-.02a2.5,2.5,0,0,1-.01,5h-.01c-3.893-.01-7.835-.01-11.836.02ZM33.906,755.65a2.746,2.746,0,0,1-.484-.05c-4.09-.82-8.022-1.72-11.7-2.68a2.5,2.5,0,0,1-1.778-3.04,2.467,2.467,0,0,1,3-1.8c3.586.94,7.429,1.82,11.431,2.62a2.511,2.511,0,0,1,1.946,2.94A2.47,2.47,0,0,1,33.906,755.65Zm-22.931-6.06a2.482,2.482,0,0,1-.8-.13,113.3,113.3,0,0,1-11.253-4.53,2.506,2.506,0,0,1-1.2-3.32,2.45,2.45,0,0,1,3.28-1.21,106.987,106.987,0,0,0,10.769,4.33,2.5,2.5,0,0,1,1.541,3.17A2.47,2.47,0,0,1,10.976,749.59Z" transform="translate(2.507 -740.163)" fill="#ffcc65"/>
      </g>
      <g id="Group_102" data-name="Group 102" transform="translate(-2.505 596.623)">
        <path id="Path_144" data-name="Path 144" d="M-.03,664.25a2.475,2.475,0,0,1-2.183-1.32A2.511,2.511,0,0,1-1.2,659.55c3.349-1.81,7.034-3.56,10.947-5.2a2.461,2.461,0,0,1,3.231,1.36,2.512,2.512,0,0,1-1.344,3.27c-3.764,1.58-7.3,3.25-10.5,4.98A2.456,2.456,0,0,1-.03,664.25Zm21.844-9.26a2.466,2.466,0,0,1-2.341-1.71,2.5,2.5,0,0,1,1.561-3.16c3.616-1.22,7.479-2.4,11.48-3.51a2.468,2.468,0,0,1,3.033,1.75,2.505,2.505,0,0,1-1.729,3.07c-3.922,1.09-7.706,2.24-11.233,3.43A2.269,2.269,0,0,1,21.814,654.99Zm22.862-6.39a2.464,2.464,0,0,1-2.4-1.94,2.5,2.5,0,0,1,1.857-3c3.715-.86,7.647-1.71,11.688-2.51a2.5,2.5,0,0,1,.948,4.9c-3.991.79-7.874,1.63-11.53,2.48A2.168,2.168,0,0,1,44.675,648.6Zm23.286-4.65a2.468,2.468,0,0,1-2.43-2.08,2.5,2.5,0,0,1,2.025-2.88c3.774-.64,7.736-1.27,11.777-1.88a2.5,2.5,0,0,1,.721,4.95c-4.011.59-7.933,1.22-11.668,1.86A3.139,3.139,0,0,1,67.962,643.95Zm23.484-3.5a2.5,2.5,0,0,1-.316-4.98c3.833-.5,7.815-.98,11.816-1.44a2.5,2.5,0,0,1,.563,4.97c-3.981.46-7.933.94-11.747,1.43A1.736,1.736,0,0,1,91.446,640.45Zm23.583-2.71a2.5,2.5,0,0,1-.237-4.99q5.869-.6,11.836-1.15a2.5,2.5,0,0,1,.454,4.98q-5.943.54-11.786,1.14C115.2,637.73,115.107,637.74,115.028,637.74Zm23.632-2.18a2.5,2.5,0,0,1-.2-4.99q5.883-.5,11.846-.94a2.5,2.5,0,0,1,.366,4.99q-5.943.45-11.816.94A1.3,1.3,0,0,0,138.66,635.56Zm23.672-1.81a2.5,2.5,0,0,1-.168-5q5.9-.42,11.846-.81a2.5,2.5,0,0,1,.326,4.99q-5.943.39-11.826.81C162.451,633.74,162.391,633.75,162.332,633.75Zm23.652-1.58a2.5,2.5,0,0,1-.148-4.99q5.913-.375,11.836-.73a2.5,2.5,0,0,1,.3,4.99q-5.928.36-11.826.73Zm23.672-1.45a2.5,2.5,0,0,1-.138-4.99l11.865-.71a2.453,2.453,0,0,1,2.608,2.35,2.486,2.486,0,0,1-2.322,2.64l-11.865.72A.743.743,0,0,0,209.656,630.72Zm23.721-1.43a2.5,2.5,0,0,1-.148-5q5.928-.36,11.836-.74a2.5,2.5,0,0,1,.306,4.99q-5.913.375-11.856.74C233.475,629.28,233.426,629.29,233.377,629.29Zm23.682-1.52a2.5,2.5,0,0,1-.158-4.99q5.943-.405,11.826-.82a2.5,2.5,0,0,1,.346,4.99q-5.9.42-11.846.82Zm23.672-1.71a2.5,2.5,0,0,1-.188-4.99q5.943-.465,11.806-.96a2.5,2.5,0,0,1,.415,4.98q-5.883.5-11.846.97Zm23.652-2.02a2.5,2.5,0,0,1-.227-4.99q5.957-.57,11.786-1.18a2.469,2.469,0,0,1,2.717,2.23,2.5,2.5,0,0,1-2.2,2.75q-5.854.615-11.836,1.18C304.54,624.03,304.461,624.04,304.382,624.04Zm23.6-2.51a2.477,2.477,0,0,1-2.45-2.21,2.505,2.505,0,0,1,2.164-2.78c4.031-.48,7.973-.99,11.737-1.5a2.5,2.5,0,0,1,.662,4.95c-3.784.52-7.765,1.02-11.816,1.51A1.489,1.489,0,0,1,327.984,621.53Zm23.523-3.22a2.5,2.5,0,0,1-.375-4.97c3.991-.62,7.914-1.29,11.648-1.96a2.5,2.5,0,0,1,.869,4.92c-3.774.68-7.736,1.35-11.767,1.98A2.29,2.29,0,0,1,351.508,618.31Zm23.355-4.27a2.467,2.467,0,0,1-2.411-1.99,2.5,2.5,0,0,1,1.907-2.96c3.982-.85,7.835-1.75,11.47-2.67a2.46,2.46,0,0,1,2.994,1.82,2.494,2.494,0,0,1-1.8,3.03c-3.695.94-7.617,1.85-11.658,2.71A2.169,2.169,0,0,1,374.863,614.04Zm23-5.88a2.481,2.481,0,0,1-2.361-1.78,2.511,2.511,0,0,1,1.65-3.12c3.152-.97,6.185-1.98,9.02-3.02a2.458,2.458,0,0,1,3.161,1.5,2.5,2.5,0,0,1-1.482,3.2c-2.924,1.07-6.036,2.11-9.267,3.1A2.021,2.021,0,0,1,397.863,608.16Z" transform="translate(2.505 -600.09)" fill="#ffcc65"/>
      </g>
      <g id="Group_103" data-name="Group 103" transform="translate(-2.502 420.235)">
        <path id="Path_145" data-name="Path 145" d="M406.612,508.12a2.429,2.429,0,0,1-1.047-.24c-3.369-1.6-6.985-3.19-10.749-4.73a2.5,2.5,0,0,1-1.363-3.25,2.453,2.453,0,0,1,3.211-1.38c3.853,1.57,7.548,3.2,11,4.84a2.516,2.516,0,0,1,1.186,3.33A2.458,2.458,0,0,1,406.612,508.12Zm-21.972-9.03a2.427,2.427,0,0,1-.83-.15c-3.547-1.27-7.3-2.55-11.164-3.79a2.511,2.511,0,0,1-1.61-3.14,2.469,2.469,0,0,1,3.1-1.63c3.922,1.26,7.726,2.55,11.332,3.84a2.508,2.508,0,0,1,1.5,3.19A2.467,2.467,0,0,1,384.639,499.09Zm-22.6-7.28a2.3,2.3,0,0,1-.682-.1c-3.665-1.06-7.5-2.12-11.391-3.15a2.5,2.5,0,0,1-1.768-3.05,2.468,2.468,0,0,1,3.013-1.79c3.932,1.04,7.795,2.11,11.5,3.18a2.5,2.5,0,0,1,1.689,3.09A2.439,2.439,0,0,1,362.035,491.81Zm-22.95-6.09a2.378,2.378,0,0,1-.583-.07c-3.7-.9-7.578-1.81-11.52-2.7a2.494,2.494,0,0,1,1.077-4.87c3.962.9,7.864,1.81,11.6,2.72a2.5,2.5,0,0,1-.573,4.92Zm-23.158-5.24a2.868,2.868,0,0,1-.5-.05c-3.725-.79-7.627-1.59-11.6-2.38a2.5,2.5,0,0,1-1.946-2.93,2.471,2.471,0,0,1,2.895-1.97c3.991.79,7.914,1.6,11.658,2.39a2.5,2.5,0,0,1-.5,4.94Zm-23.286-4.64a2.4,2.4,0,0,1-.454-.04q-5.779-1.08-11.658-2.13a2.5,2.5,0,0,1-2.006-2.9,2.477,2.477,0,0,1,2.865-2.03q5.9,1.05,11.7,2.14a2.5,2.5,0,0,1,1.976,2.91A2.455,2.455,0,0,1,292.641,475.84Zm-23.365-4.16a2.9,2.9,0,0,1-.415-.03q-5.809-.99-11.687-1.95a2.5,2.5,0,0,1-2.045-2.87,2.471,2.471,0,0,1,2.835-2.07q5.9.96,11.727,1.95a2.505,2.505,0,0,1-.415,4.97Zm-23.424-3.83a2.5,2.5,0,0,1-.385-.03q-5.839-.915-11.717-1.81a2.5,2.5,0,0,1,.731-4.94q5.9.9,11.737,1.82a2.5,2.5,0,0,1,2.065,2.86A2.47,2.47,0,0,1,245.852,467.85Zm-23.464-3.58a2.348,2.348,0,0,1-.366-.03q-5.854-.87-11.737-1.72a2.5,2.5,0,0,1,.7-4.95q5.883.855,11.747,1.72a2.494,2.494,0,0,1,2.085,2.84A2.466,2.466,0,0,1,222.388,464.27Zm-23.513-3.41c-.119,0-.227-.01-.346-.02q-5.883-.84-11.757-1.66a2.49,2.49,0,0,1-2.1-2.82,2.465,2.465,0,0,1,2.786-2.13q5.883.825,11.767,1.66a2.5,2.5,0,0,1-.346,4.97Zm-23.513-3.31c-.109,0-.227-.01-.336-.02l-11.737-1.63a2.5,2.5,0,0,1,.672-4.96l11.737,1.63a2.5,2.5,0,0,1-.336,4.98Zm-23.454-3.27c-.109,0-.227-.01-.336-.02q-5.9-.825-11.757-1.64a2.5,2.5,0,0,1,.682-4.95q5.854.825,11.747,1.64a2.5,2.5,0,0,1-.336,4.97Zm-23.5-3.3c-.119,0-.227-.01-.346-.02q-5.913-.84-11.757-1.69a2.5,2.5,0,0,1,.7-4.95q5.839.855,11.737,1.69a2.5,2.5,0,0,1-.336,4.97Zm-23.494-3.42a2.348,2.348,0,0,1-.366-.03q-5.928-.885-11.747-1.78a2.5,2.5,0,0,1-2.075-2.85,2.473,2.473,0,0,1,2.816-2.1c3.873.59,7.785,1.19,11.727,1.77a2.511,2.511,0,0,1-.356,4.99Zm-23.464-3.61a2.5,2.5,0,0,1-.385-.03q-5.928-.945-11.737-1.91a2.5,2.5,0,0,1,.8-4.93q5.78.96,11.7,1.91a2.491,2.491,0,0,1,2.055,2.86A2.454,2.454,0,0,1,81.446,443.95Zm-23.415-3.91a2.038,2.038,0,0,1-.425-.04q-5.943-1.05-11.707-2.12a2.5,2.5,0,0,1-1.986-2.91,2.471,2.471,0,0,1,2.875-2.01q5.735,1.065,11.658,2.11a2.507,2.507,0,0,1,2.015,2.89A2.466,2.466,0,0,1,58.032,440.04ZM34.7,435.68a2.743,2.743,0,0,1-.484-.05c-4.011-.8-7.933-1.62-11.658-2.42a2.5,2.5,0,0,1-1.9-2.97,2.471,2.471,0,0,1,2.934-1.92c3.7.8,7.607,1.61,11.589,2.41a2.5,2.5,0,0,1-.484,4.95Zm-23.207-5.04a2.172,2.172,0,0,1-.563-.07c-4.021-.95-7.914-1.93-11.579-2.9a2.5,2.5,0,0,1-1.768-3.05,2.463,2.463,0,0,1,3.013-1.79c3.626.96,7.479,1.92,11.46,2.87a2.5,2.5,0,0,1,1.838,3A2.464,2.464,0,0,1,11.489,430.64Z" transform="translate(2.502 -422.748)" fill="#ffcc65"/>
      </g>
      <g id="Group_104" data-name="Group 104" transform="translate(-2.501 323.442)">
        <path id="Path_146" data-name="Path 146" d="M260.7,349.13a2.5,2.5,0,0,1-.01-5c3.972-.01,7.914-.05,11.836-.1h.03a2.5,2.5,0,0,1,.03,5q-5.9.09-11.885.1Zm-11.856,0h-.01q-5.913-.03-11.875-.1a2.5,2.5,0,0,1,.03-5h.03q5.943.075,11.846.1a2.5,2.5,0,0,1-.02,5Zm-23.721-.29h-.049q-5.913-.105-11.865-.25a2.5,2.5,0,0,1,.119-5q5.928.135,11.846.25a2.5,2.5,0,0,1-.049,5Zm59.288-.03a2.5,2.5,0,0,1-.059-5c4.031-.1,8.012-.22,11.816-.37a2.5,2.5,0,0,1,.188,4.99c-3.833.15-7.825.27-11.885.37A.124.124,0,0,1,284.415,348.81Zm-83-.51h-.069q-5.928-.165-11.856-.34a2.5,2.5,0,0,1,.148-4.99q5.928.18,11.846.34a2.5,2.5,0,0,1-.069,4.99Zm106.69-.39a2.5,2.5,0,0,1-.128-5c4.011-.21,7.983-.46,11.8-.73a2.5,2.5,0,0,1,.346,4.99c-3.833.27-7.835.52-11.875.74Zm-130.4-.34h-.079c-3.952-.13-7.914-.26-11.856-.4a2.5,2.5,0,0,1,.168-4.99q5.913.21,11.846.4a2.5,2.5,0,0,1-.079,4.99Zm-23.691-.8h-.089l-11.846-.41a2.5,2.5,0,0,1,.168-4.99l11.846.41a2.5,2.5,0,0,1-.079,4.99ZM-.03,346.76a2.494,2.494,0,0,1-2.46-2.26,2.5,2.5,0,0,1,2.223-2.73c3.764-.37,7.765-.69,11.885-.97a2.5,2.5,0,0,1,.326,4.99c-4.07.27-8.022.6-11.747.96A1.648,1.648,0,0,1-.03,346.76Zm331.788-.55a2.5,2.5,0,0,1-.227-4.99c4-.37,7.953-.78,11.737-1.23a2.5,2.5,0,0,1,.563,4.97c-3.823.45-7.815.86-11.856,1.24A1.442,1.442,0,0,1,331.758,346.21Zm-201.446-.26h-.079q-5.957-.2-11.846-.38a2.5,2.5,0,0,1,.158-5q5.9.18,11.856.38a2.5,2.5,0,0,1-.089,5Zm-23.7-.73h-.069q-5.972-.165-11.846-.3a2.5,2.5,0,0,1,.119-5q5.883.135,11.865.3a2.5,2.5,0,0,1-.069,5Zm-82.989-.08a2.5,2.5,0,0,1-.109-5c3.8-.17,7.8-.31,11.9-.41a2.5,2.5,0,0,1,.119,5c-4.061.1-8.032.24-11.806.41Zm59.278-.46h-.04q-5.987-.105-11.836-.16a2.5,2.5,0,0,1,.04-5q5.869.06,11.875.16a2.5,2.5,0,0,1-.04,5Zm-35.577-.16a2.5,2.5,0,0,1-.03-5q5.661-.06,11.49-.06h.4a2.5,2.5,0,0,1,0,5h-.4q-5.809,0-11.441.06Zm307.988-1.09a2.5,2.5,0,0,1-.356-4.97c3.991-.59,7.9-1.24,11.618-1.92a2.471,2.471,0,0,1,2.875,2.01,2.5,2.5,0,0,1-1.986,2.91c-3.764.69-7.736,1.35-11.786,1.95C355.549,343.42,355.43,343.43,355.311,343.43Zm23.316-4.33a2.5,2.5,0,0,1-.553-4.94c3.952-.91,7.765-1.9,11.352-2.94a2.464,2.464,0,0,1,3.053,1.72,2.5,2.5,0,0,1-1.7,3.09c-3.675,1.06-7.578,2.07-11.618,3A1.86,1.86,0,0,1,378.627,339.1Zm22.773-6.66a2.472,2.472,0,0,1-2.322-1.65,2.5,2.5,0,0,1,1.482-3.2c1.887-.69,3.744-1.42,5.513-2.16a2.468,2.468,0,0,1,3.231,1.35,2.516,2.516,0,0,1-1.334,3.27c-1.838.77-3.754,1.52-5.71,2.24A2.434,2.434,0,0,1,401.4,332.44Z" transform="translate(2.501 -325.239)" fill="#ffcc65"/>
      </g>
      <g id="Group_105" data-name="Group 105" transform="translate(-2.498 217.579)">
        <path id="Path_147" data-name="Path 147" d="M-.03,262.15a2.485,2.485,0,0,1-2.46-2.3,2.483,2.483,0,0,1,2.262-2.69c3.8-.31,7.765-.67,11.786-1.05a2.5,2.5,0,0,1,.464,4.97c-4.041.39-8.032.74-11.846,1.06A1.515,1.515,0,0,1-.03,262.15Zm23.622-2.25a2.474,2.474,0,0,1-2.45-2.24,2.5,2.5,0,0,1,2.2-2.75c3.873-.41,7.8-.85,11.767-1.3a2.5,2.5,0,0,1,.563,4.97q-5.972.69-11.816,1.31A2.558,2.558,0,0,1,23.592,259.9Zm23.573-2.7a2.5,2.5,0,0,1-.3-4.98q5.824-.72,11.757-1.48a2.5,2.5,0,0,1,.613,4.96q-5.943.765-11.786,1.48A2.584,2.584,0,0,1,47.165,257.2ZM70.7,254.18a2.5,2.5,0,0,1-.326-4.98q5.839-.78,11.747-1.59a2.5,2.5,0,0,1,.662,4.95c-3.942.54-7.874,1.07-11.767,1.59A1.616,1.616,0,0,1,70.7,254.18Zm23.5-3.22a2.5,2.5,0,0,1-.336-4.98q5.839-.825,11.747-1.66a2.5,2.5,0,0,1,.682,4.95q-5.9.84-11.757,1.66A1.827,1.827,0,0,1,94.2,250.96Zm23.494-3.34a2.476,2.476,0,0,1-2.44-2.15,2.506,2.506,0,0,1,2.094-2.83l11.717-1.69a2.5,2.5,0,0,1,.7,4.95l-11.717,1.69A2.134,2.134,0,0,1,117.7,247.62Zm23.444-3.39a2.505,2.505,0,0,1-.346-4.98l11.737-1.69a2.5,2.5,0,0,1,.7,4.95L141.5,244.2A2.134,2.134,0,0,1,141.14,244.23Zm23.484-3.37a2.5,2.5,0,0,1-.336-4.97q5.883-.84,11.757-1.66a2.5,2.5,0,0,1,.682,4.95q-5.869.825-11.757,1.66C164.851,240.85,164.733,240.86,164.624,240.86Zm23.523-3.3a2.5,2.5,0,0,1-.326-4.97c3.942-.54,7.864-1.08,11.8-1.6a2.5,2.5,0,0,1,.652,4.96q-5.869.78-11.777,1.6C188.375,237.55,188.256,237.56,188.148,237.56Zm23.543-3.16a2.5,2.5,0,0,1-.316-4.98q5.913-.765,11.777-1.5a2.5,2.5,0,0,1,.613,4.96q-5.854.735-11.757,1.5A1.628,1.628,0,0,1,211.691,234.4Zm23.543-2.93a2.5,2.5,0,0,1-.287-4.98q5.928-.705,11.806-1.36a2.5,2.5,0,0,1,.543,4.97q-5.854.66-11.767,1.36C235.432,231.46,235.333,231.47,235.234,231.47Zm171.777-.4a2.3,2.3,0,0,1-.682-.1c-2.015-.59-4.149-1.14-6.323-1.66a2.507,2.507,0,0,1-1.848-3,2.475,2.475,0,0,1,2.964-1.87c2.262.53,4.466,1.11,6.57,1.72a2.5,2.5,0,0,1,1.689,3.09A2.459,2.459,0,0,1,407.012,231.07Zm-148.195-2.24a2.5,2.5,0,0,1-.247-4.98q5.957-.615,11.826-1.18a2.5,2.5,0,0,1,.454,4.98q-5.839.555-11.786,1.17C258.985,228.82,258.906,228.83,258.817,228.83Zm130.115-1.74a2.729,2.729,0,0,1-.4-.03c-3.675-.59-7.588-1.11-11.618-1.54a2.5,2.5,0,0,1,.524-4.98c4.12.44,8.121.97,11.885,1.58a2.5,2.5,0,0,1-.4,4.97Zm-106.493-.5a2.5,2.5,0,0,1-.207-4.99c4.021-.34,8.012-.65,11.856-.93a2.5,2.5,0,0,1,.346,4.99c-3.833.28-7.8.59-11.8.92A1.247,1.247,0,0,1,282.439,226.59ZM306.1,224.9a2.5,2.5,0,0,1-.138-5c4.051-.23,8.052-.43,11.885-.59a2.5,2.5,0,0,1,.2,5c-3.814.16-7.785.35-11.806.59Zm59.268-.36h-.158c-3.754-.24-7.716-.42-11.757-.54a2.489,2.489,0,0,1-2.4-2.57,2.524,2.524,0,0,1,2.539-2.43c4.1.12,8.121.31,11.925.55a2.5,2.5,0,0,1-.148,4.99Zm-35.557-.6a2.5,2.5,0,0,1-.049-5c3.8-.08,7.558-.12,11.164-.12h.751a2.5,2.5,0,0,1,0,5h-.741c-3.576,0-7.291.04-11.065.12Z" transform="translate(2.498 -218.82)" fill="#ffcc65"/>
      </g>
      <g id="Group_106" data-name="Group 106" transform="translate(-2.497 78.093)">
        <path id="Path_148" data-name="Path 148" d="M-.03,159.81A2.462,2.462,0,0,1-2.4,158a2.5,2.5,0,0,1,1.689-3.09c3.7-1.08,7.558-2.17,11.451-3.25a2.468,2.468,0,0,1,3.033,1.75,2.505,2.505,0,0,1-1.729,3.07c-3.873,1.07-7.706,2.16-11.391,3.23A2.3,2.3,0,0,1-.03,159.81Zm22.881-6.34a2.5,2.5,0,0,1-.622-4.92q5.676-1.5,11.51-2.99a2.462,2.462,0,0,1,2.994,1.81,2.5,2.5,0,0,1-1.788,3.03q-5.809,1.485-11.47,2.98A2.231,2.231,0,0,1,22.851,153.47Zm23-5.86a2.5,2.5,0,0,1-.583-4.93c3.814-.94,7.667-1.86,11.559-2.79a2.461,2.461,0,0,1,2.964,1.86,2.5,2.5,0,0,1-1.838,3q-5.809,1.38-11.52,2.78A2.277,2.277,0,0,1,45.851,147.61Zm23.1-5.48a2.5,2.5,0,0,1-.543-4.94q5.75-1.32,11.589-2.62a2.5,2.5,0,0,1,1.057,4.89q-5.824,1.29-11.559,2.61A2.447,2.447,0,0,1,68.95,142.13Zm23.168-5.16a2.474,2.474,0,0,1-2.411-1.98,2.5,2.5,0,0,1,1.9-2.97q5.78-1.245,11.618-2.48a2.5,2.5,0,0,1,1.008,4.9q-5.839,1.23-11.589,2.47A1.874,1.874,0,0,1,92.117,136.97Zm23.227-4.89a2.478,2.478,0,0,1-2.421-2,2.51,2.51,0,0,1,1.927-2.95q5.794-1.185,11.638-2.36a2.5,2.5,0,0,1,.958,4.91q-5.839,1.17-11.618,2.36A2.567,2.567,0,0,1,115.344,132.08Zm23.276-4.66a2.506,2.506,0,0,1-.464-4.96q5.809-1.14,11.658-2.26a2.5,2.5,0,0,1,.919,4.91q-5.839,1.125-11.638,2.25A1.622,1.622,0,0,1,138.621,127.42Zm23.276-4.46a2.5,2.5,0,0,1-.454-4.95q5.809-1.1,11.658-2.16a2.5,2.5,0,0,1,.889,4.92q-5.824,1.065-11.638,2.16A3.585,3.585,0,0,1,161.9,122.96Zm23.306-4.28a2.5,2.5,0,0,1-.435-4.96q5.839-1.05,11.688-2.09a2.5,2.5,0,0,1,.85,4.92q-5.839,1.035-11.668,2.09A3.193,3.193,0,0,1,185.2,118.68Zm23.365-4.15a2.506,2.506,0,0,1-.415-4.97c3.9-.68,7.815-1.36,11.707-2.03a2.469,2.469,0,0,1,2.845,2.05,2.5,2.5,0,0,1-2.025,2.88q-5.854,1-11.7,2.02A1.431,1.431,0,0,1,208.569,114.53Zm23.425-4.02a2.505,2.505,0,0,1-.405-4.97q5.883-.99,11.737-1.97a2.469,2.469,0,0,1,2.835,2.06,2.5,2.5,0,0,1-2.035,2.87q-5.854.975-11.727,1.97A1.8,1.8,0,0,1,231.993,110.51Zm23.435-3.91a2.469,2.469,0,0,1-2.43-2.1,2.5,2.5,0,0,1,2.045-2.87q5.869-.96,11.717-1.91a2.461,2.461,0,0,1,2.826,2.07,2.489,2.489,0,0,1-2.045,2.86q-5.839.945-11.707,1.91A1.855,1.855,0,0,1,255.428,106.6Zm23.425-3.8a2.5,2.5,0,0,1-.385-4.97q5.883-.945,11.717-1.87a2.481,2.481,0,0,1,2.826,2.08,2.509,2.509,0,0,1-2.055,2.86q-5.839.93-11.717,1.87A2.5,2.5,0,0,1,278.853,102.8Zm23.435-3.72a2.5,2.5,0,0,1-.375-4.97q5.9-.93,11.727-1.83a2.473,2.473,0,0,1,2.816,2.09,2.5,2.5,0,0,1-2.065,2.85q-5.824.915-11.717,1.83A2.5,2.5,0,0,1,302.287,99.08Zm23.444-3.65a2.5,2.5,0,0,1-.375-4.97q5.9-.915,11.727-1.81a2.5,2.5,0,0,1,.741,4.95Q332,94.5,326.1,95.4A2.083,2.083,0,0,1,325.732,95.43Zm23.464-3.6a2.5,2.5,0,0,1-.366-4.97l11.737-1.78a2.5,2.5,0,0,1,.731,4.94L349.571,91.8A2.472,2.472,0,0,1,349.2,91.83Zm23.454-3.56a2.5,2.5,0,0,1-.366-4.97l11.737-1.77a2.473,2.473,0,0,1,2.806,2.1,2.5,2.5,0,0,1-2.075,2.84l-11.727,1.77A2.375,2.375,0,0,1,372.65,88.27Zm23.464-3.54a2.5,2.5,0,0,1-.366-4.97l10.887-1.64a2.5,2.5,0,0,1,.731,4.94L396.48,84.7A2.166,2.166,0,0,1,396.114,84.73Z" transform="translate(2.497 -78.093)" fill="#ffcc65"/>
      </g>
      <g id="Group_107" data-name="Group 107" transform="translate(-0.773 -2.503)">
        <path id="Path_149" data-name="Path 149" d="M407.012,50.6h-.04l-6.2-.12a2.488,2.488,0,0,1-2.42-2.55,2.517,2.517,0,0,1,2.519-2.45l6.194.12a2.5,2.5,0,0,1-.049,5Zm-18.049-.37H388.9c-3.981-.09-7.943-.2-11.855-.3a2.5,2.5,0,0,1,.138-5q5.868.165,11.845.3a2.5,2.5,0,0,1-.069,5Zm-23.7-.65h-.079q-5.987-.2-11.855-.4a2.5,2.5,0,0,1,.178-5q5.868.21,11.835.4a2.5,2.5,0,0,1-.079,5Zm-23.69-.85h-.1q-5.987-.24-11.855-.5a2.5,2.5,0,0,1,.217-5q5.868.255,11.835.5a2.5,2.5,0,0,1-.1,5Zm-23.69-1.05h-.119q-5.987-.3-11.845-.61a2.5,2.5,0,0,1,.267-4.99q5.853.315,11.825.61a2.5,2.5,0,0,1-.128,4.99Zm-23.67-1.27h-.148q-5.987-.345-11.845-.72a2.5,2.5,0,0,1,.306-4.99q5.853.375,11.815.72a2.5,2.5,0,0,1-.128,4.99ZM270.551,44.9a.948.948,0,0,1-.168-.01q-5.987-.405-11.835-.85a2.5,2.5,0,0,1,.366-4.99q5.839.435,11.815.84a2.509,2.509,0,0,1-.178,5.01ZM246.91,43.15a1.308,1.308,0,0,1-.2-.01q-5.987-.48-11.825-.98a2.5,2.5,0,0,1,.415-4.98c3.883.33,7.824.66,11.8.98a2.5,2.5,0,0,1-.188,4.99Zm-23.621-2.02a1.728,1.728,0,0,1-.227-.01q-5.987-.555-11.815-1.12a2.5,2.5,0,0,1,.474-4.98q5.824.57,11.786,1.12a2.5,2.5,0,0,1-.217,4.99Zm-23.6-2.31a2.206,2.206,0,0,1-.257-.01q-5.987-.63-11.806-1.27a2.5,2.5,0,0,1-2.183-2.76,2.468,2.468,0,0,1,2.727-2.21q5.809.645,11.766,1.27a2.5,2.5,0,0,1-.247,4.98ZM176.126,36.2a2.757,2.757,0,0,1-.286-.02q-5.987-.705-11.786-1.44a2.493,2.493,0,0,1-2.144-2.79,2.468,2.468,0,0,1,2.756-2.17c3.853.49,7.775.96,11.746,1.44a2.5,2.5,0,0,1-.286,4.98ZM152.6,33.23c-.109,0-.217-.01-.326-.02-3.991-.53-7.9-1.07-11.766-1.62a2.5,2.5,0,0,1-2.1-2.82,2.47,2.47,0,0,1,2.786-2.13c3.843.55,7.755,1.08,11.727,1.62a2.5,2.5,0,0,1,2.124,2.81A2.47,2.47,0,0,1,152.6,33.23ZM129.121,29.9a2.253,2.253,0,0,1-.366-.03q-5.972-.9-11.736-1.82a2.509,2.509,0,0,1-2.055-2.86,2.473,2.473,0,0,1,2.825-2.08q5.735.915,11.7,1.82a2.5,2.5,0,0,1-.366,4.97Zm-23.414-3.75a1.945,1.945,0,0,1-.415-.04q-5.972-1.02-11.707-2.05a2.5,2.5,0,0,1,.869-4.92q5.705,1.035,11.657,2.04a2.505,2.505,0,0,1-.405,4.97ZM82.373,21.94a2.5,2.5,0,0,1-.464-.04c-3.922-.75-7.844-1.53-11.657-2.3a2.5,2.5,0,0,1-1.936-2.94,2.474,2.474,0,0,1,2.9-1.96c3.794.77,7.706,1.54,11.608,2.29a2.5,2.5,0,0,1-.454,4.95ZM59.137,17.2a2.252,2.252,0,0,1-.514-.06c-3.892-.84-7.8-1.72-11.608-2.59a2.5,2.5,0,0,1,1.1-4.87c3.784.87,7.666,1.74,11.539,2.58a2.5,2.5,0,0,1,1.9,2.97A2.475,2.475,0,0,1,59.137,17.2ZM36.03,11.87a2.323,2.323,0,0,1-.583-.07c-3.922-.97-7.795-1.95-11.539-2.94A2.5,2.5,0,0,1,22.14,5.81a2.463,2.463,0,0,1,3.013-1.79c3.715.98,7.567,1.96,11.46,2.91a2.509,2.509,0,0,1-.583,4.94ZM13.09,5.83a2.513,2.513,0,0,1-.662-.09C8.556,4.65,4.7,3.52.988,2.4A2.52,2.52,0,0,1-.671-.72,2.474,2.474,0,0,1,2.4-2.4C6.086-1.28,9.9-.17,13.742.91a2.507,2.507,0,0,1,1.719,3.08A2.469,2.469,0,0,1,13.09,5.83Z" transform="translate(0.773 2.503)" fill="#ffcc65"/>
      </g>
    </g>
    <g id="Button" transform="translate(85 711)">
      <rect id="Rectangle_98" data-name="Rectangle 98" width="240" height="70" rx="10" transform="translate(1 2)" fill="rgba(0,62,119,0.55)"/>
      <rect id="Rectangle_4" data-name="Rectangle 4" width="242" height="70" rx="10" fill="#a4c0d9"/>
      <text id="Make_a_deposit" data-name="Make a deposit" transform="translate(121 42)" fill="#0b0907" font-size="20" font-family="Raleway" font-weight="600"><tspan x="-71.64" y="0">Make a deposit</tspan></text>
    </g>
    <text id="View_more" data-name="View more" transform="translate(390 693)" fill="#f89939" font-size="16" font-family="Raleway" font-weight="700" text-decoration="underline"><tspan x="-81.312" y="0">View more</tspan></text>
    <g id="Deposit_6" data-name="Deposit 6" transform="translate(0 282)">
      <g id="Rectangle_11" data-name="Rectangle 11" transform="translate(22 346)" fill="rgba(255,255,255,0)" stroke="#0b0907" stroke-width="1">
        <path d="M0,0H368a0,0,0,0,1,0,0V30a10,10,0,0,1-10,10H10A10,10,0,0,1,0,30V0A0,0,0,0,1,0,0Z" stroke="none"/>
        <path d="M1,.5H367a.5.5,0,0,1,.5.5V30a9.5,9.5,0,0,1-9.5,9.5H10A9.5,9.5,0,0,1,.5,30V1A.5.5,0,0,1,1,.5Z" fill="none"/>
      </g>
      <text id="_xx.xx_auto_" data-name="$xx.xx (auto)" transform="translate(27 372)" fill="#0b0907" font-size="16" font-family="Raleway"><tspan x="0" y="0">$xx.xx (auto)</tspan></text>
      <text id="Date" transform="translate(385 372)" fill="#0b0907" font-size="16" font-family="Raleway"><tspan x="-34.64" y="0">Date</tspan></text>
    </g>
    <g id="Deposit_5" data-name="Deposit 5" transform="translate(0 243)">
      <g id="Rectangle_11-2" data-name="Rectangle 11" transform="translate(22 346)" fill="rgba(255,255,255,0)" stroke="#0b0907" stroke-width="1">
        <rect width="368" height="40" stroke="none"/>
        <rect x="0.5" y="0.5" width="367" height="39" fill="none"/>
      </g>
      <text id="_xx.xx_auto_2" data-name="$xx.xx (auto)" transform="translate(27 372)" fill="#0b0907" font-size="16" font-family="Raleway"><tspan x="0" y="0">$xx.xx (auto)</tspan></text>
      <text id="Date-2" data-name="Date" transform="translate(385 372)" fill="#0b0907" font-size="16" font-family="Raleway"><tspan x="-34.64" y="0">Date</tspan></text>
    </g>
    <g id="Deposit_4" data-name="Deposit 4" transform="translate(0 204)">
      <g id="Rectangle_11-3" data-name="Rectangle 11" transform="translate(22 346)" fill="rgba(255,255,255,0)" stroke="#0b0907" stroke-width="1">
        <rect width="368" height="40" stroke="none"/>
        <rect x="0.5" y="0.5" width="367" height="39" fill="none"/>
      </g>
      <text id="_xx.xx" data-name="$xx.xx" transform="translate(27 372)" fill="#0b0907" font-size="16" font-family="Raleway"><tspan x="0" y="0">$xx.xx</tspan></text>
      <text id="Date-3" data-name="Date" transform="translate(385 372)" fill="#0b0907" font-size="16" font-family="Raleway"><tspan x="-34.64" y="0">Date</tspan></text>
    </g>
    <g id="Deposit_3" data-name="Deposit 3" transform="translate(0 165)">
      <g id="Rectangle_11-4" data-name="Rectangle 11" transform="translate(22 346)" fill="rgba(255,255,255,0)" stroke="#0b0907" stroke-width="1">
        <rect width="368" height="40" stroke="none"/>
        <rect x="0.5" y="0.5" width="367" height="39" fill="none"/>
      </g>
      <text id="_xx.xx_auto_3" data-name="$xx.xx (auto)" transform="translate(27 372)" fill="#0b0907" font-size="16" font-family="Raleway"><tspan x="0" y="0">$xx.xx (auto)</tspan></text>
      <text id="Date-4" data-name="Date" transform="translate(385 372)" fill="#0b0907" font-size="16" font-family="Raleway"><tspan x="-34.64" y="0">Date</tspan></text>
    </g>
    <g id="Deposit_2" data-name="Deposit 2" transform="translate(0 126)">
      <g id="Rectangle_11-5" data-name="Rectangle 11" transform="translate(22 346)" fill="rgba(255,255,255,0)" stroke="#0b0907" stroke-width="1">
        <rect width="368" height="40" stroke="none"/>
        <rect x="0.5" y="0.5" width="367" height="39" fill="none"/>
      </g>
      <text id="_xx.xx_auto_4" data-name="$xx.xx (auto)" transform="translate(27 372)" fill="#0b0907" font-size="16" font-family="Raleway"><tspan x="0" y="0">$xx.xx (auto)</tspan></text>
      <text id="Date-5" data-name="Date" transform="translate(385 372)" fill="#0b0907" font-size="16" font-family="Raleway"><tspan x="-34.64" y="0">Date</tspan></text>
    </g>
    <g id="Deposit_1" data-name="Deposit 1" transform="translate(0 87)">
      <g id="Rectangle_11-6" data-name="Rectangle 11" transform="translate(22 346)" fill="rgba(255,255,255,0)" stroke="#0b0907" stroke-width="1">
        <path d="M10,0H358a10,10,0,0,1,10,10V40a0,0,0,0,1,0,0H0a0,0,0,0,1,0,0V10A10,10,0,0,1,10,0Z" stroke="none"/>
        <path d="M10,.5H358a9.5,9.5,0,0,1,9.5,9.5V39a.5.5,0,0,1-.5.5H1A.5.5,0,0,1,.5,39V10A9.5,9.5,0,0,1,10,.5Z" fill="none"/>
      </g>
      <text id="_xx.xx_auto_5" data-name="$xx.xx (auto)" transform="translate(27 372)" fill="#0b0907" font-size="16" font-family="Raleway"><tspan x="0" y="0">$xx.xx (auto)</tspan></text>
      <text id="Date-6" data-name="Date" transform="translate(385 372)" fill="#0b0907" font-size="16" font-family="Raleway"><tspan x="-34.64" y="0">Date</tspan></text>
    </g>
    <text id="Recent_deposits" data-name="Recent deposits" transform="translate(22 418)" fill="#0b0907" font-size="20" font-family="Raleway" font-weight="600"><tspan x="0" y="0">Recent deposits</tspan></text>
    <text id="You_will_reach_your_goal_in_XX_days_at_this_rate_" data-name="You will reach your goal in XX days at this rate!" transform="translate(22 385)" fill="#0b0907" font-size="16" font-family="Raleway"><tspan x="0" y="0">You will reach your goal in XX days at this rate!</tspan></text>
    <g id="Savings_Status_Bar" data-name="Savings Status Bar" transform="translate(0 -9)">
      <path id="Rectangle_35" data-name="Rectangle 35" d="M20,0h90a0,0,0,0,1,0,0V40a0,0,0,0,1,0,0H20A20,20,0,0,1,0,20v0A20,20,0,0,1,20,0Z" transform="translate(22 334)" fill="#fbab36"/>
      <g id="Rectangle_34" data-name="Rectangle 34" transform="translate(22 334)" fill="none" stroke="#0b0907" stroke-width="2">
        <rect width="368" height="40" rx="20" stroke="none"/>
        <rect x="1" y="1" width="366" height="38" rx="19" fill="none"/>
      </g>
      <text id="_XX.XX_XX.XX" data-name="$XX.XX/$XX.XX" transform="translate(32 361)" fill="#0b0907" font-size="20" font-family="Raleway" font-weight="600"><tspan x="0" y="0">$XX.XX/$XX.XX</tspan></text>
      <text id="_23_" data-name="(23%)" transform="translate(380 361)" fill="#0b0907" font-size="20" font-family="Raleway" font-weight="600"><tspan x="-48.96" y="0">(23%)</tspan></text>
    </g>
    <g id="lady-driving-car-2343677-0" transform="translate(-55.778 -7.257)">
      <path id="Path_499" data-name="Path 499" d="M550.354,137.3a8.608,8.608,0,0,0-2.037,3.5,7.982,7.982,0,0,0-.356,1.974,10.064,10.064,0,0,0,.1,2l.005.045,0,.034a6.418,6.418,0,0,1-.6,2.128,3.636,3.636,0,0,1-.666.948,2.917,2.917,0,0,1-.48.375l-.2.133a.673.673,0,0,0-.157.127,1.5,1.5,0,0,0-.357,1.512.725.725,0,0,0,.376.5,3.548,3.548,0,0,0,.419.012l.521,0,.393,0-.006.4a23.608,23.608,0,0,0,.112,2.758,18.309,18.309,0,0,0,.454,2.726A9.245,9.245,0,0,0,548.906,159a4.058,4.058,0,0,0,2.088,1.727,3.972,3.972,0,0,1-2.352-1.54,8.361,8.361,0,0,1-1.282-2.571,16.108,16.108,0,0,1-.632-2.794,20.824,20.824,0,0,1-.2-2.861l.386.4-.521,0a2.854,2.854,0,0,1-.62-.033,1.46,1.46,0,0,1-.933-1.014,2.254,2.254,0,0,1,.578-2.328,1.309,1.309,0,0,1,.249-.2l.237-.155a2.143,2.143,0,0,0,.343-.261,3.241,3.241,0,0,0,.539-.743,5.74,5.74,0,0,0,.586-1.849v.079a9.661,9.661,0,0,1,.022-2.137,8.492,8.492,0,0,1,.508-2.065,7.7,7.7,0,0,1,1.009-1.852,6.894,6.894,0,0,1,1.439-1.507Z" transform="translate(-160.338 -16.296)" fill="#0b0907"/>
      <path id="Path_500" data-name="Path 500" d="M550.734,148.711a3.664,3.664,0,0,1,1.146-.618,3.975,3.975,0,0,1,1.206-.131,4.43,4.43,0,0,1,1.409.274,2.772,2.772,0,0,1,1.119.685,8.426,8.426,0,0,0-1.215-.279,8.155,8.155,0,0,0-1.293-.146A15.809,15.809,0,0,0,550.734,148.711Z" transform="translate(-162.561 -20.24)" fill="#0b0907"/>
      <path id="Path_501" data-name="Path 501" d="M553.08,152.229a.8.8,0,1,0-.774-.8.8.8,0,0,0,.774.8Z" transform="translate(-163.143 -21.225)" fill="#0b0907"/>
      <path id="Path_502" data-name="Path 502" d="M550.022,162.781a.887.887,0,0,0,.869.515.991.991,0,0,0,.863-.515,2.912,2.912,0,0,0-.48-.026c-.141,0-.27,0-.4.007C550.62,162.769,550.386,162.778,550.022,162.781Z" transform="translate(-162.297 -25.713)" fill="#0b0907"/>
      <path id="Path_517" data-name="Path 517" d="M455.855,190.548a16.269,16.269,0,0,1-2.586.416c-.862.085-1.724.108-2.586.119-.862-.009-1.724-.032-2.586-.117a16.1,16.1,0,0,1-2.586-.417,16.09,16.09,0,0,1,2.586-.417c.862-.085,1.724-.108,2.586-.117.862.011,1.724.033,2.586.119A16.265,16.265,0,0,1,455.855,190.548Z" transform="translate(-123.593 -35.799)" fill="#0b0907"/>
      <path id="Path_508" data-name="Path 508" d="M431.657,178.109a8.49,8.49,0,0,1-.016-3.5,20.207,20.207,0,0,0-4.777,5.32,8.2,8.2,0,0,1,2,.9,3.059,3.059,0,0,0,1.678.593,16.056,16.056,0,0,1,1.234-1.6A7.408,7.408,0,0,0,431.657,178.109Zm16.507-4.015a.964.964,0,0,1-.2-1.23,15.745,15.745,0,0,0-8.571-1.46,15.345,15.345,0,0,0-6.183,2.139,5.483,5.483,0,0,1,2.34,3.176,11.513,11.513,0,0,1,4.3-1.4,11.234,11.234,0,0,1,1.331-.08,11.109,11.109,0,0,1,1.635.123l-1.154,17.6q.994.874,1.961,1.668l2.886-18.131a18.09,18.09,0,0,1,6.984,6.3,1.716,1.716,0,0,0,.962-.92c.962-1.86-5.391-6.78-6.289-7.8Zm-3.313,43.956c-4.024.476-8.1-1.224-11.468-4.785-.085-.091-.171-.187-.251-.278l3.928-6.1c-1.015-.962-1.8-1.743-2.3-2.219l-4.029,5.144a26.413,26.413,0,0,1-3.249-7.9c-1.657-.481-3.244-.936-4.28-1.294a29.349,29.349,0,0,0,7.326,15.367c3.762,3.967,8.315,6.09,12.985,6.09a15.487,15.487,0,0,0,9.32-3.1c-1.277-.7-2.538-1.47-3.757-2.283A11.505,11.505,0,0,1,444.851,218.05Zm16.919-23.376-1.977-1.989a7.82,7.82,0,0,1-2.528-1.059,29.836,29.836,0,0,1,.561,3.245,28.353,28.353,0,0,1-.283,8.64,18.942,18.942,0,0,0,3.762,1.278,32.171,32.171,0,0,0,.465-10.116Z" transform="translate(-115.33 -28.878)" fill="#6a8eae"/>
      <path id="Path_503" data-name="Path 503" d="M552.549,133.568s6.234,11.115,9.351,10.316c0,0,1.838-2.157,2.557.041s.16,7.316-2.8,6.516a11.71,11.71,0,0,1-5.355,5.917c-3.845,1.836-6.368,4.958-5.1,12.475,0,0,14.063-6.876,22.774-4.637l-.409-29.108S566.856,127.73,552.549,133.568Z" transform="translate(-162.613 -14.081)" fill="#020202"/>
      <path id="Path_504" data-name="Path 504" d="M525.073,179.041c.008,9.223.066,18.446.034,27.668l-.077,27.668v.34l-.332.068a24.367,24.367,0,0,1-7.431.217A51.065,51.065,0,0,1,510,233.647c-2.383-.61-4.73-1.344-7.044-2.165s-4.595-1.718-6.841-2.751l-.255-.117-.016-.261a10.52,10.52,0,0,1,.212-2.426c.134-.77.292-1.53.463-2.285.342-1.511.724-3.006,1.123-4.5q1.2-4.47,2.566-8.887l.679.488a67.011,67.011,0,0,1-14.072,7.336,73.254,73.254,0,0,1-15.277,4.189,46.855,46.855,0,0,1-7.913.565,22.89,22.89,0,0,1-3.965-.353,23.947,23.947,0,0,1-3.828-1.089,52.419,52.419,0,0,1-13.53-8.165c-2.072-1.637-4.067-3.368-6-5.161-.97-.9-1.914-1.813-2.868-2.723l-.714-.68a2.258,2.258,0,0,0-.758-.509,19.2,19.2,0,0,0-1.832-.669c-2.5-.8-5.05-1.467-7.578-2.232-.633-.2-1.263-.388-1.894-.653a1.953,1.953,0,0,1-.875-.677,3.649,3.649,0,0,1-.48-.946,14.973,14.973,0,0,1-.59-3.974c-.013-.338-.039-.643-.037-1a3.3,3.3,0,0,1,.174-1.057c.116-.343.281-.637.374-.916a2.232,2.232,0,0,0,.119-.868,6.533,6.533,0,0,0-.137-.937,3.691,3.691,0,0,1-.042-1.067,5.051,5.051,0,0,1,.695-1.965c.34-.594.762-1.128,1.129-1.651a4.728,4.728,0,0,0,.757-1.685,10.05,10.05,0,0,0,.216-1.9c.013-.323.014-.649.014-.975a1.561,1.561,0,0,1,.409-1.148,1.733,1.733,0,0,1,1.117-.447,4.2,4.2,0,0,1,1.071.078,8.636,8.636,0,0,1,1.953.646,6.268,6.268,0,0,1,.912.5,3.349,3.349,0,0,0,.8.39,1.588,1.588,0,0,0,.784.081.716.716,0,0,0,.5-.4,3.369,3.369,0,0,0,.18-1.726c-.058-.613-.211-1.283-.259-1.963a8.144,8.144,0,0,1,.054-2.074,3.722,3.722,0,0,1,.338-1.052,2.29,2.29,0,0,1,.333-.495,1.415,1.415,0,0,1,.579-.41l.08-.031.109.02a3.857,3.857,0,0,1,2.439,1.814,10.231,10.231,0,0,1,1.176,2.651,20.755,20.755,0,0,1,.626,2.776,26.751,26.751,0,0,1,.306,2.824l-.147-.322a6.693,6.693,0,0,1,1.354,1.963,16.428,16.428,0,0,1,.833,2.133,30.612,30.612,0,0,1,1.019,4.408l-.152-.291c1.578,1.435,3.178,2.84,4.846,4.166s3.39,2.577,5.165,3.747a56.72,56.72,0,0,0,5.5,3.211c.946.477,1.9.928,2.879,1.321a16.819,16.819,0,0,0,2.95.944l.046.011a7.18,7.18,0,0,0,1.064.079c.385,0,.775-.011,1.168-.039.785-.051,1.576-.133,2.365-.238,1.578-.206,3.163-.474,4.724-.782l-.29.955-11.081-11.161.3.155a8.4,8.4,0,0,1-2.715-1.132l.286.08h-.159l-.131-.079a37.4,37.4,0,0,1-4.146-3.118c-1.338-1.059-2.68-2.14-3.957-3.307a21.222,21.222,0,0,1-1.844-1.874,5.643,5.643,0,0,1-.8-1.175,1.52,1.52,0,0,1-.155-.967,1.437,1.437,0,0,1,.561-.842,2.464,2.464,0,0,1,1.586-.331,6.5,6.5,0,0,1,1.37.269,7.151,7.151,0,0,1,1.285.52,3.594,3.594,0,0,1,.317.191l.263.175c.173.113.343.221.513.315a2.727,2.727,0,0,0,.989.367.8.8,0,0,0,.724-.254,1.766,1.766,0,0,0,.284-.4.464.464,0,0,0,.052-.308,2.611,2.611,0,0,0-.4-.964,20.884,20.884,0,0,0-3.332-3.683l-1.891-1.723c-.16-.148-.318-.294-.482-.462a2.154,2.154,0,0,1-.464-.676,1.333,1.333,0,0,1-.025-.968,1.7,1.7,0,0,1,.524-.7,3.828,3.828,0,0,1,1.3-.661c.111-.035.223-.066.334-.094a1.257,1.257,0,0,1,.5-.025,1.764,1.764,0,0,1,.778.368,17.687,17.687,0,0,1,1.792,1.946,9.241,9.241,0,0,0,3.9,2.862,10.183,10.183,0,0,1,4.332,2.987,32.772,32.772,0,0,1,3.073,4.16,3.6,3.6,0,0,0,.735.9c.314.241.677.474,1.03.7.713.456,1.441.9,2.172,1.335,5.862,3.478,11.828,6.8,17.788,10.126l-.268.017,18.472-13.218.063.086-18.24,13.537-.127.094-.141-.077c-6-3.267-11.989-6.533-17.9-9.964-.738-.432-1.473-.869-2.2-1.325-.366-.232-.726-.456-1.092-.73a2.732,2.732,0,0,1-.294-.251q-.12-.135-.223-.269c-.137-.179-.263-.357-.386-.535a32.127,32.127,0,0,0-3.042-4.042,9.35,9.35,0,0,0-4.022-2.728,10.105,10.105,0,0,1-4.3-3.068,18.2,18.2,0,0,0-1.68-1.808.893.893,0,0,0-.361-.184.309.309,0,0,0-.132.01c-.1.025-.189.052-.281.082a2.937,2.937,0,0,0-.97.494c-.259.238-.3.376-.221.587a1.226,1.226,0,0,0,.267.365c.135.136.291.279.446.419l1.91,1.707a21.614,21.614,0,0,1,3.547,3.867,3.558,3.558,0,0,1,.559,1.391,1.544,1.544,0,0,1-.165.932,2.817,2.817,0,0,1-.457.642,1.959,1.959,0,0,1-.729.479,2.027,2.027,0,0,1-.869.093,3.737,3.737,0,0,1-1.4-.495c-.2-.112-.394-.233-.578-.354l-.27-.179a2.507,2.507,0,0,0-.232-.139,6.133,6.133,0,0,0-1.086-.435,5.447,5.447,0,0,0-1.137-.224,1.509,1.509,0,0,0-.883.136.342.342,0,0,0-.131.2.712.712,0,0,0,.082.269,4.691,4.691,0,0,0,.645.932,20.254,20.254,0,0,0,1.749,1.769c1.245,1.134,2.565,2.195,3.905,3.251a36.6,36.6,0,0,0,4.033,3.029l-.285-.079h.158l.133.08a7.371,7.371,0,0,0,2.34.985l.173.032.122.123,11.1,11.146.655.432-.945.523c-1.6.308-3.192.57-4.807.775-.806.1-1.618.185-2.44.235-.41.027-.825.037-1.245.036a7.276,7.276,0,0,1-1.339-.122l.046.01a17.719,17.719,0,0,1-3.161-1.019c-1.01-.412-1.991-.879-2.956-1.371a57.777,57.777,0,0,1-5.585-3.294c-1.8-1.2-3.538-2.476-5.223-3.822s-3.3-2.779-4.885-4.235l-.125-.115-.027-.177a29.683,29.683,0,0,0-.965-4.256,15.778,15.778,0,0,0-.766-2.014,5.826,5.826,0,0,0-1.132-1.695l-.139-.132-.009-.19a25.986,25.986,0,0,0-.27-2.718,19.908,19.908,0,0,0-.574-2.664,9.414,9.414,0,0,0-1.049-2.439,3.05,3.05,0,0,0-1.874-1.469l.189-.011a.993.993,0,0,0-.208.171,1.476,1.476,0,0,0-.219.321,2.927,2.927,0,0,0-.269.822,7.381,7.381,0,0,0-.062,1.867c.051,1.238.612,2.615-.044,4.107a1.472,1.472,0,0,1-1.012.766,2.3,2.3,0,0,1-1.16-.112,4.067,4.067,0,0,1-.969-.484,5.543,5.543,0,0,0-.812-.457,7.952,7.952,0,0,0-1.784-.61,1.927,1.927,0,0,0-1.583.168.9.9,0,0,0-.219.669c0,.333-.008.666-.024,1a10.657,10.657,0,0,1-.252,2.021,5.367,5.367,0,0,1-.869,1.891c-.4.55-.8,1.05-1.118,1.6a4.446,4.446,0,0,0-.634,1.727,3.113,3.113,0,0,0,.03.9,7.079,7.079,0,0,1,.139,1.018,2.807,2.807,0,0,1-.157,1.076c-.122.344-.285.628-.38.911a4.763,4.763,0,0,0-.119,1.854,14.539,14.539,0,0,0,.536,3.827,1.961,1.961,0,0,0,1.068,1.331c.583.25,1.213.448,1.837.645,2.51.777,5.056,1.464,7.57,2.283a19.542,19.542,0,0,1,1.874.7,2.718,2.718,0,0,1,.868.59l.713.688c.947.915,1.887,1.84,2.847,2.739,1.919,1.8,3.9,3.538,5.948,5.181a64.413,64.413,0,0,0,6.423,4.566,39.425,39.425,0,0,0,7.028,3.506,23.559,23.559,0,0,0,3.769,1.053,22.486,22.486,0,0,0,3.9.327,45,45,0,0,0,7.827-.647,72.813,72.813,0,0,0,15.1-4.337,66.642,66.642,0,0,0,13.815-7.4l1.055-.756-.377,1.245c-.889,2.938-1.738,5.9-2.523,8.862-.391,1.484-.765,2.972-1.1,4.465-.166.746-.319,1.494-.445,2.24a10.017,10.017,0,0,0-.2,2.162l-.271-.378c2.2.993,4.471,1.9,6.754,2.726s4.606,1.56,6.954,2.173a50.184,50.184,0,0,0,7.129,1.365,23.55,23.55,0,0,0,7.164-.169l-.332.407.333-27.666c.1-9.222.3-18.443.444-27.665Z" transform="translate(-113.655 -28.927)" fill="#0b0907"/>
      <path id="Path_505" data-name="Path 505" d="M558.429,226.658c-1.571.786-3.179,1.452-4.784,2.123l-2.412.99c-.8.337-1.608.655-2.394,1.045a12.069,12.069,0,0,1,2.218-1.423c.778-.408,1.577-.77,2.385-1.106a32.443,32.443,0,0,1,4.988-1.63Z" transform="translate(-161.859 -49.357)" fill="#0b0907"/>
      <path id="Path_506" data-name="Path 506" d="M498.593,218.439c5.016-1.971,10.012-4.033,14.894-6.345-4.723,2.631-9.577,5.021-14.477,7.329Z" transform="translate(-143.251 -43.968)" fill="#0b0907"/>
      <path id="Path_507" data-name="Path 507" d="M565.037,184.051a5.913,5.913,0,0,1,2.646,1.485,8.1,8.1,0,0,1,1.016,1.158l.449.63c.131.22.244.451.367.677a15.19,15.19,0,0,1,1.559,5.873,37.949,37.949,0,0,1-.365,6c-.126.988-.2,1.982-.377,2.963s-.236,1.98-.43,2.961a26.619,26.619,0,0,1-1.569,5.818,18.433,18.433,0,0,1-1.368,2.74,10.862,10.862,0,0,1-2.008,2.395,6.5,6.5,0,0,1-2.852,1.462,5.3,5.3,0,0,1-1.632.091,5.369,5.369,0,0,1-1.563-.44,5.119,5.119,0,0,1-2.3-2.14,3.727,3.727,0,0,1-.337-3.005l.1.027a3.654,3.654,0,0,0,.083,1.43,4.132,4.132,0,0,0,.61,1.263,4.614,4.614,0,0,0,2.166,1.649,4.326,4.326,0,0,0,2.634.116,5.7,5.7,0,0,0,2.342-1.314,13.872,13.872,0,0,0,3.2-4.669,37.978,37.978,0,0,0,1.922-5.546,33.654,33.654,0,0,0,1.034-5.832,30.181,30.181,0,0,0-.175-5.887,20.691,20.691,0,0,0-1.416-5.587l-.3-.653-.365-.616a3.807,3.807,0,0,0-.4-.6c-.145-.189-.28-.39-.435-.572a6.607,6.607,0,0,0-2.263-1.776Z" transform="translate(-164.547 -33.593)" fill="#0b0907"/>
      <path id="Path_509" data-name="Path 509" d="M511.644,269.4l.157,3.006c-2.341.121-4.688.2-7.028.2-2.522,0-5.038-.133-7.553-.3s-5.038-.26-7.553-.235c-2.329.024-4.657.072-6.986.181-.115-1.974-.32-4-.5-6.266,5.369.356,10.419.616,15.384.779l3.71.091,3.674.006q3.294-.036,6.606-.121Q511.59,268.066,511.644,269.4Z" transform="translate(-137.173 -63.906)" fill="#6a8eae"/>
      <path id="Path_510" data-name="Path 510" d="M507.494,229.955H374c-6.232,91.805,8.156,99.157,11.034,100.117s88.093,8.161,108.074-2.4S507.494,229.955,507.494,229.955Zm-35.009,22.636c-.024,1.159-.066,2.318-.121,3.477l-.181,3.477-.03.519-.465-.024c-2.522-.139-5.038-.223-7.553-.223s-5.038.133-7.553.3-5.038.26-7.553.235-5.038-.072-7.553-.2l-.633-.036.024-.573c.1-2.469.344-4.877.543-7.02,4.7-.35,9.725-.61,14.823-.773l3.849-.09,3.873-.012q3.882.045,7.734.139l.815.018Z" transform="translate(-96.535 -50.577)" fill="#6a8eae"/>
      <path id="Path_511" data-name="Path 511" d="M374.829,185.577a91.749,91.749,0,0,1,2.361-10.55c.969-3.474,2.117-6.9,3.392-10.275a119.516,119.516,0,0,1,9.46-19.462,99.7,99.7,0,0,1,13.094-17.236l.932-.984.969-.948c.648-.629,1.286-1.27,1.943-1.889,1.354-1.2,2.656-2.45,4.075-3.569a96.115,96.115,0,0,1,8.706-6.426l.044-.03.054,0,21.439-1.554c7.148-.5,14.294-1.034,21.448-1.46s14.311-.826,21.48-1.032c3.585-.1,7.172-.159,10.765-.122,1.8.025,3.594.06,5.4.177a23.6,23.6,0,0,1,5.463.79l.171.052.1.157a2.306,2.306,0,0,1,.178.355,2.578,2.578,0,0,1,.118.3l.193.586c.1.386.211.772.3,1.158.163.771.326,1.542.44,2.313l.189,1.157.15,1.159c.1.773.208,1.545.276,2.318.161,1.546.313,3.093.416,4.641l.174,2.322.129,2.323c.356,6.194.467,12.393.5,18.588.019,3.1.029,6.2-.011,9.292s-.07,6.194-.152,9.289c-.1,6.192-.37,12.38-.589,18.568l-.107,0c.043-6.192.091-12.382.09-18.572.018-3.095-.007-6.189-.039-9.283,0-3.094-.049-6.188-.108-9.28q-.155-9.278-.667-18.536l-.135-2.313-.179-2.308c-.107-1.541-.262-3.074-.426-4.606-.069-.768-.181-1.529-.279-2.291l-.151-1.143-.189-1.133c-.114-.76-.274-1.5-.433-2.246-.083-.369-.189-.726-.282-1.09l-.171-.516a1.831,1.831,0,0,0-.092-.238l-.071-.168.27.21a23.079,23.079,0,0,0-5.144-.76c-1.771-.128-3.556-.175-5.341-.212-3.571-.062-7.149-.024-10.726.046-7.155.143-14.313.4-21.468.726s-14.31.691-21.458,1.159c-3.574.237-7.149.463-10.72.735l-10.71.862.1-.034a91.418,91.418,0,0,0-8.532,6.553c-1.386,1.139-2.655,2.41-3.975,3.622-.64.627-1.26,1.275-1.891,1.911l-.942.958-.905.994a105.058,105.058,0,0,0-6.881,8.251l-1.587,2.168c-.522.728-1.01,1.48-1.526,2.212s-1.008,1.481-1.489,2.237-.989,1.5-1.44,2.27A128.747,128.747,0,0,0,381.212,165c-1.34,3.331-2.52,6.727-3.587,10.158a101.593,101.593,0,0,0-2.691,10.437Z" transform="translate(-97.417 -6.205)" fill="#0b0907"/>
      <path id="Path_512" data-name="Path 512" d="M410.568,93.417,386,94.556l-12.283.569-12.285.528-24.57,1.056-12.286.515a28.492,28.492,0,0,0-2.968.191,9.81,9.81,0,0,0-2.694,1.016,27.528,27.528,0,0,0-4.877,3.482,85.069,85.069,0,0,0-8.46,8.777c-2.642,3.111-5.164,6.328-7.613,9.6-4.9,6.55-9.5,13.328-14.011,20.161-9,13.684-17.474,27.728-25.645,41.923l-.145.252-.278.04-53.575,7.654-26.776,3.9L150.773,198.2l.074-.022a28.585,28.585,0,0,0-5.02,3.249,25.781,25.781,0,0,0-4.226,4.228,19.076,19.076,0,0,0-2.936,5.166,16.625,16.625,0,0,0-1.038,5.824v.214l-.2.086a49.647,49.647,0,0,0-8.273,4.522,47.072,47.072,0,0,0-7.286,5.978,36.664,36.664,0,0,0-3.1,3.537,31.71,31.71,0,0,0-2.61,3.9,29.49,29.49,0,0,0-3.309,8.725l-.469-.575,6.713-.027-.4.2a106.636,106.636,0,0,1,7.036-8.061,66.888,66.888,0,0,1,7.983-7.163,30.208,30.208,0,0,1,4.6-2.867,12.6,12.6,0,0,1,5.362-1.426c1.714-.039,3.474-.253,5.224-.469l5.265-.713a181,181,0,0,1,21.257-2.015,77.21,77.21,0,0,1,10.728.459,41.73,41.73,0,0,1,10.512,2.529,25.663,25.663,0,0,1,4.844,2.557c.19.128.388.247.572.384l.543.428c.354.292.739.556,1.068.874.65.64,1.325,1.264,1.953,1.92a72.738,72.738,0,0,1,6.52,8.566c3.921,5.973,7.407,12.188,10.724,18.481,3.3,6.3,6.407,12.7,9.421,19.134,1.512,3.216,2.979,6.452,4.439,9.691a25.726,25.726,0,0,0,5.94,8.349c.609.608,1.3,1.126,1.961,1.672.341.261.7.5,1.051.746l.528.37.553.331a25.135,25.135,0,0,0,4.634,2.239,27.328,27.328,0,0,0,4.989,1.27,35.7,35.7,0,0,0,5.191.274l21.283.054,42.566.139,42.565.219,42.565.314v.16L368,301.963l-42.565.219-42.566.139-21.283.054a37.365,37.365,0,0,1-5.425-.284,28.944,28.944,0,0,1-5.309-1.342,26.771,26.771,0,0,1-4.933-2.375l-.588-.352-.563-.392c-.373-.265-.756-.515-1.119-.793-.709-.578-1.439-1.131-2.09-1.776a27.383,27.383,0,0,1-6.331-8.87c-1.461-3.229-2.929-6.456-4.441-9.661-3.015-6.414-6.121-12.786-9.414-19.054s-6.725-12.464-10.577-18.371a71.308,71.308,0,0,0-6.328-8.384c-.6-.625-1.225-1.209-1.834-1.817-.308-.3-.66-.54-.988-.813l-.5-.4c-.171-.128-.355-.238-.532-.358a24.107,24.107,0,0,0-4.54-2.416,40.225,40.225,0,0,0-10.113-2.466,75.731,75.731,0,0,0-10.516-.487,190.187,190.187,0,0,0-21.106,1.874l-5.286.673a53.7,53.7,0,0,1-5.374.437,11.366,11.366,0,0,0-4.841,1.263,29.04,29.04,0,0,0-4.437,2.717,65.8,65.8,0,0,0-7.9,6.977,105.662,105.662,0,0,0-7.021,7.916l-.157.2h-.242l-6.713-.027-.593,0,.125-.573a30.413,30.413,0,0,1,3.483-8.973,32.519,32.519,0,0,1,2.71-3.98,37.486,37.486,0,0,1,3.2-3.586,47.837,47.837,0,0,1,7.454-6.013,50.227,50.227,0,0,1,8.441-4.52l-.205.3a17.455,17.455,0,0,1,1.121-6.033,19.669,19.669,0,0,1,3.04-5.315,26.352,26.352,0,0,1,4.331-4.307,29.073,29.073,0,0,1,5.141-3.3l.033-.016.042-.006,26.769-3.947,26.759-4.016,53.5-8.186-.423.292q6-10.761,12.376-21.285t13.092-20.854c4.5-6.87,9.176-13.623,14.114-20.2,2.474-3.282,5.025-6.51,7.7-9.639a86.279,86.279,0,0,1,8.632-8.881,28.718,28.718,0,0,1,5.128-3.623,11,11,0,0,1,3.044-1.124,28.514,28.514,0,0,1,3.161-.2l12.286-.422,24.574-.817,12.287-.408,12.289-.368,24.579-.734Z" transform="translate(0 0)" fill="#0b0907"/>
      <path id="Path_513" data-name="Path 513" d="M392.223,167.112c.505.035,1,.1,1.5.174s.984.168,1.472.266.972.21,1.453.333.963.245,1.434.406l-.488.172c1.173-1.5,2.453-2.929,3.588-4.46s2.181-3.127,3.21-4.735,2.12-3.171,3.2-4.739,2.212-3.1,3.368-4.619l.1.716c-.864-.751-1.727-1.5-2.564-2.287s-1.678-1.564-2.48-2.391l.067-.083c.978.61,1.923,1.26,2.86,1.92s1.86,1.338,2.776,2.024l.388.291-.293.425c-1.082,1.57-2.177,3.129-3.345,4.636s-2.291,3.047-3.509,4.517-2.416,2.956-3.5,4.521-2.061,3.214-3.125,4.8l-.161.24-.327-.068c-.487-.1-.966-.233-1.441-.378s-.95-.291-1.422-.45-.94-.33-1.4-.517-.925-.383-1.378-.61Z" transform="translate(-103.848 -19.464)" fill="#0b0907"/>
      <path id="Path_514" data-name="Path 514" d="M504.618,150.278c-.583-.579-1.138-1.18-1.692-1.782s-1.086-1.221-1.617-1.842-1.052-1.248-1.563-1.885-1.023-1.271-1.5-1.931l-.195-.267.162-.249c1.039-1.6,2.191-3.13,3.189-4.754,1.014-1.614,1.9-3.3,2.789-4.994s1.833-3.345,2.783-5c.93-1.665,1.936-3.284,2.956-4.894l.276-.435.421.242c1.123.646,2.246,1.294,3.348,1.978s2.209,1.363,3.285,2.1l-.05.094c-1.208-.486-2.392-1.02-3.57-1.563s-2.345-1.107-3.507-1.681l.7-.193c-.942,1.657-1.9,3.306-2.932,4.908-1.014,1.614-2.027,3.229-3.106,4.8s-2.151,3.154-3.1,4.808c-.964,1.644-1.775,3.38-2.7,5.049l-.033-.516c.529.622,1.033,1.264,1.526,1.913s.986,1.3,1.467,1.96.954,1.326,1.413,2,.911,1.36,1.338,2.062Z" transform="translate(-143.05 -10.726)" fill="#0b0907"/>
      <path id="Path_515" data-name="Path 515" d="M391.815,190.55c-.911.089-1.822.139-2.733.2s-1.822.1-2.733.148v-.7c1.983-.086,3.965-.133,5.948-.165s3.965-.027,5.948,0c3.965.05,7.93.167,11.9.516-3.965.349-7.93.467-11.9.516-1.983.023-3.965.015-5.948,0s-3.965-.079-5.948-.165v-.7c.911.043,1.822.081,2.733.148S390.9,190.462,391.815,190.55Z" transform="translate(-101.683 -35.801)" fill="#0b0907"/>
      <path id="Path_516" data-name="Path 516" d="M487.111,161.013c1.66-.058,3.32-.1,4.98-.135l-.165.1c1.1-2.121,2.23-4.224,3.356-6.331s2.241-4.219,3.394-6.31c2.3-4.186,4.554-8.4,6.894-12.561s4.738-8.295,7.117-12.437c1.2-2.067,2.386-4.138,3.55-6.223s2.356-4.155,3.492-6.255l.046-.086.1,0,6.844-.184,6.843-.235.55-.019-.281.484q-3.7,6.367-7.46,12.694l-7.541,12.645q-3.789,6.311-7.641,12.585l-7.753,12.517-.128-.51a26.644,26.644,0,0,1,3.093,2.326,21.65,21.65,0,0,1,2.692,2.768,11.991,11.991,0,0,1,1.924,3.351,6.56,6.56,0,0,1,.256,3.813l-.1-.023a6.547,6.547,0,0,0-.436-3.682,11.607,11.607,0,0,0-2.01-3.152,21.216,21.216,0,0,0-2.714-2.607,26.046,26.046,0,0,0-3.077-2.157l-.317-.188.189-.322,7.472-12.687q3.769-6.324,7.583-12.62l7.684-12.559q3.86-6.269,7.764-12.51l.269.465-6.847.048-6.846.1.146-.088c-1.179,2.077-2.306,4.182-3.455,6.276s-2.277,4.2-3.4,6.308c-2.253,4.212-4.477,8.44-6.777,12.626s-4.669,8.333-7,12.5c-1.162,2.086-2.366,4.149-3.553,6.222s-2.375,4.144-3.591,6.2l-.059.1-.106,0c-1.66-.04-3.32-.077-4.98-.135Z" transform="translate(-138.999 -6.318)" fill="#0b0907"/>
      <path id="Path_518" data-name="Path 518" d="M152.321,288.976c7.009-.11,14.017-.089,21.024-.023l10.51.161c3.5.053,7.005.186,10.508.287l10.5.459,10.5.5c7,.367,14,.589,21,1.213.875.088,1.749.176,2.625.3.438.064.876.133,1.316.225a4.854,4.854,0,0,1,1.362.437c.392.238.74.457,1.12.7s.748.482,1.1.758a10.518,10.518,0,0,1,1.041.853l.5.446.465.481a54.7,54.7,0,0,1,6.34,8.481c3.754,5.952,7.136,12.108,10.387,18.325l2.409,4.678c.8,1.561,1.613,3.115,2.373,4.7,1.536,3.153,3.111,6.286,4.614,9.454s3.015,6.331,4.488,9.513l4.366,9.569-.1.046c-6.356-12.5-12.623-25.038-19.13-37.441-1.649-3.088-3.3-6.174-5-9.232-.829-1.541-1.7-3.058-2.576-4.57-.856-1.526-1.773-3.011-2.685-4.5a57.31,57.31,0,0,0-6.1-8.427l-.439-.472-.473-.432a9.808,9.808,0,0,0-.975-.829c-.656-.533-1.41-1-2.128-1.481a4.469,4.469,0,0,0-1.126-.378c-.415-.1-.841-.178-1.267-.253-.854-.15-1.721-.261-2.586-.371-13.915-1.532-27.964-1.649-41.964-1.87-14.007-.295-28.013-.666-42.02-1.2Z" transform="translate(-15.014 -72.385)" fill="#0b0907"/>
      <path id="Path_519" data-name="Path 519" d="M374.133,179.085c-1.577,2.739-3.12,5.5-4.669,8.247q-2.3,4.14-4.539,8.31c-2.942,5.579-5.813,11.2-8.209,17.017-2.715,5.769-2.509,12.254-2.767,18.535-.16,6.316-.086,12.637.046,18.952.277,12.626.675,25.269,1.9,37.813.168,1.565.358,3.127.589,4.681s.481,3.1.835,4.618a20.011,20.011,0,0,0,.637,2.223,9.492,9.492,0,0,0,.442,1.029c.164.3.386.625.611.953.888,1.3,1.8,2.58,2.771,3.807a26.1,26.1,0,0,0,6.778,6.386,18.735,18.735,0,0,0,4.252,1.935,22.161,22.161,0,0,0,4.625.872l-.007.107A19.634,19.634,0,0,1,368.3,312.1a26.581,26.581,0,0,1-7.143-6.325c-1.013-1.23-1.959-2.509-2.879-3.8a12.067,12.067,0,0,1-.684-1.029,10.393,10.393,0,0,1-.516-1.137,20.96,20.96,0,0,1-.714-2.318,71.313,71.313,0,0,1-1.548-9.416c-.692-6.3-1.064-12.627-1.276-18.951q-.341-9.485-.291-18.974c.039-6.325.176-12.647.352-18.967.12-3.16.188-6.321.412-9.48a27.927,27.927,0,0,1,.659-4.728,43.808,43.808,0,0,1,1.39-4.564c.527-1.5,1.125-2.97,1.734-4.435q.952-2.18,1.982-4.323c1.347-2.87,2.878-5.644,4.393-8.422s3.125-5.5,4.768-8.206,3.337-5.373,5.1-8Z" transform="translate(-89.423 -31.734)" fill="#0b0907"/>
      <path id="Path_520" data-name="Path 520" d="M178.782,304.423a47.982,47.982,0,1,0,47.95,47.98,47.97,47.97,0,0,0-47.95-47.98Zm0,73.17A25.188,25.188,0,1,1,203.957,352.4a25.182,25.182,0,0,1-25.175,25.188Z" transform="translate(-7.053 -78.129)" fill="#020202"/>
      <ellipse id="Ellipse_26" data-name="Ellipse 26" cx="8.152" cy="8.157" rx="8.152" ry="8.157" transform="translate(163.575 266.119)" fill="#020202"/>
      <path id="Path_521" data-name="Path 521" d="M493.286,141.18c-1.22,1.566-2.516,3.057-3.838,4.523s-2.68,2.9-4.051,4.315-2.78,2.8-4.219,4.151-2.9,2.686-4.433,3.941c1.219-1.566,2.515-3.059,3.837-4.524s2.68-2.9,4.052-4.314,2.781-2.8,4.22-4.149S491.749,142.436,493.286,141.18Z" transform="translate(-135.16 -17.731)" fill="#0b0907"/>
      <path id="Path_522" data-name="Path 522" d="M472.882,141.266c-1.22,1.565-2.516,3.057-3.838,4.523s-2.68,2.9-4.051,4.315-2.78,2.8-4.219,4.151-2.9,2.686-4.434,3.941c1.219-1.566,2.515-3.059,3.837-4.524s2.68-2.9,4.052-4.314,2.781-2.8,4.22-4.149S471.346,142.522,472.882,141.266Z" transform="translate(-127.604 -17.763)" fill="#0b0907"/>
    </g>
    <g id="Menu_Dots" data-name="Menu Dots">
      <g id="Ellipse_7" data-name="Ellipse 7" transform="translate(385 59)" fill="#0b0907" stroke="#0b0907" stroke-width="1">
        <circle cx="2.5" cy="2.5" r="2.5" stroke="none"/>
        <circle cx="2.5" cy="2.5" r="2" fill="none"/>
      </g>
      <g id="Ellipse_9" data-name="Ellipse 9" transform="translate(385 69)" fill="#0b0907" stroke="#0b0907" stroke-width="1">
        <circle cx="2.5" cy="2.5" r="2.5" stroke="none"/>
        <circle cx="2.5" cy="2.5" r="2" fill="none"/>
      </g>
      <g id="Ellipse_8" data-name="Ellipse 8" transform="translate(385 49)" fill="#0b0907" stroke="#0b0907" stroke-width="1">
        <circle cx="2.5" cy="2.5" r="2.5" stroke="none"/>
        <circle cx="2.5" cy="2.5" r="2" fill="none"/>
      </g>
    </g>
    <text id="New_Car" data-name="New Car" transform="translate(206 70)" fill="#0b0907" font-size="24" font-family="Raleway" font-weight="700"><tspan x="-48.432" y="0">New Car</tspan></text>
    <g id="Back" transform="translate(0 -63.37)">
      <path id="Path_5" data-name="Path 5" d="M524,105l-10,9,10,9" transform="translate(-492 9.37)" fill="none" stroke="#0b0907" stroke-linecap="round" stroke-linejoin="round" stroke-width="1"/>
      <path id="Path_6" data-name="Path 6" d="M514,123.37h21" transform="translate(-492)" fill="none" stroke="#0b0907" stroke-linecap="round" stroke-width="1"/>
    </g>
    <g id="Component_6_4" data-name="Component 6  4" transform="translate(0 815)">
      <g id="Tab_Bar" data-name="Tab Bar" transform="translate(0 -878)">
        <rect id="Container" width="412" height="55" transform="translate(0 878)" fill="#fff"/>
        <g id="Tab_3" data-name="Tab 3">
          <text id="Overview" transform="translate(351 928)" fill="#0b0907" font-size="16" font-family="SegoeUI, Segoe UI"><tspan x="-32.563" y="0">Overview</tspan></text>
          <g id="Overview-2" data-name="Overview" transform="translate(340 883)">
            <path id="Path_550" data-name="Path 550" d="M65.183,30.05H45.577a1.707,1.707,0,0,1-1.7-1.717V3.767a1.707,1.707,0,0,1,1.7-1.717H65.183a1.707,1.707,0,0,1,1.7,1.717V28.333A1.707,1.707,0,0,1,65.183,30.05Z" transform="translate(-43.88 -2.05)" fill="rgba(0,0,0,0)" stroke="#fbab36" stroke-miterlimit="10" stroke-width="1"/>
            <line id="Line_58" data-name="Line 58" x2="23" transform="translate(0 4.953)" fill="none" stroke="#fbab36" stroke-miterlimit="10" stroke-width="1"/>
            <line id="Line_59" data-name="Line 59" x2="6.621" transform="translate(1.722 8.527)" fill="none" stroke="#fbab36" stroke-linecap="round" stroke-miterlimit="10" stroke-width="1"/>
            <line id="Line_60" data-name="Line 60" x2="10.418" transform="translate(11.036 8.527)" fill="none" stroke="#fbab36" stroke-linecap="round" stroke-miterlimit="10" stroke-width="1"/>
            <line id="Line_61" data-name="Line 61" x2="12.095" transform="translate(9.359 12.547)" fill="none" stroke="#fbab36" stroke-linecap="round" stroke-miterlimit="10" stroke-width="1"/>
            <line id="Line_62" data-name="Line 62" x2="4.679" transform="translate(1.722 12.547)" fill="none" stroke="#fbab36" stroke-linecap="round" stroke-miterlimit="10" stroke-width="1"/>
            <line id="Line_63" data-name="Line 63" x2="12.993" transform="translate(1.722 16.568)" fill="none" stroke="#fbab36" stroke-linecap="round" stroke-miterlimit="10" stroke-width="1"/>
            <line id="Line_64" data-name="Line 64" x2="3.796" transform="translate(17.415 16.568)" fill="none" stroke="#fbab36" stroke-linecap="round" stroke-miterlimit="10" stroke-width="1"/>
            <line id="Line_65" data-name="Line 65" x2="19.732" transform="translate(1.722 20.588)" fill="none" stroke="#fbab36" stroke-linecap="round" stroke-miterlimit="10" stroke-width="1"/>
            <line id="Line_66" data-name="Line 66" x2="19.732" transform="translate(1.722 24.609)" fill="none" stroke="#fbab36" stroke-linecap="round" stroke-miterlimit="10" stroke-width="1"/>
          </g>
        </g>
        <g id="Tab_2" data-name="Tab 2">
          <text id="Create_Cache" data-name="Create Cache" transform="translate(206 928)" fill="#0b0907" font-size="16" font-family="SegoeUI, Segoe UI"><tspan x="-46.504" y="0">Create Cache</tspan></text>
          <g id="Component_15_2" data-name="Component 15  2" transform="translate(192 883)">
            <g id="Add" transform="translate(-314.442 7.405)">
              <path id="Path_551" data-name="Path 551" d="M335.848-430.125v16" transform="translate(-7.267 428.72)" fill="none" stroke="#fbb042" stroke-linecap="round" stroke-width="1"/>
              <path id="Path_552" data-name="Path 552" d="M0,0V16" transform="translate(336.442 6.595) rotate(90)" fill="none" stroke="#fbb042" stroke-linecap="round" stroke-width="1"/>
            </g>
            <circle id="Ellipse_30" data-name="Ellipse 30" cx="14" cy="14" r="14" fill="rgba(255,255,255,0)" stroke="#fbab36" stroke-width="1"/>
          </g>
        </g>
        <g id="Tab_1" data-name="Tab 1">
          <text id="Dashboard" transform="translate(61 928)" fill="#0b0907" font-size="16" font-family="SegoeUI, Segoe UI"><tspan x="-38.555" y="0">Dashboard</tspan></text>
          <g id="Dashboard-2" data-name="Dashboard" transform="translate(47 883)">
            <g id="Path_523" data-name="Path 523" transform="translate(-2 -2)" fill="rgba(0,0,0,0)" stroke-miterlimit="10">
              <path d="M 13.98016262054443 21.37096214294434 L 3.173062562942505 21.37096214294434 C 2.801932573318481 21.37096214294434 2.500002384185791 21.06903266906738 2.500002384185791 20.69790267944336 L 2.500002384185791 3.173063039779663 C 2.500002384185791 2.80193305015564 2.801932573318481 2.500002861022949 3.173062562942505 2.500002861022949 L 13.98016262054443 2.500002861022949 C 14.35129261016846 2.500002861022949 14.65322208404541 2.80193305015564 14.65322208404541 3.173063039779663 L 14.65322208404541 20.69790267944336 C 14.65322208404541 21.06903266906738 14.35129261016846 21.37096214294434 13.98016262054443 21.37096214294434 Z" stroke="none"/>
              <path d="M 13.98016262054443 20.87096214294434 C 14.07559204101563 20.87096214294434 14.15322208404541 20.79333305358887 14.15322208404541 20.69790267944336 L 14.15322208404541 3.173063039779663 C 14.15322208404541 3.077632904052734 14.07559204101563 3.000002861022949 13.98016262054443 3.000002861022949 L 3.173062562942505 3.000002861022949 C 3.077632427215576 3.000002861022949 3.000002384185791 3.077632904052734 3.000002384185791 3.173063039779663 L 3.000002384185791 20.69790267944336 C 3.000002384185791 20.79333305358887 3.077632427215576 20.87096214294434 3.173062562942505 20.87096214294434 L 13.98016262054443 20.87096214294434 M 13.98016262054443 21.87096214294434 L 3.173062562942505 21.87096214294434 C 2.525002479553223 21.87096214294434 2.000002384185791 21.34597206115723 2.000002384185791 20.69790267944336 L 2.000002384185791 3.173063039779663 C 2.000002384185791 2.525002956390381 2.525002479553223 2.000002861022949 3.173062562942505 2.000002861022949 L 13.98016262054443 2.000002861022949 C 14.62822246551514 2.000002861022949 15.15322208404541 2.525002956390381 15.15322208404541 3.173063039779663 L 15.15322208404541 20.69790267944336 C 15.15322208404541 21.34597206115723 14.62822246551514 21.87096214294434 13.98016262054443 21.87096214294434 Z" stroke="none" fill="#fbab36"/>
            </g>
            <g id="Path_524" data-name="Path 524" transform="translate(-252.984 -137.871)" fill="rgba(0,0,0,0)" stroke-miterlimit="10">
              <path d="M 279.8108215332031 165.3709716796875 L 269.1730651855469 165.3709716796875 C 268.8019409179688 165.3709716796875 268.5 165.0690307617188 268.5 164.6979064941406 L 268.5 147.1730651855469 C 268.5 146.8019409179688 268.8019409179688 146.5 269.1730651855469 146.5 L 279.8108215332031 146.5 C 280.1819458007813 146.5 280.48388671875 146.8019409179688 280.48388671875 147.1730651855469 L 280.48388671875 164.6979064941406 C 280.48388671875 165.0690307617188 280.1819458007813 165.3709716796875 279.8108215332031 165.3709716796875 Z" stroke="none"/>
              <path d="M 279.8108215332031 164.8709716796875 C 279.90625 164.8709716796875 279.98388671875 164.7933349609375 279.98388671875 164.6979064941406 L 279.98388671875 147.1730651855469 C 279.98388671875 147.07763671875 279.90625 147 279.8108215332031 147 L 269.1730651855469 147 C 269.07763671875 147 269 147.07763671875 269 147.1730651855469 L 269 164.6979064941406 C 269 164.7933349609375 269.07763671875 164.8709716796875 269.1730651855469 164.8709716796875 L 279.8108215332031 164.8709716796875 M 279.8108215332031 165.8709716796875 L 269.1730651855469 165.8709716796875 C 268.5249938964844 165.8709716796875 268 165.3459777832031 268 164.6979064941406 L 268 147.1730651855469 C 268 146.5250091552734 268.5249938964844 146 269.1730651855469 146 L 279.8108215332031 146 C 280.4588623046875 146 280.98388671875 146.5250091552734 280.98388671875 147.1730651855469 L 280.98388671875 164.6979064941406 C 280.98388671875 165.3459777832031 280.4588623046875 165.8709716796875 279.8108215332031 165.8709716796875 Z" stroke="none" fill="#fbab36"/>
            </g>
            <g id="Path_525" data-name="Path 525" transform="translate(-2 -354.887)" fill="rgba(0,0,0,0)" stroke-miterlimit="10">
              <path d="M 13.98016262054443 382.3871154785156 L 3.173062562942505 382.3871154785156 C 2.801932573318481 382.3871154785156 2.500002384185791 382.0851745605469 2.500002384185791 381.7140502929688 L 2.500002384185791 377.1730651855469 C 2.500002384185791 376.8019409179688 2.801932573318481 376.5 3.173062562942505 376.5 L 13.98016262054443 376.5 C 14.35129261016846 376.5 14.65322208404541 376.8019409179688 14.65322208404541 377.1730651855469 L 14.65322208404541 381.7140502929688 C 14.65322208404541 382.0851745605469 14.35129261016846 382.3871154785156 13.98016262054443 382.3871154785156 Z" stroke="none"/>
              <path d="M 13.98016262054443 381.8871154785156 C 14.07559204101563 381.8871154785156 14.15322208404541 381.8094787597656 14.15322208404541 381.7140502929688 L 14.15322208404541 377.1730651855469 C 14.15322208404541 377.07763671875 14.07559204101563 377 13.98016262054443 377 L 3.173062562942505 377 C 3.077632427215576 377 3.000002384185791 377.07763671875 3.000002384185791 377.1730651855469 L 3.000002384185791 381.7140502929688 C 3.000002384185791 381.8094787597656 3.077632427215576 381.8871154785156 3.173062562942505 381.8871154785156 L 13.98016262054443 381.8871154785156 M 13.98016262054443 382.8871154785156 L 3.173062562942505 382.8871154785156 C 2.525002479553223 382.8871154785156 2.000002384185791 382.3620910644531 2.000002384185791 381.7140502929688 L 2.000002384185791 377.1730651855469 C 2.000002384185791 376.5249938964844 2.525002479553223 376 3.173062562942505 376 L 13.98016262054443 376 C 14.62822246551514 376 15.15322208404541 376.5249938964844 15.15322208404541 377.1730651855469 L 15.15322208404541 381.7140502929688 C 15.15322208404541 382.3620910644531 14.62822246551514 382.8871154785156 13.98016262054443 382.8871154785156 Z" stroke="none" fill="#fbab36"/>
            </g>
            <g id="Path_526" data-name="Path 526" transform="translate(-252.984 -2)" fill="rgba(0,0,0,0)" stroke-miterlimit="10">
              <path d="M 279.8108215332031 8.274196624755859 L 269.1730651855469 8.274196624755859 C 268.8019409179688 8.274196624755859 268.5 7.972256183624268 268.5 7.601126194000244 L 268.5 3.173066377639771 C 268.5 2.801936388015747 268.8019409179688 2.499996423721313 269.1730651855469 2.499996423721313 L 279.8108215332031 2.499996423721313 C 280.1819458007813 2.499996423721313 280.48388671875 2.801936388015747 280.48388671875 3.173066377639771 L 280.48388671875 7.601126194000244 C 280.48388671875 7.972256183624268 280.1819458007813 8.274196624755859 279.8108215332031 8.274196624755859 Z" stroke="none"/>
              <path d="M 279.8108215332031 7.774196624755859 C 279.90625 7.774196624755859 279.98388671875 7.696556568145752 279.98388671875 7.601126194000244 L 279.98388671875 3.173066377639771 C 279.98388671875 3.077636480331421 279.90625 2.999996423721313 279.8108215332031 2.999996423721313 L 269.1730651855469 2.999996423721313 C 269.07763671875 2.999996423721313 269 3.077636480331421 269 3.173066377639771 L 269 7.601126194000244 C 269 7.696556568145752 269.07763671875 7.774196624755859 269.1730651855469 7.774196624755859 L 279.8108215332031 7.774196624755859 M 279.8108215332031 8.774196624755859 L 269.1730651855469 8.774196624755859 C 268.5249938964844 8.774196624755859 268 8.24919605255127 268 7.601126194000244 L 268 3.173066377639771 C 268 2.524996519088745 268.5249938964844 1.999996423721313 269.1730651855469 1.999996423721313 L 279.8108215332031 1.999996423721313 C 280.4588623046875 1.999996423721313 280.98388671875 2.524996519088745 280.98388671875 3.173066377639771 L 280.98388671875 7.601126194000244 C 280.98388671875 8.24919605255127 280.4588623046875 8.774196624755859 279.8108215332031 8.774196624755859 Z" stroke="none" fill="#fbab36"/>
            </g>
          </g>
        </g>
      </g>
    </g>
    <g id="Top_Bar" data-name="Top Bar">
      <rect id="Rectangle" width="412" height="24" fill="#a4c0d9"/>
      <path id="Mask" d="M34,0H46L40,10ZM18,5a5,5,0,1,1,5,5A5,5,0,0,1,18,5ZM0,10V0H10V10Z" transform="translate(303 7)" fill="rgba(255,255,255,0.38)"/>
    </g>
  </g>
</svg>
