<svg id="Banner" xmlns="http://www.w3.org/2000/svg" width="1920" height="124" viewBox="0 0 1920 124">
  <g id="Top_color" data-name="Top color">
    <rect id="Rectangle_1" data-name="Rectangle 1" width="1920" height="41" fill="#322938"/>
    <rect id="Rectangle_2" data-name="Rectangle 2" width="1920" height="41" transform="translate(0 41)" fill="#89a194"/>
    <rect id="Rectangle_3" data-name="Rectangle 3" width="1920" height="41" transform="translate(0 82)" fill="#cc883a"/>
  </g>
  <path id="Path_64" data-name="Path 64" d="M0-1.062Q0-1.3.944-1.711A4.684,4.684,0,0,0,2.832-3.717,8.988,8.988,0,0,0,3.776-8.26V-46.61a13.387,13.387,0,0,0-.59-4.307,4.317,4.317,0,0,0-1.3-2.183q-.708-.472-1.3-.826T0-54.516v-.472a.417.417,0,0,1,.472-.472H22.184q10.974,0,18.585,4.484T48.38-38.468v.59a12.858,12.858,0,0,1-4.012,9.5,24.317,24.317,0,0,1-10.5,5.841,7.821,7.821,0,0,1,3.894,3.894q.118.472.944,2.773t1.416,3.658a23,23,0,0,0,1.77,3.186,7.6,7.6,0,0,0,2.891,2.714,8.223,8.223,0,0,0,3.835.885,6.29,6.29,0,0,0,1.416-.118q.354,0,.354.236.472,1.534-2.832,4.366a13.8,13.8,0,0,1-7.67,3.3A13.156,13.156,0,0,1,32.863.708a12.166,12.166,0,0,1-4.425-5.782Q27.966-6.136,26.9-9.44t-1.888-5.428a13.174,13.174,0,0,0-2.6-4.071,5.313,5.313,0,0,0-4.012-1.947.521.521,0,0,0-.59.59v11.21a13.387,13.387,0,0,0,.59,4.307,4.766,4.766,0,0,0,1.3,2.242,15.419,15.419,0,0,0,1.3.885q.59.354.59.59V-.59a.417.417,0,0,1-.472.472H.472A.313.313,0,0,1,.118-.472ZM17.818-28.32a1.564,1.564,0,0,0,1.77,1.77q6.726,0,10.856-3.422a10.724,10.724,0,0,0,4.13-8.614v-.236a9.9,9.9,0,0,0-3.717-8.024q-3.717-3.068-10.915-3.068h-.354a1.7,1.7,0,0,0-1.239.531,1.838,1.838,0,0,0-.531,1.357Zm39.235-5.664a18.577,18.577,0,0,1,14.1-5.782q8.614,0,13.865,5.428T90.27-20.3q0,.708-1.062.708h-.472l-21.594.118v.236a14.306,14.306,0,0,0,3.009,8.26,7.409,7.409,0,0,0,6.077,2.832,7.705,7.705,0,0,0,7.434-5.546,2.962,2.962,0,0,1,3.068-2.36,2.615,2.615,0,0,1,.826.118q2.36.472,2.006,3.186a13.513,13.513,0,0,1-5.9,9.735A19.226,19.226,0,0,1,72.216.708q-9.322,0-14.986-5.487T51.566-19.588A20.1,20.1,0,0,1,57.053-33.984Zm14.691-.826q-1.77,0-3.127,3.009a20.957,20.957,0,0,0-1.593,7.493h9.44a16.448,16.448,0,0,0-1.3-7.611Q73.75-34.81,71.744-34.81ZM111.392-8.968a13.387,13.387,0,0,0,.59,4.307,4.766,4.766,0,0,0,1.3,2.242,15.419,15.419,0,0,0,1.3.885q.59.354.59.59v.472A.417.417,0,0,1,114.7,0H94.282a.313.313,0,0,1-.354-.354l-.118-.59q0-.236.944-.649A4.684,4.684,0,0,0,96.642-3.6a8.988,8.988,0,0,0,.944-4.543V-29.854a3.47,3.47,0,0,0-.944-2.655,3.317,3.317,0,0,0-2.36-.885.417.417,0,0,1-.472-.472v-1.3q0-.826.708-.826A28.358,28.358,0,0,0,99.3-36.4a35.892,35.892,0,0,0,3.835-.826q1.416-.413,3.363-1.18t2.419-.885a3.069,3.069,0,0,1,.944-.118,1.732,1.732,0,0,1,.649.118.958.958,0,0,1,.472.413,4.127,4.127,0,0,1,.3.59,2.1,2.1,0,0,1,.118.767V-8.968Zm-7.67-31.152a7.576,7.576,0,0,1-5.31-2.065A6.566,6.566,0,0,1,96.17-47.2a6.566,6.566,0,0,1,2.242-5.015,7.576,7.576,0,0,1,5.31-2.065,7.725,7.725,0,0,1,5.428,2.065,6.566,6.566,0,0,1,2.242,5.015,6.566,6.566,0,0,1-2.242,5.015A7.725,7.725,0,0,1,103.722-40.12ZM119.888-.944q0-.236.944-.649A4.684,4.684,0,0,0,122.72-3.6a8.988,8.988,0,0,0,.944-4.543V-29.854a3.47,3.47,0,0,0-.944-2.655,3.317,3.317,0,0,0-2.36-.885.417.417,0,0,1-.472-.472v-1.3q0-.826.708-.826a17.542,17.542,0,0,0,5.9-1,30.559,30.559,0,0,0,5.251-2.419,18.754,18.754,0,0,1,3.245-1.652,3.07,3.07,0,0,1,.944-.118,1.732,1.732,0,0,1,.649.118.958.958,0,0,1,.472.413,4.129,4.129,0,0,1,.295.59,2.1,2.1,0,0,1,.118.767v3.658q3.54-4.012,10.384-4.248,6.136,0,9.794,3.658a12.757,12.757,0,0,1,3.894,10.266l.118,16.992a13.387,13.387,0,0,0,.59,4.307,5.153,5.153,0,0,0,1.239,2.242,10.551,10.551,0,0,0,1.239.885q.59.354.59.59v.472a.417.417,0,0,1-.472.472H144.432a.313.313,0,0,1-.354-.354v-.59q0-.236.531-.59l1.239-.826a4.185,4.185,0,0,0,1.3-2.006,10.571,10.571,0,0,0,.59-3.776V-23.836q0-5.192-1.888-6.962a3.915,3.915,0,0,0-3.068-1.18,4.155,4.155,0,0,0-3.186,1.416,8.667,8.667,0,0,0-2.124,5.074v16.52a13.387,13.387,0,0,0,.59,4.307,4.766,4.766,0,0,0,1.3,2.242,15.42,15.42,0,0,0,1.3.885q.59.354.59.59v.472a.417.417,0,0,1-.472.472H120.36a.313.313,0,0,1-.354-.354ZM211.81-54.988v.59q0,.236-.472.472a6.889,6.889,0,0,0-1.239.885,4.691,4.691,0,0,0-1.239,1.711q-.354.944-4.6,12.862t-8.673,24.544Q191.16-1.3,190.806-.236,190.57,0,190.452,0h-7.2a.209.209,0,0,1-.236-.236l-18.29-51.212a4.691,4.691,0,0,0-1.239-1.711,6.889,6.889,0,0,0-1.239-.885q-.472-.236-.472-.472v-.236a.626.626,0,0,1,.708-.708h20.06a.626.626,0,0,1,.708.708v.236q0,.118-1.121.708a3.092,3.092,0,0,0-1.534,1.77q-.413,1.18.767,4.838L190.1-21.358q.236.236.354.236a.209.209,0,0,0,.236-.236q9.086-25.606,9.086-25.96,1.18-3.54.767-4.779a2.871,2.871,0,0,0-1.534-1.77q-1.121-.531-1.121-.649l.118-.59a.313.313,0,0,1,.354-.354l12.98.118Q211.81-55.342,211.81-54.988Zm17.582,46.02a13.387,13.387,0,0,0,.59,4.307,4.766,4.766,0,0,0,1.3,2.242,15.42,15.42,0,0,0,1.3.885q.59.354.59.59v.472A.417.417,0,0,1,232.7,0H212.282a.313.313,0,0,1-.354-.354l-.118-.59q0-.236.944-.649A4.684,4.684,0,0,0,214.642-3.6a8.988,8.988,0,0,0,.944-4.543V-29.854a3.47,3.47,0,0,0-.944-2.655,3.317,3.317,0,0,0-2.36-.885.417.417,0,0,1-.472-.472v-1.3q0-.826.708-.826A28.358,28.358,0,0,0,217.3-36.4a35.892,35.892,0,0,0,3.835-.826q1.416-.413,3.363-1.18t2.419-.885a3.069,3.069,0,0,1,.944-.118,1.732,1.732,0,0,1,.649.118.958.958,0,0,1,.472.413,4.129,4.129,0,0,1,.295.59,2.1,2.1,0,0,1,.118.767V-8.968Zm-7.67-31.152a7.576,7.576,0,0,1-5.31-2.065A6.566,6.566,0,0,1,214.17-47.2a6.566,6.566,0,0,1,2.242-5.015,7.576,7.576,0,0,1,5.31-2.065,7.725,7.725,0,0,1,5.428,2.065,6.566,6.566,0,0,1,2.242,5.015,6.566,6.566,0,0,1-2.242,5.015A7.725,7.725,0,0,1,221.722-40.12ZM237.888-.944q0-.236.944-.649A4.684,4.684,0,0,0,240.72-3.6a8.988,8.988,0,0,0,.944-4.543V-29.854a3.47,3.47,0,0,0-.944-2.655,3.317,3.317,0,0,0-2.36-.885.417.417,0,0,1-.472-.472v-1.3q0-.826.708-.826a17.542,17.542,0,0,0,5.9-1,30.559,30.559,0,0,0,5.251-2.419,18.754,18.754,0,0,1,3.245-1.652,3.07,3.07,0,0,1,.944-.118,1.732,1.732,0,0,1,.649.118.958.958,0,0,1,.472.413,4.129,4.129,0,0,1,.295.59,2.1,2.1,0,0,1,.118.767v3.658q3.54-4.012,10.384-4.248,6.136,0,9.794,3.658a12.757,12.757,0,0,1,3.894,10.266l.118,16.992a13.386,13.386,0,0,0,.59,4.307,5.153,5.153,0,0,0,1.239,2.242,10.549,10.549,0,0,0,1.239.885q.59.354.59.59v.472a.417.417,0,0,1-.472.472H262.432a.313.313,0,0,1-.354-.354v-.59q0-.236.531-.59l1.239-.826a4.185,4.185,0,0,0,1.3-2.006,10.571,10.571,0,0,0,.59-3.776V-23.836q0-5.192-1.888-6.962a3.915,3.915,0,0,0-3.068-1.18,4.155,4.155,0,0,0-3.186,1.416,8.667,8.667,0,0,0-2.124,5.074v16.52a13.387,13.387,0,0,0,.59,4.307,4.766,4.766,0,0,0,1.3,2.242,15.42,15.42,0,0,0,1.3.885q.59.354.59.59v.472a.417.417,0,0,1-.472.472H238.36a.313.313,0,0,1-.354-.354ZM284.5-32.686v-3.422q0-.944.59-.944a16.2,16.2,0,0,0,4.543-1.18,6.62,6.62,0,0,0,2.832-2.3,11.5,11.5,0,0,0,1.357-2.478q.354-1,.826-2.891a6.733,6.733,0,0,1,2.95-4.189,8.235,8.235,0,0,1,4.6-1.593q2.242,0,2.242,1.534v13.57l8.024-.118q.708,0,.708.944v3.068q0,.944-.708.944H304.44L304.2-16.4q-.472,9.794,2.832,10.03,2.242,0,4.484-2.6.236-.236.354-.236.826,0,.59.826a9.981,9.981,0,0,1-3.422,5.664Q306.092,0,300.546,0a10.217,10.217,0,0,1-7.08-2.537q-2.832-2.537-2.832-7.375v-21.83h-5.428Q284.5-31.742,284.5-32.686Zm36.521-1.3a18.577,18.577,0,0,1,14.1-5.782q8.614,0,13.865,5.428T354.236-20.3q0,.708-1.062.708H352.7l-21.594.118v.236a14.306,14.306,0,0,0,3.009,8.26,7.409,7.409,0,0,0,6.077,2.832,7.705,7.705,0,0,0,7.434-5.546,2.962,2.962,0,0,1,3.068-2.36,2.615,2.615,0,0,1,.826.118q2.36.472,2.006,3.186a13.513,13.513,0,0,1-5.9,9.735A19.226,19.226,0,0,1,336.182.708q-9.322,0-14.986-5.487t-5.664-14.809A20.1,20.1,0,0,1,321.019-33.984Zm14.691-.826q-1.77,0-3.127,3.009a20.958,20.958,0,0,0-1.593,7.493h9.44a16.448,16.448,0,0,0-1.3-7.611Q337.716-34.81,335.71-34.81ZM400.374-3.658q.472.236.236.472-.354,1.18-2.478,2.183a10.374,10.374,0,0,1-4.484,1q-5.546,0-7.906-4.6Q381.494.354,377.01.708h-1.416A14.262,14.262,0,0,1,363.2-5.487a24.235,24.235,0,0,1-4.248-14.691,27.878,27.878,0,0,1,1.593-8.555,17.512,17.512,0,0,1,5.605-7.611,15.552,15.552,0,0,1,10.266-3.422q.236,0,.826.059t.944.059a13.276,13.276,0,0,1,6.372,2.242v-9.322a3.748,3.748,0,0,0-1-2.773,3.165,3.165,0,0,0-2.3-1,.313.313,0,0,1-.354-.354v-1.416a.626.626,0,0,1,.708-.708,28.358,28.358,0,0,0,4.779-.413,32.354,32.354,0,0,0,3.776-.826q1.357-.413,3.363-1.18t2.36-.885a3.07,3.07,0,0,1,.944-.118,2.1,2.1,0,0,1,.767.118.959.959,0,0,1,.472.413,4.128,4.128,0,0,1,.3.59,2.094,2.094,0,0,1,.118.767v2.242q0,1.062-.059,5.133T398.368-38q0,5.074-.059,9.971t-.177,8.2V-16.4a76.836,76.836,0,0,0,.413,9.735Q398.958-3.894,400.374-3.658ZM379.606-5.074q2.124.118,3.363-3.422a33.849,33.849,0,0,0,1.475-9.558v-6.018q-.354-9.676-4.012-9.794-2.36,0-4.13,4.012a26.527,26.527,0,0,0-1.888,10.148,27.156,27.156,0,0,0,1.3,10.325Q377.246-5.192,379.606-5.074Z" transform="translate(200 77)" fill="#fffdec"/>
  <text id="Buy_and_sell_vintage_clothing" data-name="Buy and sell vintage clothing" transform="translate(219 112)" fill="#fffdec" font-size="29" font-family="Heebo-Regular, Heebo"><tspan x="0" y="0">Buy and sell vintage clothing</tspan></text>
</svg>
