<?xml version="1.0" standalone="no"?>
<!DOCTYPE svg PUBLIC "-//W3C//DTD SVG 20010904//EN"
 "http://www.w3.org/TR/2001/REC-SVG-20010904/DTD/svg10.dtd">
<svg version="1.0" xmlns="http://www.w3.org/2000/svg"
 width="2501.000000pt" height="2501.000000pt" viewBox="0 0 2501.000000 2501.000000"
 preserveAspectRatio="xMidYMid meet">
<metadata>
Created by potrace 1.14, written by Peter Selinger 2001-2017
</metadata>
<g transform="translate(0.000000,2501.000000) scale(0.100000,-0.100000)"
fill="#000000" stroke="none">
<path d="M24961 24893 c-40 -99 -185 -393 -248 -503 -52 -90 -198 -305 -271
-399 -257 -331 -593 -626 -916 -806 l-48 -27 -9782 -2 c-5379 -2 -9799 -6
-9821 -9 -22 -3 -62 -9 -89 -12 -166 -19 -454 -97 -636 -172 -79 -32 -266
-121 -300 -143 -8 -5 -51 -31 -95 -57 -78 -46 -185 -117 -222 -146 -10 -9 -65
-53 -123 -98 -198 -157 -449 -427 -626 -674 -160 -224 -327 -531 -434 -800
-66 -165 -147 -408 -164 -491 -3 -10 -12 -46 -21 -79 -9 -33 -19 -73 -21 -90
-3 -16 -9 -43 -14 -60 -5 -16 -12 -48 -15 -70 -3 -22 -7 -47 -10 -55 -2 -8 -6
-32 -9 -52 -9 -55 -17 -107 -22 -131 -2 -12 -6 -51 -10 -87 -3 -36 -8 -73 -10
-83 -1 -9 -7 -63 -11 -120 -11 -134 -10 -7987 0 -8097 5 -47 10 -98 12 -115 2
-16 7 -57 10 -90 4 -33 9 -69 11 -80 2 -10 6 -37 10 -60 37 -259 157 -713 234
-890 5 -11 30 -72 57 -135 172 -418 441 -831 747 -1147 105 -108 235 -228 311
-286 5 -4 24 -19 40 -33 41 -34 248 -174 315 -213 386 -221 759 -337 1190
-367 52 -4 4432 -7 9733 -7 l9637 0 5 -21 c6 -30 -2 -2784 -8 -2821 -3 -16 -8
-61 -12 -98 -3 -37 -8 -76 -10 -86 -2 -10 -6 -42 -10 -71 -4 -29 -9 -62 -11
-74 -3 -12 -7 -30 -8 -41 -8 -52 -19 -105 -31 -155 -8 -30 -16 -66 -19 -80
-14 -67 -56 -214 -85 -295 -17 -49 -33 -97 -35 -105 -2 -8 -11 -31 -19 -50 -8
-19 -39 -91 -68 -159 -298 -695 -847 -1258 -1454 -1490 -178 -67 -389 -114
-572 -127 -54 -4 -4458 -7 -9788 -7 l-9690 0 -90 53 c-223 132 -388 262 -590
464 -208 208 -436 500 -535 686 -14 25 -30 52 -36 60 -24 29 -170 327 -223
453 -30 70 -54 127 -55 127 -1 0 -1 -983 -1 -2185 0 -1202 0 -2185 1 -2185 1
0 12 28 24 63 101 278 293 645 462 884 263 373 560 657 922 882 l115 73 9778
2 c5378 2 9798 6 9823 9 25 4 63 9 85 12 84 12 113 17 225 42 384 84 746 256
1088 516 145 110 140 105 312 277 516 514 866 1175 1040 1965 16 72 31 147 34
168 3 20 9 54 12 75 3 20 7 48 10 62 5 28 10 67 19 160 4 36 9 72 10 81 14 76
18 747 18 3784 0 3111 -3 3657 -18 3770 -3 17 -7 50 -9 75 -14 123 -17 147
-43 305 -2 17 -11 62 -20 100 -8 39 -17 81 -19 95 -14 76 -81 314 -125 443
-195 575 -482 1052 -891 1477 -34 36 -135 130 -200 187 -367 322 -915 583
-1358 647 -19 2 -57 8 -85 12 -27 3 -59 9 -70 13 -11 3 -2364 7 -5230 8 -9572
5 -12000 8 -12030 16 -16 4 -68 14 -115 23 -326 59 -668 222 -960 458 -83 67
-307 287 -360 355 -19 24 -39 48 -45 55 -190 218 -426 656 -553 1031 -62 181
-135 490 -156 655 -3 25 -8 68 -11 95 -4 28 -8 61 -10 75 -24 160 -24 629 0
825 11 89 17 141 20 155 1 8 6 35 10 60 3 25 9 59 11 75 22 138 100 435 149
570 14 39 27 77 30 85 18 71 164 381 247 525 111 190 248 377 398 539 170 184
403 372 580 468 36 20 87 48 114 62 61 34 236 107 236 99 0 -3 6 -1 13 5 16
13 215 68 297 82 36 6 76 13 90 16 14 2 63 7 110 10 47 4 4453 7 9792 7 l9706
0 74 -43 c65 -38 245 -157 258 -170 3 -3 39 -32 80 -65 41 -33 89 -71 105 -85
56 -47 290 -287 337 -346 127 -158 157 -198 239 -321 48 -72 93 -142 101 -156
7 -14 39 -72 71 -130 75 -136 154 -305 208 -444 24 -62 47 -113 50 -113 3 0 6
977 6 2170 0 1194 -1 2170 -1 2170 -1 0 -21 -48 -45 -107z"/>
</g>
</svg>
