<svg id="Layer_1" data-name="Layer 1" xmlns="http://www.w3.org/2000/svg" viewBox="0 0 344.58 276.56"><defs><style>.cls-1{fill:none;}.cls-1,.cls-2{stroke:#231f20;stroke-miterlimit:10;stroke-width:3px;}.cls-2,.cls-3{fill:#231f20;}</style></defs><path class="cls-1" d="M403.88,294.05v31.21a38.55,38.55,0,0,1-38.54,38.55H77.72" transform="translate(-77.71 -111.72)"/><path class="cls-1" d="M96.12,174.13a38.55,38.55,0,0,1,38.54-38.55H422.28" transform="translate(-77.71 -111.72)"/><path class="cls-2" d="M403.88,251.23v42.82H134.66a38.55,38.55,0,0,1-38.54-38.54V174.13a38.55,38.55,0,0,0,38.54,38.55H365.34A38.54,38.54,0,0,1,403.88,251.23Z" transform="translate(-77.71 -111.72)"/><path class="cls-3" d="M422.29,160.06V111.72a41.61,41.61,0,0,1-36.81,23.86,41.06,41.06,0,0,1,36.81,24.48Z" transform="translate(-77.71 -111.72)"/><path class="cls-3" d="M77.71,388.28V339.94a41.59,41.59,0,0,0,36.81,23.87,41,41,0,0,0-36.81,24.47Z" transform="translate(-77.71 -111.72)"/></svg>